<svg xmlns="http://www.w3.org/2000/svg" height="800" width="1200" viewBox="-43.49985 -70.04175 376.9987 420.2505"><path d="M164.674 38.217a2.23 2.23 0 00.596-.151c-.206.049-.41.09-.596.15zm1.64-.858c0 .02-.01.027-.01.038.01-.006.01-.006.01-.011v-.027zM41.14 274.356c-.21.132-.437.237-.626.393.21-.147.421-.273.626-.393zm-4.697-120.64l1.187.629-1.187.843c2.05.236 2.502-.916 3.525-1.588-1.517.21-1.808-1.971-3.525.116zM133.901 49.17c-.014.036-.029.057-.029.087.036-.021.071-.048.107-.067zm-.028.087c-.386.22-.802.43-1.25.627.488-.148 1.065-.202 1.25-.627zm32.43-11.86c-.343.224-.6.498-1.033.669.458-.114.901-.244 1.033-.67zm1.373-1.97l-2.344-.242.185 1.424zm1.3 6.049l-.117-.252-1.83.927.364.312zm-2.455 2.02l-.182-.382-1.75.603.17.385zm-15.477 8.515l-1.192.849.98-.334zm16.378-11.194l-1.646 1.302 1.36-.46c.33-.256.661-.522.286-.842zm2.321-4.325c-1.297.145-1.218 1.3-2.46.539a1.986 1.986 0 00-.97.356c.088.553 3.038.697 3.43-.895zM192.67 15.68a.61.61 0 00-.324.404c.166-.107.288-.242.324-.404zm-24.138 19.155c.803-.358.032-.465-.228-.642-.362.315.372-.205.228.642zm14.386-9.926l-.115-.247-1.836.916.375.313zm8.785-7.872c.745-.145.554-.588.643-.953-.57.334-1.6.365-.643.953zm93.431 166.497l-1.033-1.014-.699 1.426c.56-.237 1.3-.875 1.732-.412zM52.02 136.004a1.41 1.41 0 01.103-.065l.37-.39zm128.443-109.08l-.177-.377-1.757.593.175.395zm5.661-2.375l-.309-.19-1.254.725.328.189zm-8.546 7.94c-1.729.139-3.078 1.64-2.604 2.658 2.911-.993-.619-1.851 2.604-2.657zm-9.273 1.706c.096-.087.28-.246.605-.517-.764.255-.786.404-.605.517zm1.55 6.533l1.066-1.106-.306-.18-1.262 1.168zm4.45-5.06l-2.734 1.384 1.926-.668zm-3.357 6.167l1.234-.714-.31-.194-1.255.724zM50.515 259.556l2.841-1.59c-1.13-.093-2.029 1.002-2.84 1.59zm232.255-51.732c.212-.416 3.063-5.59 5.148-9.29-.039.036-.099.052-.137.072.522-1.99-3.368-1.13-.73-3.865-2.836-4.882-2.907-9.191-6.642-12.25l1.574-.998c-.099-1.551-1.06-2.274-1.633-3.308l-.694 1.415c-1.045-.51-.268-2.13-.402-3.21-3.088-1.247-6.735-5.787-8.42-6.356-1.052-2.281-2.812-3.137-2.886-5.666l.218-.145c-7.825-7.29-13.668-13.266-22.968-18.736.087-1.97-3.3-2.621-.969-4.244l.343.168-4.757-4.07c-.3.61-.409 1.3-1.04 1.245-3.355-5.17-8.533-10.11-13.337-14.601l.154-.217c3.684-4.97 8.332-10.183 13.21-15.548.001-.01.035-.035.044-.056l.801-.9c5.971-6.588 12.197-13.388 17.29-20.258 16.163-17.902 32.282-37.198 21.905-54.742-13.33-8.58-35.067-21.357-57.659-12.16-.138-.338-.447-.6-.477-.888-2.896 5.092-1.408-2.916-6.156-1.867-1.978-1.391-4.915-1.422-5.868-3.011-3.76 4.076-3.19-2.59-7.418-1.005l-.665 1.987c-.172-1.851-1.466-.236-3.542-.836.043.57.911 1.01.11 1.722-1.994.533.105-.766-1.552-.937-.83.133-.98.77-1.456 1.234.175.378.154.827.8.749-1.179 1.87-2.578 1.763-4.49 3.008.391-.13 1.105-.52 1.48-.211l-.216.523c.986-.782 2.874 1.377 3.02-.298.351-.117.69-.288.974-.324v-.003c1.017-3.465 3.767.096 4.672.153-.804.05-.972.643-1.524.843l-.995-.698c-1.604 1.42 1.008.255.132 1.279-2.313.342-1.396 2.39-4.275 1.46l1.14-1.423c-.6.652-1.575.98-2.454.544.063-.082.105-.174.171-.28l-1.02.865c-1.544.083-.913-1.018-1.673-1.202-1.482.21-2.354 1.25-3.016 1.773l2.364.23c.898 2.493-3.2 1.383-3.7 3.768-1.752.596-2.034-1.527-3.882-.147-.606.095-.292.424-.363.692.691-.524 1.404-.725 2.305.117l-.685.978c-4.763.909-.51 3.915-4.744 4.543.233-.202.15-.51.222-.786-.527.317-1.446.37-.777.853-.009 0-.016.004-.016.004.016.02.042.02.068.046.023.01.04.033.085.057.018-.006.018-.006.036-.006.813.365 1.67-.066 2.467-.41.117.344.181.698.74.63-.118.213-.25.376-.386.543-2.439.898-6.363 1.912-7.199 3.96l2.226-.2c-1.29.304-2.093 1.214-2.709 1.697l2.36.23c.22.586.145.96-.089 1.254-.35.102-.754.063-1.163-.25-.654.517-2.527.868-2.326 2.282a.19.19 0 01.078-.021 2.031 2.031 0 00-.19.503c-1.75.596-2.034-1.516-3.885-.154-.612.108-.3.43-.365.699.678-.5 1.373-.705 2.242.07l-3.625 1.6-.174-.386c.428-.312.832-.688 1.214-1.007l-1.238-.301-.335.523-.043-.108c-1.03.199-1.689.729-2.045 1.43l-1.767-.422c-.406-.897 1.655-1.307.661-2.001-2.37.227.483.578-.56 1.23-2.288.924-2.256-.998-2.742-1.574-1.244.057.715 5.916 1.834 9.979l-.29.099c-.103-.704-2.427-.362-1.287-1.343-.639.082-1.24.726-1.92.217.136-.181.217-.516.853-.582l-.285-.642c-3.115 1.068-1.048-2.298-1.789-1.45l-1.125.97-.987-.69c-.027.45-.939.907-.57 1.225.64-.066.714-.393.86-.59l1.757.443-.95 1.357c-.24-.066-.705-.066-.613-.382l-1.952.66 1.761.436-.494.899c-.845 1.053-2.268.853-3.357.565.092-.16-.31-.688-.675-1.093-6.562-2.294-4.269-1.86-8.474.606l2.107 3.622c-1.009.524-2.255.725-3.624.759-8.356-7.784-18.169-17.26-28.978-28.924-5.756-2.05-7.728-7.786-13.57-9.636C96.967 8.79 84.95 8.44 77.233 4.18c-12.297-7.76-27.407-3.094-41.142.988C22.096 8.856 5.961 16.522.554 32.939c-4.943 34.207 24.375 49.017 40.581 69.72 6.492 7.72 14.057 14.24 22.175 20.113-.924.709-1.614 1.489-1.989 1.785 1.09 2.423-7.25 4.834-5.6 6.49-1.034.204-.999.775-1.769 1.044.972-.084 2.467-.777 4.05-1.327-.68.708-1.214 1.305-1.748 1.859-1.839.484-4.846 2.79-3.932 2.815.33-.168.626-.23.925-.235-.334.235-.704.482-1.125.736l-.296.309c-.372-.057-.803.127-1.439.895l.404.213-.118.135.735.389-1.02.738a.41.41 0 00.096.008c-1.52.78-2.59 2.09-3.11 2.512.278.593-.029 1.188-.617 1.78l-.216.113.141-.047c-1.836 1.758-6.127 3.407-4.91 4.629-1.038.212-.987.777-1.772 1.048 1.732-.148 5.084-2.173 7.627-2.022-.078.33-.156.663-.596.663-.376.357-1.424.572-1.394 1.036l-.05.033a1.892 1.892 0 01-.239.464l-1.932.429c-1.106-.953-6.193 2.704-5.042 2.76 1.444-.79 2.591.735 3.116-1.065l1.27.229c-.966.744-1.86 1.44-2.093 2.093a2.64 2.64 0 00-.698.319c.205-.02.421-.091.684-.221a.632.632 0 00.026.504c-1.162.53-1.655 1.27-2.073 2.006a6.122 6.122 0 01-1.057.257l.268-.396c-.52.333-1.67.276-1.835.919a58.68 58.68 0 012.513-.606c-.484.86-.956 1.689-2.362 2.166l.56.254c-2.23 4.01-7.874 5.936-9.97 9.755-2.98 1.313-3.592 4.464-5.905 6.29l1.496.215a.482.482 0 01-.123.066l.566.242c-2.236 4.006-7.879 5.937-9.976 9.753-2.99 1.326-3.597 4.473-5.91 6.292l3.613.544c-.682.969-1.418 1.812-2.79 2.275 1.731-.147 3.561-1.07 5.355-1.09l-2.714 3.43 6.033-2.063-2.03 2.468 3.588-1.511c3.284-.685.981 2.167 2.357 2.722 3.428-.861.5 3.079 4.235 2.396l-2.148 2.207.964-.326c1.703 1.772-2.204 5.032-2.356 6.7l-.695-.056c-1.54 1.56.5 1.603.987 2.173.402.896-1.218 1.29-1.81 1.956l2.113-.291c-1.228 1.742-2.086 2.338-3.69 3.763l.972-.328c.261.063.704.056.632.375-.027.458-.802.715-1.198.853l.298.635c-.395.135-3.33.113-3.2 1.383 1.942.819.59-1.668 2.224-1.046.03 2.044-4.466 4.029-5.596 6.479-1.444 2.27.025 3.533-3.464 5.76-.554.778-1.978 2.592-.164 2.118L4.62 238.18c3.591-.487.626 2.89 1.948 3.322 4.393.27.8 4.739 5.042 4.18-.427 1.027-1.808 1.942-.884 2.512 1.885-2.274 2.975.613 5.467-.828.617.379.021 1.026-.396 1.612l2.914-1.005c1.366-.467 1.635.63 2.456.933l-1.253.724 2.235-.025c-.356.704-1.126.97-1.532 1.556 1.274-.147 1.763-1.042 2.627-1.633 2.038-1.438 5.426-1.414 7.292-1.758l-1.929 1.689 5.331-2.11c.091.71-.649 1.54-1.929 1.687l.407.898c1.881-.804 3.1-2.102 5.247-1.798-.62 1.1-1.618 1.886-2.61 2.66 1.068 1.85.024 5.018-1.608 5.859l2.738.102-.66 1.995c2.537.168 3.101-1.063 5.048-1.721-1.202 2.778 2.65 2.344 3.618 2.005 2.838-.666 5.484-2.766 8.773-1.96 2.968-.875 2.586-.74 4.727-2.942l1.014.24c.318-1.281 3.33-1.577 3.663-1.84l-.755-.191c1.917-.204.73-1.854 3.166-1.383l.016.01-.258.389 2.498-.422c.575-.14 1.038-.14 1.435-.055-2.97 1.207-7.416 1.157-8.876 4.217l2.04.046c-.956 1.49-3.247 1.594-5.2 2.127 2.646-.672 4.98.514 6.578-1.567-1.367 1.933-1.88 3.296-5.052 4.229l2.838-.681c-1.67 1.148-2.032 2.838-2.293 4.23-1.15-.19-2.39-.365-3.155 1.333l1.947-.665c-.514 5.333-9.466 2.927-11.655 7.509l2.046.044c-.947 1.508-3.25 1.607-5.2 2.146 2.64-.678 4.987.504 6.577-1.576-1.367 1.935-1.88 3.298-5.048 4.225l2.848-.676c-1.728 1.175-2.065 2.92-2.324 4.343 4.93-1.535 8.63-4.281 10.881-7.26 3.211-1.841 6.787-3.352 8.34-6.4-.966-4.1 8.365-2.85 9.773-7.166-2.368-1.262 1.628-3.357-.776-3.72.72-.394 1.141.057 1.834.102-.472-.566 3.963-1.188 2.155-2.2 8.124-4.395 12.36-10.405 20.056-15.261 6.384-6.742 15.776-13.794 24.245-20.373 6.033-2.946 19.965-15.08 36.05-29.937 2.595 2.074 4.902 4.562 8.107 5.862-1.026 8.777 9.124 6.716 11.147 11.46l.688-1.415c.514 3.002 2.937 2.937 4.758 4.072l-.492 1.018c6.793 2.55 7.708 12.283 16.247 13.94 6.226 15.336 23.993 17.244 34.912 27.842 5.22-2.226 8.811 2.029 13.155 2.903.382-4.332 5.64.494 5.705-.98l-.157-.577 4.06 1.482c-.98-1.992-4.408-1.646-4.826-4.368-1.945-2.743-6.91-2.384-8.057-5.11.254.086.672.172.731-.19l-.556.234c-.08-.036-.146-.057-.198-.086-.179-.454-.25-.975-.21-1.613.262.48.885.855.964 1.465l.82-.342c.52 3.288 2.393 2.074 3.702 2.692-1.386-1.604-3.106-2.877-4.645-4.59l-.139-1.421 2.602.017-1.132-3.063c2.698.309 6.356 2.6 7.65 5.742 6.152-1.011 12.194 4.44 17.365 7.216.29-.603.593-1.223 1.225-1.155l.88 2.187c1.372-.591 2.603 1.779 3.857 1.882l.164-1.675.88.424c1.065-1.726.007-2.245-.087-3.802l3.822.61c-.155-.567-.759-1.114-.184-1.842.467-.527 1.073.027 1.433.2-.04-1.26-.469-5.741-1.35-7.933 1.047.51 1.54-4.511 3.631-3l-.234-.854 2.1-.744c-.018.498.223.874-.144 1.188l.35.176.493-1.011-.359-.174c4.111-1.258.11-4.218.468-6.3l2.41.423c-1.769-2.617-3.776-3.84-4.25-7.332l.648-.444c-1.977.046-2.115-2.782-3.682-4.05l2.223-1.421-.385-1.446-.638.436c1.647-2.943-1.759-3.108-.973-6.482.275-.117.66-.44 1.174-.18zM58.69 263.517a22.608 22.608 0 002.417-.91c-.473 1.203-1.4 1.084-2.417.91zM161.016 57.156l.447-.521c.014.493-.108.704-.447.52zm13.841-15.546c-.384.225-.914.37-1.438.564.03-.5-.08-.883 1.438-.564zm-.259 2.796a4.88 4.88 0 01-.979.056l1.123-.386a2.02 2.02 0 01-.144.33zm.724-.537c-.206-.177-.459-.255-.757-.271 0-.112-.039-.255-.11-.451-.06-.392 1.134-.195 2.266-.344zm4.146-5.004c-.322.02-.662-.03-.988-.19.07-.086.116-.17.162-.278l-1.009.863c-1.467.079-.978-.918-1.58-1.17l.9-.072c-.316-.19-.764-.184-.88-.442.421-.343.863-.693 1.3-1.037.242-.046.471-.046.626.087l-.2.513c.585-.458 1.476.109 2.143.292-.622.405-.915.688.24.802-.247.272-.47.474-.714.632zm-1.409-2.852c.79-.582 1.608-1.135 2.488-1.548-.725.825-1.536 1.12-2.488 1.548zm5.345-.991a3.85 3.85 0 01-.99.308c.294-.287.626-.364.99-.308zm-1.17 1.685l-.42.602-.77.334zm-1.422.14c.065-.021.132-.046.193-.07a2.085 2.085 0 01-.217.146c.008-.025.008-.046.024-.076zm.808 2.832c-.167.082-.368.12-.626.12.436-.697.69-1.585 1.604-1.21-.23.435-.565.795-.978 1.09zm.988-2.715l.181-.206-.479-.117 1.06-.825.87.442zm4.316-9.147c-.267-1.09 2.16.283 1.472-1.238-.07-.581 2.565.117 3.694-.86.207-.287.375-.57.467-.862-.065.392-.23.657-.467.863-1.01 1.357-3.117 2.497-5.166 2.097zm3.875 3.074a2.35 2.35 0 01-.167-.191l.313.028zm1.676-3.541c-.11.385-.313.75-1.149.734l1.15-.734c.138-.571.052-1.198 1.272-.833zm4.62-1.03l-.545.422c.13-.141.32-.286.544-.421l1.126-.89-.755-.174 1.314-1.053c1.126.849-.638 1.455-1.685 2.117zm25.271 201.467c-.267.198-.463.475-.492.955-4.072-3.233-9.009-6.903-12.142-9.433 1.3-.865-1.203-1.09-1.308-2.647 1.96 2.213 4.336 5.378 7.78 4.55-1.809 2.378 1.968 2.217 2.122 2.796l.495-1.027c2.18.54 2.502 4.003 3.545 4.806.555-.411 1.43-.444 1.923-.862-.899 1.053-1.474 1.188-1.923.862zm16.613 11.82c-1.359-1.667-3.736-2.583-4.103-4.51-1.62 1.974-2.093-1.517-3.887-1.402l-.333-.657c.586 1.037 3.957-.072 2.791 1.862 1.11 1.298 6.161-3.268 4.215 2.063l.385 1.435c.48-.52.898-.065 1.426.2zm3.331 1.689c0-.027 0-.048.011-.063l.03.007a.112.112 0 00-.04.056zm-198.79 30.65l-1.58.982 1.366-.47zm135.122-233.55l.45-.37a.824.824 0 00-.45.37zm-11.286 5.974c-.11.087-.237.18-.343.276h.014c.231-.065.31-.17.33-.276zM47.062 264.388l2.523.627c-1.023.207-1.244.717-1.933 1.686 1.233-.27 2.421-1.11 3.435-.872-.804.713 1.351 1.007-.403 1.608 1.42 1.143 1.174-1.87 3.121-2.54l-2.33.799.741-.85c-1.097.083-2.343-1.705-5.154-.458zm242.06-69.88c-.462.708-.272 1.605-.272 2.406.553-.97.974-1.698 1.15-1.972zm-.27 2.406c-.288.49-.605 1.033-.934 1.62.771-.38.92-.972.933-1.62zM53.566 264.379c.53-.32 2.071-.402 1.778-1.031l-1.953.655zm3.901-8.997l-1.584.97 1.368-.45zM149.346 53.1c-.119-.114-.139-.13 0 0zM55.093 257.808c-.22.106-.442.214-.636.362.214-.138.421-.261.636-.362zm1.48 3.786l3.134-1.521-5.466.844zm-6.058-2.038l-.56.315c.194-.061.378-.174.56-.315zM32.59 159.602l1.377-.461 2.421-1.573zM180.985 28.084c.21-.077.293-.174.318-.282-.12.08-.236.175-.352.267zm-2.262 4.173a.6.6 0 00-.32.397c.176-.1.301-.233.32-.397zM149.346 53.1c.085.094.211.235.368.4.01.009.036.02.063.037a10.14 10.14 0 01-.43-.437zm120.525 112.693a113.25 113.25 0 01-1.073-.99c.14.548.363.98 1.073.99zM178.551 29.64c.963-.19 1.687-.966 2.401-1.572l-1.237-.303zm-5.212 8.864c.032-.062.061-.124.081-.175l-.575.05zm95.263 125.43l-.436.289c.211.188.422.392.632.58-.069-.284-.124-.58-.196-.87zm-47.895-144.72c.093-.155.185-.335.293-.535-.24.2-.309.359-.293.535zm-24.716 1.819l.744-.843-.512-.124-.67.972zm-3.398.79l.448-.37c-.233.084-.35.229-.448.37zm3.135-1.875l.496.119a.569.569 0 00-.496-.12zm51.87 226.29c.375.435.74.889 1.04 1.376-.244-.786-.607-1.17-1.04-1.376z" fill="#ED3024"/><g fill="#FFF"><path d="M133.728 77.016c-2.8.515-5.262 3.13-5.473 5.838-.216 2.708 1.887 4.47 4.692 3.948 2.816-.525 5.263-3.151 5.488-5.854.205-2.704-1.89-4.468-4.707-3.932z"/><path d="M153.55 89.017c-1.163.229-2.519.476-7.736 6.577 1.28-2.363 1.698-4.286.125-5.346-1.639-1.115-4.496-.256-6.094.789-.987.64-1.003.965-1.178 2.188-.134.8-.875 2.588-1.378 3.598l-1.587 3.396c-6.019 10.47-9.368 13.332-10.366 14.517-1.005 1.116-1.849 1.758-2.435 1.87-.443.089-.626-.235-.586-.794.072-.858.381-2.042 1.07-3.583 1.145-2.604 2.96-6.46 4.383-9.048.777-1.544 2.77-5.178 2.77-5.178 1.89-4.216-1.692-5.693-3.782-5.38-.607.094-7.195.859-14.734 2.145 4.121-17.236 3.772-14.672 8.06-25.721 2.084-5.385 1.85-6.62.091-8.663-1.769-2.03-1.444-4.287-3.449-4.461-4.666-.417-20.802 22.874-33.794 45.515-6.11 1.838-12.238 4.018-17.882 6.574-3.742 1.715-3.028 4.834-2.694 6.437.475 2.236 2.904 3.229 4.836 2.127 2.93-1.645 6.285-3.207 9.876-4.667-.112.237-.148.365-.112.349-4.918 9.267-10.442 22.197-12.25 27.945-1.014 3.21.596 6.074 3.35 7.335 2.757 1.254 4.635-.08 5.56-4.378 1.155-5.362 8.136-21.954 15.2-35.364 0 0 .042-.054.083-.138a260.242 260.242 0 0112.642-3.668c-2.487 10.556-3.119 14.923-3.095 18.557.036 3.575 1.348 7.75 5.258 7.184 3.911-.571 3.272-4.237 3.7-7.641.991-7.796 1.151-11.176 2.996-20.093.047-.015.1-.117.155-.273a397.782 397.782 0 0110.638-2.321c-.36.792-.776 1.66-1.219 2.574-1.716 3.484-3.567 7.774-4.744 10.869-1.119 3.094-1.737 5.529-1.896 7.595-.364 4.567 1.568 7.025 4.991 6.38 2.564-.476 6.48-3.934 10.893-10.812-.509 1.646-.812 2.988-.843 3.826-.132 3.566 1.628 6.495 7.384 2.604.571-.388.65-.966.665-2.096.308-3.85 1.86-8.953 5.297-14.168 2.683-4.016 4.57-6.297 7.032-7.347 4.352-1.894 7.126-1.301 9.56-4.257 2.376-2.866-2.579-5.96-4.76-5.554zm-50.11 7.353c-3.047.61-6.258 1.32-9.563 2.112 5.693-10.14 12-20.32 17.868-28.306-2.914 7.17-5.864 16.795-8.305 26.194zm123.081 55.363c-1.252 2.042-2.37 3.754-3.974 5.51-1.454 1.585-2.6 2.217-3.226 1.983-1.662-.6-.719-2.97.983-6.46a122.693 122.693 0 012.95-5.568c1.46-2.37 1.761-3.038 1.87-3.884.147-1.215-.615-2.021-2.874-2.957-1.438-.636-1.56-.754-2.146-2.415-.816-2.05-2.559-3.066-4.7-2.77-3.234.452-8.32 4.377-12.817 9.933-1.643 1.863-7.235 9.4-7.924 10.354l-.878 1.162c-2.438 3.346-3.126 4.139-4.204 5.33-1.077 1.054-1.944 1.663-2.542 1.742-.435.064-.62-.268-.537-.827.108-.852.475-2.014 1.24-3.522 1.266-2.548 3.264-6.313 4.805-8.823.85-1.52 2.311-4.247 2.426-4.541l.826-1.445c2.124-3.795-1.126-5.626-3.565-5.441-.954.087-2.555.775-3.336 1.373-.64.424-.727.595-.91 1.452-.212 1.079-1.663 4.236-3.164 7.02-1.887 3.407-3.938 7.585-5.268 10.634-1.25 3.025-1.99 5.442-2.256 7.503-.58 4.535 1.23 7.098 4.676 6.613 2.585-.358 5.331-2.814 8.725-6.716 1.075-1.25 2.283-2.94 3.434-4.711-.623 5.057 1.898 8.553 6.208 7.947 2.86-.395 5.288-2.502 8.401-5.93.411-.404.56-.576.79-.602.22-.047.418.145.435.56l.151.475c.432 2.31 2.163 3.39 4.668 3.04 3.088-.42 6.47-2.722 10.187-7.413 2.988-3.696 4.18-6.402 4.81-8.08.713-1.93-1.982-2.62-3.264-.526zm-17.629 6.209c-2.169 2.88-4.204 4.697-5.379 4.863-.73.102-1.145-.613-1.007-1.677.33-2.617 4.58-10.542 7.752-14.47 2.151-2.74 4.423-4.661 5.437-4.794.816-.114 1.12.326.977 1.39-.297 2.345-4.843 10.949-7.78 14.688zm-11.855-23.695c2.805-.524 5.262-3.144 5.476-5.847.213-2.71-1.887-4.465-4.698-3.942-2.813.515-5.258 3.136-5.484 5.838-.205 2.719 1.902 4.48 4.706 3.95zm-41.222 11.651c-.393.057-.79.109-1.202.174 4.142-17.266 3.792-14.697 8.078-25.741 2.091-5.394 1.85-6.633.08-8.677-1.756-2.03-1.449-4.28-3.444-4.461-4.65-.416-20.732 22.77-33.703 45.378-6.095 1.829-12.215 4.04-17.828 6.699-3.514 1.658-2.794 4.79-2.46 6.38.467 2.248 2.76 3.265 4.558 2.192 2.904-1.715 6.258-3.332 9.852-4.816-.16.343-9.86 19.58-12.44 28.447-.943 3.229.604 6.08 3.364 7.33 2.75 1.259 4.63-.068 5.551-4.363 1.15-5.357 10.385-26.824 15.426-35.753 4.26-1.366 8.537-2.567 12.513-3.621-.006.082-3.093 12.45-3.109 18.759-.008 3.574 1.343 7.745 5.247 7.183 3.928-.572 3.276-4.241 3.71-7.647.998-7.796 1.152-11.17 2.993-20.082.065-.036.147-.184.223-.427 1.018-.247 2.006-.47 2.921-.67 4.883-1.066 6.268-1.02 6.604-4.85.203-2.374-5.25-1.717-6.934-1.434zm-1.472-24.451c-2.9 7.159-5.84 16.752-8.283 26.13a256.716 256.716 0 00-9.506 2.062c5.69-10.108 11.95-20.236 17.79-28.192z"/><path d="M162.018 177.224c-2.532.268-8.043-.98-8.952-5.401-.335-1.43 1.748-5.261 2.18-5.92.743-1.154 1.912-.47 2.291.108.87 1.274 5.514 5.434 8.207 2.746 1.73-1.734-.954-4.01-2.074-5.85-4.139-6.818 1.448-14.734 3.21-16.48 3.82-3.755 6.512-4.102 8.41-4.153 5.433-.182 7.31 2.899 6.898 4.718-.458 2-1.512 3.173-2.253 3.957-.517.58-2.05.735-2.527.035-1.155-1.691-1.827-3.96-5.188-2.604-2.688 1.088-2.844 4.754-2.269 6.548.941 2.867 4.76 5.022 4.725 9.157-.083 10.667-9.453 12.8-12.658 13.139z"/></g></svg>