<svg xmlns="http://www.w3.org/2000/svg" height="800" width="1200" viewBox="-44.99997 -24.916075 389.99974 149.49645"><g fill="#e41b47"><path d="M51.9602 99.6043c-13.9355-.5504-24.7687-2.4932-33.882-6.0762-2.0386-.8015-6.0505-2.8058-7.7966-3.8952C6.18 87.0739 2.6498 83.6708.991 80.6765l-.3697-.6673.5758.6673c4.4479 5.1543 9.8584 8.3526 18.601 10.9957 11.6666 3.527 30.0147 4.9709 47.576 3.744 9.2948-.6494 28.2176-2.9865 42.171-5.2085 21.9356-3.493 47.4418-9.12 66.1927-14.6025.8441-.247 2.7058-.7875 4.137-1.2015 8.353-2.416 20.094-6.2362 29.1156-9.4736l2.8921-1.0378 1.135 1.1926c.6241.6559 1.4996 1.4582 1.9455 1.7829.4459.3247.8107.625.8107.6674 0 .08-4.2714 1.7375-7.807 3.0304-8.69 3.178-21.7188 7.4804-28.559 9.4307-.8807.251-2.352.676-3.2695.9444-8.7966 2.5724-22.2076 5.9147-32.8962 8.1984-27.0183 5.7727-55.3205 9.5603-77.8697 10.421-3.0363.1158-10.9387.1419-13.412.044z"/><path d="M110.0115 24.1387c-3.9352-.0004-6.4829.851-9.668 3.2324-1.125.8411-1.9064 1.5727-2.8437 2.6582l-.6328.7305V24.959h-7.7402v61.123h8.0078V75.5762c0-9.8101.0149-10.484.2207-10.1758.8741 1.309 3.5142 3.1983 5.3847 3.8535 1.1243.394 3.799.9216 5.459 1.0781 3.5598.3357 7.8001-.5093 10.8223-2.1582 6.4092-3.497 10.2267-9.1214 11.4375-16.8457.3311-2.1128.3264-6.9308-.01-8.9531-.62-3.7283-1.736-6.8982-3.1934-9.0742-1.5992-2.3876-4.5438-5.1796-6.834-6.4805-3.2259-1.8324-6.5211-2.6812-10.4101-2.6816zm.043 7.9883c.8951-.041 1.7688.0195 2.6133.1757a11.0753 11.0753 0 012.4336.748 11.3316 11.3316 0 012.1992 1.2774c.6874.5095 1.327 1.1002 1.9082 1.7656.5811.6655 1.1043 1.4052 1.5605 2.213.4563.8076.8454 1.6829 1.1582 2.619.3129.9363.5484 1.9335.6993 2.9845.1854 1.2921.1852 4.2827 0 5.7734-.1993 1.6034-.5848 3.1006-1.1348 4.4648-.55 1.3643-1.264 2.5938-2.1191 3.6621-.8552 1.0683-1.8518 1.9759-2.9668 2.6915a11.6061 11.6061 0 01-3.6778 1.5468c-.8419.1939-1.6891.3-2.5332.3223a12.5354 12.5354 0 01-2.5078-.1856 12.3675 12.3675 0 01-2.4082-.6816 12.3606 12.3606 0 01-2.2402-1.166 11.3803 11.3803 0 01-2.4278-2.1484c-.705-.83-1.3046-1.7721-1.7968-2.8204-.4922-1.0482-.8782-2.2034-1.1524-3.459-.2741-1.2555-.4373-2.6106-.4883-4.0624-.0549-1.566.0219-2.921.254-4.1973.232-1.2763.6204-2.4738 1.1875-3.7246.3871-.854.8941-1.6787 1.496-2.4512.602-.7725 1.2989-1.4942 2.0606-2.1387.7617-.6445 1.5885-1.2116 2.455-1.6816.8667-.47 1.773-.8427 2.6895-1.0918.9273-.252 1.8432-.3945 2.7383-.4355zM41.9214 69.8936c.1062-.1621.5768-.8478 1.0457-1.5238.4689-.676 1.6695-2.4174 2.6681-3.8697 4.5865-6.6702 8.581-12.4598 10.1821-14.7577.9614-1.3797 1.8669-2.7127 2.0122-2.9623l.2642-.4537-.4098-.5742c-1.872-2.6235-10.8583-15.3441-12.7558-18.0566a282.1678 282.1678 0 00-1.0385-1.468l-.665-.9341 4.7617-.0351c3.7001-.0273 4.7966.003 4.9184.1334.2506.2695 7.467 10.6749 8.6988 12.5429.6539.9916 1.0792 1.7636 1.0224 1.8556-.0555.0897-.0403.1222.0352.0756.0729-.0451.2679.159.4334.4534.1655.2945.3503.5172.4108.495.1306-.0479 2.1507-2.8362 3.7515-5.1782 3.0358-4.4413 4.3413-6.2742 4.4158-6.1997.0335.0335.061-.0166.061-.1113 0-.0947.6198-1.0556 1.3774-2.1353l1.3775-1.963h4.658c3.6917 0 4.6369.0345 4.5562.1668-.056.0918-2.867 4.1562-6.2468 9.0323-7.1616 10.3322-8.2135 11.865-8.2135 11.9686 0 .0421.9216 1.4372 2.0481 3.1 1.1265 1.6629 3.3878 5.0052 5.0251 7.4273a5247.148 5247.148 0 004.6308 6.8395c.9096 1.3395 1.6095 2.4355 1.5553 2.4355-.0542 0-.0052.075.1086.1668.1688.1359 2.2225 3.0728 2.5637 3.666.0729.1269-.9357.163-4.5615.1637l-4.655.0009-4.7494-7.1163c-2.6121-3.914-5.2836-7.801-5.9367-8.638-.653-.8368-1.2962-1.689-1.4293-1.8935-.133-.2045-.2916-.3547-.3524-.3336-.0607.021-.7008.909-1.4223 1.9734-2.0849 3.0753-3.5728 5.2449-5.1709 7.54-.8177 1.1744-1.8165 2.6157-2.2196 3.2029l-2.1766 3.172-1.4437 2.1044-4.6642-.01-4.6641-.01.1931-.2948zm182.5935.0248c-2.7186-.3243-5.7376-1.144-7.5005-2.0364l-.5609-.284 4.5518-1.7225 4.5517-1.7226 1.836.167c4.4219.4022 7.8638-.6147 10.3626-3.0615.7354-.7201 1.3318-1.7687 1.4594-2.5658.044-.2738.1473-.5528.2299-.62.0826-.067 1.6378-.7582 3.456-1.536 1.8183-.7776 3.5425-1.5346 3.8317-1.6821l.5257-.2682.1537.5672c.1979.7303.0857 2.981-.2005 4.0219-.6529 2.375-1.6835 4.1893-3.2356 5.696-2.7153 2.6362-5.5673 4.015-10.117 4.8912-1.284.2473-7.6823.354-9.344.1558zm44.3063.0614c-2.8146-.3013-5.3767-.93-7.4007-1.8158-3.6203-1.5845-7.3447-6.5866-8.3902-11.2684-.1498-.6707-.582-.5366 3.7802-1.1728 1.7615-.2568 3.3314-.497 3.4885-.5337.2423-.057.2997.01.3786.4327.203 1.089 1.3343 3.6922 2.0736 4.7707.7722 1.1268 4.2104 2.863 7.1416 3.6067 1.6762.4252 3.033.5242 4.6574.3398 2.6377-.2995 4.699-1.0358 6.1019-2.1797.4148-.3383.7952-.5741.8452-.5241.05.05.0709.03.0465-.045-.0245-.075.179-.4095.4523-.7433.589-.7197 1.1427-1.8773 1.282-2.6805.1209-.697-.3564-2.682-.8446-3.513-.563-.9582-1.4325-1.7048-2.4427-2.0975-1.591-.6185-5.563-1.7943-8.6425-2.5586-4.3727-1.0851-8.9782-2.4402-9.2975-2.7356-.1156-.1069 5.2037-3.1595 5.4589-3.1328.0959.0101.1505-.0203.1214-.0674-.0291-.0472.7071-.5064 1.6362-1.0207l1.6892-.935.734.2428c.4037.1335 1.6348.4514 2.7358.7063 4.8905 1.1324 7.1622 1.8537 9.9991 3.1749 2.2606 1.0528 2.9888 1.5412 4.1564 2.7877 1.928 2.0584 2.8296 4.6677 2.6854 7.7712-.0886 1.9069-.4363 3.1603-1.4626 5.2714-.6041 1.2429-.8254 1.5449-1.9576 2.6723-1.4103 1.4044-1.963 1.8277-3.5542 2.7226-1.897 1.0669-4.014 1.801-6.5969 2.2877-1.1062.2084-7.5382.3805-8.8746.2374z"/><path d="M23.3865 23.8965c-2.0726-.1472-4.7314-.0164-6.7285.33-6.0805 1.055-11.321 4.9815-14.0742 10.543C.8938 38.1831.1783 41.332.0232 46.045c-.1687 5.1286.578 9.2005 2.3711 12.918.4227.8763.7167 1.3402.8125 1.2812.0917-.057.1148-.0334.0567.0606-.1425.2305 1.165 2.0455 2.4453 3.3926 3.034 3.1926 7.218 5.2295 12.1015 5.8945v.002c1.609.2194 5.5317.2561 7.4121.0703 3.159-.312 5.9277-1.077 8.2872-2.289 3.1107-1.598 5.8167-4.555 7.5566-8.2598.6149-1.3092 1.4041-3.3317 1.3223-3.3887-.0205-.0143-1.6292-.1918-3.5743-.3926-1.945-.2009-3.7173-.3946-3.9394-.4316-.3888-.0643-.4203-.0326-.8184.8633-1.017 2.2889-2.8087 4.771-4.2168 5.8379-1.1077.8395-2.5124 1.4776-4.0097 1.8222-1.7083.393-5.7815.4247-7.3516.0567-2.0256-.4748-3.4957-1.209-5.2734-2.6309-1.0627-.8499-1.7174-1.6377-2.5723-3.1016-1.144-1.9589-2.1068-5.2418-2.3242-7.9218l-.0899-1.1134 16.7989-.0175c9.24-.01 16.938-.0319 17.1054-.0489.1675-.0175.3477-.074.4004-.127.1982-.1993.077-5.5693-.1562-6.9413-.8811-5.1847-2.7044-8.9936-5.752-12.0156-3.4833-3.4543-7.7392-5.2783-13.2285-5.668zm-1.08 5.92c1.5845.0956 2.923.3407 4.1503.7831 1.2273.4424 2.344 1.0816 3.4805 1.9668.7739.6028 1.4115 1.263 1.9648 2.0508.5533.7877 1.0226 1.703 1.457 2.8203.4483 1.153.993 3.4415 1.088 4.5703l.0585.7012H8.4861l.0938-.834c.134-1.2128.3986-2.3722.7851-3.459.3865-1.0868.8937-2.1009 1.5098-3.0273.616-.9265 1.3412-1.7645 2.164-2.4961a12.5998 12.5998 0 012.75-1.8594 11.5572 11.5572 0 013.0665-1.0293c1.0775-.2012 2.2186-.2619 3.4511-.1875zm113.5289 17.8303V25.4937h7.8737v2.6023c0 1.4313.0338 2.6023.0751 2.6023s.563-.5155 1.1595-1.1455c1.2445-1.3148 2.287-2.099 3.7846-2.8469 3.434-1.715 7.7134-1.5886 11.5624.3413.7681.3851.8813.4858.7683.6835-.0729.1275-.3441.9525-.6027 1.8333-1.0852 3.696-1.174 3.9497-1.359 3.8787-.771-.2958-3.1358-.9012-3.9944-1.0226-3.0485-.4308-5.6755.5507-8.0252 2.9983-1.7468 1.8194-2.5857 3.629-3.0474 6.5732-.1999 1.275-.2345 3.0545-.2846 14.63l-.057 13.1785h-7.8533V47.6468zM180.41 23.9004c-5.5111.3881-9.4259 2.0492-13.0723 5.5469-4.167 3.9969-6.1774 9.099-6.4883 16.4648-.2056 4.8714.6698 9.6065 2.42 13.0977 2.9814 5.9479 8.3504 9.6204 15.4706 10.582v-.002c2.6088.3523 6.9785.2311 9.8086-.2715 2.5043-.4448 5.6965-1.682 7.4531-2.8887.9484-.6514 2.8963-2.584 3.7618-3.7324 1.0807-1.434 2.1434-3.3698 2.8574-5.2012.334-.8568.6074-1.6098.6074-1.6738 0-.064-1.605-.2831-3.5684-.4863-1.9634-.2031-3.73-.3996-3.9238-.4356-.3328-.062-.4015.0297-1.2383 1.6329-1.694 3.2455-3.232 4.9751-5.3242 5.9843-1.911.922-3.7289 1.2735-6.5762 1.2735-3.2416 0-5.7008-.7964-8.2617-2.6758-2.1974-1.6127-3.899-4.6316-4.7344-8.4004-.2661-1.2008-.6064-3.8444-.5078-3.9434.0322-.032 7.7282-.0605 17.1016-.0605h17.043l.1425-.3652c.2095-.5297.1587-4.0905-.0859-5.9707-.519-3.9914-1.673-7.2565-3.58-10.131-1.028-1.5494-3.3773-3.9037-4.9082-4.9198-3.9365-2.6126-8.9581-3.8069-14.3965-3.4239zm1.7988 5.9258c1.2023-.0104 2.4231.0723 3.2695.252 1.1666.2474 2.2657.6385 3.2793 1.164a12.0401 12.0401 0 012.7656 1.9707c.9612.9148 1.381 1.5068 2.1563 3.0469.4125.8194.7454 1.6871 1.0097 2.6347.2644.9477.46 1.9747.5938 3.1133l.082.7012h-26.0527l.0879-.7676c.1695-1.483.5295-2.881 1.0566-4.164.5272-1.283 1.2225-2.451 2.0586-3.4747.8362-1.0236 1.8135-1.9026 2.9102-2.6074 1.0966-.7047 2.3125-1.234 3.621-1.5605.7758-.1936 1.9598-.2983 3.1622-.3086zm29.4695 32.6673c-1.1192-1.8213-2.144-4.2413-2.3714-5.5997-.0862-.5153-.0682-.5678.217-.6318.261-.058 6.181-.9446 6.971-1.0433.215-.027.2997.1526.5518 1.1693.3172 1.2794.809 2.499 1.2666 3.1417.1539.2162.2367.4628.184.548-.057.092-.0377.119.0481.066.1293-.08.7947.6744.6793.77-.0736.061-6.8119 2.4805-6.9082 2.4805-.0466 0-.3337-.4053-.6382-.9008zm25.8224-9.2205c-.0959-.1351-.2945-.308-.4413-.3842-.9922-.5148-6.9864-2.3565-8.8079-2.7061-1.6925-.325-6.2102-1.4807-7.7402-1.9803-3.3382-1.09-5.3448-2.2007-6.9772-3.8623-.8-.8142-1.1004-1.2526-1.6983-2.4778-.799-1.6375-1.085-2.6672-1.2124-4.3674-.2076-2.7677 1.1082-6.4864 3.0448-8.6054.7516-.8223 2.3012-1.8876 3.9565-2.7198 2.0623-1.037 5.2754-1.8159 8.2386-1.9973 1.6356-.1 4.6804-.003 5.9915.1906 1.3251.1959 3.4279.6533 4.404.958 1.4277.4458 3.4182 1.3746 3.3125 1.5457-.0473.0765-.0187.0957.0653.0439.2532-.1565 1.846.9592 2.7002 1.8914 1.002 1.0935 1.8502 2.4405 2.3937 3.8013.5004 1.2528 1.1489 3.6659 1.0199 3.7949-.0511.051-1.7655.2781-3.8098.5046l-3.717.4119-.1617-.7392c-.6627-3.0284-3.376-5.427-7.0423-6.2252-2.1368-.4652-6.5193-.246-8.5303.4265-2.0613.6895-3.5749 1.9967-4.2356 3.6583-.3496.8792-.3393 2.3217.0214 3.0026.5357 1.011 1.843 2.2932 2.8112 2.7573 1.3202.6327 6.3889 2.1065 11.4316 3.3239 3.5122.8479 5.3213 1.4278 7.303 2.3412.8582.3955 1.6116.7192 1.6743.7192.2091 0 1.9895 1.1276 2.6281 1.6645.5757.484 1.5439 1.6512 1.5439 1.8612 0 .048-.2553.1984-.5672.3345-4.5562 1.9887-7.1279 3.0793-7.261 3.0793-.0902 0-.2423-.1106-.3383-.2457zm19.327-9.4856c-.9472-1.1224-1.7666-2.6795-2.1477-4.081-.3112-1.1445-.4105-3.3162-.209-4.5667.3576-2.2174 1.5683-4.7687 2.9607-6.2392.8474-.8948 2.1853-1.8499 2.5915-1.8499.1047 0 .1602-.03.1234-.0669-.1022-.1022 1.7056-1.0654 2.7109-1.4444 2.4531-.9248 5.2916-1.3967 8.4326-1.4017 2.551-.004 4.3653.172 6.5886.6393 3.6356.7643 6.9089 2.4296 8.492 4.3204.312.3726.5446.6988.517.7248-.1695.1591-1.8465 1.0808-3.9533 2.1725l-2.435 1.2618-.443-.2738c-.2437-.1506-.5585-.4014-.6995-.5573-.6588-.7279-2.7913-1.6887-4.597-2.071-1.4747-.3124-4.8747-.317-6.624-.009-1.3574.2388-2.8933.75-3.748 1.2474-.768.4467-1.8073 1.6145-2.2629 2.5423-.5396 1.0989-.5346 2.3469.0134 3.3384.2136.3864.5865.934.8285 1.2168.242.2828.4122.552.378.5985-.034.0464-.0266.0589.0168.0277.0434-.0311.334.138.6458.376s.9069.5708 1.3224.7394c.4155.1687.7555.3489.7555.4005 0 .0516-.4654.2973-1.0342.546-.5689.2488-2.4326 1.1304-4.1415 1.9593-1.709.8288-3.126 1.507-3.1487 1.507-.0228 0-.4428-.4757-.9334-1.057zm24.9976-7.1869c-.0815-.3926-.1207-.7852-.0872-.8725.0335-.0873.5018-.459 1.0406-.826.5387-.3669 1.8538-1.2707 2.9223-2.0083 1.0685-.7376 2.0094-1.3823 2.0908-1.4327.1618-.1.7922 1.12 1.1577 2.24.2888.8852.6466 2.624.5582 2.7124-.0386.0386-1.7496.2571-3.8022.4856l-3.732.4154-.1481-.7139zm5.7281-6.1435l-.3516-.6379.5518-.3117c2.3292-1.3156 7.5844-4.5374 10.6275-6.5154 2.7396-1.7808 2.293-1.3903-3.6033 3.1498-3.0118 2.319-6.6374 4.9596-6.8036 4.955-.0381-.001-.2274-.289-.4208-.6398zM20.574.0098l-9.1836.0078-2.1348 2.5586c-2.3011 2.7567-6.4377 7.6697-8.1015 9.623-.5655.664-.9965 1.2398-.957 1.2793.0393.0395 1.2536.1049 2.6972.1465s3.6525.0861 4.9102.0996c2.2362.024 2.2925.0183 2.4883-.2754.19-.2852.3549-.4847 1.1074-1.334l.3262-.3672h2.4667c1.3574 0 2.4688.0316 2.4688.0704 0 .0387-.181.4288-.4023.8671l-.4024.797h10.2344l.1367-.5665c.1144-.4748 3.2498-11.9602 3.461-12.6777.065-.2209-.4298-.2345-9.1153-.2285zm-.2129 1.6464c.0272.0273-.2428.793-.5996 1.7012s-.9446 2.416-1.3066 3.3516l-.6582 1.7012-1.6348.002c-.902.0001-1.6348-.0556-1.6348-.1231 0-.0674.0506-.1416.1133-.166.2188-.0854 3.6048-4.0886 3.5254-4.168-.044-.0441-.0147-.0801.0664-.0801.0812 0 .5824-.5113 1.1133-1.1348.5309-.6235.9884-1.1112 1.0156-1.084zM185.2303.004l-1.5997 1.9022a1497.0493 1497.0493 0 01-2.8984 3.4356c-.7148.844-2.1569 2.5569-3.205 3.8047-1.0483 1.2478-2.2966 2.726-2.7755 3.287-.7639.8952-.838 1.0291-.6054 1.09.1458.0381 1.3252.0788 2.623.0878 1.2978.0095 2.3883.0446 2.4219.0782.0336.0336 1.0882.0605 2.3437.0605h2.2832l.834-1.002.836-1h2.4648c1.3556 0 2.4649.0335 2.4649.0743s-.1781.4309-.3946.8672l-.3926.793h10.2286l.4257-1.5684c.2338-.8625.7465-2.7387 1.1407-4.17 1.4652-5.3206 1.9293-7.0154 2.0136-7.373l.086-.3672h-9.1485zm8.8476 1.748c.0392.0392-.2792.968-.707 2.0644a977.5755 977.5755 0 00-1.2793 3.295l-.5 1.3007h-1.5879c-.8732 0-1.5879-.0458-1.5879-.1016 0-.0558.1359-.2508.3027-.4335.167-.1828.663-.758 1.1016-1.2774.4387-.5194 1.5176-1.7772 2.3984-2.795.8808-1.0176 1.6442-1.9106 1.6953-1.9862.0511-.0751.125-.1056.1641-.0664zM28.8481 13.3843c.1985-.3387 2.0035-3.6028 2.4546-4.4388.297-.5505 1.0034-1.8417 1.5697-2.8692a1019.9095 1019.9095 0 002.1734-3.9703L36.1895.0041h5.5166c3.0341 0 5.5166.0235 5.5166.0521 0 .0287-1.0324 1.9354-2.2941 4.2372a4787.7513 4787.7513 0 00-3.641 6.6538l-1.3469 2.469-5.576.0347c-3.0669.0192-5.5493-.0109-5.5166-.0667zM51.16 0l-3.504 6.6523c-1.9267 3.659-3.502 6.6933-3.502 6.7422 0 .049 2.4763.086 5.504.084l5.5059-.0039 1.2636-2.1308c.695-1.172 1.295-2.131 1.334-2.129.0391.0017.7614.962 1.6055 2.1329l1.5351 2.1289 5.3848.0039 5.3867.002-1.1992-1.3008c-.6596-.7157-1.4777-1.611-1.8184-1.9903l-.6191-.6894.4355-.084c1.3722-.2636 2.2924-.536 2.668-.789.5625-.379 1.6315-2.0078 2.6582-4.0489.6723-1.3365.8443-1.8068.8906-2.4472.071-.9805-.1195-1.3116-1.002-1.7461l-.6405-.3165L62.1033.0352zm9.16 3.5762l1.291.0918c.7103.0497 1.3971.1193 1.5254.1562.1972.0567.3012.226.33.4551.029.229-.0169.5186-.121.8184-.2083.5996-.647 1.2383-1.1758 1.5117-.3737.1933-2.1971.271-2.67.1133a21.2922 21.2922 0 00-.3632-.1172c-.176-.0547-.0762-.3355.7559-2.1133zm25.6799 8.4721c.42-.789.9862-1.825 1.258-2.302.2719-.4772.7796-1.4004 1.1283-2.0518 1.1932-2.2287 4.1026-7.49 4.1981-7.5918.0525-.0559 2.5645-.0859 5.5823-.0667l5.4869.035-1.8048 3.2695c-.9926 1.7983-2.2117 4.0203-2.7092 4.9378-.4975.9175-1.0223 1.8783-1.1662 2.1352-.144.257-.577 1.0526-.9624 1.7683l-.7006 1.3012H85.236l.7639-1.4347zm15.1741.6023c.2538-.4597 1.8576-3.4933 3.564-6.7412l3.1026-5.9053h10.5858l1.3312 2.4193c.7322 1.3307 1.3947 2.5074 1.4722 2.615.1112.1545.4726-.3543 1.718-2.4193l1.5773-2.615h9.0632l-.6313 1.1678c-.3472.6422-1.2433 2.2787-1.9913 3.6366-.748 1.3578-1.6184 2.9493-1.9342 3.5365-.3158.5871-.7961 1.458-1.0674 1.935-.2714.4771-.7764 1.393-1.1223 2.0352l-.629 1.1677h-10.9147l-1.2417-2.3996c-.6829-1.3197-1.2955-2.3828-1.3612-2.3623-.0658.0205-.7344 1.0853-1.4856 2.3662l-1.366 2.329-4.5656.035-4.5657.0352.4616-.8359zM137.7713.004l-.3516.6347c-.1926.3485-.5298.9635-.75 1.3672-2.2892 4.196-5.8514 10.7012-6.0508 11.0488l-.252.4394 12.1094-.039 12.1094-.039.795-.4005c1.0378-.5232 1.6416-1.1367 2.668-2.711.9461-1.4512 2.8485-4.881 3.828-6.8983.6134-1.2633.8498-2.207.4961-1.9883-.099.0612-.1182.0357-.0527-.0703.1333-.2157-.5299-.9198-1.0918-1.1602-.3535-.1513-2.4626-.1837-11.9433-.1836zm9.4297 3.3358h.998c.9577 0 1.469.1396 1.6797.4551.1314.1969.1429.4671-.0176.9649-.1605.4977-.4929 1.2224-1.043 2.3242-.6394 1.2808-1.1545 2.4073-1.1465 2.5039.008.0966-.0118.1483-.0449.1152-.033-.033-.3586.0531-.7226.1914-.4795.1822-1.0104.252-1.9277.252-.6057 0-.9586-.0146-1.127-.0645-.1684-.0498-.1536-.1345-.0234-.2754.0645-.0697.8505-1.5536 1.7461-3.2968zm13.2369 9.9458c.0416-.1085 1.669-3.0962 3.6162-6.6393 1.9473-3.543 3.5563-6.4877 3.5757-6.5436.0194-.0559 2.5303-.0859 5.58-.0667l5.5448.035-.7828 1.4012a267.9997 267.9997 0 00-1.475 2.6816c-.3808.7042-1.6831 3.0899-2.8942 5.3015l-2.202 4.0212-5.5192.003c-4.8158.003-5.5096-.0219-5.4435-.194z"/></g></svg>