<svg xmlns="http://www.w3.org/2000/svg" height="800" width="1200" viewBox="-30.2688 -12.2754 262.3296 73.6524"><path d="M22.3723 17.036v.0025l-.0963-.02a17.7643 17.7643 0 01-2-.4562 9.5579 9.5579 0 01-.2925-.0862c-.4475.6325-.9287 1.24-1.4475 1.8162.0987.0024.2012.0037.2987.0037.1488 0 .2988-.0012.4475-.0112 1.4238-.0675 2.8038-.355 4.1412-.7938l.1338-.0437.0325-.0075c-.48-.1188-1.26-.4225-1.2175-.4038m-2.157-.889l.0125-.02c.0525-.0788.1087-.1563.1575-.2326 0 0 0-.0025-.0038-.0038l.0038-.0025.005-.0088c-3.94-3.005-5.6025-8.8188-11.165-10.81 4.24-1.555 8.3925-.3275 11.909 1.6975 1.1425-.4612 2.1125-1.075 3.035-1.7438-1.72-2.1888-3.985-3.7188-6.375-4.7588H.0322c.03.0113.4112.1463.425.1525a6.457 6.457 0 01.3375.13c.24.0988.48.2125.7112.335.115.0575.2288.1225.3475.1875.1.0563.1988.1175.3013.1763.1075.0625.1862.11.1975.12.0089.0058-.0061-.003-.0549-.0317C3.5211 2.0925 4.7723 3.19 5.8723 4.7c2.6288 3.6174 7.0928 9.6242 14.111 11.778.0762-.1113.155-.22.2312-.3313m5.205-6.3484c.37.3088.8813.6375 1.4212.9538-.2237-1.01-.5337-1.9438-.915-2.8038-.2587.085-.51.1675-.7575.2412-.455.1413-.9.2625-1.3238.37.55.4075 1.075.8238 1.575 1.2388m18.553-7.427a16.784 16.784 0 00-1.83-.8237C40.6524.9877 39.1.6389 37.445.4465c-.0112 0-.0237 0-.035-.0013-1.185-.1175-2.3787-.1637-3.5724-.1787h-.1663c-4.625.4875-6.8588 2.8388-9.5038 4.7588.5938.7525 1.12 1.59 1.5638 2.5062.0675.14.13.275.1963.4187.9037-.3012 1.8762-.6675 2.9338-1.095 6.0562-2.4612 10.529-3.2338 13.809-3.2338 1.5812 0 2.8812.1775 3.95.4363-.8425-.645-1.7238-1.2062-2.6475-1.6862" fill="#d93722"/><path d="M50.5373 7.861c-.4263-.5063-.8613-.995-1.32-1.4712-.2476-.26-.7776-.775-.7838-.7788-.2062-.195-.5-.4625-.5463-.5075 0 0-.0036-.0013-.005-.0038h.0013c-4.7276 1.7238-6.8726 5.5375-9.4863 9.2512h.005c1.0989-.0812 2.6013.0838 3.5563 1.0375-.0014-.0012 1.245-.1987 1.8737-.2775.0026 0 .315-.0437.4713-.065.1625-.0212 1.3912-.1412 1.555-.1525h.0063s.005 0 .01-.0013c.0675-.0038.3962-.0262.465-.0275a38.866 38.866 0 01.6638-1.3325c.73-1.3888 1.5788-2.7774 2.7638-3.8288.44-.3912.935-.73 1.4688-.9837a2992.546 2992.546 0 01-.6988-.8587m5.7869 8.539c-2.6038-1.0725-5.5512-1.575-8.5562-1.575-.4737 0-.95.0138-1.4275.04-.5487 1.1538-1.0475 2.3312-1.5638 3.4975-.3575.795-.7162 1.5912-1.1062 2.37-.06.1138-.255.5675-.425.815v.0038s-.0037.005-.005.0087c-.0187.0262-.035.0512-.0537.0775-.03.0362-.0638.075-.0763.0925.5613-.6475 1.1175-1.235 1.6975-1.6938 3-2.345 7.1575-4.9838 11.539-3.6012-.0075-.01-.015-.0237-.0225-.035m1.7779 2.9292c-.4737-.7812-.9637-1.5925-1.4725-2.43l-.153-.252c-3.3462 1.2975-4.9038 4.0512-6.7912 6.735h.0025c.805-.0612 1.9075.0638 2.6088.76l.0775.0263c.6863.2612 1.455.4912 2.1538.8612.4988.26.975.5263 1.4325.7925 1.9025-.7862 3.6612-1.35 5.1188-1.6075-.915-1.4775-1.9038-3.1088-2.9788-4.8862" fill="#c0d83c"/><path d="M52.3742 24.17l-.0787-.0275c.0025.0013.0038.0039.0063.0039-2.0688.41-3.0538 1.3737-4.5062 2.39-1.705 1.1937-4.095 2.585-6.9688 3.21-3.1875.6912-6.65.16-9.5738-1.6663l-.0225-.0038h-.0038.02c-.0087-.0037-.0163-.0112-.025-.015 3.7075.375 6.1862-.7362 8.0962-2.2961-.0063-.0012-.0125-.0038-.0225-.0075-.0075 0-.015 0-.0238-.0012l-.075.035c-1.98.9825-4.5961 1.455-7.4624 1.455-6.0213 0-13.145-2.09-17.77-5.9738.13.2062.27.4262.4187.6512 5.7938 5.8625 16.386 9.0238 25.13 9.0238 4.145 0 7.875-.71 10.482-2.1825 2.0288-1.1462 4.0675-2.1512 5.9662-2.9412-.4562-.2662-.9325-.5325-1.4325-.7912-.6975-.3675-1.4675-.6025-2.155-.8625" fill="#8dc643"/><path d="M43.2422 21.56c.0026-.005.005-.0074.005-.0074v-.0039c.1688-.2474.3626-.705.4213-.8162.39-.7775.7512-1.575 1.1075-2.3712.5175-1.165 1.0175-2.3425 1.5638-3.4988-.1512.01-1.1925.0887-1.5538.1263-.3175.0325-.6388.0762-.9537.1225-.6288.08-1.875.275-1.875.275-.1213.0237-.24.0525-.355.0787-.0388.0062-.0763.0163-.1175.025-.61.1475-1.1512.3338-1.6462.5413-.0012 0-.0012.0025-.0025.0025-.0988.045-.48.2225-.5713.2712-.37.1863-.7137.39-1.0512.6088-.0037.0012-1.0075.7025-1.0188.7075-.0725.0575-.1537.115-.2325.1712 1.17.6738 2.2425 1.4638 3.1825 2.245.7525.625 2.2512 1.3575 2.9662 1.6925.0125-.0175.1113-.1437.1313-.17m-28.859.366c.5487.835 1.2238 1.82 2.0225 2.8988 5.6 7.5762 10.911 9.1538 17.966 9.1538h34.311c-.0113-.0075-.0213-.0187-.03-.0225-2.25-.77-4.7013-2.7338-8.5576-5.4262-1.22-.8513-2.565-1.7888-4.1337-2.7062-1.8989.7875-3.935 1.7988-5.9663 2.9412-2.6074 1.4725-6.335 2.1825-10.482 2.1825-8.7437 0-19.336-3.1612-25.13-9.0212m21.679 2.272l-.009-.014c-1.1924-1.035-2.1137-2.4162-3.125-3.7462-.675.3787-2.6811 1.4238-4.7761 2.0912-4.3189 1.3725-9.1739 1.12-13.402-.995-.0525-.0213-.22-.1075-.2863-.14-.0838-.0475-.3988-.215-.3988-.215l.3113.1712.1837.0975.1988.1075c2.02 1.2475 5.955 3.3438 10.058 3.7712.535.0588 1.095.0813 1.6862.0813 2.75 0 6.0562-.5588 9.5525-1.21-.0038 0-.0038-.0063-.0075-.0063l.015.0063z" fill="#a5ce42"/><path d="M56.3543 16.447c-1.6139-2.64-3.2026-5.2961-5.1176-7.7261-.5374.2512-1.0287.5937-1.4711.9837-1.1826 1.0525-2.0326 2.4388-2.7613 3.8288-.23.4387-.4512.8825-.6637 1.33.4775-.025.9562-.0375 1.43-.0375 3.0025 0 5.9525.5012 8.5538 1.575.0112.0125.0187.0313.03.0462m-.3921 9.376c1.5688.9175 2.9138 1.855 4.1338 2.7062 3.8562 2.69 6.3075 4.6562 8.5575 5.4262.01.0075.0187.015.03.0225-2.2188-1.4875-4.5012-4.7575-7.6025-9.7612-1.4588.2563-3.2162.82-5.1188 1.6062" fill="#dae34c"/><path d="M24.3042 17.59c-.0125 0-.0237-.0074-.0412-.0087a6.4532 6.4532 0 01-.3513-.0675c-.0038-.0012-.005-.0012-.0087-.0012-.1125-.0225-.2175-.0513-.3262-.0763.0063.0013.0075.0038.0137.0038l-.0325.0075-.135.0437c-1.3375.4375-2.715.7263-4.1412.7938a8.8605 8.8605 0 01-.4462.0112c-.0988 0-.2013-.0012-.3-.0038l-.02.025a17.754 17.754 0 01-1.055 1.0712c-.5425.5025-1.085.9663-1.805 1.1812-.3875.1113-.79.1613-1.1925.1613-.2975 0-.5925-.0263-.8825-.0688.015.0263.0312.05.0475.0775 4.8538.4138 8.14-1.0788 10.676-3.15M33.8045.266h-16.009c2.3875 1.0375 4.6525 2.5662 6.375 4.7588C26.813 3.106 29.0443.7535 33.6717.266h.1325zm-33.785 0H0c.005 0 .01.0013.0113.0038C.0138.272.015.272.0175.272H.02a.0325.0325 0 00.0088.0037C1.93 1.1094 3.26 2.9044 4.3663 4.5868c1.7075 2.6038 3.13 5.3962 4.6212 8.1225.0887.1638.1787.3275.27.4913 2.6212 2.8038 5.7088 4.9762 9.2775 5.0925.5187-.5738 1-1.1838 1.4462-1.8138-7.017-2.155-11.478-8.1616-14.108-11.778-1.0992-1.5124-2.353-2.6074-3.5768-3.3661-.2862-.1688-.5587-.3238-.82-.4588C1.3039.7789 1.1214.7026.9639.6289a9.2607 9.2607 0 00-.53-.22A8.0605 8.0605 0 01.2178.3358C.149.312.0854.2895.019.267m27.36 10.792c.2488.145 1.1438.5988 1.35.6975.0063.005.3.1488.725.345.015-.0212.3163-.3637.33-.3787.0813-.09.2788-.305.295-.3238.0775-.085.5675-.5962.59-.6187.0738-.0713.2763-.2675.3063-.2975.065-.0613.4412-.3988.495-.4425a7.6434 7.6434 0 01.2925-.24c4.1488-3.2488 9.935-6.905 16.009-4.7962-.3338-.2838-.8563-.7188-1.15-.945-1.07-.2588-2.37-.4363-3.9512-.4363-3.28 0-7.7525.775-13.808 3.2338-1.06.4275-2.0325.7938-2.9375 1.0938.3812.86.69 1.7938.915 2.8038.0012.0012.0038.0012.005.0012.1725.1013.5325.3013.5337.3038" fill="#e24d25"/><path d="M14.4632 20.729c.4013 0 .8038-.0462 1.1912-.1612.67-.1975 1.1838-.6125 1.685-1.07.0413-.0387.08-.0762.12-.1138.3776-.3474.7338-.7124 1.075-1.0911-3.569-.117-6.652-2.287-9.276-5.093a22.0012 22.0012 0 00-.2075-.377c.0388.07.0775.1387.1163.2112 1.415 2.5738 2.885 5.1812 4.435 7.6712.0025 0 .0025 0 .0038.0025-.0075-.0175-.0187-.03-.025-.0475.29.045.585.0688.8825.0688" fill="#f26d20"/><path d="M39.1972 25.791l.0763-.035c-1.3162-.2312-2.3362-.8037-3.2112-1.5588-.01 0-.0225.0038-.0375.0075h-.0038c-3.4812.6475-6.7738 1.2038-9.5175 1.2038-.5887 0-1.1512-.0225-1.685-.0825-4.1112-.4275-8.0588-2.535-10.069-3.7838-.3125-.1562-.63-.3325-.9375-.51.0275.0425.1213.1925.1475.2338.0013.005.0025.005.005.0063 4.625 3.8825 11.751 5.9738 17.772 5.9738 2.865 0 5.48-.4725 7.46-1.455" fill="#7cbe42"/><path d="M20.3253 15.984c-.1138.165-.225.3313-.3425.4938a17.9997 17.9997 0 002.2937.5425l.0963.0187v-.0025c-.7275-.3025-1.3825-.6975-1.9825-1.155l-.065.1025zm5.409-8.4504a13.92 13.92 0 00-1.5639-2.5112c-.925.6725-1.9012 1.2862-3.0462 1.75.9538.5488 1.8639 1.1612 2.7139 1.79a27.3765 27.3765 0 001.3287-.3725c.2476-.0737.5-.1562.7588-.2412-.0625-.1413-.1275-.2775-.1913-.415" fill="#c81b21"/><path d="M75.8233 11.66c-.7313.7175-1.8776 1.7125-3.94 1.7125-2.0663 0-3.1539-1.1075-3.1539-2.5088 0-1.7125 1.1989-2.6175 4.1326-2.7125l2.9612-.0912v3.6zm2.7624 3.4663c-.202-.466-.333-1.461-.333-5.6349V5.0128c0-3.7675-2.4287-4.98-5.4924-4.98-1.9325 0-3.6625.4937-5.4588 1.675l.9975 1.6512c1.065-.7163 2.3962-1.3688 4.1962-1.3688 1.9975 0 3.3288 1.2575 3.3288 3.115v.9362l-3.29.0125c-4.165.1225-6.2312 1.9762-6.2312 4.87 0 2.8038 2.2612 4.5125 4.8275 4.5125 2.33 0 3.8638-.8675 4.83-1.7388l.63 1.4288h1.9962zm17.83-14.685c-.296-.19-.882-.4413-1.698-.4413-.978 0-2.028.1025-4.148 1.9488l-.2962-1.57H88.166v14.801h2.61V4.0448c1.305-1.1888 2.0275-1.5038 3.0688-1.5038.5887 0 1.18.1087 1.5075.2362L96.4161.4411zm-14.434 14.702h2.478V.3253h-2.4774v14.818z" fill="#019fc4"/><path d="M99.4463 23.163c0-.19-.1338-.5587-.2638-.9-.9413-2.4512-2.95-3.765-5.5825-3.765-3.6488 0-6.375 3.1775-6.375 7.4525 0 4.2112 2.2738 7.9825 7.3788 7.9825 1.9812 0 3.7075-.6837 4.8625-1.4287l-.759-1.624c-.9263.56-2.2838.9737-3.8225.9737-2.1962 0-3.4238-.87-4.4262-2.4512l8.9875-6.24zm-2.685-.546l-6.909 4.793c-.1326-.825-.2063-2.6838.2062-4.1012.5-1.7125 1.98-2.7725 3.5275-2.7725 1.4075 0 2.6138.8413 3.175 2.0812m78.49 10.791l-.3025-1.6474c-.405.0937-.6763.0937-.8463.0937-.9425 0-1.3175-.2788-1.3175-1.6775v-18.585h-2.4638v19.608c0 1.555.8438 2.7038 2.8012 2.7038.8113 0 1.3875-.155 2.1288-.495m-7.4368 0l-.3037-1.6475c-.405.0938-.6775.0938-.8463.0938-.9487 0-1.3188-.2788-1.3188-1.6775v-18.585h-2.4638v19.608c0 1.555.8425 2.7038 2.8012 2.7038.8138 0 1.3862-.155 2.1312-.495m20.988-10.245c0-.19-.1337-.5588-.2637-.9-.9413-2.4512-2.9475-3.765-5.5825-3.765-3.6512 0-6.3738 3.1775-6.3738 7.4525 0 4.2112 2.275 7.9825 7.3788 7.9825 1.98 0 3.7075-.6838 4.86-1.4288l-.7538-1.6238c-.9287.56-2.2862.9737-3.8262.9737-2.1975 0-3.4238-.87-4.425-2.4512l8.9862-6.24zm-2.6862-.5463l-6.9062 4.7925c-.135-.825-.2087-2.6838.2063-4.1012.5-1.7125 1.9775-2.7725 3.525-2.7725 1.41 0 2.615.8413 3.175 2.0812m-26.714.5463c0-.19-.135-.5588-.2675-.9-.9413-2.4512-2.945-3.765-5.5762-3.765-3.6525 0-6.3788 3.1775-6.3788 7.4525 0 4.2112 2.275 7.9825 7.3788 7.9825 1.9787 0 3.7075-.6838 4.865-1.4288l-.7625-1.6238c-.9263.56-2.2812.9737-3.8212.9737-2.1988 0-3.4238-.87-4.4275-2.4512l8.99-6.24zm-2.6888-.5463l-6.9075 4.7925c-.13-.825-.205-2.6838.2087-4.1012.4975-1.7125 1.9775-2.7725 3.5275-2.7725 1.4075 0 2.61.8413 3.1712 2.0812m45.079 6.9538c0-4.8362-7.36-3.995-7.36-7.3012 0-1.3438 1.3438-1.8725 2.9612-1.8725 1.6475 0 2.7875.4363 3.895.8738v-1.998c-1.0412-.4363-2.315-.7788-3.9938-.7788-3.635 0-5.2775 1.7775-5.2775 3.9588 0 5.1188 7.225 3.8388 7.225 7.4588 0 1.3712-1.4125 2.1825-3.3612 2.1825-1.75 0-3.1262-.6212-3.8638-1.06l-.9425 1.7775c1.0412.5575 2.42 1.12 4.7012 1.12 3.3975 0 6.0162-1.275 6.0162-4.3625m-57.89 4.1021v-9.7338c0-4.0212-2.3375-5.3888-4.5775-5.3888-2.2125 0-3.7838.8675-5.5262 2.1112v-9.07h-2.4388v22.081h2.4388v-10.599c1.3063-.9687 2.825-2.3338 4.7325-2.3338 2.4775 0 2.745 1.9212 2.745 3.7612v9.1712h2.6262zm-15.542-1.1715l-.7687-1.6138c-.97.5575-2.2012 1.0412-3.9362 1.0412-3.2412 0-5.1375-2.31-5.1375-5.5762 0-3.3338 2.0675-5.8188 5.1675-5.8188 1.735 0 3.1362.6775 4.1412 1.27v-2.3425c-1.0688-.5625-2.5762-.9337-4.01-.9337-5.275 0-7.8075 3.8225-7.8075 7.905 0 3.9862 2.3612 7.5012 7.3412 7.5012 2.0388 0 3.84-.715 5.01-1.4325m-13.06-13.591h-2.495l-4.2262 11.944h-.0988l-5.555-11.944h-2.66l7.05 14.825c-1.165 3.9124-2.8938 5.3674-4.8562 5.3674-.9638 0-1.695-.1862-2.2938-.465l-.636 1.762c.7612.3075 1.5638.525 2.8612.525 2.595 0 5.0212-.93 6.885-5.9512l5.9875-16.068zm-30.406 10.66c0-4.8362-7.36-3.995-7.36-7.3012 0-1.3438 1.3462-1.8725 2.9612-1.8725 1.6488 0 2.7888.4362 3.8962.8737v-1.9962c-1.0388-.4362-2.3162-.7787-4-.7787-3.625 0-5.2712 1.7775-5.2712 3.9588 0 5.1188 7.2238 3.8388 7.2238 7.4588 0 1.3712-1.4125 2.1825-3.3612 2.1825-1.7475 0-3.1262-.6213-3.8625-1.06l-.9413 1.7775c1.04.5575 2.4175 1.12 4.7012 1.12 3.3975 0 6.0138-1.275 6.0138-4.3625" fill="#076aa6"/><path d="M196.6513 45.768l-.1288.0363c-.025-.0137-.0488-.025-.0488-.0362 0-.0225.0488-.0488.145-.0588m-.2162-2.4625c.0112.0225.0112.0475.0112.0712 0 .0363-.0112.0588-.035.08-.0375-.0112-.06-.0212-.06-.0437v-.026l.0838-.0813zm-.44-.5463l-.085-.0124c-.0238-.01-.0238-.0263-.0238-.0513 0-.0225.0238-.0338.0625-.0338zm.6062.535c0 .0225 0 .0338-.0125.0338-.0112 0-.0112-.0113-.0213-.0113h-.0125c-.0387 0-.0488-.0112-.0488-.045 0-.015 0-.0262.01-.0487.0512 0 .0725.0225.085.0712m.9625-1.4175c.0138.0488.0263.0713.0263.0938 0 .025-.0125.025-.0263.025-.0112 0-.0213 0-.0462-.025-.0588.0112-.0813.0413-.0813.0838-.0513-.0088-.0737-.02-.0975-.0588.035-.1187.1913-.0813.1913-.2112v-.0113h.0337c.0263 0 .035.0112.035.0325 0 .0238-.009.045-.035.0712m.74-.8212c0 .015.0112.015.0112.025 0 .06-.1438.105-.3088.2825v-.023c0-.0963.1088-.1675.2975-.2863m-.251-.4612a.0651.0651 0 01-.0575.0338h-.0263c.0137-.0488.0375-.0826.0712-.0826.0125-.0112.0125-.0112.0275-.0112v.0112c0 .0113 0 .0263-.015.0488m.415.1962a.135.135 0 01.015.0638c0 .0487-.0237.0925-.0725.13 0-.0225.0113-.0375.0113-.0475 0-.0225-.0113-.0338-.0338-.0338-.0262 0-.0462.0113-.0837.0225.0462-.0975.0837-.1425.1063-.1425.0113 0 .0238.0076.0488.0076h.009zm-2.6875 4.1212c0-.0487-.01-.085-.0362-.1087a.2432.2432 0 00-.0463.1462c.0113.0113.0213.0113.0337.0113.025 0 .0388-.0113.0488-.0488m.285-.2862l-.07-.0475-.0362.0812c-.0613.0638-.1062.0963-.1312.1225-.0113.0113-.0113.0213-.0113.0325 0 .0125 0 .0125.0238.0125.0125 0 .0362 0 .0575-.0125l.1675-.1887zm-.1412-.0213l-.0713-.05c-.0125.05-.0125.0713-.0125.0975 0 .0075 0 .0225.0125.0225h.0113zm1.0712 1.0812l-.015-.06-.035.0488c-.0112.0112-.025.0225-.025.0337 0 0 0 .015.0138.015.0112 0 .025-.015.0613-.0375m-1.0975-1.275c0-.0337-.0113-.0562-.0337-.0562-.0113.0225-.0113.0325-.0113.045 0 .0112 0 .0212.0113.0212-.0113.015-.0238.0263-.0238.0388.0125 0 .0238-.0125.0575-.0488m.2162.1075l-.025-.0975-.0575.0388-.05-.0387-.0325.0387.0463.095c.07-.0225.1062-.0362.1187-.0362m0-.3313c0-.0375-.0124-.0488-.0487-.0587-.0575.0212-.095.0587-.1063.1074-.01.0325-.01.0588-.01.0663v.015c.01 0 .01-.015.0213-.015.0725-.0225.1088-.0663.1438-.115m1.1662 1.1788c0-.0338-.0125-.0738-.0488-.085-.02-.015-.03-.015-.05-.015-.01 0-.01.0112-.01.0225v.0137c.01.0338.0462.06.095.06m-.8925-1.3238c-.0137-.045-.0237-.0825-.0475-.1037a5.802 5.802 0 00-.1675.2712l.0475-.0224h.0387c.0575-.0588.105-.1088.1287-.145m.9663.9412l-.0737-.0488c-.0125.0375-.0125.0588-.0125.085 0 .0225 0 .0338.025.0338l.0613-.07zm.2937-.12c-.07 0-.1425.0112-.1887.0488l-.0488-.0113c-.01.1313-.1063.1675-.1175.2238a4.653 4.653 0 00.0337.1674l.1437-.1412c-.0112-.0387-.0112-.075-.0112-.0975 0-.07.0237-.1037.0337-.1037.0125 0 .05.0112.085.0437a.1558.1558 0 00.07-.13m.1925-.0487v-.115l-.15-.026c-.05.06-.095.0962-.1562.1287.0613.0112.1212.0238.1787.0238.035 0 .0725-.0126.1088-.0126m.1062-.3087l-.1187.0487c-.0238.0238-.0363.05-.0363.06 0 .0225.0263.0375.0613.0375l.0937-.1462zm1.6425-4.3875c-.0138-.2313-.3575-.345-1.0338-.3838.0112.0225.0112.0388.0112.0638 0 .055-.0613.1037-.1787.1275-.3475.2262-.5138.4425-.5138.7025v.06c-.4037.4862-.7975 1.01-1.165 1.5838-.2237 0-.4387.0325-.6437.0812-.1075-.0487-.1675-.07-.1888-.07-.06 0-.0962.08-.0962.2375 0 .13.0962.3675.2988.6875-.5975.845-.8588 1.5262-.8588 1.93 0 .4175.2488.8563.3938.8788.0125-.0225.035-.0225.0462-.0225.0588 0 .1312.25.3212.25h.0113l.1325-.0125c.0225.0125.0475.0125.06.0125.0462 0 .0613-.0238.0613-.0838v-.035c0-.06.0325-.1087.0588-.1087.035 0 .0462.0262.0462.0637v.045c0 .01.0113.02.0225.02.0137 0 .0263-.01.0375-.0362a1.232 1.232 0 00.0575-.2463c.0475.0238.0737.06.0737.12v.0338c.1088-.045.1663-.12.2038-.2125-.025-.0475-.0375-.07-.0375-.0963 0-.0112.0375-.0112.105-.0112a.2795.2795 0 01.1062-.1775c0 .0362.0138.0587.025.0587.0138 0 .025-.0112.025-.0375v-.023c.06-.0337.0962-.0712.1063-.105.0125.0113.025.0113.0363.0113.0125 0 .0262-.0113.0262-.0488 0-.0225-.0375-.045-.0375-.085 0-.0225.0238-.045.07-.0712.0237-.0588.0387-.1038.0387-.145 0-.0438-.015-.0663-.0387-.0663-.0225 0-.0463.0225-.0825.0588l-.0362.0825v-.0125c0-.0213-.0113-.0338-.0337-.0338-.0738 0-.1588.1876-.3675.1876-.04 0-.0737-.0113-.0962-.0338-.2763.2162-.5026.3088-.6788.3088-.2388 0-.3813-.1313-.3813-.3463 0-.0337.0112-.1162.0337-.2112l.0337-.0163c-.009.06-.009.1113-.009.135 0 .0225 0 .0338.009.0338h.0138c.0375-.0938.0725-.2013.0838-.3088.0375-.0387.0488-.0712.0488-.0975 0-.0112-.0113-.0212-.0362-.0212h-.0239l-.035.0475-.0512.1075c0-.1788.0513-.335.1462-.4688l.01.0413c-.0213.0437-.0213.0825-.0213.1037 0 .0387.0113.0525.0337.0525h.0238v-.063c0-.1338.0362-.2375.1088-.3088.0462-.0962.0937-.1775.1175-.2375l.05.0226c.07 0 .0937-.115.2237-.1526.035-.0225.05-.0487.05-.075v-.0325c-.0263-.0375-.035-.05-.035-.075 0-.0437.0462-.115.1413-.2l.0575.0363.0475-.06c.0262.0487.0262.0825.0262.12 0 .0337-.0125.06-.0575.06-.0288 0-.05-.0263-.0738-.06-.0238.0337-.0375.06-.0375.085 0 .0187.0137.07.0263.1162l.0462.145c.225-.4662.44-.6925.44-.81v-.0125l.0588.0225c.18-.2275.2987-.3575.3812-.3675l.2038.0963.0838-.0263c.045-.2125.0837-.32.2037-.32.0463 0 .0925.045.1513.045.0375 0 .0987-.045.155-.13.0375.01.0588.01.0975.01.2025 0 .39-.1962.7837-.2375.295-.1625.4638-.2125.4638-.2712 0-.0225-.0137-.0488-.0475-.0488h-.025l-.7375.1238c-.3425.0337-.6638.055-.9838.0812.0562-.1112.105-.19.165-.2637.0337-.175.2838-.3575.63-.6888l.0488-.13c.0925-.1487.2238-.275.3888-.3725.1087-.01.1662-.0212.1662-.0212.1825-.1688.3-.2638.3475-.2638l.095.0263a2.9177 2.9177 0 00.0725-.2613m-2.1888 2.7925c0-.0437-.015-.07-.0463-.0812h-.0275c-.01 0-.0225.0112-.0225.0225 0 .0262.0225.0475.0962.0587m-4.401 2.6082l-.0962.0363-.0487-.0963c.0262.015.0737.0375.145.06m.3937.0813a2.0793 2.0793 0 00-.1687.1112l-.0475-.025c.0375-.0862.0838-.1312.1212-.1312.035 0 .0588.0125.095.045m-.2987-1.0938h-.0337v-.0475h.0213l.0125.0475zm.18-.3413l-.0137.045-.0238-.0125.0112-.0475zm.0825-.0375c.0212.0113.0212.0375.0212.0438 0 .0387-.009.0737-.045.1075l-.0238-.01.0475-.1413zm.4775-.3912h-.11c0-.0525.0288-.085.0725-.1225zm-.265 2.295l-.0212-.1125-.0375.0975zm-.13-1.5138l-.0613-.0588-.1175.215h.0825l.0962-.1562zm-.12-.6025l-.0712-.0263c-.0812.0263-.1275.0713-.1537.1413l.0263.0487c.0936-.0487.165-.0925.1987-.1637m1.7512.3087c-.1938.1525-.3812.2938-.5513.4288.0263-.0163.0375-.0163.0375-.0163 0 .0263-.3662.325-1.1388.755-.0138.0225-.0488.0338-.085.045l-.285.0375c-.12-.015-.1787-.0375-.2037-.1087.0713-.2863.1312-.5125.26-.6538l.05.0325.0488-.0812-.0725-.01.0113-.0863.1062-.1312.05-.1188c0 .0488.0112.0825.035.1313.0238-.0263.0462-.0488.085-.0488l-.0388-.045c.06 0 .0713-.075.1088-.2262l-.0838-.06v-.0525c.0588-.0188.07-.1525.1775-.3313l.0362.0975c-.0225.0713-.0687.1563-.1213.2338l.0387-.0075.0713.06.035-.0525-.0825-.0438.0475-.0112.0737.07c-.0488.06-.085.135-.1212.215l-.0487-.035v.0475c0 .0587-.0225.1187-.0475.1775.0725-.0587.1325-.1062.2175-.1187.0125-.0713.0563-.1188.1275-.1513.0112-.075.1212-.075.1212-.22.0937-.1637.2013-.2687.3413-.32.1562-.2862.2862-.4975.3812-.6537 0-.0713-.14-.19-.4975-.3425-.1662-.0488-.3462-.0975-.5587-.1338l.0113.085c.0613.0488.1075.0925.13.1188-.0125.0487-.0337.115-.0687.2125l-.0363-.0238c-.05.0238-.0725.06-.0825.105l.0925.075-.0725.07c.0263.0112.0488.0375.0488.0587 0 .0338-.0488.0863-.1438.1576l-.0112.1562c.025-.0413.0337-.0862.0475-.1338l.0712.0376v.055c-.0325.085-.085.1825-.1425.2675-.0462.0662-.07.1525-.0962.25l-.1062.1037c-.0225.0963-.06.1888-.1163.2637l-.0162-.075-.105.06c-.0238.0488-.0625.1088-.1062.1676v.0374c0 .06-.0238.1088-.06.1413-.0125.0375-.0238.075-.0238.0963 0 .0712.035.1087.035.13 0 .1087-.1788.2274-.1788.4062 0 .0362.025.13.0375.275l.0337.175c.0125.0488.1788.2375.5113.3787l.23-.145c.02-.055.0325-.1075.0325-.1562l.0725-.0225.0463.0375.0362-.025c-.0362-.0938-.0488-.1525-.0488-.2025 0-.0213.0125-.0363.0263-.0363.0113 0 .0225 0 .0463.015l-.01.0813.0488.0262v-.038c0-.0387.0125-.0712.0225-.0937.0712.0812.1162.1187.1425.1187.0125 0 .0238-.015.0238-.0375 0-.0375-.0112-.0812-.035-.155l.1537-.0337c.0838-.0863.1525-.1675.225-.2388.0112-.1187.0712-.205.1788-.2487v-.0525c0-.055.035-.0925.12-.0925h.0337c.1662-.32.5-.335.525-.6288m.1637-.085c-.0225-.0275-.0337-.0487-.0575-.0487-.0112 0-.0225.0112-.0375.0212-.009.0275-.009.0388-.009.06 0 .0388.0238.0525.07.0525l.0337-.085zm.205-.2162l-.1662.0487.0337.0963.1325-.145zm.35-3.08l-.04-.108a203.057 203.057 0 00-.8062.4775l-.03.058c-.2375.0925-.415.1662-.5213.2112h-.12c.0937.3825.3088.525.7363.655l.06-.1037-.0112-.0863c.0675-.0925.115-.1525.13-.1637l-.03-.133c.0588-.0825.0937-.1525.1312-.1888l.045.0213c.0863-.0213.155-.0813.2025-.1525l.0237-.0975c.095-.1188.1438-.2.1438-.3288v-.0387l.0838-.0213zm-5.8619 3.6401c-.01.0225-.0488.06-.095.0825l.0725-.1313m.56-.4425l-.1075.1088c-.025-.0488-.035-.0938-.0488-.1413l-.0213.055-.1112-.0337-.1037.12a.5605.5605 0 00.155.085c-.0375.0487-.085.0775-.1313.13v-.178l-.0588.0975c-.05.0075-.0862.0287-.12.06l-.0238-.1238.0838-.055c.0475-.0412.105-.135.2362-.2387.025-.0488.0464-.1113.0839-.1563l.0837.06.0575-.015c0 .0625.0125.135.0263.2263m.115-.26l-.07.13.0137-.0675c-.0137-.0138-.0488-.025-.085-.0625h.1412zm0-.1525l-.0438.1037h-.0712c-.0263-.0437-.06-.08-.0962-.1037.0362-.015.0825-.0363.1675-.0488l.0437.0488zm-.8175.38l-.0713.0475.0225.06c.0362-.0225.0488-.0525.0488-.0713v-.037zm.9387-.5575c.0112-.0163.0112-.0263.0112-.0488 0-.0112 0-.0225-.0225-.0487-.0725.0112-.0837.0375-.0837.0812 0 .0375.0112.06.0237.06.025 0 .0475-.0225.0713-.0437m2.915-1.2062c-.035-.0925-.095-.1775-.19-.2488l-.095-.0437h-.0113c-.025 0-.009.0325-.05.0325-.1163-.0588-.2-.105-.2825-.105-.2137 0-1.2275.4512-2.1075 1.6038l-.2137.2275-.0363-.105-.0837-.1v-.175l.025-.0963c.0262.015.0462.0213.0587.0213l.0125-.0063c0-.015-.0126-.0263-.025-.0488.06-.0487.13-.075.2162-.085.0588-.075.0937-.1562.0937-.2387 0-.025-.0125-.0488-.0125-.07.095-.1425.1412-.275.1412-.4175 0-.0325-.0111-.1213-.0461-.23-.0463-.03-.0725-.0638-.0825-.0925-.215-.0563-.43-.0938-.655-.0938-.07 0-.14.015-.2125.015v.0675l.095.04-.1063.6363c-.1312.3725-.2862.5362-.2862.6112v.01h.01c.0263 0 .0488-.01.0725-.0337l.085-.1088c.0687-.025.13-.0462.19-.085.0225.0263.035.06.035.085-.225.4288-.3563.7263-.3563.9538v.07l-.0962-.0488c-.0725.0338-.095.0725-.095.1075 0 .0263.0112.06.0375.0838-.0263.0362-.0375.07-.0375.0925 0 .0262.0112.0375.0375.0375a1.2413 1.2413 0 00-.155.145c-.0362.1887-.12.3575-.265.4975-.1175.1787-.1875.275-.1875.275v.015l.0238-.0263c.01 0 .0463-.0112.095-.0475.0362-.0262.0687-.0374.1075-.0712 0-.0963.045-.13.1437-.1675-.0136-.025-.0136-.0375-.0136-.0475 0 0 0-.0112.0137-.0112.01 0 .0225.0112.0463.0212l.06-.1137v-.075h.105c.0375 0 .0488.01.0488.0225 0 .0137-.0225.0525-.0838.0862l-.0838.14c-.13.0975-.2275.2037-.295.3575-.0725.06-.1238.0963-.1575.0963-.01 0-.0238-.0113-.035-.0113v.0113c0 .105-.095.2012-.2013.3637v.0163c0 .01.0488.0362.1638.0362.0488-.0525.0963-.0962.1462-.1225l.13.0375c.3438-.0112.5113-.1525.5813-.495l.25-.3712c.0937-.3575.1775-.61.415-.775l.0387-.1438c.0613-.0225.1062-.0337.1412-.0487.7163-.8075 1.1438-1.38 1.4738-1.5575l.19-.0825.0763.0487c-.0163-.0375-.0275-.0712-.0275-.1087 0-.0263.0112-.0438.0112-.07l.0725.0812c.0475-.055.1088-.0925.1788-.1175l.0362.0363v.13l-.0588.0587c-.0725.3213-.1913.6225-.3663.8938l.02.0375c-.0375.0475-.0925.1437-.1912.2812.0263.0638.0488.0975.0987.0975.0213 0 .035-.015.055-.015.0375-.06.0625-.1037.0863-.1625.0588 0 .1062.01.1212.0475-.015-.0112-.025-.0262-.025-.0375 0-.0562.1788-.1275.4275-.4512.0712-.025.1313-.035.1663-.0463 0-.0125-.0138-.0125-.0138-.0225 0-.06.1575-.135.335-.3613.0712-.0937.1187-.2012.1512-.3087l.075-.06c0-.0475.0238-.1075.0462-.1675m-1.6288 1.7412v.0075c0 .015 0 .0262.01.0262.0263 0 .0613-.0112.095-.0337.0263-.015.0375-.0362.0375-.0488 0-.0362-.0375-.06-.0825-.06-.05 0-.06.0338-.06.1088m-4.9031 1.5811l-.095.0362-.0463-.0962c.025.015.0713.0375.1413.06m.3925.0813c-.04.041-.1.078-.15.116l-.045-.025c.0337-.0863.0825-.1313.1162-.1313.0375 0 .06.0125.095.045m-.2962-1.0938h-.0362v-.0475h.0263l.01.0475zm.1787-.3412l-.0113.045-.025-.0125.015-.0476zm.0825-.0375c.0238.0112.0238.0374.0238.0437 0 .0388-.0125.0738-.0462.1075l-.025-.01.0475-.1412zm.4775-.3913h-.1075c0-.0525.0238-.085.0725-.1225zm-.2625 2.295l-.0237-.1125-.035.0975.0588.015zm-.1312-1.5138l-.06-.0587-.1175.215h.0838zm-.12-.6025l-.0675-.0262c-.0863.0262-.1325.0712-.1575.1412l.025.0488c.0937-.0488.165-.0926.2-.1638m1.7525.3088c-.1925.1525-.3838.2937-.55.4287.0225-.0162.0362-.0162.0362-.0162 0 .0262-.365.325-1.14.755-.015.0225-.0512.0337-.085.045l-.2863.0375c-.1187-.015-.1775-.0375-.2037-.1088.0725-.2862.1312-.5125.2637-.6537l.0463.0325.05-.0813-.075-.01.0125-.0862.1088-.1313.0463-.1187c0 .0487.0125.0825.0375.1312.0225-.0262.0462-.0487.085-.0487l-.0387-.045c.06 0 .0725-.075.1087-.2263l-.085-.06v-.0525c.0588-.0187.075-.1525.18-.3312l.0362.0975c-.025.0712-.0725.1562-.1212.2337l.0387-.0075.0675.06.0388-.0525-.0825-.0437.0437-.0113.075.07c-.0513.06-.085.135-.1188.215l-.0488-.035v.0475c0 .0588-.0237.1188-.05.1775.075-.0587.1325-.1062.2175-.1187.01-.0713.0588-.1188.13-.1513.0125-.075.1188-.075.1188-.22.095-.1637.2025-.2687.345-.32.1537-.2862.285-.4975.3775-.6537 0-.0713-.1388-.19-.4975-.3425-.1663-.0488-.3438-.0975-.5588-.1338l.01.085c.06.0488.1088.0925.1338.1188-.0125.0487-.0375.115-.0738.2125l-.0362-.0238c-.045.0238-.0675.06-.0812.105l.0962.075-.0725.07c.0238.0113.0488.0375.0488.0588 0 .0337-.0488.0862-.1413.1575l-.0162.1562c.0263-.0412.0362-.0862.05-.1337l.0713.0375v.055c-.0362.085-.085.1825-.1437.2675-.0487.0662-.0725.1525-.0937.25l-.1088.1037c-.0238.0963-.0575.1888-.1175.2638l-.0125-.075-.1087.06a.961.961 0 01-.1063.1675v.0375c0 .06-.0225.1087-.0588.1412-.0138.0375-.0238.075-.0238.0963 0 .0712.0337.1087.0337.13 0 .1087-.1775.2275-.1775.4062 0 .0363.0263.13.035.275l.035.175c.0112.0488.18.2375.5138.3788l.1787-.1413a.3911.3911 0 00.0337-.1562l.075-.0225.0463.0375.0362-.025c-.0362-.0938-.0488-.1525-.0488-.2025 0-.0213.0125-.0363.0238-.0363.01 0 .025 0 .0488.015l-.015.0813.0513.0262v-.0362c0-.0388.01-.0713.0212-.0938.0725.0813.1213.1187.1438.1187.0138 0 .025-.015.025-.0374 0-.0376-.0112-.0813-.0362-.155l.1537-.0338c.085-.0862.155-.1675.2263-.2387.01-.1188.0724-.205.18-.2488v-.0525c0-.055.0336-.0925.1187-.0925h.0325c.1663-.32.5-.335.5275-.6288m.165-.085c-.0263-.0275-.035-.0487-.06-.0487-.0125 0-.0225.0112-.0362.0213-.0113.0274-.0113.0387-.0113.06 0 .0387.025.0525.0725.0525zm.2013-.2162l-.1676.0487.0387.0963.1288-.145zm.32-3.0788l-.035-.1088c-.2588.1538-.525.3088-.8076.4775l-.0362.0588a17.709 17.709 0 00-.5212.2112h-.1213c.095.3825.3113.525.7375.655l.06-.1037-.0125-.0862c.07-.0926.1188-.1526.1325-.1638l-.025-.1338c.06-.0824.0937-.1524.1313-.1887l.0488.0213c.08-.0213.155-.0813.2-.1526l.0225-.0974c.0987-.1188.145-.2.145-.3288v-.0387l.0812-.0213zm-8.0743 6.7344l-.06.0112c-.0125-.0262-.0238-.0475-.0238-.06a.064.064 0 01.0362-.06c.0238.0238.0475.06.0475.1088m.2726-.1888l-.0725.0213.06-.07zm.23-.74c-.06.0963-.1213.1775-.1813.26l-.0825-.0075a.7594.7594 0 01-.0975.2575c0-.0337-.02-.06-.0687-.06.0112-.0937.0362-.175.0687-.2562l.0588-.075c0-.0225 0-.05-.0238-.0713l.1338-.0262c-.0126.0475-.0238.0975-.0613.1562l.0612.0163c.045-.0975.1063-.1575.1925-.1938m1.2712-.6437l-.0725.0262.0725-.075zm.915-2.7225l-.1162.1037-.1-.01c-.009.08-.07.1325-.1638.1525 0-.0837.1313-.165.215-.3662 0 .0237.01.0337.0225.0337.0263 0 .0475-.1075.06-.1075.0125 0 .0238.0738.0825.1938m.1063-.3125c-.0687.0375-.1163.085-.155.1237l-.0213-.06c.0463-.0412.0825-.0862.1187-.135l.0575.0113v.06zm1.37 1.0738c-.06.0337-.1062.0575-.1425.0575a.227.227 0 01.1187-.12l.0238.0625zm-3.9162 5.125v-.1138l-.0825.0538c.025.05.0475.06.0825.06m-.785-1.4012c-.0587 0-.0962.0112-.0962.07.0125.0225.0125.0487.0375.0487.0112 0 .0237-.015.035-.0362zm1.1062-.7413c-.0463.0163-.1075.0163-.1537.0275-.0239.0375-.0489.0713-.0614.0975v.0213c0 .0112 0 .0225.0125.0225.0138 0 .025-.0113.0488-.0225.0575-.0588.1075-.1075.1538-.1463m.2875-.8425l-.025-.0562c-.0588.0225-.105.0562-.1188.115-.0237.015-.035.015-.035.015zm1.52-2.2838l.025-.06h-.0587l-.06.1038.0375.0262c-.5737.525-.8337 1.0825-.8337 1.4288 0 .2375.1562.3825.3212.3825.0213 0 .0338-.0137.0338-.0475 0-.0525-.1037-.12-.1037-.3087 0-.3725.3925-.99 1.165-1.8338l.01-.0488c.8474-.785 1.3811-1.1675 1.5737-1.1675.095 0 .1538.0588.1538.1563 0 .1887-.1537.5725-.4537 1.12l.0724.0325-.165.1187c-.1337.205-.265.4175-.4062.6438.02.0225.0362.0487.0575.0487.0263 0 .0488-.0262.0713-.0487l-.045.085c.045 0 .0713 0 .0713.0225s-.0263.0337-.0713.0337h-.0637l-.02.0375c-.0613.145-.0825.2275-.1075.2275-.0112 0-.0238-.0387-.0238-.0925.0488-.0125.07-.0387.07-.065 0-.0212-.0113-.0362-.0213-.0587l-.0613.0587c0-.0437-.0238-.0587-.0712-.0587-.0725.0487-.1062.0975-.1187.1562 0 .0338 0 .0475.0125.0475.0237 0 .0587-.0475.1187-.1325 0 .0263 0 .095.0112.2038-.0462.0225-.0837.0487-.1062.0975l-.1325.1137-.0337-.07h-.06v.025c0 .1088-.0838.18-.2513.2763a.8894.8894 0 01.145-.19v-.0413c-.0125 0-.025.015-.0487.0263-.3437.3575-.7975.525-1.2125.7737-.0962.0375-.1912.0488-.285.0488-.155 0-.3112-.0375-.4662-.1238.0362-.08.06-.1512.06-.2337v-.0588c.145-.1637.155-.32.26-.3462.0637-.0925.0275-.2825.18-.5013.1662-.1312.1925-.4625.4662-.6925.01-.0775.0437-.1525.1038-.22.015.045.0375.0675.0613.0675.035 0 .0813-.045.12-.1562-.06.0137-.0962.0137-.1075.0137h-.0125c0-.0437.0238-.1062.0937-.155.0725.0263.1312.0488.18.0488.0613 0 .1075-.0225.1425-.0713-.01-.0137-.0213-.0225-.0213-.0337 0-.0113.0213-.0263.08-.0263.0138-.07.0363-.1062.06-.1062.0263 0 .0388.0262.06.0462.0225-.0587.0725-.1175.1212-.1775h.01c.0838 0 .1063-.1187.1888-.3462-.0113-.0363-.0213-.0588-.0213-.095 0-.1425.1662-.2838.4625-.5338v-.085c0-.0712.0112-.105.0588-.105a.317.317 0 00.035-.1437c0-.0713-.035-.1413-.0937-.2163-.3088-.2225-.6663-.4012-1.0612-.52.0613.1038.0862.1888.0862.26 0 .0488-.0125.1075-.0125.1563 0 .2.0838.13.1425.2-.0588.0262-.1163.06-.1763.0975.0112.0712.06.1325.1325.19-.0987.0212-.1725.07-.205.13-.4762 1.2112-.9025 1.9638-1.155 2.3425.025.0262.025.0375.025.0487-.0125 0-.0362-.0112-.0712-.0225-.0375.1188-.05.1775-.095.1775h-.015c-.2837.455-.355.7263-.45.7263-.06 0-.07-.115-.1325-.13-.0238.0587-.0238.1087-.0238.1637 0 .0588.0138.1188.0475.17-.37.63-.715 1.2612-1.0212 1.89.0337.0375.06.06.06.0863 0 .14-.2975.4387-.2975.8912 0 .1763.0937.2613.2838.3838 0 .0525.045.0887.1537.115.05.0325.095.045.155.045h.06l.12-.0713c-.1312-.0587-.2-.0212-.2-.27 0-.2125.1263-.5625.3763-1.0712v-.104c.0725-.0975.1212-.1662.17-.2262-.0625-.0975-.0975-.1788-.1325-.2488.26-.2875.405-.4912.405-.6062 0-.0125 0-.0388-.0125-.05l-.0475.0112-.085.0863c0-.0475 0-.0975.0125-.1188.06-.0375.0825-.0975.0825-.1787v-.048c-.0337.0112-.07.0487-.1063.0825 0 .1187-.0238.2037-.0725.275-.0225.0337-.0438.0562-.0575.0562-.0112 0-.0112-.0112-.0112-.0337-.05.0337-.0838.0487-.1075.0487-.025 0-.0375 0-.0375-.0262 0-.0563.0263-.1038.0838-.1425.0237.0262.0487.0487.0725.0487.0137 0 .0238-.0225.0238-.06 0-.01 0-.0475-.01-.0737.0575-.1188.165-.1638.1788-.25.0213-.0538.0588-.0925.0937-.125.0112.0325.0337.0587.0463.0587.0137 0 .0137-.0262.0137-.0587v-.0488c.0825.0938.19.1563.32.1863.0613 0 .1062.0137.1687.0137a1.183 1.183 0 00.4963-.1062l.0713-.0825c.2037-.075.44-.135.6937-.1675.0462-.06.1175-.1338.2-.2013l.215.0113c0-.0263-.0137-.0588-.0137-.085 0-.045.0137-.0813.0263-.1275.0237 0 .035.0125.0575.0125.0488 0 .0838-.0338.1188-.0975-.035.0112-.045.0112-.045.0112s.08-.0225.2475-.0925l.0362-.1237h.1075l.0463.0525c.0487-.1075.1075-.1438.2262-.1438h.0475c.0613-.06.1213-.105.1675-.1312l-.0463-.06a.7068.7068 0 01-.1687.0862c-.01-.0262-.01-.0525-.01-.0637 0-.0825.0925-.07.2487-.155l.095.0137c.0362-.0262.0263-.0625.0613-.0625h.035c-.0238-.0225-.035-.045-.035-.0825 0-.0112 0-.0337.0112-.06.0238-.0112.035-.0212.06-.0212.0112 0 .035.01.0588.0212.035-.0475.0462-.0962.0613-.13.1188-.1075.2125-.1662.2725-.1775l.095-.0225c-.0138-.0225-.0225-.0375-.0225-.0487 0-.0225.0225-.0363.0462-.0363.0125 0 .0363.0138.07.0263.0262-.06.0487-.1125.06-.1463-.0475 0-.0937.015-.1437.0625-.0325-.0475-.0437-.085-.0437-.1062 0-.0488.0337-.075.0937-.075l.06.0525c.2012-.4063.3175-.7288.3175-1.145 0-.3813-.1163-.5588-.4713-.5588-.705 0-1.2875.6288-2.2775 1.6888m-.1875.1525c-.0363.015-.095.025-.1562.025l-.0475.0863v.0225c0 .0225 0 .0225.0112.0225.015 0 .025 0 .05-.0225.0475-.0488.095-.0975.1425-.1338m.0112-.13h-.07v.0738zm1.1075.9663c-.0112-.015-.0375-.015-.05-.015-.01 0-.0337.015-.0463.0375l-.025.045.0837.015.0375-.0825zm-.8463-1.1188l-.0337-.1088c-.04.0225-.0512.045-.0512.0713 0 .0137 0 .0262.0112.0375zm1.1775.795l-.0213-.07-.0487.0587zm.4038.215l-.0825.06.0388.0225zm.3837-.37l-.0613-.0125v.0712l-.0712.085.05.0113c.0462-.06.0687-.1075.0825-.155m-7.6426 1.3236l-.1087.0437c0-.0337.0262-.07.0475-.1037m.5012-.3938l-.0937.025.0475-.0475zm.1088.085c-.0263 0-.06-.0112-.0975-.0262a.7244.7244 0 00.0975-.0338zm1.855.3313l-.07.1075-.05-.07zm-3.1762-3.5112v.0487c0 .0375 0 .06-.0112.0825-.0712-.0337-.0962-.0675-.0962-.1312v-.036l.1075.0375zm.6312.61c-.025.0225-.0487.0337-.0725.0337-.0225 0-.0462-.025-.06-.0487l.0475-.085c.0475.015.0737.0412.085.1m-.39-.88c-.009.1312-.0562.2262-.155.3087-.0125-.0487-.0213-.0962-.0213-.13 0-.0475.009-.0975.0213-.1337.0362-.0338.0625-.06.1063-.06.015 0 .0263 0 .0487.015m.0263-.1188v.01c0 .0338-.075.05-.2025.06-.015 0-.0238.0113-.0375.0113v-.0113c0-.01.0137-.0362.0462-.0825.0375-.0625.0588-.085.0962-.085.0225 0 .0375.0125.0625.0225l.035.075zm.3187-.3675v.0325c0 .0488-.0238.0925-.045.1188l-.0588-.0588-.1687.1675c.0337-.06.0712-.1462.1062-.2275l.1663-.0325zm1.2725-.3625l-.0212.075h-.0613l-.0225-.075zm1.715-1.0812l-.0475.0813h-.1062l.0238-.06.13-.0213zm-3.0212 6.1175h-.0237c-.035 0-.06.0113-.075.0263l-.0112.0437.11-.07zm1.1525-.0962c.01-.0113.01-.0225.01-.0225 0-.0113-.01-.0263-.045-.0263-.0263 0-.05 0-.0837.015l-.0363.0713h.0488c.0213 0 .0575 0 .095-.0113zm-.1887-.58l-.0862.0337.06.0475.0263-.0812zm.725-.5363l-.0387-.0625c-.0475 0-.0675-.0075-.0675-.045 0-.0112.0112-.0375.0463-.0712-.0725 0-.13.0337-.1788.1087.06 0 .0975.0075.0975.0338 0 .0212-.0375.0362-.0975.0362l-.0225.1163c.06-.045.095-.0563.12-.0563 0 0 .009 0 .009.0113 0 .0112-.009.0325-.0337.0712.0712-.06.1275-.0937.1663-.1425m.1775-.1337l-.07-.0113.035-.1075h-.1213l-.01.1075c.0588.0263.0962.0588.1213.1188zm.1462-.1263l-.135.0075.0287.0638c.045-.0375.08-.0638.1063-.0713m.14.0225c-.0362 0-.07.0225-.1075.0588h.0588zm.2725-.2162c-.1425.0487-.225.07-.2363.1187l.0937-.01-.0225.0925c.0362-.0587.095-.1187.165-.2012m4.06-5.239c-.1025-.1413-.1862-.2375-.2575-.25-.0937-.1063-.2-.1663-.3462-.2-1.7738.2125-2.9375.8525-3.82 1.235-.7375.3225-1.2375.535-1.44.8062a.0606.0606 0 00-.0487-.0287c-.0225 0-.035.1412-.2238.1975-.0237-.0125-.0362-.0125-.0487-.0125-.1212 0-.1312.2762-.5137.3725-.0825.1187-.0675.2825-.3425.3912-.0975.275-.2363.4525-.2363.665 0 .7988.9.785 2.1025 1.0112 1.1938.2163 1.8325.4538 1.9775.8813.0112.06.0225.105.0225.1675 0 .1087-.0337.2275-.0937.335.01-.1563.01-.2975.01-.4163-.01-.0862-.0438-.13-.0838-.13 0 .0213.0125.0663.0125.1363 0 .3625-.3787.8012-1.1175 1.2062-.4512.2962-.9162.535-1.3675.6987-.025.075-.1675.1113-.4075.1938-.57.07-.9275.2-1.105.2h-.0475a.9468.9468 0 00.0975-.14c.0563-.0113.0937-.0238.1275-.05.025-.0925.06-.1188.1438-.1188l-.0113-.0437-.0725-.0625c.0838-.0575.1675-.105.275-.1163-.0263.0225-.0337.0438-.0337.0663 0 .0262.007.0375.0225.06.2012-.1625.4025-.3313.63-.4613.0362-.015.0812-.015.1162-.015.0163-.01.0163-.0212.0163-.0337 0-.0363-.0263-.0588-.0263-.1075 0-.0225.01-.0588.0362-.0963.02.0513.06.0588.1063.0588.035 0 .1187-.0075.2612-.0325 0-.0263-.01-.0475-.01-.0713 0-.0362.01-.06.0237-.0812.06-.0488.1063-.075.1425-.085l.0825-.12.0337-.0325c-.01 0-.0213.01-.0337.01-.025 0-.0363-.01-.0463-.0625l.07-.02c.01-.0625.025-.085.0463-.085.025 0 .0375.0375.0375.085 0 .0337-.0125.0825-.0238.1275.045-.0225.1063-.045.1888-.0813-.07.0113-.105.0113-.1163.0113v-.0238c0-.0475.0225-.07.0575-.0812.025-.0513.0725-.1075.1313-.1825-.0937 0-.1775.0375-.2613.0975-.0263 0-.05-.0113-.0712-.0113-.0825 0-.1687.045-.2375.13-.1212.0138-.1912.0138-.215.0263-.0362.0812-.0737.1525-.1325.2-.0337-.0113-.0837-.0363-.1525-.07-.1087.0112-.155.0587-.155.1412v.0263c-.0962.0662-.2125.1412-.3337.2225.0125-.045.025-.0813.025-.1075 0-.0225-.0125-.0338-.025-.0338-.0113 0-.0375.0113-.0588.0238-.1288.08-.2638.1775-.38.3225-.2388.07-.4763.19-.7025.3525h-.0737c-.0913 0-.0913.0262-.1176.1725.0588.5425.1576.795.4263.8175.18.07.3125.1075.3838.1075.0337 0 .0838-.015.1424-.0475.1063-.0375.24-.0925.3688-.1675l.0362-.045c.2388-.0263.3913-.1075.5212-.29.2376-.0825.5113-.1975.835-.3525 0 0 .0713 0 .2113.01.2638-.145.4088-.2713.5487-.2713h.025a.2618.2618 0 00.1413.0663 1.0876 1.0876 0 00.1213-.2488l.0838-.0337c.0463-.0488.0925-.07.1537-.07.0138 0 .0337 0 .06.0075l-.0263.0862c.0975-.0487.1562-.1187.1925-.2275.2275 0 .355-.1087.3937-.3312 0 .0112-.0137.0225-.0263.0225-.0125 0-.035-.0113-.0588-.0338.2163-.085.3675.0225.3813-.1675.1175 0 .1062-.2487.25-.6925 0-.01.0113-.0325.0113-.0437 0-.0263-.0113-.0363-.0263-.0363-.0225 0-.0337.01-.0575.0363v-.0363c0-.6325-.7963-1.18-2.2225-1.4288-.7163-.1187-1.1338-.1562-1.1338-.5737 0-.0475 0-.0925.0125-.14.0488-.0338.085-.06.1187-.075.0362-.0338.0725-.0938.0925-.1538l.0725-.0325c.8376-.7987 1.4925-1.075 1.6688-1.26.0812-.0262.1663-.0487.2613-.0975.025-.0362.06-.0625.1062-.0625.035 0 .0738.015.12.0263 0-.0263-.0112-.0338-.0112-.0488 0-.06.0375-.0975.1188-.12h.0725l.0712-.0112v-.01c0-.0588.8525-.3913 2.5925-.9525.2025-.0375.32-.06.3825-.06.1287 0 .2137.0225.2862.1312v.0113c0 .085-.0975.3712-.18.8912-.085.135-.1687.2613-.2262.3575-.06.0375-.0813.075-.0813.1088 0 .0337.0325.0587.0662.0587.11 0 .11-.1412.2412-.32.1313-.07.215-.1662.2863-.2975v-.037c0-.0712.0225-.12.0838-.1675.1275-.2975.1962-.525.1962-.6662 0-.0825-.0337-.1775-.0937-.2975m-11.63 6.274c0 .0112 0 .0225-.0137.0225-.0113 0-.0225-.0113-.0475-.0225-.0337 0-.0613-.015-.0613-.0263 0-.0112.0275-.0262.0613-.0262a.113.113 0 01.0613.015c.0112-.015.0238-.015.035-.015 0 .015-.0112.0262-.035.0525m.2738-.135h-.0362c-.0263 0-.035 0-.035-.01v-.012l.045-.025h.0263s.0125 0 .0125.0125c0 0-.0125.0237-.0125.0337m-.7375-.9037l-.0863.0237c-.01 0-.0212.01-.0337.01s-.025-.01-.025-.01c0-.0237.025-.0487.0587-.0825.05.0113.075.0338.0863.0588m.19-.925l-.0812.0825-.0525.0325.0613-.115h.0725zm1.6888 1.0438l-.0112.0987-.0488-.0162zm.155-.0363l-.06.015.0475-.0637zm-1.2612-1.58l-.0712.0338-.0125-.0338h.0838zm.0125-.1337h-.0613v-.0713c.0375 0 .0488.0225.0613.0713m.94.4912c-.6225.3713-1.0588.4863-1.1688.4863-.01 0-.0225-.0113-.0225-.0225 0-.1338.6087-.8113 1.88-1.5988.0713.1225.0975.2412.0975.35 0 .2225-.2863.39-.7863.785m-.0125 1.7588c-.0125-.0225-.0375-.0338-.05-.0338-.0225 0-.0437.0225-.0587.0813l.1088-.0475zm.7388-3.4488c-.0375-.01-.0738-.0225-.1063-.0225-.3212 0-.9412.365-1.5262 1.0675l-.06-.046c-.085.1062-.1812.2-.3137.2837v.0725l.11.0588c-.0462.075-.095.1337-.1538.1675v.0587l-.1315-.0437c-.2025.13-.2625.2125-.3225.3787l-.0838-.07c-.4525.3913-.5937.9963-.5937 1.15v.1c0 .1413-.07.2225-.07.3188 0 .18.1887.4887.365.5362l.0387-.015c.26.2263.4037.4438.5475.4438.1287 0 .1987-.4288.2612-.4288.0112 0 .0325.045.0325.1075v.0338c-.0213.06-.0325.1187-.0438.1625v.0162c0 .01 0 .01.0113.01.0112 0 .0325-.01.0837-.0262.095-.1363.1413-.2488.1413-.3188v-.0225c-.01 0-.0238.0113-.0375.0113-.0225 0-.0325-.0113-.0325-.0338 0-.0137 0-.0262.01-.0475l.06.0213c.0125-.07.05-.0925.0725-.0925.0225 0 .035.0225.035.0487 0 .0225-.0125.0338-.0125.07 0 0 .0125.0125.0387.0125.0813 0 .13 0 .13-.0387 0-.01-.0375-.0325-.0375-.07 0-.0225.0125-.0338.025-.06h.0213c.0387 0 .0512-.0075.0512-.0475v-.0463l.0825-.025v-.06c0-.055-.0125-.1187-.0225-.1662l.0813-.0338c.0462.0338.0725.07.0725.1188-.0112.0712-.0263.13-.06.19-.06.0487-.1063.1075-.1538.145 0 .0337.009.045.0337.045.0263 0 .0813-.045.1688-.1275l.0575-.1225a.0952.0952 0 01.025.06v.0225c.0588-.0125.085-.0338.085-.0825 0-.01 0-.0338-.0125-.0588l-.06-.045c.0337-.0862.06-.1337.1187-.1337h.0237l.0563.0375c.1313-.0713.0125-.265.1825-.2875.0213-.0213.0437-.0213.0563-.0213.0962 0 .0625.2375.085.2375.0112 0 .0112-.205.1075-.205h.0112l.035-.0962c.0725-.0363.13-.0825.1913-.13l.0475-.1075-.0575-.0375c.1512-.1638.3187-.32.485-.44v-.0438l-.0687-.0362c-1.4412 1.13-2.455 1.5575-2.68 1.5575-.1663 0-.24-.0113-.24-.1075 0-.0713.0513-.1313.145-.1863v-.075c-.05-.01-.05-.01-.05-.02 0-.015 0-.0375.0125-.0487h.0238c.0112 0 .0112 0 .0112-.0113 0-.0262-.0112-.0862-.0112-.1675v-.047h-.0363c.0125-.1062.0588-.1662.1437-.205l.0725.0488c.07-.07.1313-.1525.19-.2488l-.0137-.0337-.06.0225c-.0213-.0113-.0462-.0225-.0825-.0525l.0263-.1375h.0913l.025.0712c.0588-.015.1188-.0262.1688-.0375l-.0137-.055-.0962-.0375-.045-.0112c.01-.0488.0337-.0863.0713-.1013.0112.015.0237.015.0337.015.0362 0 .05-.0225.06-.0587l.0737.13c.0813-.0563.1375-.0938.165-.0938.0125 0 .0225.0075.0225.0225v.0238c.1325-.0238.2287-.06.3112-.0938.06 0 .0937-.015.12-.0225.57-.2012.9038-.3575.94-.3937.1163-.12.035-.1563.2025-.2125.2713-.0963.9013-.6213.9013-.87 0-.06-.2025-.465-.58-.8563m-4.422.9752c0 .01.0139.0225.0139.0362 0 .0563-.0625.1163-.0838.1163-.0125 0-.025-.0113-.025-.0338.0125-.0437.0462-.0962.095-.1187m.1562-.3088c0 .06-.025.1038-.06.1413-.0125.0112-.0237.0112-.0337.0112-.0263 0-.0263-.0112-.0263-.0225v-.0262l.12-.1038zm1.6887-2.1462c.01.015.01.015.01.0263 0 .0112-.01.0262-.0438.0375-.0263.01-.0362.0212-.0362.0212-.0137 0-.0137-.0112-.0137-.0112 0-.01.0137-.0363.0237-.0738zm.4776-.4125a1.9379 1.9379 0 01-.4163.3425v-.0825c.1325-.0712.2387-.145.32-.2375l.0963-.0225zm1.4962.1413l-.07-.13.0463-.0975c-.3313-.345-.6763-.3313-.9038-.4613-.0675.0075-.2.0825-.3775.2025-.68.5338-1.025.8688-1.025.985 0 .015 0 .0225.0112.0363l.1062-.0138c-.0725.0738-.155.1325-.2487.1975-.095.0775-.1663.1513-.2275.2075-.1063.1188-.165.2263-.2025.3238a2.94 2.94 0 01-.2138.1675c-.0112.0812-.0462.1412-.1187.19v.0212c0 .0475-.009.0713-.0337.0713a.0846.0846 0 01-.0512-.0238c-.01.0238-.01.0375-.01.0638 0 .0225 0 .0337.0263.0562-.1088.015-.1687.06-.1687.12l.0675.025c-.055.0225-.1038.0488-.1626.07.0825.0125.1188.0225.1188.0488 0 .0112-.0112.0337-.0462.0562-.0263-.0225-.0625-.0337-.0725-.0337-.035 0-.0462.0225-.0462.0975l.07.0112c-.2138.0963-.3175.2375-.3175.3075 0 .0488.007.0713.007.0825 0 .1088-.1525.145-.1787.2975v.0113c0 .085.0962.0637.0962.1087 0 .025-.0375.0738-.0962.155v-.015c0-.03-.025-.045-.0588-.0662-.1913.1675-.2988.2825-.2988.4162 0 .0225.0125.06.0263.0925v.0375c0 .0138 0 .0263.0113.0263.009 0 .025-.0125.0463-.0263.0137-.0587.05-.1187.095-.1675.0238.0113.0375.0375.0375.0488 0 .0325-.06.1187-.1538.2862-.025-.015-.0362-.015-.05-.015-.07 0-.105.0963-.1675.29.0125.03.05.0663.1088.0813-.0463.0562-.1188.105-.1888.1537 0 .3088-.0625.4638-.2037.4763-.0212.0262-.035.0475-.035.0812v.0363l-.01.1462c.045.5575.1162.855.3912.9738.0825.0862.155.1675.2113.2637.11.105.2387.165.3925.175l.1112-.0337.0213-.0588c.0725-.0375.1438-.06.225-.0825.1088-.1112.1688-.1775.1688-.2187 0-.0188-.0112-.0338-.0212-.0338h-.0312c-.1525.075-.3088.13-.4838.1563-.0362.0112-.0712.0225-.1175.0225a.2919.2919 0 01-.145-.0375l-.0362-.0325c-.0687-.205-.1187-.3688-.1187-.4988 0-.1675.0725-.54.2825-1.0012.0637-.085.1237-.1675.1937-.2487.1063-.5288.335-.7625.335-.9038 0-.015-.0138-.0262-.0138-.0362 0-.3138.1888-.4175.36-.6663-.0513-.0125-.0863-.0487-.1087-.1087.0575-.0488.1087-.1075.13-.1788.0237.0113.0462.0225.085.0225h.0225c.1312-.055.1437-.2225.2137-.33.0362-.0637.1438-.0637.1438-.13 0-.0162 0-.0262-.0113-.0387-.0475.0125-.0863.0387-.1325.0825-.01.0112-.0238.0112-.0238.0112-.0125 0-.0125-.0112-.0125-.0112 0-.0113.0125-.0338.0263-.06.0462-.055.095-.1038.1537-.1413.19-.2375.3213-.3825.4275-.405.18-.3575.4288-.5612.7038-.7687.095-.1238.2037-.2313.31-.325-.145.0112-.215.12-.2513.12-.0238 0-.0238-.015-.035-.06.0712-.1088.165-.1825.2975-.205.2375-.2863.4763-.3075.69-.4275l.0725.06c.0475-.0375.0688-.0488.1063-.0488.009 0 .035.0113.05.0375-.1213.3563-.3475.6888-.6338 1.045l-.1925.2375c-1.5688 1.525-2.485 2.38-2.485 2.965v.0738c.0588.1412.1075.1975.1538.1975.0125 0 .0363 0 .0438-.0075-.007-.0638-.007-.1075-.007-.1675 0-.665.7837-1.3688 2.215-2.5138.285-.3313.595-.665.9375-.9813l.1562-.3137.0488-.1663.0437-.2387zm-8.4997 4.8905c.0137-.0225.0237-.0338.0237-.0438 0-.0262-.0237-.0412-.055-.0487-.025.0225-.0388.0487-.0388.07 0 .0225.0138.0325.0138.0587m.9162-.2375l.009-.0375c-.0437-.0212-.0937-.0212-.1037-.0212-.0263 0-.0263 0-.0263.0112 0 .01 0 .0213.0263.0475.01.0113.0225.0113.0437.0113.0163 0 .0375 0 .0513-.0113m.13-.0262c.0362-.0113.0475-.0113.0475-.0213h-.12c0 .01-.0112.0213-.0112.0363 0 .0225.0112.0337.0237.0337.0225 0 .035-.0112.06-.0487m-1.1788-.78h-.0362v-.075h.0362zm2.2612 1.0775c-.0962.1787-.3313.3475-.725.4775l-.0463-.0713.105-.0825.0712.0338c.035-.06.0737-.1038.0825-.1525.19-.01.355-.085.5125-.205m-1.9788-1.6062c-.01.0375-.0438.075-.0937.0975l.0387-.0975c.0112-.0213.0112-.0338.025-.0338.009 0 .02.0125.03.0338m.4075 2.1462l.0125.045-.1325.0362c-.4013-.01-.63-.2037-.63-.5087 0-.1238.06-.2975.1875-.5613.0987.0588.1825.1075.2287.14.1213.0375.225.0488.32.0488l.0962-.0113.0588.0338.0825-.0338v-.0262a.0793.0793 0 00-.0225-.055h-.0838l-.0487-.0113-.0563.0113c-.1925-.0638-.3587-.145-.5-.2375.2838-.5138.7013-.7038 1.2875-1.0012l-.0525-.0488c.0863-.0475.18-.0962.3025-.14l-.015-.0387c-.0588.0125-.1412.0262-.2225.05-.6712.2975-1.1462.6062-1.4425 1.0225l-.0712-.1675c.0112-.0863.0325-.1638.0575-.2488.0263-.0862.06-.18.1325-.265.2238-.1412.2988-.3937.5725-.4537l.0812-.0813c.1313-.1312.37-.2012.7125-.2487l.4313.0475.1175-.0113c.5612.165.8337.39.8337.7375 0 .3188-.2487.7463-.7512 1.2112-.5.465-.9875.7175-1.4862.7663m1.7975-.48l-.0725.0262c-.0113-.0112-.0225-.0262-.0225-.0375l.0225-.0225zm.2387.06l-.0825.015c-.0263 0-.0263 0-.0263-.015 0-.0113.0125-.0225.0463-.045l.0625.0225zm1.0325-.9413c.06-.2012.0962-.3525.0962-.4725 0-.6537-.6775-1.1075-1.89-1.1075h-.1925l-.0962.0325-.035-.0225-.0575.0225-.0237-.0225c-1.2163.2725-1.8225.6925-1.8225 1.2025 0 .1213.0263.2375.0863.36l.165.2125-.0712.1038c-.0725.1225-.1537.3725-.1537.5512 0 .62.485 1.0338 1.2338 1.0338.1562 0 .2512-.06.3112-.06v-.0112c0-.0113 0-.0113.0125-.0113h.1163c.0125-.06.0263-.0812.0263-.0962 0-.0338-.06-.0488-.06-.0713 0-.0112.0138-.0225.0337-.0375.0125 0 .0263-.0112.0363-.0112.0288 0 .0375.0112.05.0375h.0213c.025 0 .0387.0112.0387.0337 0 .0263-.0238.0638-.0725.1188h.0487c.0463 0 .1062-.01.15-.0225 0-.0813.0387-.1563.11-.2 0 .0437-.0113.07-.0113.0925.07-.0488.1187-.1075.155-.1888-.0125-.0125-.0125-.0237-.0125-.0337 0-.0263 0-.0263.025-.0388.0375-.0212.0812-.07.14-.1287l.0138.0587c.0588-.0362.1175-.0587.1675-.0587h.0337l.04.0812h.0688l-.025-.0712c.0725-.0363.1425-.0588.2025-.0925l.0588.0112c.0962-.1337.215-.275.3812-.4525.0362-.0125.0488-.0337.06-.06-.0238-.0225-.0475-.0562-.0475-.0825-.0125.0375-.0362.0488-.0575.0488-.0138 0-.025 0-.0387-.0113l.0837-.0862a.2073.2073 0 01-.155-.07l.0375-.0375.0587.0375c.0138 0 .025.0112.0463.0112.0375 0 .095-.0112.1538-.0225l.0263.07.0962.0975c.0238-.0375.0337-.0637.0337-.0975 0-.015-.01-.0362-.01-.0587l.035-.0813-.0588-.1937c0-.0225-.0138-.0488-.0138-.07 0-.0863.0725-.1088.1325-.1838l.06.0413c-.0137.0562-.0262.1187-.0487.1787h.0225c.0725 0 .0987.0813.1662.0925l.0263-.1075c.0712-.1075.0925-.1562.0925-.1562m-6.48 1.484c0 .0112 0 .0225-.015.0225-.0113 0-.0213-.0113-.0475-.0225-.0362 0-.0588-.015-.0588-.0263 0-.0112.0225-.0262.0588-.0262.0125 0 .0362 0 .0625.015.01-.015.0225-.015.0325-.015 0 .015-.01.0262-.0325.0525m.2713-.135h-.0362c-.0225 0-.0362 0-.0362-.01v-.0113l.0475-.025h.025s.0112 0 .0112.0125c0 0-.0112.0238-.0112.0338m-.7363-.9038l-.0837.0238c-.015 0-.0263.01-.0375.01-.0112 0-.0225-.01-.0225-.01 0-.0238.0225-.0488.06-.0825.0437.0112.0712.0337.0837.0587m.1875-.925l-.0825.0825-.0475.0325.0575-.115zm1.69 1.0438l-.0112.0988-.0462-.0163.0575-.0825zm.1575-.0362l-.0625.015.0463-.0638zm-1.265-1.58l-.07.0337-.0125-.0337zm.0125-.1338h-.0588v-.0712c.035 0 .0463.0225.0588.0712m.9413.4913c-.62.3712-1.06.4862-1.1662.4862-.0112 0-.0238-.0112-.0238-.0225 0-.1337.6062-.8112 1.8812-1.5988a.6804.6804 0 01.0937.35c0 .2225-.2825.39-.785.785m-.0125 1.7588c-.0112-.0225-.0337-.0337-.0462-.0337-.0263 0-.0475.0225-.06.0812l.1062-.0475zm.7412-3.4488c-.0375-.01-.0725-.0225-.1075-.0225-.3262 0-.9412.365-1.5275 1.0675l-.0812-.0462c-.0838.1062-.1787.2-.3075.2837v.0725l.105.0588c-.0462.075-.095.1337-.1575.1675v.0587l-.1275-.0437c-.2025.13-.2637.2125-.3212.3787l-.0838-.07c-.4525.3913-.5938.9963-.5938 1.15v.1c0 .1413-.0725.2225-.0725.3188 0 .18.1913.4887.3675.5362l.0362-.015c.2625.2263.4038.4438.5463.4438.1325 0 .2025-.4288.2625-.4288.0125 0 .0387.045.0387.1075v.0338c-.0263.06-.0387.1187-.0525.1625v.0162c0 .01 0 .01.0138.01.0125 0 .0387-.01.085-.0262.0937-.1363.145-.2488.145-.3188v-.0225c-.0175 0-.0288.0113-.0387.0113-.0238 0-.035-.0113-.035-.0338 0-.0137 0-.0262.0112-.0475l.0625.0213c.0112-.07.0438-.0925.0675-.0925.0238 0 .0362.0225.0362.0487 0 .0225-.0125.0338-.0125.07 0 0 .0125.0125.0362.0125.0813 0 .1325 0 .1325-.0387 0-.01-.0375-.0325-.0375-.07 0-.0225.015-.0338.0238-.06h.0238c.0362 0 .0487-.0075.0487-.0475v-.0463l.0838-.025v-.06c0-.055-.0137-.1187-.0263-.1662l.0838-.0338c.0487.0338.0737.07.0737.1188-.0137.0712-.025.13-.0625.19-.0563.0487-.105.1075-.1525.145 0 .0337.0138.045.0362.045.0213 0 .0825-.045.165-.1275l.0613-.1225a.0946.0946 0 01.0237.06v.0225c.06-.0125.0813-.0338.0813-.0825 0-.01 0-.0338-.01-.0588l-.06-.045c.035-.0862.06-.1337.12-.1337h.0212l.06.0375c.1337-.0713.0125-.265.18-.2875.0213-.0213.0475-.0213.06-.0213.095 0 .0588.2375.0825.2375.0125 0 .0125-.205.1062-.205h.0112l.0375-.0962c.07-.0363.1325-.0825.19-.13l.0462-.1075-.06-.0375c.1563-.1638.3238-.32.49-.44v-.0438l-.0725-.0362c-1.4388 1.13-2.4512 1.5575-2.6788 1.5575-.1662 0-.235-.0113-.235-.1075 0-.0713.0438-.1313.1388-.1863v-.075c-.0113-.0112-.0113-.0112-.0113-.0212 0-.015 0-.0375.0113-.0488h.0263c.0112 0 .0112 0 .0112-.0112 0-.0263-.0112-.0863-.0112-.1675v-.0488h-.0375c.0113-.1062.0613-.1662.145-.205l.0712.0488c.0725-.07.13-.1525.1887-.2488l-.0125-.0337-.0575.0225a.3721.3721 0 01-.0838-.0525l.0263-.1375h.0937l.0213.0712c.06-.015.1213-.0262.1675-.0375l-.0125-.055-.095-.0375-.0475-.0112c.0113-.0488.0375-.0863.0713-.1013.0125.015.025.015.0375.015.0337 0 .0462-.0225.06-.0587l.07.13c.0825-.0563.1425-.0938.1675-.0938.0125 0 .0238.0075.0238.0225v.0238c.13-.0238.225-.06.3088-.0938.06 0 .0962-.015.12-.0225.57-.2012.905-.3575.94-.3937.1212-.12.0337-.1563.2037-.2125.2725-.0963.9025-.6213.9025-.87 0-.06-.205-.465-.58-.8563m-5.8941 2.879c-.0175.0224-.0512.06-.0975.0824l.0712-.1312m.5575-.4425l-.1062.1087a.8095.8095 0 01-.0463-.1412l-.025.055-.1063-.0338-.1087.12c.05.0363.095.0625.1562.085-.035.0488-.0838.0775-.1312.13v-.1787l-.0588.0975c-.0488.0075-.0838.0287-.1213.06l-.0213-.1238.0838-.055c.0487-.0412.105-.135.2375-.2387.02-.0488.0463-.1113.08-.1563l.0863.06.0588-.015c0 .0625.0112.135.0225.2263m.1213-.26l-.0737.13.0137-.0675c-.0137-.0138-.0487-.025-.0837-.0625h.1437zm0-.1525l-.0487.1037h-.0725c-.0225-.0437-.06-.08-.0937-.1037a.585.585 0 01.1662-.0488l.0487.0488zm-.8225.38l-.0725.0475.0262.06c.035-.0225.0463-.0525.0463-.0713zm.9412-.5575c.01-.0163.01-.0263.01-.0488 0-.0112 0-.0225-.0225-.0487-.0713.0112-.0838.0375-.0838.0812 0 .0375.0125.06.0213.06.0288 0 .0512-.0225.075-.0437m2.9138-1.2062c-.0337-.0925-.095-.1775-.1912-.2488l-.0937-.0437h-.0125c-.0225 0-.0113.0325-.045.0325-.1225-.0588-.2038-.105-.2888-.105-.2125 0-1.2238.4512-2.1025 1.6038l-.2175.2275-.0375-.105-.0838-.1v-.175l.0288-.0963c.0213.015.0462.0213.055.0213l.0125-.0063c0-.015-.0125-.0263-.0213-.0488.06-.0487.1325-.075.2138-.085.0588-.075.095-.1562.095-.2387 0-.025-.0112-.0488-.0112-.07.0925-.1425.1437-.275.1437-.4175 0-.0325-.0137-.1213-.0512-.23-.045-.03-.0687-.0638-.0813-.0925-.215-.0563-.4275-.0938-.6525-.0938-.0725 0-.1425.015-.215.015v.0675l.0937.04-.105.6363c-.1337.3725-.2875.5362-.2875.6112v.01h.015c.0225 0 .045-.01.0688-.0337l.0862-.1088c.0688-.025.1288-.0462.1888-.085a.1393.1393 0 01.0337.085c-.2225.4288-.355.7263-.355.9538v.07l-.095-.0488c-.0725.0338-.0925.0725-.0925.1075 0 .0263.0112.06.0312.0838-.02.0362-.0312.07-.0312.0925 0 .0262.0112.0375.0312.0375-.06.0475-.1063.095-.1525.145-.0362.1887-.1213.3575-.2625.4975-.1213.1787-.1913.275-.1913.275v.015l.0263-.0263c.01 0 .0437-.0112.095-.0475.035-.0262.07-.0375.105-.0712 0-.0963.0462-.13.1438-.1675-.0125-.025-.0125-.0375-.0125-.0475 0 0 0-.0113.0125-.0113.01 0 .0212.0113.0475.0213l.0588-.1138v-.075h.11c.0338 0 .0438.01.0438.0225 0 .0138-.0238.0525-.0838.0863l-.0812.14c-.1325.0975-.225.2037-.3.3575-.0712.06-.1163.0962-.155.0962-.01 0-.0213-.0112-.0337-.0112v.0112c0 .105-.0937.2013-.205.3638v.0162c0 .01.05.0363.1662.0363.0512-.0525.0987-.0963.1463-.1225l.13.0375c.3462-.0113.5112-.1525.5837-.495l.2488-.3713c.0962-.3575.1787-.61.4175-.775l.035-.1437c.0588-.0225.105-.0338.1437-.0488.7125-.8075 1.1412-1.38 1.4762-1.5575l.19-.0825.07.0488c-.0113-.0375-.0225-.0713-.0225-.1088 0-.0262.0112-.0437.0112-.07l.07.0813c.0487-.055.1063-.0925.1788-.1175l.0363.0362v.13l-.0588.0588c-.07.3212-.1913.6225-.3688.8937l.0238.0375c-.0363.0475-.095.1438-.1912.2813.0225.0637.0487.0975.0962.0975.0225 0 .035-.015.0587-.015.0363-.06.0625-.1038.085-.1625.0588 0 .105.01.1175.0475-.0125-.0113-.0213-.0263-.0213-.0375 0-.0563.175-.1275.425-.4513.0725-.025.13-.035.1662-.0462 0-.0125-.0112-.0125-.0112-.0225 0-.06.1563-.135.335-.3613.07-.0937.1163-.2012.1525-.3087l.0725-.06c0-.0475.0225-.1075.0462-.1675m-1.6288 1.7412v.0075c0 .015 0 .0262.01.0262.025 0 .0588-.0112.0963-.0337.0225-.015.0362-.0363.0362-.0488 0-.0362-.0362-.06-.0825-.06-.05 0-.06.0338-.06.1088m-6.6392 2.0078l-.1187.0487.06.0338.0238.0812c-.095.0188-.1788.0413-.2488.075-.025 0-.0487-.0237-.06-.075l.08-.0662-.02-.1075.0838-.0725c.0462 0 .0925-.0138.1413-.0363m1.1525.145h-.07l.0475-.0362zm-.0437-.06l-.0975.0338c-.0238 0-.0238-.01-.0238-.0225 0-.0263.0125-.0738.0588-.1325zm-.2775-.5125l-.0238.12c-.0937-.0112-.1425-.0337-.1425-.0937l.1662-.0263zm.4425.4638l-.0513.06c-.02-.0475-.0437-.1063-.07-.155h.0625c-.0125.0225-.0263.0487-.0263.0587 0 .0225.0138.0225.0263.0225h.0225l.0362.0138zm-1.3825-5.1062l-.1275.065-.0275-.0525zm2.1412-.8313l-.07.0138v-.0375zm2.55.94c-.0137.13-.06.205-.0825.205-.0125 0-.0262-.0262-.0487-.0262-.0138 0-.0238 0-.0387.0112l-.025.075c-.0325-.0162-.0687-.0162-.09-.0162-.0362 0-.0625.0162-.0725.0375l-.0725-.1675c.0725-.0475.1325-.07.215-.0813.02-.0737.035-.1337.035-.19.06-.0162.0975-.0587.0975-.1412v-.0375c.0463.0112.0563.045.0563.0937l-.0825.1188a.403.403 0 01.1087.1187m.1188-.32l-.025.0488c-.0112.0075-.0238.0225-.0375.0225v-.0375c0-.0338.0137-.045.0263-.045.0112 0 .0225 0 .0362.0112m-.3225-.5462l-.0475.0712-.0337-.0237c.0213-.025.0337-.0475.0575-.0475zm.5125.2975c0 .0825-.0387.1187-.12.1187-.0613 0-.1063-.0362-.155-.0962l.1787-.13c.0475.0337.0825.07.0962.1075m-3.0138 5.1725l-.095.0387.0388.0475zm-.21-.1375c.009-.015.009-.0263.009-.04 0-.0113 0-.0225-.0238-.0338h-.0337l.0488.0738zm.4038.0675l-.1213.0262.1088.06c.0325.01.06.01.0725.01h.0212c0-.0262-.0337-.0475-.0812-.0962m1.26-1.0562h-.1425c-.0825.0675-.1788.1162-.2863.13.0375.0225.0613.045.0613.0712 0 .01-.0238.0213-.0613.0338l-.1062-.0725-.1188.06c.0125.0387.035.06.0575.06.0137 0 .0263 0 .0375-.0113.0238.045.035.0863.035.13l.1325-.0337c0-.0513.0238-.085.0588-.1225l.0725.0637v-.015c0-.0325.0937-.1187.26-.2937m2.6162-5.0475c-.0463-.145-.2725-.1888-.6525-.2975-.4425-.1188-.7387-.275-.9887-.275-.025 0-.045.0112-.0712.0375.06.105.0838.26.0838.45 0 .215-.0475.3237-.1913.3237-.095 0-.415-.2387-1.25-.2387-.1287 0-.3312.0712-.6425.19-.0488-.0113-.095-.0113-.155-.0113-.2125 0-.5237.06-.9275.1638-.0588.0375-.0837.075-.1062.1087-.4163.0588-.7363.4763-1.3438.6325-.06-.0375-.1088-.06-.1438-.06-.025 0-.1675.3088-.4275.3088-.0238 0-.0375-.0488-.0488-.0488-.0238 0-.0575.0225-.1187.075-.06.1888-.165.2825-.31.2825-.06 0-.0937-.0112-.12-.0112-.3075 0-.1163.4275-.355.4275-.0362 0-.0725-.0113-.095-.0113-.1313 0-.3213.3463-.9163.855-.0725.1788-.095.275-.1762.275h-.0625c-.0937 0-.3788.5475-.3788 1.0825 0 .5625.0238.7888.415 1.2275.275.3125.5.6925.8813.975l.5112.26h.0212c.265 0 .275.2275.36.2275.0325 0 .06-.0112.0825-.0337.0475 0 .0825-.0163.1188-.0163.07 0 .1075.0263.1187.06l.1425.0113c.0613.015.1063.1087.1438.1087.0238 0 .0575-.0237.0575-.0562 0-.0113-.0112-.0375-.0112-.0525 0-.045.06-.0813.1212-.0813.0462 0 .1063.0363.2013.0963.0225.06.0362.0937.0362.1037 0 .015 0 .0263-.0137.0375-.01-.0112-.0225-.0112-.0337-.0112-.0263 0-.0488.0262-.0488.0375 0 .0337.0488.055.1412.055.0725 0 .1338-.1038.1938-.1038h.2837c.025-.0587.0463-.145.0712-.2387.0613-.025.0838-.0613.0838-.0925 0-.0138 0-.04-.0112-.0513l.1888-.2725c.1562 0 .2262 0 .2262.06v.0125c-.0937.0463-.14.085-.1525.1288l.1413.0262c-.0588.1088-.215.1088-.25.2388l.2375.055.155-.055c.0838-.265.2525-.1425.395-.275.0112-.0863.0225-.145.0225-.1675.0575-.0825.12-.1425.2025-.175l.1275-.0375-.0575-.0363-.2.01.0475-.175c-.0137-.0625-.095-.0225-.095-.1225v-.0112l.1412-.0813c.0712.0113.1175.0375.155.0713v-.0125c0-.0213.0375-.0475.1075-.0475 0 .1662.0225.2375.0687.2375.0725 0 .1088-.1563.2138-.2113.04.01.0613.0213.0738.0213.0125 0 .0125-.0113.0125-.0113 0-.01-.0125-.025-.025-.0362.0825-.045.1562-.1088.2387-.1638l.0125-.1675c.0213.0075.0475.0075.07.0075.0725 0 .1313-.0337.1788-.0925l.0713.0363c-.0125-.1338-.0613-.205-.105-.205-.0238 0-.0725.0637-.1788.145-.1437 0-.215 0-.215.06.01.0112.01.0325.01.0487 0 .0225-.01.0438-.0488.0588-.009-.0363-.0462-.0588-.07-.0588-.1887 0-.285.0225-.285.07 0 .0113.0125.0113.0125.0225-.2.0975-.3237.13-.3787.13h-.1325c-.595.2275-1.05.2275-1.2738.3838.0225.07.06.13.1087.1675l-.1087.0437h-.035c-.0838 0-.1188-.0375-.1188-.1175v-.0337l-.0725-.05c-.1562.1637-.5475.105-1.2012.2987-.7525-.275-1.105-.6587-1.105-1.105 0-.0412.045-.1112.045-.2425v-.07c-.0825-.14-.1412-.2262-.1412-.275 0-.1412.1875-.2937.285-.4875.0738-.1675.0738-.3675.155-.5462.009-.0225.0225-.1788.32-.4875.06-.075.06-.2038.1212-.2713.0463-.0525.4513-.135 1.19-.9675.2588-.2975 1.0475-.68 2.3425-1.3425h.0238s.01 0 .01.0113c0 .0112-.01.0337-.0462.0712.655-.195 1.0962-.2387 1.285-.2987.1313-.0475.2713-.1888.465-.1888.25 0 .4513.0675.525.1675.0212.0925.035.175.035.26 0 .085-.025.1638-.06.2375-.1075.0238-.1437.0713-.1437.1538 0 .085.025.2037.0825.37-.0462.1912-.3213.12-.3213.2137 0 .0963.0725.2038.11.2038.0687 0 .165-.145.2113-.145.0263 0 .0263.015.0375.0375-.025.0712-.06.1675-.095.2862-.095-.06-.145-.1075-.165-.1075-.015 0-.0513.0925-.1688.2975l.07.0925c-.1175.06-.165.1088-.165.215 0 .12.0338.1838.095.1838.0588 0 .0838-.03.0838-.075 0-.0375.0113-.0488.0337-.0488.025 0 .0513.0225.0713.0225.035 0 .0862-.0337.12-.115l.0363.045c.0837-.1412.1675-.2275.2488-.2487l-.01-.0713c-.0362-.0262-.06-.0487-.06-.06 0-.0112.0125-.0212.035-.0212.025 0 .0588.01.1075.0437v-.0337c0-.0588.0238-.0963.0712-.1188l.0588.0938-.0588.1287c.1075-.0437.13-.2375.24-.33.0462-.0487.26 0 .295-.515.0125-.02.0238-.0325.0238-.0587 0-.0213-.0112-.0438-.0112-.07 0-.0113.025-.0375.0462-.0375.05 0 .0975.0637.1325.0637.0113 0 .0225-.015.0337-.0375l-.0337-.085c.0225-.0237.0225-.0337.0225-.0562 0-.0363-.0112-.0625-.0575-.085-.0475-.0713-.0712-.12-.0712-.1538 0-.0137.01-.025.0238-.025.0825.0375.1312.0588.1537.0588.1438 0 .0225-.4975.2625-.5725l.13.0487.3325-.1187.0588-.2725zm-2.2938 4.8162c-.145.0262-.2262.0525-.2625.0975l.0613.085c.0563-.015.1163-.07.2013-.1825m-.0937-1.9588c-.0125-.0488-.04-.0725-.085-.0725l-.0588.225.1437-.1525zm-1.8588-2.0225l-.0138-.0275-.035-.0113c-.0225 0-.0812.0263-.1663.085l.0712.0125c.0488 0 .095-.0262.1438-.0587m2.2362.605c0-.0225-.01-.0388-.0337-.0388h-.0362v.0388h.07zm1.3338-.2975c.0112-.0375.0112-.0588.0112-.085 0-.0225 0-.0563-.0112-.0825l-.0725.0262c.0362.0488.0625.0925.0725.1413m-13.46 5.0359c0 .0112 0 .0225-.0113.0225-.0112 0-.02-.0113-.0475-.0225-.0337 0-.0588-.015-.0588-.0263 0-.0112.025-.0262.0588-.0262.015 0 .0362 0 .0588.015.0112-.015.0287-.015.04-.015 0 .015-.0113.0262-.04.0525m.275-.135h-.0375c-.0238 0-.0325 0-.0325-.01v-.0113l.0438-.025h.0262s.0138 0 .0138.0125c0 0-.0138.0238-.0138.0338m-.7375-.9038l-.0838.0238c-.0137 0-.0238.01-.0337.01-.0125 0-.0275-.01-.0275-.01 0-.0238.0275-.0488.0613-.0825.0475.0112.0725.0337.0838.0587m.1887-.925l-.0813.0825-.0487.0325.06-.115zm1.6912 1.0438l-.0112.0988-.05-.0163.0613-.0825zm.1538-.0362l-.0588.015.0475-.0638zm-1.26-1.58l-.0738.0337-.01-.0337zm.0112-.1338h-.06v-.0712c.0375 0 .0488.0225.06.0712m.9425.4913c-.6213.3712-1.06.4862-1.1688.4862-.0125 0-.0238-.0112-.0238-.0225 0-.1337.6062-.8112 1.88-1.5988.0725.1225.0975.2413.0975.35 0 .2225-.2875.39-.785.785m-.0137 1.7588c-.0113-.0225-.0375-.0337-.0488-.0337-.0225 0-.0462.0225-.0588.0812l.1075-.0475zm.7387-3.4488c-.0375-.01-.0725-.0225-.1062-.0225-.3238 0-.9413.365-1.5238 1.0675l-.085-.0462a1.176 1.176 0 01-.31.2837v.0725l.1075.0588c-.0438.075-.095.1337-.1538.1675v.0587l-.1325-.0437c-.2012.13-.2625.2125-.3212.3787l-.0837-.07c-.45.3913-.5938.9963-.5938 1.15v.1c0 .1413-.07.2225-.07.3188 0 .18.1888.4887.3675.5362l.0337-.015c.2625.2263.405.4438.5513.4438.13 0 .1987-.4288.26-.4288.0113 0 .035.045.035.1075v.0338c-.0237.06-.035.1187-.0462.1625v.0162c0 .01 0 .01.0112.01.0113 0 .035-.01.0813-.0262.0987-.1363.1437-.2488.1437-.3188v-.0225c-.0113 0-.0238.0113-.0338.0113-.025 0-.0375-.0113-.0375-.0338 0-.0137 0-.0262.0125-.0475l.0588.0213c.0125-.07.05-.0925.0725-.0925.0213 0 .035.0225.035.0487 0 .0225-.0137.0338-.0137.07 0 0 .0137.0125.04.0125.0812 0 .1288 0 .1288-.0387 0-.01-.0337-.0325-.0337-.07 0-.0225.0112-.0338.0213-.06h.025c.0375 0 .0463-.0075.0463-.0475v-.0463l.085-.025v-.06c0-.055-.0125-.1187-.0238-.1662l.0825-.0338c.0475.0338.0725.07.0725.1188-.0138.0712-.025.13-.06.19-.06.0487-.105.1075-.1563.145 0 .0337.0125.045.0375.045.0238 0 .0813-.045.165-.1275l.0637-.1225a.108.108 0 01.02.06v.0225c.0613-.0125.085-.0338.085-.0825 0-.01 0-.0338-.01-.0588l-.0613-.045c.0325-.0862.0613-.1337.1188-.1337h.0238l.0575.0375c.1337-.0713.0137-.265.18-.2875.0237-.0213.0462-.0213.0575-.0213.0975 0 .0625.2375.0825.2375.015 0 .015-.205.1112-.205h.01l.0325-.0962c.075-.0363.1325-.0825.1925-.13l.0488-.1075-.06-.0375c.1563-.1638.3213-.32.4888-.44v-.0438l-.07-.0362c-1.4412 1.13-2.455 1.5575-2.68 1.5575-.1663 0-.24-.0113-.24-.1075 0-.0713.05-.1313.1437-.1863v-.075c-.01-.0112-.01-.0112-.01-.0212 0-.015 0-.0375.01-.0488h.025c.01 0 .01 0 .01-.0112 0-.0263-.01-.0863-.01-.1675v-.0488h-.035c.01-.1062.06-.1662.1438-.205l.0725.0488c.0687-.07.1275-.1525.19-.2488l-.0137-.0337-.0613.0225c-.0225-.0113-.0463-.0225-.0825-.0525l.025-.1375h.0925l.0263.0712c.06-.015.12-.0262.1662-.0375l-.0125-.055-.0937-.0375-.0462-.0112c.01-.0488.0312-.0863.0687-.1013.0125.015.025.015.0375.015.0337 0 .0463-.0225.0563-.0587l.075.13c.0812-.0563.1413-.0938.165-.0938.0112 0 .0238.0075.0238.0225v.0238c.1313-.0238.2263-.06.3088-.0938.0625 0 .0962-.015.1225-.0225.57-.2012.9025-.3575.9387-.3937.1163-.12.035-.1563.2025-.2125.2725-.0963.9025-.6213.9025-.87 0-.06-.2012-.465-.5812-.8563m-6.5902 2.545c-.009.015-.0225.0224-.0337.0224-.0125 0-.0238-.0075-.035-.0225-.0238-.015-.035-.015-.035-.0225 0-.015.0112-.0375.035-.0487.0462.0112.0687.0337.0687.0712m1.8338.9263c-.0225-.0075-.0337-.0075-.0337-.0225 0-.0113.0112-.0338.0337-.0488.0362.015.0613.0375.0613.0638 0 .0212-.0113.0362-.025.0362-.015 0-.0238-.015-.0362-.0287m.3587-2.0562l-.1562-.0463c-.0475 0-.07-.0137-.07-.0287 0-.0075.0325-.0238.1187-.0338h.0238c.0462 0 .0687.0338.0837.1088m.355.1662l-.0238.07c-.0263.015-.0488.015-.0588.015-.0337 0-.05-.015-.05-.0475 0-.0225.0263-.0637.0713-.0962zm.0375-2.6138l-.0712.0438-.0725-.0438c.0138-.0862.0463-.1562.1075-.2275.06.0075.07.0225.07.0713 0 .0212-.01.0812-.0337.1562m-1.7975 2.4738l.0738.0213h.009c.035 0 .0488-.0113.0488-.0338 0-.0375-.0488-.0962-.0838-.0962-.025 0-.0475.0362-.0475.1087m2.6288 2.0775l-.0837-.0187.0263.0937.0575-.075zm-2.3088-2.5062l-.07-.0475-.1187.1025c0 .0863.0237.1088.1087.1088.0462-.0563.07-.1088.08-.1638m2.19 2.6288v-.0137c0-.0225-.0138-.0338-.025-.0338-.095 0-.2712.2-.5112.2-.0587 0-.1313-.045-.1913-.14.0263-.0487.0375-.0825.0375-.12 0-.0625-.0375-.1075-.11-.1562-.0825-.26-.1287-.465-.1287-.61 0-.1375.0362-.26.1175-.3788v-.1187c0-.235.0375-.365.0737-.38.0475-.1075.1425-.1525.1425-.2125 0-.0263 0-.0375-.0113-.0475-.2763-.2975-.4875-.4538-.6175-.4538-.3238 0-.5363.1063-.5363.2388v.225c-.25.1787-.5237.4075-.8212.67l-.1188.1525-.0487.0675-.1437.0375c-.0925.1325-.2.2487-.33.3825-.2625.1562-.3725.335-.49.45.1437-.5688.3925-.6663.4387-.7263.0613-.08.3113-.5575.7175-1.4375.12-.145.2375-.2825.3325-.4175.0238.0638.0563.0963.0937.0963.0238 0 .0613-.0213.0613-.0475 0-.0488-.015-.1088-.0262-.19.1213-.1413.2175-.32.2888-.5088l.0112.055.0575.0588.0725-.0438c-.0237-.0262-.0375-.0487-.0375-.06 0-.0362.0263-.0475.075-.0475.02 0 .0462 0 .08.0113.0362-.0225.0613-.0563.0613-.0825 0-.0363-.0487-.06-.1413-.06-.0375.05-.0613.0712-.0863.0712-.01 0-.0238-.0112-.0238-.0337 0-.0138 0-.0375.0137-.0625h.0725l.06-.0825.0337.0262c.0362-.0737.06-.1225.06-.145 0-.0112-.0138-.0262-.0238-.0487l-.0463.0487c-.0137.0375-.0237.0588-.04.0588-.009 0-.02-.0213-.02-.0438.07-.1075.1525-.1925.2475-.2525.0375.0213.0488.06.06.0813.07-.0338.1075-.0925.1075-.1788-.0488-.0337-.06-.06-.06-.0925 0-.0375.0225-.1075.0687-.2312.0263.0525.0475.1012.0475.1575v.0362l-.0325.0825.095-.0925c.07.0213.1063.0338.1288.055.0362-.0212.05-.0337.05-.055v-.0262a.3157.3157 0 01-.1338-.0675c0-.0638.025-.075.0838-.075h.0725c.06.0112.0813.06.1188.06.0725 0 .13-.1075.19-.3313.12-.0737.215-.1662.2637-.2862.0688-.145.1188-.2375.1188-.3125 0-.2525-.3575-.5138-1.0488-.6275-.0463-.0263-.1175-.0488-.2013-.0938-.06.0113-.0837.0338-.0837.055 0 .0125.0137.0388.0237.06.1575.06.2275.1563.2275.2613 0 .0812-.0125.155-.0363.2487-.0825.3713-.3312.61-.3937.8963-.2263.4012-.425.8187-.6163 1.2225l-.0975.1125c-.0238.0337-.1162.175-.2612.4237-.0113.1075-.32.6225-.915 1.5475v.0825c-.2163.3188-.3813.5338-.395.75-.1875.4425-.3675.655-.3675.7638 0 .14.06.2225.18.2225.1175 0 .3662-.2713.7962-.7963.1063-.0925.1875-.1637.2488-.2225.07-.0975.1562-.1837.2487-.2762.2388-.2263.5-.4163.7975-.58l.0512-.1113c.0813-.0825.1788-.13.295-.13v.1888l-.0238.06v.0712c0 .0963.0125.1338.0487.1338.0213 0 .0475-.015.0725-.0375.07.0825.0837.1787.0837.2825 0 .1225-.04.1825-.135.215.0263.0487.0513.0862.095.1125-.009.0337-.009.0675-.009.1037 0 .0713.025.1338.0687.19l-.06.0488c.24.525.525.7475.7513.7475.095 0 .1775-.055.2612-.175h-.0725c-.215-.0475-.32-.1338-.32-.2013 0-.015.0112-.0362.0488-.0487.0962.0712.165.1312.2238.1787.095-.025.1687-.0475.225-.07.0488.0825.11.1263.155.1263.1562 0 .18-.2463.2487-.2463.015 0 .0263.0113.0387.0238l.0475-.1313zm-1.3912-3.905v-.0812c-.06.0375-.0838.07-.0838.1187zm.2713-.1075l-.0575-.06c-.095.0488-.1425.1238-.165.205l.0437.0488c.0263-.0375.0613-.075.095-.1225l.015.0625c.0362-.0475.0587-.0963.0687-.1338m.0613-.1787l-.0838-.0225.0225.0975zm-4.4348 4.7719l-.135.0362c-.02-.0137-.0438-.025-.0438-.0362 0-.0225.0438-.0488.14-.0588m-.21-2.4625c.009.0225.009.0475.009.0713 0 .0362-.009.0587-.035.08-.0337-.0113-.0575-.0213-.0575-.0438v-.0262l.0838-.0813zm-.4446-.5462l-.0813-.0125c-.0237-.01-.0237-.0263-.0237-.0513 0-.0225.0237-.0337.0575-.0337zm.6087.535c0 .0225 0 .0337-.0137.0337-.0125 0-.0125-.0112-.0238-.0112h-.0137c-.03 0-.0438-.0113-.0438-.045 0-.015 0-.0263.0138-.0488.0437 0 .0675.0225.0812.0713m.9625-1.4175c.0113.0487.025.0712.025.0937 0 .025-.0137.025-.025.025-.0112 0-.0225 0-.0487-.025-.0563.0113-.0825.0413-.0825.0838-.045-.0087-.0712-.02-.0925-.0588.0325-.1187.1875-.0812.1875-.2112v-.0113h.0362c.025 0 .0375.0113.0375.0325 0 .0238-.0125.045-.0375.0713m.7363-.8213c0 .015.0112.015.0112.025 0 .06-.1388.105-.3075.2825v-.0212c0-.0963.11-.1675.2962-.2863m-.2487-.4612c-.0113.0225-.0325.0337-.0613.0337h-.0225c.0138-.0487.0362-.0825.0725-.0825.0113-.0112.0113-.0112.0225-.0112v.0112c0 .0113 0 .0263-.0112.0488m.4163.1962a.1581.1581 0 01.0125.0638c0 .0487-.0225.0925-.0725.13 0-.0225.0138-.0375.0138-.0475 0-.0225-.0138-.0338-.035-.0338-.0238 0-.0488.0113-.0863.0225.0512-.0975.0863-.1425.1075-.1425.0138 0 .025.0075.05.0075zm-2.69 4.1212c0-.0487-.0112-.085-.0337-.1087-.0375.05-.0475.0975-.0475.1462.01.0113.0238.0113.0363.0113.0225 0 .0337-.0113.045-.0488m.2875-.2862l-.0725-.0475-.035.0812c-.0575.0638-.1075.0963-.13.1225-.0125.0113-.0125.0213-.0125.0325 0 .0125 0 .0125.0238.0125.0112 0 .035 0 .0613-.0125l.165-.1887zm-.145-.0213l-.07-.05c-.0112.05-.0112.0713-.0112.0975 0 .0075 0 .0225.0112.0225h.0113l.0588-.07zm1.0738 1.0812l-.015-.06-.0337.0488c-.0112.0112-.0237.0225-.0237.0337 0 0 0 .015.0125.015.0112 0 .0238-.015.06-.0375m-1.0938-1.275c0-.0337-.0125-.0562-.0387-.0562-.0113.0225-.0113.0325-.0113.045 0 .0112 0 .0212.0113.0212-.0113.015-.0225.0263-.0225.0388.0112 0 .0225-.0125.0613-.0488m.2112.1075l-.0225-.0975-.0588.0388-.05-.0388-.035.0388.0475.095c.0725-.0225.1088-.0363.1188-.0363m0-.3312c0-.0375-.01-.0488-.0463-.0588-.0588.0213-.0937.0588-.1075.1075-.0125.0325-.0125.0588-.0125.0663v.015c.0125 0 .0125-.015.0263-.015.07-.0225.1062-.0663.14-.115m1.1662 1.1788c0-.0338-.0112-.0738-.0462-.085-.0113-.0113-.0263-.0113-.0363-.0113-.0125 0-.0125.0113-.0125.0225v.0138c.0125.0337.0488.06.095.06m-.89-1.3238c-.0113-.045-.0238-.0825-.05-.1038-.06.0925-.12.19-.1663.2713l.0462-.0225h.0375c.06-.0588.1088-.1088.1325-.145m.9625.9412l-.0725-.0487c-.0112.0375-.0112.0587-.0112.085 0 .0225 0 .0337.025.0337l.0588-.07zm.2975-.12c-.0725 0-.1425.0113-.1887.0488l-.05-.0113c-.01.1313-.105.1675-.1175.2238.0125.0625.0225.1225.035.1675l.1425-.1413c-.01-.0387-.01-.075-.01-.0975 0-.07.0238-.1037.0337-.1037.0125 0 .0487.0112.0825.0437.0487-.0325.0725-.0812.0725-.13m.1875-.0487v-.1138l-.1288-.0262a.4784.4784 0 01-.1537.1287c.0588.0113.1175.0238.18.0238.0325 0 .07-.0125.1025-.0125m.11-.3088l-.1188.0488c-.0238.0237-.035.05-.035.06 0 .0225.0225.0375.0575.0375l.0962-.1463zm1.64-4.3875c-.0112-.2312-.3563-.345-1.0325-.3837.01.0225.01.0387.01.0637 0 .055-.0575.1038-.1763.1275-.3462.2263-.5125.4425-.5125.7025v.06c-.405.4863-.7962 1.01-1.1688 1.5838-.225 0-.4412.0325-.64.0813-.1075-.0488-.1675-.07-.1912-.07-.0588 0-.0962.08-.0962.2375 0 .13.0962.3675.2975.6875-.5925.845-.8563 1.5262-.8563 1.93 0 .4175.25.8562.3925.8787.0112-.0225.0362-.0225.0487-.0225.0588 0 .1313.25.32.25h.0125l.1325-.0125c.0225.0125.0463.0125.0575.0125.0488 0 .0613-.0237.0613-.0837v-.035c0-.06.0337-.1088.06-.1088.0337 0 .0487.0263.0487.0638v.045c0 .01.0113.02.0238.02.0113 0 .0225-.01.0337-.0363a1.2265 1.2265 0 00.0588-.2462c.0463.0237.0712.06.0712.12v.0337c.1063-.045.165-.12.2038-.2125-.025-.0475-.0387-.07-.0387-.0962 0-.0113.0387-.0113.1087-.0113.0125-.0712.0488-.13.1075-.1775 0 .0363.0125.0588.0237.0588.0125 0 .0225-.0113.0225-.0375v-.0213c.0613-.0337.0987-.0712.11-.105.0112.0113.0225.0113.035.0113.0112 0 .0225-.0113.0225-.0488 0-.0225-.035-.045-.035-.085 0-.0225.0238-.045.0725-.0712.0225-.0588.0325-.1038.0325-.145 0-.0438-.01-.0663-.0325-.0663-.025 0-.0488.0225-.0838.0588l-.035.0825v-.0125c0-.0213-.0138-.0338-.0362-.0338-.0725 0-.155.1875-.3712.1875-.0337 0-.0712-.0112-.0962-.0337-.2725.2162-.4975.3087-.6763.3087-.2375 0-.3787-.1312-.3787-.3462 0-.0338.01-.1163.035-.2113l.035-.0162c-.0112.06-.0112.1112-.0112.135 0 .0225 0 .0337.0112.0337h.0113c.035-.0937.0712-.2012.0837-.3087.0362-.0388.0463-.0713.0463-.0975 0-.0113-.01-.0213-.035-.0213h-.0238l-.0362.0475-.0463.1075c0-.1787.0463-.335.1412-.4687l.0125.0412c-.0225.0438-.0225.0825-.0225.1038 0 .0387.01.0525.035.0525h.0237v-.0638c0-.1337.0362-.2375.1062-.3087.0475-.0963.0962-.1775.1188-.2375l.05.0225c.0687 0 .095-.115.225-.1525.035-.0225.0488-.0488.0488-.075v-.0325c-.0263-.0375-.04-.05-.04-.075 0-.0438.0512-.115.1462-.2l.0589.0362.0463-.06c.025.0488.025.0825.025.12 0 .0338-.01.06-.06.06-.0238 0-.0463-.0262-.07-.06-.0225.0338-.0337.06-.0337.085 0 .0188.0113.07.0225.1163l.0462.145c.2262-.4663.44-.6925.44-.81v-.0125l.06.0225c.1787-.2275.3-.3575.3837-.3675l.1988.0962.0838-.0262c.05-.2125.0812-.32.2025-.32.05 0 .0936.045.1537.045.0362 0 .095-.045.1563-.13.0361.01.06.01.095.01.2024 0 .3924-.1963.785-.2375.2987-.1625.4637-.2125.4637-.2713 0-.0225-.01-.0487-.0475-.0487h-.0263l-.7338.1237c-.3487.0338-.6675.055-.9875.0813.06-.1113.1063-.19.1625-.2638.0387-.175.2888-.3575.6325-.6887l.0488-.13c.095-.1488.225-.275.3925-.3725.1075-.01.1675-.0213.1675-.0213.1788-.1687.2975-.2637.3438-.2637l.095.0262a2.1277 2.1277 0 00.07-.2612m-2.1862 2.7925c0-.0438-.0112-.07-.0488-.0813h-.0237a.0232.0232 0 00-.0225.0225c0 .0263.0225.0475.095.0588m-7.4306 4.5972l-.1063.07.0588-.1213c.01-.0112.0225-.0112.0362-.0112.0112 0 .0112 0 .0112.025m.3238-.3113l-.0613.0363c0-.07.0237-.1038.0613-.1038zm.3787-.5325c-.0838.1038-.13.1663-.145.1663-.0112 0-.0112 0-.0112-.01 0-.015 0-.0263.0112-.0525.0263-.0488.05-.1038.085-.175h.025c.035 0 .0462.0125.0462.0337 0 .0125 0 .0225-.0112.0375m1.155-1.5138c-.0113.0113-.0475.0375-.1062.0738l.0588-.1338.0475.06zm.2138-.5462l-.0237.0587c0 .1425-.0488.2163-.1088.2163h-.0362c0 .0475 0 .0812-.0213.12-.0237.0212-.0475.0437-.0825.055l-.0625-.045c-.0113 0-.0225.0112-.035.0112-.035 0-.0713-.0337-.0937-.0937l.0712-.0813v.0813c.0112 0 .0462.0125.1313.0337-.0112-.0112-.025-.0212-.025-.0337 0-.0138.025-.0263.0488-.0263v-.0475c0-.0925.035-.1787.1175-.2487.025.0212.0337.0375.0587.0375.0125 0 .0375-.0163.0613-.0375m.0838-.1313l-.1075.1038c-.025-.0213-.0375-.0438-.0375-.0663 0-.0262.0125-.0375.0125-.0625zm-5.4162 3.1762a.1594.1594 0 00-.0825-.115c-.0225.0338-.035.0675-.035.105 0 .0213.0125.0488.0125.0588.0225.0225.0463.0225.06.0225.0225 0 .045-.0225.045-.0713m2.9275.5588h-.0475v.0262a.1346.1346 0 00.0588.0113h.015c0-.0113 0-.0263-.0263-.0375m1.1562-1.0712l-.1325-.0338-.06.0938c.0725-.0075.1337-.0238.1925-.06m1.4612-4.85l.05.115c-.0375.1462-.0813.275-.1313.3825.0125.0125.0125.0337.0125.0725 0 .0925-.0462.2487-.1437.4975-.0487.1412-.0712.2225-.0712.2712 0 .0338 0 .0813.0225.1188v.0337c0 .0475-.0225.06-.0712.06.0125.0213.0125.06.0125.0863 0 .2562-.285.66-.6313 1.4525-.0463 0-.0813.015-.1175.0487l.0362.0938c-1.13 2.0788-2.4412 3.0938-3.4625 3.0938-.5362 0-1-.32-1.1212-.8438-.0225.0325-.0225.055-.0225.0925 0 .215.1675.695.4063.9338.1775.175.4862.2487.9612.2487.6575 0 .6188-.1812.9863-.465l.275-.205h.0362c.2712 0 .1775-.2262.3925-.275 0-.1075.1912-.2487.5112-.5387-.01.015-.01.0262-.01.0375 0 .015.01.025.0337.0362.06-.0362.0962-.0737.1188-.085-.0225-.0225-.0475-.0337-.07-.0337-.0112 0-.0237.0112-.035.0112v-.0375c0-.0812.035-.1562.0825-.2162 0 .06.0112.0862.0362.0862.0225 0 .0462-.0112.0825-.0362.0475.0362.0812.0625.105.075.015-.0388.0263-.0875.0387-.1575l-.0387-.1075c-.0687.0375-.1163.0737-.15.1075l-.015-.0338c.0837-.145.2037-.3112.3212-.495.06.075.0975.1238.1088.135.0113-.0262.0225-.0375.0225-.0525 0-.0075-.0112-.0225-.0225-.0337a.1411.1411 0 01-.0487-.1075c0-.0213 0-.045.0263-.0713l.045.0263c.0962-.0363.0712-.1188.12-.1188l-.015-.0625c-.009-.0225-.0213-.0487-.0213-.07 0-.0862.0712-.18.2025-.2062v-.0213c0-.0487.0238-.0712.0713-.0712.0362 0 .0737.0112.13.0225l.06.0487c.0487-.0112.0725-.0237.0725-.0487 0-.0225-.05-.0488-.05-.0738 0-.0337.0375-.0575.0838-.0575.0263 0 .05 0 .0712.0113.025-.0363.0375-.06.0375-.085 0-.0338-.025-.0475-.0825-.0475h-.06c-.0375.0587-.0725.08-.0813.08-.015 0-.015-.0075-.015-.0438v-.0437l.0588-.015.0487-.0938.0337.0225c.0263-.0487.05-.1087.05-.1562 0-.0213-.035-.0325-.0838-.0325 0 .07-.0237.1062-.0487.1062-.0125 0-.035 0-.0438-.0262.0213-.0325.0438-.095.0575-.1525.0838-.0475.1287-.1188.1287-.215.025.0375.05.06.0738.06.0225 0 .035-.0113.0588-.0338l.155.0225c.07-.0825.19-.1937.335-.3312l-.0375-.0363c.0725-.0337.1413-.0825.19-.1412.1538-.2138.2863-.44.405-.6738 0-.0825.02-.1662.0463-.265l.085-.055c.2375-.4387.355-.785.355-1.0075 0-.4325-.2262-.6325-.7012-.6325-.1063 0-.1775.0363-.2513.1225m-1.1062 4.005c-.0113-.01-.0362-.0212-.0687-.0212h-.0288c0 .0862-.009.1662-.0563.2375.0137.0112.025.0225.0362.0225.0112 0 .02-.0113.035-.0225.025-.0713.0463-.1413.0825-.2163m.2375 0v-.1037c-.0112-.015-.0225-.015-.035-.015-.0362 0-.0475.025-.0562.0712zm-.63-1.0675l-.0825-.025.0112.0925c.035-.0075.06-.0337.0712-.0675m.905-2.5325l-.06.0113c-1.56.4125-2.6175 1.4062-2.8312 2.2725l-.0238.0112-.0336.0125c-.015 0-.025.07-.025.21 0 .31.2137.5963.4637.6188.0225.0262.035.0262.0588.0262.0225 0 .0462-.0125.0825-.0487.0463.0487.0838.07.1325.07.0337 0 .0687-.0213.1187-.0475.0325.0137.0813.0262.1188.0262.0463 0 .095-.0125.13-.0487v-.0375c0-.0675.0225-.0938.095-.1038.07.0363.1537.0588.2387.07 0-.0487 0-.1187.0126-.1887.0236-.015.0461-.0263.07-.0263.0486 0 .1187.0263.215.0863.0587-.06.0811-.12.0811-.18 0-.0225 0-.0488-.01-.0713.0725-.085.155-.1662.225-.26.0625.0375.0962.06.12.06.0275 0 .0275-.0412.0275-.1187 0-.0963.1275-.1425.3663-.2713.0237.0438.0462.07.0613.07.009 0 .02-.0362.02-.0962v-.0938c.0975-.0862.1812-.1787.2387-.2862-.0124-.0325-.0224-.0663-.0462-.1075.0588 0 .0838-.01.0838-.0288 0-.0537-.025-.09-.025-.1125 0-.0337.025-.045.095-.0562.0237.0225.0487.0337.0612.0337.0475 0 .0113-.1187.095-.2275l.0925-.1625c.025-.0375.0375-.0712.0375-.0937 0-.0263-.0125-.0363-.025-.0363s-.0337.01-.0575.0363c-.345.4837-.7625.8862-1.275 1.205-.4887.305-.8087.4275-.8212.4275-.0713 0-.095-.0925-.155-.0925-.0375 0-.07.0225-.105.0662-.0837-.0212-.12-.0962-.12-.2.0362-.0337.0475-.06.0475-.0825 0-.0475-.0375-.0925-.0375-.14 0-.06.1913 0 .1913-.3425v-.0637c.0237 0 .0461.015.0724.015.035 0 .0575-.015.0575-.0488 0-.0212-.0112-.055-.0112-.0812 0-.1338.1675-.3313.525-.595.2025-.1425.3213-.3275.5113-.3275h.0813c.0612 0 .1687-.1563.5975-.2038.1075.0475.1912.085.2375.085.1325 0 .3325-.1562.3325-.3125 0-.0937-.1187-.1275-.3325-.22m.1787 2.8388l-.0588-.0575c-.0824.0463-.1437.105-.1662.2013l.0588.0375.0825-.1063.0138.0588c.0362-.0488.0588-.0925.07-.1338m.035-.1387l-.0813-.025.0125.0812c.0337-.0112.0588-.0225.0687-.0562m-7.1531.316l-.0475.0862c0-.0225.0138-.06.0475-.0862m.3338-.4113l-.0963.08.0375-.08c0-.0387 0-.06.0111-.06.0126 0 .0239.0213.0476.06m.8212-1.4625c-.0225.0325-.0563.0663-.1175.1188-.0137.0075-.025.0075-.0362.0075 0 0-.0112 0-.0112-.0075 0-.0138.0225-.0525.0475-.1l.1175-.0188zm-1.4862 2.1975c-.0138-.0362-.0263-.0587-.06-.0587v.0587zm4.5575-1.0825l-.0362-.1075c-.25.5475-.7037.8325-.9513.8325-.1574 0-.24-.0687-.24-.2375 0-.06.0376-.2.0713-.4537-.0337-.0225-.06-.0438-.06-.0813s.0263-.06.0488-.0925V44.69c0-.03-.0112-.0412-.0225-.0412-.0375 0-.0712.0112-.0962.0112 0 0-.0113-.0112-.0113-.0225 0-.0225.0112-.0437.0112-.07l.0588-.0937-.0337-.1113c.0213-.045.0825-.0675.155-.0825-.05-.06-.0725-.0962-.0725-.1075 0-.0112.0112-.0212.0337-.0212.0487-.0125.0725-.0238.0725-.06 0-.0113 0-.0225-.0112-.0338.0112-.0637.0112-.1087.0112-.135 0-.3187.1425-.535.1425-.6862 0-.12-.1425-.2275-.3675-.2275-.4875 0-1.12.7612-2.4862 2.0562l-.0237-.0825c.2263-.13.2126-.5825.6538-1.0812l.0937-.1113.0238-.105-.0462.015v-.075c.0225-.0212.0462-.0437.0588-.08l.06.0475c.0225-.06.0375-.1075.0375-.1525l.07.045.0238-.06h.0337c.06 0 .095-.0262.095-.0375 0-.0112-.0238-.0225-.0438-.0225h-.0112l-.0263-.0212c.07-.06.1537-.0975.2375-.1313.0225-.1887.0487-.36.0838-.4762-.05-.4088-.4625-.7138-.915-.7138-.0362 0-.1675.0113-.3812.0338.0362.06.0712.0975.1325.0975h.0325c.06.0212.1087.055.155.1037.0375.1675.0613.2875.0613.3825 0 .1538-.1188 1.13-.7513 2.3912l.015.075c-.11.1263-.2137.2825-.31.4613-.0263.055-.0488.1187-.0825.1787l.0337.0213-.0612.0225v.06c.0375-.0225.0612-.045.0725-.0825a.4116.4116 0 01.1538-.0338l-.0588.0825.0725.0338.1412-.1038.0837-.0225c.0838-.135.1775-.2537.2863-.3575l.0113-.06.0962-.0475c.095-.1187.2025-.25.3312-.3825.0713-.0825.1425-.1537.2375-.2012.025-.075.155-.1075.3688-.19.1912-.205.3-.3725.4775-.3788.2162-.205.32-.35.3812-.35.0113 0 .035.0338.045.1.0387 1.4612.2525 2.1862.7163 2.1862h.0125c.0687 0 .1287-.0137.2012-.025.0213-.0225.1313-.1187.3187-.2712.0375-.2275.4325-.3913.5863-.8938m-1.1188-.3787c-.0263-.0375-.0375-.0638-.0475-.0638-.0125 0-.0125.0263-.0125.0488l-.0375.0962zm1.225.1262l-.095.09c.0337.0438.0487.055.06.055.0112 0 .0112 0 .0112-.0112 0 0 0-.0113-.0112-.0325zm-6.4992.86l-.0975.0363-.0475-.0963c.0262.015.0725.0375.145.06m.3912.0813c-.0587.0362-.1174.0737-.1662.1112l-.0487-.025c.0375-.0862.0837-.1312.1175-.1312.0387 0 .0613.0125.0975.045m-.2963-1.0938h-.035v-.0475h.0226zm.1788-.3413l-.0138.045-.0237-.0125.0125-.0475zm.0813-.0375c.0225.0113.0225.0375.0225.0438 0 .0387-.009.0737-.045.1075l-.0263-.01zm.4762-.3912h-.1062c0-.0525.025-.085.0713-.1225l.035.1225zm-.2612 2.295l-.025-.1125-.035.0975zm-.1288-1.5138l-.0637-.0588-.1175.215h.0838l.0975-.1562zm-.1212-.6025l-.0712-.0263c-.0825.0263-.1288.0713-.1538.1413l.025.0487c.0937-.0487.1638-.0925.2-.1637m1.75.3087c-.1925.1525-.3812.2938-.5462.4288.0188-.0163.0325-.0163.0325-.0163 0 .0263-.3663.325-1.1412.755-.009.0225-.0463.0338-.0825.045l-.2875.0375c-.1175-.015-.1788-.0375-.2-.1087.0687-.2863.1287-.5125.2612-.6538l.0463.0325.0476-.0812-.07-.01.0112-.0863.1076-.1312.045-.1188c0 .0488.0125.0825.0387.1313.0225-.0263.0475-.0488.0825-.0488l-.035-.045c.0612 0 .0738-.075.1087-.2262l-.0825-.06v-.0525c.0562-.0188.07-.1525.1775-.3313l.0337.0975c-.0225.0713-.0725.1563-.1175.2338l.035-.0075.0687.06.0375-.0525-.0812-.0438.0437-.0112.0738.07c-.0487.06-.0825.135-.1175.215l-.05-.035v.0475c0 .0587-.0212.1187-.0475.1775.0725-.0588.1325-.1063.215-.1188.0125-.0712.0588-.1187.1313-.1512.0137-.075.1187-.075.1187-.22.095-.1638.2013-.2688.3463-.32.155-.2863.2825-.4975.3775-.6538 0-.0712-.1413-.19-.4988-.3425-.165-.0487-.3437-.0975-.5575-.1337l.009.085c.0625.0487.11.0925.1325.1187-.0113.0488-.035.115-.07.2125l-.0375-.0237c-.045.0237-.0687.06-.0837.105l.0962.075-.0713.07c.025.0112.0475.0375.0475.0587 0 .0338-.0475.0863-.1412.1575l-.0138.1563c.0263-.0413.0375-.0863.0475-.1338l.0738.0375v.055c-.0387.085-.0837.1825-.1425.2675-.05.0663-.0725.1525-.0975.25l-.1075.1038c-.0225.0962-.06.1887-.1213.2637l-.009-.075-.1062.06c-.0263.0488-.06.1088-.11.1675v.0375c0 .06-.0238.1088-.0575.1413-.0125.0375-.025.075-.025.0962 0 .0713.0375.1088.0375.13 0 .1088-.1776.2275-.1776.4063 0 .0362.0226.13.035.275l.0338.175c.0112.0487.1774.2375.5124.3787l.1788-.1412a.3552.3552 0 00.035-.1563l.0725-.0225.0487.0375.0337-.025c-.0337-.0937-.0475-.1525-.0475-.2025 0-.0212.0138-.0362.025-.0362.009 0 .0225 0 .0463.015l-.0125.0812.0487.0263v-.0363a.2093.2093 0 01.0238-.0937c.0725.0812.1212.1187.1412.1187.0112 0 .0237-.015.0237-.0375 0-.0375-.0125-.0812-.0325-.155l.1538-.0337c.0825-.0863.1525-.1675.225-.2388.0113-.1187.07-.205.1787-.2487v-.0525c0-.055.0375-.0925.1188-.0925h.0325c.1687-.32.5012-.335.5275-.6288m.165-.085c-.0238-.0275-.035-.0487-.0588-.0487-.0113 0-.0225.0112-.0337.0212-.0125.0275-.0125.0388-.0125.06 0 .0388.0238.0525.07.0525zm.2013-.2162l-.1663.0487.04.0963zm.3212-3.0788l-.0325-.1088c-.2612.1538-.525.3088-.8113.4775l-.0362.0588c-.2362.0925-.415.1662-.5212.2112h-.12c.095.3825.31.525.7388.655l.06-.1037-.0114-.0863c.07-.0925.1188-.1525.13-.1637l-.0238-.1338c.0588-.0825.095-.1525.1288-.1887l.0513.0212c.08-.0212.1537-.0812.1987-.1525l.0237-.0975c.0963-.1187.1438-.2.1438-.3287v-.0388zm-6.4801 7.0916a.5932.5932 0 00-.1062.0825l-.0139-.0713.0825-.0737c.0113-.0125.0238-.0125.0238-.0125.0137 0 .025 0 .025.0262 0 .0125 0 .0225-.0113.0488m1.8112-2.4275c-.075.1062-.1212.1662-.145.1662v-.06c.045-.1062.0812-.1662.0812-.1787h.025c.0387 0 .0475.0125.0475.0337 0 .0125 0 .0263-.009.0388m.7475-.8825l-.1075.1087c-.025-.0262-.0362-.0487-.0362-.0712 0-.0263.0113-.0375.0113-.0588l.1326.0213zm.225-.3688c.0138.045.045.06.045.0863 0 .0337-.01.0712-.0538.1037 0-.0325-.0138-.0475-.0288-.0475-.0112 0-.0463.0363-.0837.1063l-.045-.0463c.025-.0975.0825-.1575.1663-.2025m-.285-.925l-.0463.13-.05-.075a.5569.5569 0 01.0962-.055m-5.115 3.945l-.0275-.125c-.0587.0438-.0937.1025-.0937.1625v.0375c-.0225.0375-.0375.06-.0375.0713 0 .0112 0 .0112.015.0112.0225 0 .0712-.045.1437-.1575m2.7839.6438l-.05-.0113v.0263c.0374.0112.0612.0237.0724.0237.0113 0 .0113 0 .0113-.0125 0 0-.0112-.0112-.0337-.0262m1.1388-1.3912h-.0212l-.06.0975c0 .0112.0113.0112.0237.0112.0113 0 .0363-.0112.0575-.0362zm1.3362-4.1975c-.1075.0475-.1563.1175-.1563.2337 0 .0375 0 .0813.0125.1338-.1075.5237-.7625 1.4775-2.0325 2.7262-.0475.01-.1112.0337-.1687.0562-.0375-.0075-.1075-.03-.205-.0675.0138-.0262.0138-.0637.0138-.0975 0-.07-.0138-.1512-.0463-.2487.0688-.3825.4062-.7725.7137-1.3838l.085-.0438c.115-.205.25-.2537.3775-.335.0812-.2012.1325-.3575.1325-.4762 0-.205-.5262-.45-1.0588-.45-.1662 0-.3475.245-.7137.6137-.0375.0488-.0487.085-.0487.1188 0 .0262.0225.0512.0487.0512.0112 0 .035 0 .045-.015.3587-.4012.6187-.5825.7262-.5825.0987 0 .1437.07.1437.1938 0 .1787-.1762.5937-.525 1.2712-.235.465-.4275.8225-.4275 1.135 0 .33.0488.4825.39.6725.1113.015.18.025.2063.025.0937-.0463.1888-.1063.2988-.1775.0811-.0713.1524-.13.2224-.2038.0375-.1425.0262-.2125.085-.2237v.0262c0 .0325.0125.045.0363.045.0112 0 .0225 0 .045-.0125l.0263-.13.0937.0238c-.009-.0338-.0237-.06-.0237-.0825 0-.06.035-.1075.0837-.1075.0113 0 .0237 0 .0487.0112.0375-.0112.06-.045.06-.0975 0-.0062 0-.0337-.0138-.06.0138-.0325.0375-.0475.06-.0475h.035c.0238 0 .0588-.0075.0937-.0562.0487.0562.0738.0825.085.0825.0262 0 .0587-.0263.07-.0713l-.0113-.13c.0375-.0475.0625-.0862.0713-.12.05 0 .0962-.0112.1188-.0362.015 0 .0263.01.0375.01.0337 0 .0475-.0213.0475-.0363 0-.01 0-.0225-.025-.0337.0613-.0588.11-.13.1662-.2263l.0375-.0975c.0713-.0437.1188-.0812.155-.1037.0225.0225.035.0375.0575.0375.0275 0 .0487-.0375.0487-.1075v-.0375c.085-.19.155-.3088.2175-.3563l.07.01c.0113.0263.0113.06.0113.0863 0 .26-.2875.665-.6325 1.45.01.0225.01.0487.01.075 0 .0212 0 .045-.01.0662h-.0838c-1.1412 2.0712-2.1638 3.12-3.2338 3.12-.5375 0-.9537-.3125-1.1788-.9062-.0713.0375-.0837.1187-.0837.2637 0 .5838.57 1.105 1.285 1.105.595 0 .6175-.2875.965-.5212l.2725-.2013c.0362 0 .0962-.015.175-.0262.025-.0475.0738-.1063.1438-.205.0363-.0213.075-.0338.1087-.0438 0-.1075.2025-.2525.5125-.54-.0113.0163-.0113.0263-.0113.0375 0 .0113.0113.0263.0475.0375.0475-.0487.0838-.075.1088-.0975l-.1088-.01v-.0337c0-.0963.0363-.1675.0925-.2163 0 .0488.0162.0713.0375.0713.0237 0 .045-.0113.0738-.0338a.3275.3275 0 00.1038.0713.235.235 0 00.0375-.12v-.0263h-.1913l.0838-.13c.155-.1187.2375-.225.2375-.33 0-.015-.0125-.0412-.0125-.0637.0362.0225.0725.0375.105.0375v-.0488c0-.0475-.0113-.0812-.0213-.13.0838 0 .1438-.0337.165-.085l-.0113-.0562c-.01-.025-.0237-.0625-.0237-.085 0-.0863.0725-.1688.2025-.2025v-.025c0-.0475.0262-.0663.0712-.0663.0363 0 .0725.0113.1313.0188l.0725.0625c.0463-.015.0713-.0363.0713-.0488 0-.0137 0-.0137-.0113-.0212-.0362-.0263-.0487-.0525-.0487-.0638 0-.0337.0238-.06.0837-.06.0238 0 .0488 0 .0725.015.0225-.0375.0337-.06.0337-.0862 0-.0213-.0237-.0475-.0712-.0475-.0238 0-.0463 0-.07.015-.0362.0437-.0712.0812-.0862.0812-.0113 0-.0213-.0225-.0213-.0587 0-.1263.215-.1788.215-.2388 0-.0225-.0237-.0437-.0837-.07-.0238.07-.0487.1075-.06.1075-.0125 0-.0238-.0112-.0238-.0475 0-.0337.0113-.0825.035-.1425.095-.0475.1325-.1112.1325-.2.01.0338.0337.0588.0725.0588.0112 0 .0325-.0138.0575-.0363l.1525.0113c.0375 0 .1325-.12.335-.335l-.035-.0225c.225-.1088.3812-.3938.595-.8338.0113-.0962.02-.1775.0463-.2637l.0813-.0488c.11-.32.1725-.5575.1725-.7125 0-.2937-.3263-.6037-.6088-.6037-.0963 0-.1912.045-.2975.1312m-1.0475 4.0312l-.12-.0225c-.035.0225-.0575.0588-.0575.0925a.5357.5357 0 00.1775-.07m.0825-.3575c-.0113-.0262-.0375-.0375-.0487-.0375-.0113 0-.0337.0113-.0463.0113 0 .0862-.0113.1562-.06.2387.0138.015.0225.0288.0337.0288.015 0 .0263-.0138.0388-.0288.0225-.0675.045-.1375.0825-.2125m.2375-.0075v-.1112h-.0225c-.0513 0-.0613.025-.0613.07l.0837.0412zm-2.38-2.7638v-.0262c0-.0338-.0225-.06-.0487-.08-.0463.095-.0725.1512-.0725.1887 0 .015 0 .0263.0175.0263h.009l.095-.1088zm-1.56-.654c0 .01.009.0225.009.0363 0 .0562-.0576.1162-.0838.1162-.0113 0-.02-.0112-.02-.0337.009-.0438.0463-.0963.095-.1188m.1538-.3087c0 .06-.0237.1037-.0575.1412-.015.0113-.025.0113-.0388.0113-.0225 0-.0225-.0113-.0225-.0225v-.0263l.1187-.1037zm1.6912-2.1462c.0125.015.0125.015.0125.0262 0 .0113-.0125.0263-.0475.0375-.0262.01-.0362.0213-.0362.0213-.0113 0-.0113-.0113-.0113-.0113 0-.01.0113-.0362.0213-.0737h.0613zm.475-.4125c-.1175.13-.2638.2487-.4163.3425v-.0825c.13-.0713.2388-.145.32-.2375l.0962-.0225zm1.4975.1412l-.0713-.13.0475-.0975c-.3313-.345-.6775-.3312-.9038-.4612-.0688.0075-.2012.0825-.38.2025-.6787.5337-1.0225.8687-1.0225.985 0 .015 0 .0225.0112.0362l.1075-.0137c-.0725.0737-.1562.1325-.2512.1975-.0962.0775-.165.1512-.2225.2075a1.013 1.013 0 00-.2075.3237 2.6562 2.6562 0 01-.2125.1675c-.01.0813-.0475.1413-.12.19v.0213c0 .0475-.009.0712-.035.0712a.0625.0625 0 01-.0463-.0237c-.0112.0237-.0112.0375-.0112.0637 0 .0225 0 .0338.0225.0563-.1063.015-.1663.06-.1663.12l.0713.025c-.06.0225-.1075.0487-.1675.07.085.0125.1188.0225.1188.0487 0 .0113-.0113.0338-.0438.0563-.0263-.0225-.0625-.0338-.075-.0338-.035 0-.0463.0225-.0463.0975l.07.0113c-.2125.0962-.32.2375-.32.3075 0 .0487.01.0712.01.0825 0 .1087-.1525.145-.1763.2975v.0112c0 .085.0925.0638.0925.1088 0 .025-.0312.0737-.0925.155v-.015c0-.03-.0225-.045-.06-.0663-.1912.1675-.2975.2825-.2975.4163 0 .0225.0112.06.0262.0925v.0375c0 .0137 0 .0262.0113.0262.01 0 .0225-.0125.0438-.0262.0125-.0588.0475-.1188.0937-.1675.0263.0112.0387.0375.0387.0487 0 .0325-.0613.1188-.1537.2863-.0225-.015-.0338-.015-.0488-.015-.07 0-.1063.0962-.1663.29.0138.03.0487.0662.1088.0812-.0487.0563-.1213.105-.1938.1538 0 .3087-.055.4637-.1975.4762-.025.0263-.0388.0475-.0388.0813v.0362l-.0112.1463c.05.5575.1213.855.3925.9737.0825.0863.155.1675.2138.2638.1062.105.2387.165.3925.175l.1062-.0338.0238-.0587c.0725-.0375.1438-.06.2275-.0825.1075-.1113.165-.1775.165-.2188 0-.0187-.01-.0337-.0238-.0337h-.0225c-.155.075-.3087.13-.4875.1562-.035.0113-.0725.0225-.1187.0225a.3092.3092 0 01-.145-.0375l-.035-.0325c-.0725-.205-.12-.3687-.12-.4987 0-.1675.0712-.54.285-1.0012.0613-.085.1187-.1675.1937-.2488.1063-.5287.335-.7625.335-.9037 0-.015-.015-.0263-.015-.0363 0-.3137.1913-.4175.3563-.6662-.0463-.0125-.0838-.0488-.105-.1088.0588-.0487.105-.1075.1312-.1787a.1697.1697 0 00.0825.0225h.0237c.13-.055.1413-.2225.2125-.33.0387-.0638.1438-.0638.1438-.13 0-.0163 0-.0263-.0125-.0388-.0463.0125-.0812.0388-.1313.0825-.0113.0113-.0225.0113-.0225.0113-.0112 0-.0112-.0113-.0112-.0113 0-.0112.0112-.0337.0225-.06.05-.055.0962-.1037.155-.1412.19-.2375.3225-.3825.4288-.405.18-.3575.4287-.5613.7025-.7688.0962-.1237.2037-.2312.3112-.325-.145.0113-.215.12-.2512.12-.0225 0-.0225-.015-.0362-.06.0725-.1087.1687-.1825.2962-.205.24-.2862.4775-.3075.69-.4275l.0725.06c.0487-.0375.0725-.0487.1075-.0487.0112 0 .0375.0112.0487.0375-.1212.3562-.3437.6887-.63 1.045l-.1925.2375c-1.5688 1.525-2.4875 2.38-2.4875 2.965v.0737c.0588.1413.11.1975.1538.1975.0113 0 .0375 0 .0487-.0075-.0113-.0637-.0113-.1075-.0113-.1675 0-.665.7875-1.3688 2.215-2.5138.2837-.3312.595-.665.9387-.9812l.155-.3138.0475-.1662.045-.2388zm-10.044 4.2508l-.0475.0825c-.0125 0-.0225.0113-.035.0113-.009 0-.009-.0113-.009-.0263 0-.0225 0-.0337.0212-.0675l.0487-.0262m.2612-.1775c-.0725.0437-.1325.07-.165.085l.0438-.07.06-.0525h.0237c.0263 0 .0375.0137.0375.0375m.44-.5138c-.0237.0363-.0962.1338-.2025.29-.0475.0075-.11.055-.1537.115-.025.0113-.05.0113-.0613.0113-.0225 0-.0337 0-.06-.0113.1212-.1075.1562-.1787.2162-.1787h.0225c.0587-.07.1075-.1563.1425-.2488.0375-.0212.0475-.0212.0725-.0212.0112 0 .0237 0 .0237.0212v.0225zm2.2725-2.2462l-.0125.1188-.0812.0375c-.0288 0-.0738 0-.135.0075l.04-.0713-.0263-.0212c-.0475.0337-.0825.085-.1075.1412l-.0475-.0725c.1075-.095.2275-.2.3463-.3075l.0487.0488-.025.1187zm-.1312-.3725l-.0362.0938h-.07c.0225-.0413.0488-.0788.1062-.0938m5.2938-.915c-.0212-.0225-.0687-.055-.1275-.0962l.0688-.0563h.0275zm-7.6962 4.6788c.0488-.0262.0587-.0487.0587-.0737 0-.0113-.01-.0225-.0587-.0225-.0513.0375-.0725.07-.0725.1187zm7.9362-4.5c-.0237-.0487-.0725-.1075-.1325-.155.06-.0237.0825-.06.0825-.0825 0-.0375-.0225-.0712-.0825-.1087-.095-.0213-.1762-.085-.26-.1775l.0213-.0113.015-.0487c-.44-.19-1.0475-.305-1.6775-.305-.5275 0-1.0712.0337-1.6075.115v-.0213c0-.0487.0463-.0937.105-.145l-.0337-.0237c-.3112-.2263-.5362-.345-.715-.345-.0588 0-.1162.0112-.1662.0375-.1888 0-.3575.3237-.69.535-.0575-.015-.1063-.025-.1438-.025-.0237 0-.5712.0475-1.5212.2487-.24.0475-.5137.1813-.9062.2638-.63.13-1.1762.4637-1.7138 1l.0375.0937c-.2625.3938-.415.6913-.415.9513 0 .1937.0463.2862.1262.2862.04 0 .0725-.01.1213-.0487.0575.06.095.0975.1412.0975.0413 0 .0875-.0225.17-.0713.1288-.0475.2013-.08.2013-.1187 0-.0338-.0225-.0475-.06-.0475-.0125 0-.0337 0-.0575.0137-.0975.0225-.1663.0338-.2275.0338-.095 0-.1413-.0263-.1913-.0963.4638-.8337 1.0938-1.275 2.0212-1.5962.12-.0475.2388-.0925.3675-.1187v-.01c0-.0225.015-.0338.04-.0338.0225 0 .0475 0 .0712.0113.2613-.1463.5713-.2275.9025-.2275h.0725c0-.0588.2138-.085.6175-.0975.0263 0 .0363-.01.0613-.01.0487 0 .07.0225.07.07 0 .0125 0 .0375-.0125.06.0263.085.05.1562.06.1937-.0475.115-.225.2825-.51.5463-.3587.4975-.6412.9037-.8687 1.19-.0475-.0263-.0962-.0375-.1188-.0375-.0725 0-.0725.0862-.1187.2275-.0375.13-.11.19-.2163.19-.05 0-.0925-.0113-.1537-.0375-.095.0637-.1913.0975-.2975.0975-.12 0-.2375-.0338-.3575-.0338-.1313 0-.1913.01-.2263.1025-.1175.2275-.1787.4025-.1787.5475 0 .13.0237.205.0725.2163.0713.07.1412.1562.2137.2375-.1787.465-.4887.6887-.5725.9375-.38.5387-.5675 1.0038-.5675 1.4662 0 .1775.06.36.165.56l.3575.2237c.0825-.0325.14-.0925.19-.1775h.035c.13 0 .265-.165.5025-.4137.0925-.13.21-.2263.3425-.2863l.0575-.0487h-.0213c-.18 0-.345.19-.6675.2975 0 .0375-.0238.0487-.0588.0487h-.0362c-.0125.0213-.0488.0338-.0725.0338h-.0225c-.0237-.0338-.0362-.06-.0712-.06-.0113 0-.0487.0262-.0713.0475-.0613-.0475-.0837-.0813-.0837-.13 0-.085.0337-.2488.1175-.4863.05-.1087.1088-.215.18-.335.0837-.2612.2738-.2975.3463-.4275-.0725.0113-.1213.045-.1325.0963-.0238-.025-.035-.0513-.035-.075 0-.0475.035-.0925.1187-.1775-.0463-.0225-.0725-.0475-.0725-.0713 0-.0437.0725-.1087.1825-.2225l.0538-.0375c.0612 0 .1225-.015.1813-.0375-.0937-.06-.1425-.0475-.1425-.0812 0-.0488.0487-.0925.1537-.145l.025.0712v.0813l.1775-.1975c0-.1125.05-.1788.155-.2263.0262-.0262.0262-.0387.0262-.0637 0-.0188-.0162-.0338-.0525-.0563.0362-.0362.0613-.0487.0863-.0487.02 0 .0463.0125.0612.0125.0213 0 .0425-.0375.0425-.0925v-.0488c-.0212-.0262-.0212-.0375-.0212-.06 0-.0625.0712-.1075.1538-.1075.05 0 .0837.0325.1212.0325.0238 0 .0725-.0325.1075-.1037a1.4748 1.4748 0 01.2263-.145c.105 0 .9275-.3913 1.6762-.3913.2612 0 .4887-.2037.8-.2375l.0113-.0587c.0563.0262.1075.0587.1425.1187.0925 0 .2137.0113.3787.0325.0487-.0212.0725-.0325.0725-.0587v-.0338c0-.0112 0-.0325.0113-.0475-.43-.13-.7362-.1687-.89-.1687-.0713 0-.5262.0262-1.3338.075-.2387-.0488-.3587-.1075-.3587-.1938 0-.0337.0488-.0812.1312-.13-.0113-.0225-.02-.0337-.0325-.0337-.0263 0-.05.0225-.0988.0937-.035-.06-.0463-.1037-.0463-.1525 0-.0812.0588-.1337.1875-.1675v.0225c0 .0113.015.0488.035.075 0-.0862.0512-.1562.1213-.205l.0613.06c.095-.0112.1437-.06.155-.1462h.055c.0738 0 .1225.0162.1687.0525-.0363.0487-.0813.0825-.14.0825h-.0288c.0375.0475.0738.0925.11.13.0375 0 .0588-.0113.0837-.0238a.5043.5043 0 00.0325-.1775v-.0637l.17-.0338c.0138-.0225.0138-.0325.0138-.0487 0-.035-.0138-.0475-.0625-.0475-.01 0-.035 0-.07.0125-.0375-.0125-.0613-.0338-.0613-.0713.0613-.0712.0613-.1312.0837-.1312 0 0 .0125 0 .0263-.0475l-.1-.0225.2175-.0813c.0225 0 .0325.0113.06.0113.035 0 .06-.0263.06-.0825v-.0375c.07-.1188.13-.1813.1763-.1813.0463 0 .0863.0525.0863.145.105-.0237.1537-.1087.165-.2875.1787-.2712.535-.3675.75-.6875.035.0325.07.045.0962.045.0225 0 .035-.0225.035-.0825 0-.1187.1162-.0962.38-.1337.1462-.0113.4287-.1263.8925-.1263.2037 0 .44.0225.7275.0225.0237 0 .045.0113.0925.0113.015.0112.0262.0262.0375.0475l.4875.1675c.0588.0712.095.1537.1062.2262-.1175.4025-.2837.585-.6425.715-.0225.0225-.0362.0325-.0362.0488 0 .0212.0225.0212.0625.0212.0463 0 .1188-.0112.2113-.0475.0613-.0487.11-.0925.145-.145l.0225-.0225c.0138 0 .0138.015.0138.0225 0 .03-.0138.0738-.0263.1338l.0263.0112c.1562-.0925.3212-.1787.4725-.2387l.155.0712c.4062-.0487.4875-.06.525-.4875m-5.51 1.7512c-.035-.0475-.06-.0737-.07-.085-.0375.0113-.06.0225-.085.0225-.06 0-.0825-.0325-.0825-.1037v-.0488c-.1088.0363-.1438.12-.1438.275 0 .0338.0113.07.0613.1038.025-.01.045-.0213.0575-.0213.025 0 .0375.0213.0475.07l.0125.0375.0237-.0525c0-.01-.0112-.0337-.0112-.0437 0-.05.035-.0713.0687-.0713.025 0 .04.0213.0512.0713l.0238.0225c.0225 0 .0312-.06.0463-.1763m-.0463-.215l-.0238-.0587-.0375.0137zm.4275-.015l-.0588-.0925c-.025.0113-.0487.0375-.06.07l.06.0863.01-.0863.0487.0225zm2.0238.7513l-.0375-.055-.2487-.0263v.0263c0 .0212.01.055.035.0812.0237.0113.0462.0113.0838.0113.0462 0 .1062-.0113.1675-.0375" fill="#0066a6"/></svg>