<svg xmlns="http://www.w3.org/2000/svg" height="800" width="1200" viewBox="-30 -15.57175 260 93.4305"><path d="M78.49 16.818h-3.619s-2.088.519-1.359-1.811l.309-1.421c.315-1.682 2.889-1.295 2.889-1.295h2.845l-1.065 4.527M74.4 8.024s-4.151.259-4.992 5.951l-2.609 15.39h4.659l1.457-8.537h4.403l-1.333 8.537h4.657l4.107-21.341zm119.344 8.794h-3.623s-2.09.519-1.23-1.811l.178-1.421c.316-1.682 2.895-1.295 2.895-1.295h2.844zm-3.963-8.794s-4.279.259-4.988 5.951l-2.613 15.39h4.525l1.469-8.537h4.523l-1.33 8.537h4.658L200 8.024zm-95.073 0h-5.432l-4.239 21.341h5.431zm69.591 0h-5.951l-4.104 21.341h5.82zM173 29.366h4.785l4.234-21.342h-4.781l-2.076 11.255-1.549-11.255h-4.916l-4.238 21.342h4.918l1.92-10.478zM148.65 8.024l-1.557 7.501h-3.232l1.553-7.501h-5.434l-4.234 21.341h5.432l1.891-9.702h3.234l-1.893 9.702h5.438l4.234-21.341zm-40.81 5.562l-.598 2.327c-.602 2.328-2.264 1.812-2.264 1.812h-3.621l1.352-5.435h2.848c0 .001 2.597-.385 2.283 1.296zm1.355-5.562H98.98l-4.63 21.341h4.662l1.815-7.629 1.033.127 1.809 7.502h4.914l-1.683-7.502s3.631-.127 4.328-5.431l.602-2.457c1.494-5.692-2.635-5.951-2.635-5.951zm19.078 12.934l-.787 4.138h-3.75l2.389-12.805h3.877l-.93 4.399h5.045l1.105-5.691c.447-1.682-.672-3.105-2.35-3.105h-8.15c-1.682 0-3.285 1.423-3.602 3.105l-3.119 15.263c-.314 1.681.795 3.103 2.479 3.103h8.021c1.68 0 3.414-1.422 3.729-3.103l1.09-5.305h-5.047zm62.463 18.917c-.594 0-1.088-1.066-.789-1.6 1.773-1.709 3.551-3.098 5.918-3.949 1.48-.215 2.275 1.391 2.078 2.773-.598 5.871-.301 11.42-.795 17.186 0 .531-.291 1.922-1.084 1.389-.982-1.07-1.777-2.455-2.566-3.842.789 0 1.283 1.066 2.07 1.066.297 0 .496-.322.496-.535 0-5.227-.199-10.246 0-15.477 0-.32-.496-.854-.982-.637-1.285 1.17-2.277 2.025-3.361 3.414-.198.001-.787.212-.985.212zm1.479 8.006c-.199.639-.1 1.494-.592 1.814-.492.213-.986-.213-.986-.535 0-.748.986-2.025 1.873-1.496zm1.582-1.922c-1.287-.857-2.275 1.176-3.357 1.922-.193 0-.492 0-.492-.217-.299-.85.299-1.385.492-1.918.494-.854 1.281-.854 2.07-1.387.496-.645.297-1.389.496-2.242 0 0-.1-.318-.199-.535-.592-.531-2.07-.852-2.07-.316-.49 2.771-1.58 5.549-1.283 8.322 0 .32.195.854.494 1.066.789.322 1.574-.213 2.268 0 .592.322 1.582 0 1.875-.533.197-.852.197-1.602.197-2.457-.198-.529-.198-1.384-.491-1.705zM67.094 42.971l.3.215c-.3.531-.594 1.174-.793 1.709h-.791c-.791-1.178-2.07-3.096-.984-3.844.984-.854 1.281.748 1.476 1.6.299.32.497.32.792.32zm5.921-1.172c-1.873.318-1.089-2.135-.79-3.309.196-1.07 2.271-1.389 2.765 0 .294 1.385-.694 3.094-1.975 3.309zm1.975-5.551c-.987-.531-1.779.854-2.765.639-.792-.639 0-1.387 0-2.24 0-.853-.299-1.389-.792-1.922h-.785c0 1.602.493 3.309 0 4.91-.199 1.707-2.568 2.029-2.764 4.164.984-.215 1.775-1.068 2.565-1.924.199 0 .494 0 .494.322.198 1.387.489 2.988-.494 3.52-1.086.643-2.565.855-2.565 2.563.196 0 .491.213.491.213.791-.213 1.48-.533 2.074-1.391.199-.209.692.324.692.645-.198 3.309-.692 6.299 0 9.605.292.322.591.855.591.643.688-3.949-1.283-7.795.492-11.102.79-1.707 2.765-2.775 4.044-4.162 1.087-1.389.001-3.629-1.278-4.483zm11.839 15.047c.494-.213.986 0 1.283-.639 0 .32.196.32.494.32v.854c-.791.533-1.777.533-2.566 1.389-.787.533-.989-.643-.989-1.174-.001-.535.989-.535 1.778-.75zm-1.283-6.722c.198-.213.493-.857.987-.533.295 0 .295.32.295.533-.295.32-.295.32-.295.529 0 .324-.296.645-.494.645-.295-.321-.786-.645-.493-1.174zm4.837-1.922c0-2.455.983-4.695 1.28-7.15-1.28-1.174-2.86-.854-4.146 0-2.759 2.135-2.759 5.764-4.536 8.859-.296.213-.49 0-.49-.32-.302-1.389.094-2.67.49-4.164.197-1.066-.296-1.92-1.088-2.24-.197 5.336.598 10.564.296 15.795.302 0 .496 0 .496.322 1.084-3.311-.989-6.938 1.084-10.037h.989c.985.645 0 1.711.292 2.564 0 .213.202.213.495.213.198-.213.198-.213.493-.213.198 0 .494.213.198.535-.493.531-.691.85-.984 1.385-.202.32-.494 0-.494-.32-.299.32-.299.855-.494 1.389h.494c.985-.748 1.281-1.922 2.07-2.988h.495c.787 1.066-.296 2.24-.791 2.988.494 0 .494-.213.791-.533.491-.535.787.854 1.281.32 0-.32-.494-.855-.494-1.176.197-.744 0-1.92.693-2.453-.199 0-.199-.324-.199-.533-.494 0-1.281 0-1.577-.533 0-1.176 0-2.029-.199-2.775-.591-1.389-.789 1.066-1.777 1.6-.592.322-1.281 0-1.082-.854.49-1.066 1.082-2.135 1.577-3.307.987-1.389 1.971-2.455 3.553-2.99.494-.318.985 0 1.283.535.293 1.922 0 3.627-.298 5.549-.2.533-1.282 0-1.48.213 0 .32-.494.641-.297 1.176.496.533 1.086 0 1.286-.322.292-.213.491 0 .491.322.298 3.84.298 8.004.298 11.846.293.854 1.28 1.387 1.28.643.497-4.487-.986-8.862-1.279-13.346zm13.023 1.922c.297.854.49 1.707.297 2.242-.494.85-1.084 1.385-1.777 1.92-.295 0-.492 0-.492-.215.197 0 .098-.32.197-.639.492-1.066.789-1.922.789-2.988-.297-.533.986-.855.986-.32zm3.651-.213c0-1.174-.295-2.027.199-3.094.787-1.068-.199-2.244-.199-3.631 0-.748-.59-1.068-.787-1.385-3.061-.533-4.146 3.625-5.428 5.867-.202.854-.493 1.389-.686 2.242-.301 1.6-.301 3.305-1.09 4.695-.493-1.391-.197-3.096-.197-4.482.197-1.922.197-3.521.693-5.551-.204 0-.496-1.066-.496-.213-.789 3.309-.493 6.293-.985 9.711 0 .75 0 1.922.789 2.777.693-2.242 1.287-4.805 1.771-7.26 0-.32.202-.531.5-.531.492 0 .984.211.984.531 0 .855 0 1.922-.197 2.777-.492.85-.787 1.385-1.287 2.24-.291.533.202.854.202 1.066h.592c.689-.852 1.186-1.922 1.973-1.922.49-.318.49.855.297 1.389-.787 1.389-2.072 1.389-3.064 2.244-.291.211 0 .531.202.531 1.084 0 2.075-.32 3.055-.854 0-.213-.49-.854-.49-1.068.297-.533.789-.533 1.283 0-.197-1.172-.494-2.242-.197-3.305.197-.322.492-.857.492-1.391-.492 0-1.088-.32-1.088-.645 0-1.064.596-2.131 0-3.303h-.688c-.59.852-.789 1.707-1.578 1.707-.197 0-.79-.32-.492-.855.984-1.6 1.48-3.629 3.057-4.695.494-.32 1.283 0 1.777.535.789 1.385.789 2.561.494 3.842-.197.639-1.283.318-.988 1.174.299.211.494.854.791 1.066.197 3.309.787 6.404.787 9.391 0 .322.5.322.5.322.19-3.305-1.091-6.618-.501-9.922zm14.804-8.86c-.891 0-.793 1.6-1.281 2.135-.791-1.387.789-2.135.789-3.523.195 0 .492 0 .492-.318.49.854 1.578.533 1.578 1.068.191 1.172 0 2.238-.592 3.414-.496 1.92-1.283 3.842-2.268 5.762-.303.855-.494 2.242-1.486 2.242-.586-.32-.783-1.178-.586-1.707.787-1.602 1.578-2.99 2.072-4.697-.303 1.391-.791 2.775-1.486 4.162 0 .322 0 .855.201.855 2.074-2.242 3.357-5.871 3.357-9.178.001-.215-.497-.215-.79-.215zm5.426 0c0 .32-.297.748-.592 1.066-.492.533-1.777.854-1.482 1.389.199 1.389 2.074 2.24 3.555 2.24.494 0 .789.855.494 1.387h-.494c-.498-.531-.99-.852-1.777-.852-.787-.32-1.281-1.387-2.072-1.922-.492-.318-1.477.213-1.287-.318 0-.855 1.287-1.07 1.781-1.924.297-.533-.199-.852-.494-1.066-.195-.854.494-1.389.494-2.242 0-.316.297-.533.592-.316.494.531.691 1.385 1.283 1.92v.638zm-9.473 1.067c0 .854-.299 1.068-.793 1.709-.291.215-.789.215-1.08.215-.494-.215-.203-.855-.203-1.07.203-1.387 1.48-2.773 2.77-1.705-.197.318-.694.532-.694.851zm-.595 5.015c-.488.217-.986-.316-.986-.531.303-.641.498-1.176.986-1.389.297 0 .596 0 .596.213-.001.536-.001 1.391-.596 1.707zm.793-3.626c.496-1.068 1.582-1.922 1.283-3.094 0-.75-1.283-.215-1.779-.215-.785.531-1.479 1.174-2.564 1.92-.791.533-2.072.854-1.58 2.242.303.535 1.287.213 1.58-.318.496.318.99.531 1.281 1.172v.533c-.291.535-.986.535-.785 1.387.494.535.785 1.068.494 1.602 0 1.709.291 3.096.291 4.697-.291 2.24-.494 4.162-.494 6.404 0 .318.203.852.797 1.068.486-4.057-.797-8.219.195-12.383.291-.639 1.281-.854 1.777-1.389.295-.316-.197-.852.295-1.172-.492-.747-.989-1.601-.791-2.454zm4.836 6.617c-.195 0-.498-.213-.195-.535.488-.322.488-1.387 1.281-1.387.193 0 .193.32.492.533-.492.531-.795 1.389-1.578 1.389zm.293 6.082c-.791 0-.988-1.387 0-1.92h.49c.303 0 .203.32.303.533.193.854-.303 1.709-.793 1.387zm4.343-2.135c-.494-1.172-2.072-.639-2.564-1.172-1.289-1.068 0-2.775.492-4.164 0-.213-.592 0-.691-.213-.594-1.172-1.279-1.92-2.068-.854 0 0 .488.215.488.533.301.855-.791 1.387-1.279 1.922-.297.32 0 1.174.291 1.387.5.32.695-.857 1.289-1.066.189 0 .492 0 .492.209.193 1.178.492 2.246-.492 3.098-.594.32-1.092.535-1.877.535-.494.32-.197.854-.197 1.174.785 1.389 2.074 1.924 2.566 3.311h.492c0-1.387.295-2.777 0-4.484 0-.535.494-1.07 1.283-.854.789.639.492 1.707 1.281 2.24h.494c.786-.534 0-1.067 0-1.602zm17.961-9.496c-.199-.107-.199-.215-.398-.215-.297 0-.688-.318-.887-.318-.295-1.604.984-2.988 2.268-1.922.496.854.791 1.922-.297 2.773-.192 0-.486 0-.686-.318zm-5.037 3.627c-.297.748.496 1.064-.197 1.281-.787.318-.492-.426-.984-.748.787-.852.492-2.133 1.279-2.773.301 0 .795.641.301 1.172-.301.216-.399.853-.399 1.068zm-.887 1.922c-.295.529 0 1.92-.984 1.387-.396-.426-.494-1.492.197-2.244.295-.001.887.644.787.857zm9.374 5.443c-.094-.213-.193-.961-.193-1.281 0-.215-.496-.215-.496-.215-.199 1.068.395 3.844-.986 2.775-1.68-1.279-.889-4.48-.391-6.723 0-.213-.697-.213-.889-.213-.297.213-1.283.742-.99.213 0-1.389 1.182-2.24 1.975-3.309v-.854c0-.215-.195-.215-.496-.215-1.479 1.387-2.764 2.137-4.637 3.311 0 0 0 .533-.191.533h-.5c-.293-.324-.293-.533-.293-.855.494-1.066.984-1.92.793-2.988-.299-.533-.5-1.705-1.289-1.174-.789 1.174-.486 3.096-1.773 3.949-.297 0-.297-.32-.297-.32.396-1.387 0-1.281.494-2.348 0-.32.195-.535.096-1.174l-.096-.426c-.098-.535.096-.428.096-.643.297-.318.1-.426.396-.641.787-.533 1.279-1.387 2.074-1.92-.201 0-.201-.322-.201-.639-.594 0-.789-.535-1.086-.535-.984.535-1.773 1.922-2.07 3.309-.197 3.096 0 5.871-.492 8.857-.201.854-1.777.854-2.564 1.387-.199 0 0 1.176.787 1.176l.791-.855c.293 0 .785 0 .785.32 0 1.602-1.279 2.99-1.082 4.697 0 0 .789-.109.789-.428.195-1.918.59-3.842 1.086-5.764.295-.318.197-.533.494-.746.197 0 .197.213.492.535.197.531-1.283.961-.199 1.279.199.105.396-.748.691-.959.303 0 .492 0 .492.211.297 1.709-.787 2.775-.492 4.486.303.531.492 1.066.492 1.598h.492l-.195-.213c0-.318.496-.531.496-.531-1.088-2.244-.301-4.486-.301-6.621 0-.854.992-1.385 1.584-1.705.686 0 1.475-.854 2.271-1.07.295 0 0 .426 0 .75-.496 1.387-.697 2.775-1.283 4.16-.492 1.709-.893 3.205-.695 4.908 0 0 .596 0 .596-.318-.203-1.918.789-3.521 1.084-5.229.199-.535.594-1.602 1.084-1.814.299 0 .496 0 .496.213 0 1.92-.197 3.309 0 5.336.297.748 1.086 1.068 1.773 1.281.297 0 .199.213.59.109.494.104.494-.109.695-.109 1.079-.531.79-1.814.193-2.558zm5.724-5.977c-.199 0-.494 0-.494-.322-.492-2.133.791-3.52 2.271-4.693 0 1.174-.197 2.24-.984 2.773.197.32.49.533.49.533 2.568-2.133 4.633-4.908 7.695-4.908 1.779-.32 4.838 2.242 3.357 3.842-.592.533-2.072.32-3.158.32.299-.854 1.283-1.172 1.873-1.709v-.533c-1.082-1.066-2.365-1.387-3.648-.852-1.486.852-3.059 2.24-4.543 3.094-1.082.533-1.082 2.133-2.066 2.775-.297.001-.496-.32-.793-.32zm6.117-7.47c-.887-.32-1.479-1.922-.492-2.242.492-.213.791.535 1.285 1.176.299.533 0 1.384-.793 1.066zm.299 6.082c0 .855-.498 1.709-.988 1.389-1.084 0-1.576 1.063-2.568.854.199 0 .199-.32.199-.533h.496c.592-.854 1.084-1.389 1.576-2.242 0-.318 0-.533-.295-.533.295 0 .295-.32.295-.533.787.211 1.285.531 1.285 1.598zm1.576.32c-.492-.426-.783-1.387-.295-1.387.492-.32.789.533 1.281 1.066-.293 0-.293.32-.293.535-.199.001-.495.001-.693-.214zm-.59 3.844c-.193.852 0 1.705-.492 2.453-.494.641-1.482.855-1.285 1.389 0 .854 1.092-.215 1.777-.215.295 0 .59.215.59.535.197.854 0 1.6-.783 1.922-1.291 0-2.865.32-4.15 0 .299-.535-.793-1.389 0-1.604.793 0 1.578-.639 1.578-1.387.199 0 .494 0 .494-.32.297-.854.986-1.709.297-2.24-.297 0-.791-.213-1.084-.213.787-.643 1.574-.855 2.373-1.389.492.001.98.213.685 1.069zm11.842-1.922c-.299.209-.59.533-.791.854 0-.854.492-1.174.986-1.709.793-1.705 1.09-3.84 2.367-5.229.197-.318.988-.318 1.486 0 .787.535.787 1.389.492 2.242-.197.215-.492.531-.99.531-.791.535-.988 1.604-1.773 2.455-.492.323-1.285.323-1.777.856zm3.352 6.189c.992 0 1.777-1.174 2.467-2.027v-.535c.299 0 .592-.639 1.088-.32.693.535.693 1.389 1.283 1.922.199.855 0 1.922-1.084 1.922-.695-.211-.199-1.389-.988-1.602-.299 0-.393.213-.59.213-1.283.855-2.078 2.775-3.65 2.244 0 0-.396-1.066-.1-1.389.191-.533.488-.855.488-1.389.791-1.066 1.285-2.24 2.078-2.986.785-1.176.785-3.42 2.264-3.42.299 0 .498.43.498.752-.598.531-1.287 0-1.578.854-.297.535.787.318.492.854-.992 1.707-2.27 2.773-3.061 4.48-.293.535.098.427.393.427zm4.543-9.818c-.295 0-.492 0-.492-.213 0-.854 0-1.709.492-2.561.295.533.982.533 1.277 1.174.301.746-.295 1.6-.783 1.92 0 0-.199-.32-.494-.32z" clip-rule="evenodd" fill-rule="evenodd"/><path d="M1.928 22.551c1.502-.094 2.731.971 3.003 2.364v18.47c-.033 5.234 4.181 9.453 9.432 9.449 5.138.004 9.348-4.215 9.431-9.449V30.068C23.696 19.92 31.906 11.696 42.018 11.6 49.16 11.549 55.005 6.673 56.596 0c-3.669 2.795-8.338 4.561-13.292 4.512-.983.049-.879.106-1.716 0h.214c-14.197 0-25.441 11.349-25.51 25.556v12.458-.213c-.007.098-.007.102 0 .213-.007 1.266-1.115 2.377-2.571 2.363-1.276.014-2.387-1.098-2.359-2.363-.027-.109-.027-.115 0-.213V25.129c-.027-1.734-1.351-3.065-3-3.007.14-.983.971-1.722 1.931-1.719.359-.003.659.071.858.216.416.096.882.168 1.286.214 2.687-.046 4.799-2.162 4.716-4.726.083-.101.081-.156 0-.213-1.001 1.367-2.712 2.275-4.716 2.362-.25-.178-.735-.174-1.074-.215-2.213.041-3.995 1.823-4.072 4.081H0v.429h2.146-.218" fill="#ED1C24" clip-rule="evenodd" fill-rule="evenodd"/><path d="M42.018 20.189c-5.46-.05-9.895 4.395-9.862 9.879v-.213 15.464c-.039 7.621-6.108 13.75-13.72 13.746-5.279.004-9.906-3.068-12.219-7.518 2.078 1.986 4.933 3.273 8.146 3.221 6.231.053 11.331-5.057 11.363-11.383V30.068c-.024-9.037 7.289-16.36 16.292-16.323h-.43c4.839-.038 9.213-2.017 12.434-5.156-.507 6.436-5.891 11.55-12.434 11.6h.43" fill="#ED1C24" clip-rule="evenodd" fill-rule="evenodd"/><path d="M39.659 34.579c-.072-1.447 1.02-2.543 2.357-2.576 1.366.033 2.458 1.129 2.357 2.576.101.201.049.484 0 .645-.133.5-.619.924-1.283.861-.569.063-1.096-.467-1.074-1.074-.022-.207.008-.361 0-.432v-.213c-.148.566-.248 1.076-.215 1.502-.033 2.471 1.885 4.391 4.289 4.295 1.675.096 3.154-.916 3.86-2.359.586-1.098.943-2.414.855-3.867.087-4.571-3.662-8.33-8.357-8.377-4.569.047-8.32 3.806-8.363 8.377V45.32c0 8.684-6.978 15.674-15.65 15.68-1.15-.006-2.336-.145-3.429-.43h-.214c2.182 1.035 4.729 1.648 7.505 1.717 9.485-.068 17.244-7.842 17.148-17.396V34.366l.214.213" fill="#ED1C24"/></svg>