<svg xmlns="http://www.w3.org/2000/svg" height="800" width="1200" viewBox="-31.875 -8.265625 276.25 49.59375"><path d="M9.3438 16.625L0 30.0938h1.6875L4 26.8124h5.5313l.25 1.5313c.1787 1.2124.495 1.75 1.9062 1.75h1.4063l-2.25-13.4688zm8.125 1.0938l-2.7813 12.375h3l2.7813-12.375zm5.375 0l.5937 1.0624-2.5313 11.3126h3l2.5-11.25h.9376c1.7262 0 2.4462 1.005 2.3124 2.5-.1112 1.3387-1.1 2.8062-4.125 3.125l2.4376 4.2812c.6274 1.09.9037 1.3438 2.5624 1.3438h1.5938l-3.3438-5.25c1.7926-.275 3.745-1.4 3.9688-3.4063.2688-2.3012-1.3863-3.7188-4.1875-3.7188zm18.1874 0l.7813 1.4374-2.4375 10.9376h1.5625L43 21l4.6563 7.75c.5124.8738.9712 1.3438 2.4062 1.3438l2.7813-12.375h-1.5626l-1.9374 8.5624-4.2188-7.25c-.6075-1.0475-.9187-1.3124-2.2188-1.3124zm14.5938 0l-2.7813 12.375h9.5626c-.1788-.8526-.5588-1.1876-1.6563-1.1876h-4.5938l1.0313-4.5624h4.7188l.2812-1.25h-4.75l.9375-4.1876h4.375c1.0975 0 1.4763-.3362 1.6563-1.1874zm9.875 0l1.9063 12.375h1.4374l4.2813-7.375 1.0313 7.375h1.4374l7.4376-12.375h-1.5938l-5.1563 8.6562-1-8.125c-.0437-.3812-.3674-.5313-.75-.5313h-2.0624l.4062 2.9376-3.25 5.7187-1.2188-8.125c-.0461-.3813-.3687-.5313-.75-.5313zm23.9063 0c.1787.8524.5562 1.1874 1.6562 1.1874h5.5625l-8.8125 8.875c-.7612.7713-1.2675 1.2688-1.3125 2.3126h11.4375c-.1787-.8463-.545-1.1838-1.625-1.1876H90.5l8.5-8.75c1.0738-1.15 1.3163-1.7362 1.4063-2.4374h-11zm13.3124 0l-2.75 12.375H109.5c-.1825-.8526-.5587-1.1876-1.6563-1.1876H103.25l1.0313-4.5624H109l.2813-1.25h-4.75l.9374-4.1876h4.375c1.0988 0 1.4776-.335 1.6563-1.1874zm15.9063 0l-8.375 12.375h1.6875l2.2188-3.2813h5.0312l.3125 1.5313c.2712 1.1987.5563 1.75 1.9688 1.75h1.4374l-2.7812-12.375zm8.6563 0L124.5 30.0938h8.3125c-.1787-.8513-.59-1.1876-1.6875-1.1876h-3.3438l2.5-11.1874zm14.625 0l-8.3438 12.375h1.6563l2.2187-3.2813h5.0313l.3437 1.5313c.2675 1.1987.5563 1.75 1.9688 1.75h1.4375l-2.8125-12.375zm7.5625 0l.8125 1.4374-2.4688 10.9376h1.5938L151.4375 21l4.6563 7.75c.5187.8738 1.0012 1.3438 2.4375 1.3438l2.75-12.375h-1.5625l-1.9063 8.5624-4.25-7.25c-.6037-1.0475-.9188-1.3124-2.2188-1.3124zm14.2187 0l.5625 1.0624-2.5313 11.3126h4.5625c4.0788 0 7.8825-2.265 8.5313-6.1876.6488-3.8774-2.1437-6.1874-6.0938-6.1874H164.5zm3.5625 1.1562h.8125c2.8438 0 4.1487 1.875 3.6563 5.0313-.4963 3.1962-3.0625 5.0624-5.9063 5.0624h-.8438zm-158.7188 1.5l.8125 5.1563H4.9063zm109.375.8125l.9688 4.3438H115zm23.3126 0l.9687 4.3438h-3.875zM199.75 0c-3.7475 0-7.2162 2.6625-9.1875 4.5938-7.0125 6.84-10.7188 11.4687-10.7188 11.4687h31.25l1.4063-3.125h-25.2188s1.9038-2.6075 6-6.4688c1.0288-.9625 3.7225-3.375 6.4688-3.375 1.8037 0 3.2188 1.1275 3.2188 2.6563 0 1.5125-1.2813 1.9375-1.2813 1.9375.1338-.6462-.3-2.4063-2-2.4063-1.7625 0-2.5 1.345-2.5 2.25 0 1.86 1.6925 3.1875 3.6563 3.1875 3.7762 0 5.5312-2.685 5.5312-5.2812 0-2.62-2.5537-5.4375-6.625-5.4375zm-20.4375 17.6875s1.64 4.7162 3.8125 9.2188c1.8413 3.8362 4.895 6.1562 8.625 6.1562 3.505 0 5.875-2.6662 5.875-5.2188 0-2.8887-2.1975-4.7812-4.8125-4.7812-2.7887 0-3.375 2.0962-3.375 2.625 0 1.2188 1.02 2.3438 2.3125 2.3438 2.035 0 2.1875-1.625 2.1875-1.625s.625.4.625 1.4374c0 .9976-.845 2.2813-2.8125 2.2813-1.57 0-3.8775-.8275-5.4688-4.1875-1.8712-3.9337-2-5.0938-2-5.0938h24.6563l1.4063-3.1562z" fill="#231f20"/></svg>