<svg xmlns="http://www.w3.org/2000/svg" height="800" width="1200" viewBox="-7.91451 -2.6457 68.59242 15.8742"><g fill="#0f2d53"><path d="M24.0408 7.6895l.4408-2.1037c.0878-.422.2228-.7765.4037-1.0617.1815-.2853.3958-.5146.6424-.6858a2.4403 2.4403 0 01.7787-.3517 3.3396 3.3396 0 01.853-.1077c.0212 0 .048.0008.0794.0008.032.0006.3003.001.321.001 0 0-.1635.198-.2744.4874-.084.221-.0897.6646-.0897.6646l-.4506-.003c-.3376-.002-.5797.072-.7588.2218-.1797.1508-.3032.3881-.3712.7125l-.465 2.2243zm3.3366-1.5361l1.0081.001c-.0397.2847.0167.4842.1677.5977.1559.1333.4017.2003.738.2003.2979 0 .5376-.0511.7202-.1561a.7302.7302 0 00.3556-.4554c.0828-.3037-.2815-.5503-1.0946-.7416l-.0246-.0138-.1074-.0286c-.461-.1048-.7575-.2149-.89-.3286-.163-.1053-.2567-.2567-.2782-.456-.0497-.1714-.0378-.3891.0352-.655.1276-.4649.391-.831.7909-1.096.396-.2566.907-.3833 1.5311-.3825.586 0 1.0007.1339 1.246.3995.2452.2948.313.6792.202 1.1539l-.5767-.0006c-.221-.001-.3514-.1005-.393-.3003a.49.49 0 00-.1356-.242c-.1392-.123-.3575-.1853-.6554-.1853-.2882 0-.5093.0516-.6628.1561a.7255.7255 0 00-.337.4403c-.0702.2572.1565.4469.6794.571.15.0479.2627.0762.337.086.157.0574.2953.1021.4165.1357.1204.0339.2162.0593.2879.078.119.0574.2376.1146.3571.1712.1606.1143.2694.2614.3257.4418.0505.1995.0434.4176-.0212.6552-.1405.5125-.4233.9117-.8469 1.1956-.4183.2651-.9446.398-1.579.398-.653-.001-1.1057-.1395-1.3557-.415-.2802-.2754-.3596-.6841-.2403-1.2247m4.4757 1.5298l1.202-4.3852c.039-.1428.1222-.264.2503-.3627.1278-.1005.2654-.1476.4096-.1476l3.0821.0005-.2297.839H33.973l-.2886 1.0528 1.9314-.0008-.0901.3304c-.039.1424-.1223.2638-.2511.3622-.1278.1003-.2652.1477-.4088.1477l-1.41-.001-.3453 1.2544 2.595.0005-.2505.9096h-3.6018zm4.5286.006l1.203-4.3905c.039-.1428.1223-.2632.2498-.3627.1292-.0998.2678-.1495.411-.1495l1.8854.003c.5379 0 .9056.1143 1.1025.3421.2034.2379.2434.5837.1182 1.0396-.0827.3037-.2196.5556-.4085.7548-.1672.19-.3876.327-.6606.4128.1997.0762.3225.19.3677.3413.0471.1431.034.3844-.041.727l-.1312.5835c-.0159.0574-.032.1193-.0508.1854a1.228 1.228 0 00-.0362.1847c-.018.171.0127.281.086.3289h-1.1269a.7549.7549 0 01-.004-.3019c.0225-.1516.0413-.2558.0577-.3127l.1294-.5266c.0585-.2857.0564-.489-.005-.612-.0775-.1052-.2506-.1582-.5194-.1582l-1.0808-.0005-.5241 1.9119H36.382zm1.781-2.7664l1.1961.001c.259.0005.4657-.052.6189-.1556.1532-.1048.2595-.2657.3201-.484.0598-.2185.0408-.3796-.0545-.4841-.084-.1143-.242-.1715-.4723-.1715l-1.2533-.001zm3.127 2.7664l1.202-4.386c.0386-.142.1223-.2632.2503-.3638.1284-.0992.2683-.1518.412-.1518h1.8116c.5098.0008.87.1103 1.0813.319.2072.2284.2575.5372.1503.9269-.0683.2463-.1775.455-.3304.626a1.633 1.633 0 01-.5517.3836c.221.1048.3723.2525.4548.4427.0751.1796.0728.4172-.007.7112-.1294.4744-.385.844-.7654 1.1104-.3874.2564-.8694.3813-1.4457.3813zm1.8037-3.0032l1.1668.0005c.249 0 .4437-.043.5824-.1273.1386-.086.233-.218.2823-.3984.0497-.1805.0283-.3138-.064-.3996-.0751-.0757-.252-.1143-.5303-.1143l-1.1533-.0008zm-.5818 2.1206l1.21.002c.2695 0 .4902-.0521.6624-.1566.1604-.0945.2723-.2564.3345-.4845.0622-.2275.0405-.3934-.0648-.4985-.0992-.0947-.2974-.1426-.5946-.1426l-1.1964-.001zm3.7732.8826l1.2007-4.382c.0392-.1429.123-.2632.2513-.3627.1276-.0997.2704-.157.4146-.157h.5004l-1.3436 4.902zM23.7931 3.6602c.023-.138-.004-.2595-.082-.3609-.0826-.11-.1974-.1653-.3458-.1664l-.568-.004-.239 1.134a25.2341 25.2341 0 001.2348-.6024m-.187.873a14.5584 14.5584 0 01-1.2057.4766l-.5636 2.6789h1.1086l.6702-3.1819zM51.4722 5.856h-1.2734l1.26-2.0757.1344 2.2122c.2973-.0378.6649.1132 1.0117.007l-.3016-3.2123h-.7948c-.2403 0-.4448.1185-.5908.3373l-2.8954 4.5646h1.0835l.5977-1.003 1.924-.001.0504 1.0038h1.0855l-.1817-1.9402c-.7155.1273-1.1094.1072-1.1094.1072m-31.8416 0h-1.274l1.2603-2.0757.1016 1.7325c.2979-.0368.631-.1183.9784-.2246l-.2352-2.5014h-.7956c-.2403 0-.4442.1185-.59.3374L16.181 7.6889h1.0832l.5977-1.003 1.9238-.001.0519 1.0038h1.0845l-.182-1.9402c-.7157.1276-1.1094.1074-1.1094.1074M6.3635 7.3601l.6863.7935.4408-.5096-.8715-1.0091-.4403-.5093-.4082-.4776-.4056.5392.4593.5337-.0008.001z"/><path d="M15.1656 3.5123c-.6242-.6125-1.288-.9088-1.9725-.8808-.5442.0225-.988.2495-1.2877.4596a.6004.6004 0 00-.0339.0243l-.0111.008a2.2678 2.2678 0 00-.1069.081l-.4736-.5133c-.1159-.1363-.2929-.3553-.3384-.4813-.0347-.0976-.0429-.1974-.0537-.2548-.0394-.203-.0616-.54-.0616-.54s0-.0804-.0381-.1714l-.0471-.1175s.3945-.1738.6768-.1598l.1693.2069.006-.205v-.297s-.0183-.1592-.1693-.2796c-.1124-.089-.164-.0968-.303-.1175-.1735-.0249-.2053.023-.3357-.0987L10.6658 0l-.7374.003-.2887.1077s-.159.038-.2667.3088l-.2198.6955s-.0601.2302-.0725.5782c-.0135.3492-.007.0122-.007.0122s-.0156.5207-.0775.6762l-.1191.4104c-.1715.4085-.3458.6101-.3495.6144l-.6625.7675h.0005l-.1847.2143-.1847-.2143.003-.002-.4066-.4662-.058-.066H7.034l-.2032-.2332c-.004-.005-.188-.2175-.3638-.649l-.1092-.3754c-.062-.1556-.0775-.6763-.0775-.6763s.006.337-.007-.0122c-.0127-.348-.0725-.5781-.0725-.5781L5.9809.4199C5.8737.1492 5.7145.111 5.7145.111L5.425.0034l-.7374-.003-.119.1752c-.13.1217-.1625.0738-.3363.0987-.1384.0206-.1905.0286-.3027.1175C3.7786.512 3.76.6714 3.76.6714v.2971l.006.205.1693-.2068c.2823-.014.677.1598.677.1598l-.0475.1175c-.0381.0913-.0381.1714-.0381.1714s-.0217.3371-.0616.54c-.0114.0574-.0185.157-.0537.2548-.0606.1696-.3612.5086-.4286.5837l-.3794.4106c-.2908-.2341-.794-.5471-1.4383-.5733-.6842-.0283-1.3489.2683-1.9727.8808L0 3.7009l.1442.2275c.0212.0344.5342.8282 1.4539 1.0068.5964.1156 1.2456-.0654 1.8616-.5067L3.0115 3.92c-.4583.3286-.8734.4381-1.2803.362-.3842-.0734-.6758-.3144-.8485-.496.4138-.3402.8326-.5042 1.249-.4891.729.0267 1.2404.5998 1.245.604l1.0802 1.2512.4397-.5109-.8262-.9564.966-1.207.3942-.4911c.0923.486.5342 1.3245.7233 1.617L5.0811 4.8546l-.4284.499h-.0005l-.006.008-.005.005h.0005l-.458.5344c-.2392.2485-1.072 1.0748-2.0484 1.6008 0 0 .3061.2106.7088.203.2416-.003.518-.0848.7856-.3374.1092-.104.2685-.2461.4244-.399 0 0-.073.1794.101.5032.134.249.3686.3966.6858.4088.4961.0183.853-.2424 1.1015-.5405l-.3561-.3937s-.3228.4585-.715.1783c-.1439-.1355-.1328-.3644-.1328-.3644s-.003-.0765.0717-.237c.267-.454.9983-1.409 1.4322-1.9645l.3345-.424.4765.5504.001-.001.1876.2173-.0008.001.0106.0122-.8353 1.0358.38.4254.8826-.9649.002.002.002-.002 1.0787 1.1994-.001.001.4469.5021v-.0007l.1593.1698.1103.123c.2455.2697.5847.4916 1.0448.4747.3178-.0122.5514-.1598.6856-.4088.1746-.3246.101-.5032.101-.5032.1564.153.3157.295.425.399.7106.6728 1.4938.1347 1.4938.1347-.9766-.526-1.8092-1.352-2.049-1.6008l-.26-.3045-.5445.6107c.2645.3616.251.5535.251.5535s.0111.2288-.1325.3643c-.3905.2842-.736-.204-.736-.204L8.6731 5.6054l-.006-.006-.5559-.686.0106-.0123-.001-.0008.4125-.4775-.0005-.0006.249-.287.1092.138.7078.9573.4977-.5916-.81-.9445-.001.003-.0795-.0926c.1889-.293.631-1.1314.7228-1.6172l.394.491.9657 1.2071-.1979.2289h.0005l-.812.9408-.7016.812-.211.244.4409.509.3503-.405.0362-.0423.526-.6078.3066-.3553.9573-1.108c.004-.004.5157-.5771 1.2443-.6041.4162-.0151.8348.149 1.2489.4892-.172.1815-.4646.4225-.8478.4958-.4072.0762-.8263-.0362-1.285-.3656l-.4369.508c.616.4413 1.2587.6265 1.8542.5109.9205-.1786 1.4333-.9724 1.4544-1.0068l.1442-.2275zM8.3073 8.5672l-.4519.533.0511.0604-.001.0005.2744.3178c.1442.1767.5405.6337.6017 1.1038 0 0 .3915-.539.0937-1.2954.0005 0-.0437-.1992-.5676-.7202"/><path d="M7.9499 7.548l-.7117.8234c-.716.6675-.771.916-.771.916-.2977.7572.0939 1.2953.0939 1.2953.0608-.4696.4569-.9265.6013-1.1022l.2747-.3188-.001-.001.9837-1.1383.0008.0008.5823-.6739-.435-.517z"/></g></svg>