<svg xmlns="http://www.w3.org/2000/svg" height="800" width="1200" viewBox="-7.85181 -3.27395 68.04902 19.6437"><defs><linearGradient x1="0" y1="0" x2="1" y2="0" gradientUnits="userSpaceOnUse" gradientTransform="scale(-9.99 9.99) rotate(-87 -17.0836 26.5021)" spreadMethod="pad" id="b"><stop offset="0" stop-color="#ffe0a9"/><stop offset="1" stop-color="#c7822a"/></linearGradient><linearGradient x1="0" y1="0" x2="1" y2="0" gradientUnits="userSpaceOnUse" gradientTransform="matrix(0 -12.02 -12.02 0 443.909 66.947)" spreadMethod="pad" id="d"><stop offset="0" stop-color="#ffe0a9"/><stop offset="1" stop-color="#c7822a"/></linearGradient><clipPath clipPathUnits="userSpaceOnUse" id="a"><path d="M425.495 80.773l-.559-10.661-11.041.579.559 10.661"/></clipPath><clipPath clipPathUnits="userSpaceOnUse" id="c"><path d="M413.773 66.947h29.095v-12.02h-29.095z"/></clipPath></defs><path d="M27.0473 12.635h1.184V8.1428H26.6l.4473.5782m12.2523 3.914h1.184V8.1428h-1.6313l.4473.5782m-8.8579 3.914h-1.1705l-.0134-3.9313-.4339-.561h3.1517c.7754 0 1.3173.0812 1.634.2428.2082.1076.367.249.4753.4244.1164.175.175.37.175.586 0 .424-.1334.7538-.4.9828-.167.1418-.384.2494-.6587.3235.2166.0606.3834.1277.5002.2021.1083.0674.2085.1683.2918.3027.0666.108.1164.2092.1499.3034.025.1009.05.249.0667.4445.0335.3231.0751.552.1333.6801l-1.3254.0067c-.0416-.1076-.0836-.3231-.1252-.6466-.0332-.2625-.0914-.4646-.1831-.5994-.0836-.141-.2088-.249-.3754-.3298-.217-.0942-.5337-.1348-.9422-.1348h-.9366v1.704zm.0135-2.5054h1.6453c.2752 0 .4756-.0335.592-.0942.1753-.1009.2667-.2762.2667-.5253 0-.2762-.1334-.4512-.4-.5253-.0918-.0271-.2417-.0405-.4587-.0405h-1.6453m4.5589-.8015h1.1751v2.5188c0 .3231.0335.5387.0505.64.0412.2017.1665.3432.3665.4173.2085.0744.567.1146 1.084.1146h1.1336v.8015H37.565c-.592 0-1.0255-.0204-1.2922-.0808-.617-.1418-1.0005-.4582-1.1589-.943-.0666-.1883-.0998-.5051-.0998-.9429v-.0811l-.0025-1.8662-.4473-.5782M20.7005 12.635l2.0062-3.9172-.4448-.575h2.0983l2.3012 4.4922H25.277l-.5415-1.0371h-2.1093l-.5419 1.0371zm2.9845-3.4078l-.792 1.5692h1.584m18.209-1.4549v3.2932h-1.134v-4.492h1.5173L45.279 11.49V8.7136l-.442-.5708h1.5673v4.4919h-1.4506m3.6653-4.4919v4.4922h-1.184l-.0003-3.914-.4473-.5782h.4477zm.0416 2.2225l2.1258-2.2225h1.559l-2.3259 2.2225 2.2176 2.2697h-1.559" fill="#20407e"/><path d="M5.1737 12.8767L.3184.237 5.3497.2194c1.011.9154 4.6323 4.2767 6.428 5.8963 1.796 1.6196 6.3877 5.7704 6.3877 5.7704.6693.5316.924.6082 1.6655.81l-.0004.1806" fill="#fff"/><path d="M5.1737 12.8767L.3184.237 5.3497.2194c1.011.9154 4.6323 4.2767 6.428 5.8963 1.796 1.6196 6.3877 5.7704 6.3877 5.7704.6693.5316.924.6082 1.6655.81l-.0004.1806z" fill="none" stroke="#fff" stroke-width=".4382" stroke-miterlimit="3.864"/><path d="M5.2541 12.7645l-.036-.0938 8.7853-4.373 3.1393 2.8412c.8647.7765 1.4849 1.4503 2.6385 1.6256" fill="#20407e"/><path d="M3.299 7.6192h9.9459L5.2795.3333.4937.3343" fill="#e4292f"/><path d="M3.7837 4.759c.0473-.9166.8492-1.6183 1.7915-1.5678.9422.0508 1.6679.8346 1.6206 1.7512-.047.9165-.8491 1.6185-1.791 1.5677-.9427-.0508-1.6683-.8347-1.621-1.7512" fill="#fff"/><path d="M3.7837 4.759c.0473-.9166.8492-1.6183 1.7915-1.5678.9422.0508 1.6679.8346 1.6206 1.7512-.047.9165-.8491 1.6185-1.791 1.5677-.9427-.0508-1.6683-.8347-1.621-1.7512z" fill="none" stroke="#fff" stroke-width=".1859" stroke-linejoin="round" stroke-miterlimit="3.864"/><path d="M4.8343 4.5797s.1849-.1813.0219-.4265c-.0014-.0025.0952.0303.1877.0388.0024.0004.0042-.044.0046-.05-.204-.06-.4936-.1655-.545-.2936 0 0 .3361.1616.5555.1782l.0177-.055c-.2184-.0544-.6728-.1899-.7645-.3973 0 0 .4748.2586.7934.2963.0018.0004.023-.055.023-.055-.204-.0586-.6368-.2724-.8453-.6336 0 0 .5101.4223.896.5348-.0007-.0003.0399-.055.0403-.0557-.2255-.119-.7645-.3528-.8813-.7384-.0025-.0074.4978.4703.6107.447 0 0-.5595-.4593-.6114-.7282 0 0 .9402.9328 1.0336.992.046.0293.1083.1539.1083.1539s.2075.5115.5712.6343c.0074.0028-.4755-.0646-.6752-.0134-.2166.056-.5412.1714-.5412.1714" fill="#fff"/><path d="M4.8343 4.5797s.1849-.1813.0219-.4265c-.0014-.0025.0952.0303.1877.0388.0024.0004.0042-.044.0046-.05-.204-.06-.4936-.1655-.545-.2936 0 0 .3361.1616.5555.1782l.0177-.055c-.2184-.0544-.6728-.1899-.7645-.3973 0 0 .4748.2586.7934.2963.0018.0004.023-.055.023-.055-.204-.0586-.6368-.2724-.8453-.6336 0 0 .5101.4223.896.5348-.0007-.0003.0399-.055.0403-.0557-.2255-.119-.7645-.3528-.8813-.7384-.0025-.0074.4978.4703.6107.447 0 0-.5595-.4593-.6114-.7282 0 0 .9402.9328 1.0336.992.046.0293.1083.1539.1083.1539s.2075.5115.5712.6343c.0074.0028-.4755-.0646-.6752-.0134-.2166.056-.5412.1714-.5412.1714z" fill="none" stroke="#fff" stroke-width=".1859" stroke-linejoin="round" stroke-miterlimit="3.864"/><path d="M4.543 2.3424s.4211.4918.6399.6452c.4134.29.4208.6488.4134.7962 0 0-.297-.435-.441-.5905-.1439-.1556-.4995-.5137-.6124-.851" fill="#fff"/><path d="M4.543 2.3424s.4211.4918.6399.6452c.4134.29.4208.6488.4134.7962 0 0-.297-.435-.441-.5905-.1439-.1556-.4995-.5137-.6124-.851z" fill="none" stroke="#fff" stroke-width=".1859" stroke-linejoin="round" stroke-miterlimit="3.864"/><path d="M7.3013 4.2671s-.4396.2346-.6276.4523c-.0014.0025-.0339.0099-.1171.0057-.0836-.0046-.2388.0098-.3598-.0537s-.2269-.1707-.2269-.1707.1916.0264.382.0137c.1419-.0091.387-.1047.3959-.1093.2053-.1002.5535-.138.5535-.138" fill="#fff"/><path d="M7.3013 4.2671s-.4396.2346-.6276.4523c-.0014.0025-.0339.0099-.1171.0057-.0836-.0046-.2388.0098-.3598-.0537s-.2269-.1707-.2269-.1707.1916.0264.382.0137c.1419-.0091.387-.1047.3959-.1093.2053-.1002.5535-.138.5535-.138z" fill="none" stroke="#fff" stroke-width=".1859" stroke-linejoin="round" stroke-miterlimit="3.864"/><path d="M6.5446 4.266c-.1842.1306-.399.1684-.399.1684s.2826-.0106.386-.0582c.2846-.1306.6476-.181.6476-.181-.0486-.0494-.1654-.0752-.1654-.0752.0007.0046.0081.022.0077.0265a.0834.0834 0 01-.0885.078.0839.0839 0 01-.0804-.0872c.0003-.0088.0088-.0254.0053-.0254-.0441-.0007-.1292.0237-.3133.1542" fill="#fff"/><path d="M6.5446 4.266c-.1842.1306-.399.1684-.399.1684s.2826-.0106.386-.0582c.2846-.1306.6476-.181.6476-.181-.0486-.0494-.1654-.0752-.1654-.0752.0007.0046.0081.022.0077.0265a.0834.0834 0 01-.0885.078.0839.0839 0 01-.0804-.0872c.0003-.0088.0088-.0254.0053-.0254-.0441-.0007-.1292.0237-.3133.1542z" fill="none" stroke="#fff" stroke-width=".1859" stroke-linejoin="round" stroke-miterlimit="3.864"/><path d="M4.6103 5.3925c-.0046-.0007.1549-.0515.241-.2046 0 0 .1305.1647.2882.205.002.0007-.3299.0324-.5292-.0004" fill="#fff"/><path d="M4.6103 5.3925c-.0046-.0007.1549-.0515.241-.2046 0 0 .1305.1647.2882.205.002.0007-.3299.0324-.5292-.0004z" fill="none" stroke="#fff" stroke-width=".1859" stroke-linejoin="round" stroke-miterlimit="3.864"/><path d="M4.1072 5.3403s.2378-.1894.3362-.3323c.0604-.0872.3574-.345.5719-.3778 0 0 .1976.4984.8862.6043 0 0-.5715.2748-1.7745.1118" fill="#fff"/><path d="M4.1072 5.3403s.2378-.1894.3362-.3323c.0604-.0872.3574-.345.5719-.3778 0 0 .1976.4984.8862.6043 0 0-.5715.2748-1.7745.1118z" fill="none" stroke="#fff" stroke-width=".1859" stroke-linejoin="round" stroke-miterlimit="3.864"/><path d="M5.1377 4.5811s.2357-.1291.6537-.0966c.122.0098.2508.2977.5888.3309.1418.0137.223-.0029.223-.0029s-.271.308-.4985.32c-.2392.0124-.5246-.0137-.8326-.3376-.0716-.0755-.1344-.2138-.1344-.2138" fill="#fff"/><path d="M5.1377 4.5811s.2357-.1291.6537-.0966c.122.0098.2508.2977.5888.3309.1418.0137.223-.0029.223-.0029s-.271.308-.4985.32c-.2392.0124-.5246-.0137-.8326-.3376-.0716-.0755-.1344-.2138-.1344-.2138z" fill="none" stroke="#fff" stroke-width=".1859" stroke-linejoin="round" stroke-miterlimit="3.864"/><path d="M3.1826 5.1921s.4191.0226.5835-.018c.1644-.0405.4205-.0966.5196-.1552 0 0-.2825.38-.6716.3591-.3895-.0208-.4315-.1859-.4315-.1859" fill="#fff"/><path d="M3.1826 5.1921s.4191.0226.5835-.018c.1644-.0405.4205-.0966.5196-.1552 0 0-.2825.38-.6716.3591-.3895-.0208-.4315-.1859-.4315-.1859z" fill="none" stroke="#fff" stroke-width=".1859" stroke-linejoin="round" stroke-miterlimit="3.864"/><path d="M5.6954 3.6879s-.013.3842.1944.442a.5592.5592 0 00.0858.018s.0511.0353.3287-.08c.163-.0675.4022-.0463.4022-.0463s.2999-.0155.4674.1775c.0015.0014.3563-.0329.4597-.0198.1034.013.3934.0384.6375.3154 0 0-.3016-.243-.642-.2293-.2368.0095-.4202.14-.4308.1467-.0102.007-.3891.2748-.4696.369-.0811.0942-.2945.4008-.9881.5856-.5027.1337-1.2834.1207-1.2834.1207s-.3147.1062-.5652.1002c-.2504-.006-.341-.1118-.341-.1118s-.4386-.0484-.5578-.3923c0 0 .4575.0222.4755.018.018-.004.654-.0043 1.0361-.2967.3503-.2674.3472-.44.3472-.44s-.0187-.2042-.2293-.2945c-.2354-.1006-.224-.2473-.224-.2473s-.2385-.195-.23-.4607c0 0 .0567.0656.1548.1266l.207.1104c-.1904-.1361-.5287-.5404-.5686-.8449 0 0 .211.3045.3948.3846.0105.0045-.3994-.3994-.41-.6858 0 0 .1785.2758.3958.3859.011.0056-.3848-.4988-.3644-.8918 0 0 .3052.3175.357.419-.0314-.1044-.1855-.7348-.1538-1.0244 0 0 .1224.7754.7959 1.275.0039.0028-.6897-.9737-.5482-1.5576l.0518.2032.1687.3574c.0017.0025.09-.6304.1545-.6537 0 0-.1122.7976.386 1.3617.498.5638.5054 1.36.5054 1.36" fill="#fff"/><path d="M5.6954 3.6879s-.013.3842.1944.442a.5592.5592 0 00.0858.018s.0511.0353.3287-.08c.163-.0675.4022-.0463.4022-.0463s.2999-.0155.4674.1775c.0015.0014.3563-.0329.4597-.0198.1034.013.3934.0384.6375.3154 0 0-.3016-.243-.642-.2293-.2368.0095-.4202.14-.4308.1467-.0102.007-.3891.2748-.4696.369-.0811.0942-.2945.4008-.9881.5856-.5027.1337-1.2834.1207-1.2834.1207s-.3147.1062-.5652.1002c-.2504-.006-.341-.1118-.341-.1118s-.4386-.0484-.5578-.3923c0 0 .4575.0222.4755.018.018-.004.654-.0043 1.0361-.2967.3503-.2674.3472-.44.3472-.44s-.0187-.2042-.2293-.2945c-.2354-.1006-.224-.2473-.224-.2473s-.2385-.195-.23-.4607c0 0 .0567.0656.1548.1266l.207.1104c-.1904-.1361-.5287-.5404-.5686-.8449 0 0 .211.3045.3948.3846.0105.0045-.3994-.3994-.41-.6858 0 0 .1785.2758.3958.3859.011.0056-.3848-.4988-.3644-.8918 0 0 .3052.3175.357.419-.0314-.1044-.1855-.7348-.1538-1.0244 0 0 .1224.7754.7959 1.275.0039.0028-.6897-.9737-.5482-1.5576l.0518.2032.1687.3574c.0017.0025.09-.6304.1545-.6537 0 0-.1122.7976.386 1.3617.498.5638.5054 1.36.5054 1.36z" fill="none" stroke="#fff" stroke-width=".2452" stroke-linejoin="round" stroke-miterlimit="3.864"/><path d="M4.2339 3.574l.3097.0169.012-.2265-.31-.017" fill="#fff"/><path d="M4.2455 3.3474l.3098.0166-.0117.2265-.3097-.0166z" fill="none" stroke="#fff" stroke-width=".1859" stroke-linejoin="round" stroke-miterlimit="3.864"/><path d="M3.6698 4.7758c.05-.9743.9028-1.7208 1.9046-1.6668 1.002.0536 1.7735.8872 1.7234 1.862-.0501.9743-.9031 1.7204-1.9047 1.6668-1.0019-.054-1.7734-.8876-1.7233-1.862" fill="#fff"/><path d="M3.6698 4.7758c.05-.9743.9028-1.7208 1.9046-1.6668 1.002.0536 1.7735.8872 1.7234 1.862-.0501.9743-.9031 1.7204-1.9047 1.6668-1.0019-.054-1.7734-.8876-1.7233-1.862z" fill="none" stroke="#fff" stroke-width=".2452" stroke-linejoin="round" stroke-miterlimit="3.864"/><g clip-path="url(#a)" transform="matrix(.35278 0 0 -.35278 -142.5788 31.611)"><path d="M414.566 76.081c-.141-2.755 2.04-5.113 4.872-5.265 2.832-.153 5.243 1.957 5.385 4.712.142 2.756-2.04 5.112-4.872 5.265a5.599 5.599 0 01-.288.008c-2.706 0-4.959-2.059-5.097-4.72" fill="url(#b)"/></g><path d="M4.2247 3.592l.3098.0169.0116-.2269-.3097-.017" fill="#fff"/><path d="M4.2364 3.3654l.3097.0166-.0116.2269-.3098-.017z" fill="none" stroke="#fff" stroke-width=".0183" stroke-miterlimit="3.864"/><path d="M5.6958 3.6875s-.013.3842.1944.442a.55.55 0 00.0857.018s.0508.0353.3284-.08c.163-.0674.394-.0621.394-.0621s.308.0003.476.1933c.0014.0014.3563-.0328.4597-.0198.103.0131.393.0385.6374.3154 0 0-.302-.243-.642-.2293-.237.0095-.4202.14-.4308.1468-.0106.007-.389.2751-.4699.369-.0811.0942-.2942.4007-.9877.5856-.5028.1333-1.2835.1206-1.2835.1206s-.3146.1062-.5651.1002c-.2508-.006-.3415-.1121-.3415-.1121s-.4385-.048-.5574-.392c0 0 .4572.0222.4752.018.018-.0039.654-.0042 1.0365-.2967.35-.2677.3468-.4399.3468-.4399s-.0184-.2043-.2294-.2946c-.2349-.1005-.224-.2473-.224-.2473s-.238-.195-.2296-.4607c0 0 .0568.0656.1548.1267l.2068.1104c-.1905-.1362-.5288-.5405-.5687-.845 0 0 .211.3045.3948.3846.0105.0046-.399-.3993-.4096-.6858 0 0 .1785.2759.3954.386.011.0056-.3845-.4989-.3644-.8919 0 0 .193.4932.6971.8358.0032.002-.5277-.6276-.4935-1.4411 0 0 .122.7754.7958 1.2749.0036.0028-.69-.9737-.5482-1.5575 0 0 .0663.679.6424 1.3998.0022.0028-.5256-.7144-.2871-1.4062 0 0-.0925.7109.4053 1.275.4981.5637.5059 1.36.5059 1.36" fill="#080909"/><path d="M5.6958 3.6875s-.013.3842.1944.442a.55.55 0 00.0857.018s.0508.0353.3284-.08c.163-.0674.394-.0621.394-.0621s.308.0003.476.1933c.0014.0014.3563-.0328.4597-.0198.103.0131.393.0385.6374.3154 0 0-.302-.243-.642-.2293-.237.0095-.4202.14-.4308.1468-.0106.007-.389.2751-.4699.369-.0811.0942-.2942.4007-.9877.5856-.5028.1333-1.2835.1206-1.2835.1206s-.3146.1062-.5651.1002c-.2508-.006-.3415-.1121-.3415-.1121s-.4385-.048-.5574-.392c0 0 .4572.0222.4752.018.018-.0039.654-.0042 1.0365-.2967.35-.2677.3468-.4399.3468-.4399s-.0184-.2043-.2294-.2946c-.2349-.1005-.224-.2473-.224-.2473s-.238-.195-.2296-.4607c0 0 .0568.0656.1548.1267l.2068.1104c-.1905-.1362-.5288-.5405-.5687-.845 0 0 .211.3045.3948.3846.0105.0046-.399-.3993-.4096-.6858 0 0 .1785.2759.3954.386.011.0056-.3845-.4989-.3644-.8919 0 0 .193.4932.6971.8358.0032.002-.5277-.6276-.4935-1.4411 0 0 .122.7754.7958 1.2749.0036.0028-.69-.9737-.5482-1.5575 0 0 .0663.679.6424 1.3998.0022.0028-.5256-.7144-.2871-1.4062 0 0-.0925.7109.4053 1.275.4981.5637.5059 1.36.5059 1.36z" fill="none" stroke="#080909" stroke-width=".0113" stroke-miterlimit="3.864"/><path d="M3.183 5.1918s.4198.0226.5838-.018c.1644-.0406.4202-.0967.5193-.1552 0 0-.2826.38-.6717.359-.3891-.0207-.4314-.1858-.4314-.1858" fill="#009450"/><path d="M3.183 5.1918s.4198.0226.5838-.018c.1644-.0406.4202-.0967.5193-.1552 0 0-.2826.38-.6717.359-.3891-.0207-.4314-.1858-.4314-.1858z" fill="none" stroke="#009450" stroke-width=".0113" stroke-miterlimit="3.864"/><path d="M5.1377 4.5808s.2357-.1292.6537-.0964c.122.0096.2512.2974.5891.3306.1415.0138.223-.0028.223-.0028s-.271.308-.4988.32c-.2392.0123-.5243-.0138-.8322-.3373-.072-.0759-.1348-.2141-.1348-.2141" fill="#fff"/><path d="M4.108 5.34s.2377-.1895.3361-.3324c.06-.0875.3574-.345.5723-.3778.0007-.0004.1972.4985.8858.6043 0 0-.5715.2748-1.7741.1118" fill="#20407e"/><path d="M4.108 5.34s.2377-.1895.3361-.3324c.06-.0875.3574-.345.5723-.3778.0007-.0004.1972.4985.8858.6043 0 0-.5715.2748-1.7741.1118z" fill="none" stroke="#20407e" stroke-width=".0183" stroke-miterlimit="3.864"/><path d="M4.6107 5.3921c-.0046-.0007.1548-.0515.2409-.2046 0 0 .1309.1648.2882.205.0021.0004-.3298.0325-.5291-.0004M6.545 4.2657c-.1842.131-.399.1687-.399.1687s.2822-.011.3855-.0586c.2847-.1305.648-.181.648-.181-.0486-.049-.1657-.0748-.1657-.0748.0007.0046.0084.0215.008.0261a.0833.0833 0 01-.0888.078.0839.0839 0 01-.0804-.0871c.0007-.0085.0091-.025.0056-.025-.044-.0008-.1295.0232-.3133.1537" fill="#fff"/><path d="M7.3016 4.2671s-.4395.2343-.6275.452c-.0015.002-.0343.0102-.1175.0056-.0836-.0042-.2385.0095-.3595-.054-.121-.0628-.2268-.17-.2268-.17s.1915.0264.3817.0137c.1418-.0098.387-.1054.3958-.1093.2053-.101.5538-.138.5538-.138" fill="#e4292f"/><path d="M4.5433 2.342s.4212.4918.64.6453c.413.29.4208.6487.413.7962 0 0-.2967-.435-.4406-.5906-.1443-.1555-.4995-.5136-.6124-.8509" fill="#fff"/><path d="M4.8347 4.5793s.1848-.181.0218-.4265c-.0014-.0024.095.0307.1877.0388.0025.0004.0043-.044.0046-.05-.2039-.06-.4935-.1655-.545-.2936 0 0 .3362.1616.5556.1782l.0173-.055c-.218-.0544-.6724-.1898-.7638-.3973 0 0 .4748.2586.7927.2967.0025 0 .0233-.0554.0233-.0554-.2036-.0585-.6371-.2723-.8456-.6336 0 0 .5104.4223.8964.5349-.0007-.0004.0398-.055.0402-.0558-.2254-.1189-.7641-.3528-.8812-.7383-.0022-.0075.4977.4702.6106.4466 0 0-.5595-.459-.6113-.7278 0 0 .9401.933 1.0336.992.0455.0293.1087.1538.1087.1538s.207.5115.5707.6347c.0075.0024-.4751-.065-.6748-.0134-.217.0557-.5415.171-.5415.171" fill="#009450"/><path d="M7.2681 4.0706s.2187-.0677.5235.0036c.2883.0674.6668.266.5846.5059 0 0-.08.1439-.32-.066-.114-.0621-.376-.1887-.6498-.0617l-.0152.0176 1.0217.3891.1598-.5718-.8954-.369-.4462.1026" fill="#e4292f"/><path d="M3.4348 8.0062l1.613 4.2246 4.119-3.2654" fill="#009450"/><g clip-path="url(#c)" transform="matrix(.35278 0 0 -.35278 -142.5788 31.611)"><path d="M413.773 66.944l15.148-3.222-10.46-8.795 24.407 12.02" fill="url(#d)"/></g></svg>