<svg xmlns="http://www.w3.org/2000/svg" height="800" width="1200" viewBox="-45 -22.726425 390 136.35855"><g fill="#00385f"><path d="M147.1225 3.5614l-34.2409 57.4972c-3.57 5.9128-5.5266 11.8943-6.0672 17.6526H93.4098c.9096-7.2773 3.7931-14.1684 9.62-24.0974l23.9344-40.145c4.78-7.9467 9.5514-10.8388 18.1931-10.8388h1.9652v-.0687zm9.9951 30.9086c-17.3435 0-28.0277 10.1521-37.416 32.2757-2.3515 5.5266-3.716 12.4177 4.3165 12.349 4.5397-.0769 12.1946-2.583 17.5753-6.299-.4552 1.8194-.6866 4.3252-.532 5.8356h12.1945c.4545-4.7714 2.2741-10.6756 6.2818-17.8756l15.2325-25.3675c-5.7584-.6096-11.6625-.9182-17.6526-.9182m-12.6494 29.3923c-2.4972 2.3513-7.3459 5.827-11.4308 5.9041-2.8147-.1462-2.9606-2.7976-1.0727-6.4362 7.2086-13.8594 14.855-21.2053 24.166-21.1367h1.6735zM282.4161 34.47c-17.3435 0-28.0191 10.1521-37.416 32.2757-2.3515 5.5266-3.716 12.4177 4.3165 12.349 4.5483-.0769 12.1946-2.583 17.5753-6.299-.4545 1.8194-.6866 4.3252-.532 5.8356h12.203c.4463-4.7714 2.2656-10.6756 6.2818-17.8756L300 35.3882c-5.7583-.6096-11.671-.9182-17.5839-.9182m-12.6494 29.3922c-2.4972 2.3514-7.3459 5.827-11.4308 5.9042-2.8147-.1462-2.9606-2.7976-1.064-6.4362 7.2-13.8594 14.8462-21.2054 24.166-21.1367h1.6733z"/><path d="M242.7988 90.9057h-4.0162c-5.149 0-9.6973-3.4841-11.0532-8.41l-6.0587-22.8702-11.2934 19.0084h-12.9584l36.2147-61.359c4.6942-7.9552 9.5428-10.8386 18.1846-10.8386h1.3645L229.0853 47.122l18.0301-12.4263h14.4773l-30.3791 20.9908zM123.2587 0C111.064 0 104.6965 3.261 92.725 11.8942L52.1251 41.1406H26.1398c-7.509 0-13.559.3-18.2618 4.7628l-6.7366 6.2217s19.5404-.7638 37.725-1.4503L0 78.7198h16.82l39.7762-28.7144c7.7235-.3089 13.0184-.4544 13.1042-.4544 9.2425-.2403 14.3915-8.41 14.3915-8.41h-15.224l32.1127-23.1878-23.857 38.6347c-5.0804 8.865-7.5777 15.2325-8.41 22.0464h13.7907c.5238-5.7583 2.4972-11.7398 6.05-17.6525l32.5074-54.2363c2.2656-3.7158 4.2394-6.7452 4.2394-6.7452h-2.0424zm64.6921 46.892c-.1545 1.1414.309 1.8966 2.6517 3.407l3.7159 2.42c4.0162 2.6603 5.6725 6.6765 5.1576 9.929-1.373 9.088-8.041 16.4339-22.278 16.4339-6.2218 0-9.0194-.2142-16.4426-1.4332l5.5266-9.3197c5.1576.9097 8.0325 1.3731 11.8943 1.3731 5.3893 0 7.509-2.4286 7.8093-4.4024.1455-1.1328-.3865-2.4973-2.9521-4.248l-2.9607-2.111c-4.6942-3.407-5.9814-6.0587-5.3721-10.2294 1.21-8.0238 10.5211-14.2456 23.4022-14.2456 4.0935 0 8.4873.2314 13.336.7638l-5.2263 8.7962c-3.1924-.2403-8.3328-.541-11.9714-.3858-3.6387.0769-6.0587 1.3559-6.2904 3.2525"/></g></svg>