<svg xmlns="http://www.w3.org/2000/svg" height="800" width="1200" viewBox="-89.35605 -51.02 774.4191 306.12"><path d="M123.825 203.845c-5.69-.961-9.238-5.814-9.238-12.634 0-5.79 2.645-10.388 6.89-11.977 5.024-1.88 10.813-.745 13.859 2.715 2.183 2.48 2.748 4.384 2.748 9.262 0 3.564-.103 4.419-.72 5.967-2.05 5.152-7.276 7.725-13.539 6.667zm6.208-4.877c1.808-1.378 2.314-3.144 2.314-8.077 0-3.843-.061-4.269-.8-5.588-1.174-2.094-2.535-2.892-4.933-2.892-2.715 0-3.943.715-5.106 2.971-.742 1.44-.95 2.326-1.08 4.606-.273 4.802.688 7.667 3.126 9.323.952.646 1.419.739 3.228.64 1.698-.093 2.34-.287 3.251-.983zm-51.772 4.163c-.49-1.342-5.83-23.799-5.707-23.997.083-.134 1.284-.243 2.67-.243 2.12 0 2.548.089 2.695.56.097.308.905 4.087 1.796 8.398.89 4.31 1.743 7.96 1.894 8.112.328.328.22.676 2.26-7.31.9-3.52 1.846-7.156 2.105-8.08l.47-1.68h3.026c2.873 0 3.033.036 3.195.72.846 3.568 3.682 15.985 3.682 16.12 0 .095.171.116.38.046.215-.071 1.158-3.752 2.16-8.426l1.78-8.3 2.48-.094c1.959-.073 2.48.001 2.48.356 0 .852-5.831 23.419-6.155 23.818-.212.262-1.248.4-3.015.4-2.19 0-2.728-.097-2.89-.52-.11-.287-1.078-4.211-2.151-8.72-1.073-4.51-2.095-8.155-2.27-8.1-.176.054-1.277 3.824-2.447 8.377-1.17 4.553-2.222 8.432-2.339 8.62-.313.507-5.913.454-6.1-.057zm72.711.199c-.124-.124-.225-5.674-.225-12.332V178.89h6.342c6.976 0 8.846.318 10.614 1.806 1.439 1.21 2.027 2.565 2.008 4.624-.023 2.553-1.018 4.155-3.478 5.602-.55.324-.513.397.466.903 1.324.685 2.146 2.47 2.443 5.305a43.18 43.18 0 00.671 4.1c.25 1.11.454 2.083.454 2.16 0 .258-5.4.143-5.562-.118-.087-.142-.384-1.978-.659-4.08-.69-5.284-.81-5.422-4.694-5.422h-3.005l-.16 4.8-.16 4.8-2.415.092c-1.328.051-2.516-.009-2.64-.133zm12.064-14.81c1.643-1.544 1.267-4.306-.696-5.119-.525-.217-1.998-.339-3.455-.285l-2.538.095-.094 2.693c-.052 1.481-.015 2.9.082 3.152.14.363.772.435 3.028.347 2.489-.098 2.958-.21 3.673-.883zm22.467 14.51c-.255-.664-.257-22.969-.002-23.633.155-.402.712-.506 2.716-.506h2.521l.084 10.16.085 10.16 5.28.16 5.28.16v3.84l-7.884.085c-6.98.076-7.906.027-8.08-.426zm28.12.129c-.09-.237-.127-5.758-.08-12.27l.084-11.838 5.401-.088c6.134-.1 8.31.277 10.791 1.869 2.53 1.623 3.953 4.21 4.44 8.074.358 2.845-.05 6.375-.987 8.555-.86 1.997-3.539 4.513-5.634 5.29-2.048.759-13.749 1.1-14.014.408zm11.947-4.755c2.015-1.132 3.017-3.365 3.055-6.808.067-6.163-2.271-8.76-7.638-8.484l-1.92.099-.086 7.674c-.048 4.22-.01 7.874.085 8.12.29.756 4.837.336 6.504-.6zm24.731 4.087c-.619-1.922-5.474-22.286-5.474-22.96 0-.628.149-.66 2.64-.573l2.64.093 1.624 8.025c1.809 8.932 1.962 9.501 2.365 8.775.146-.264 1.149-3.936 2.228-8.16 1.079-4.224 2.04-7.932 2.134-8.24.148-.482.594-.56 3.178-.56h3.006l.31 1.2c.169.66 1.067 4.479 1.994 8.486 1 4.322 1.823 7.24 2.023 7.173.186-.062 1.132-3.844 2.102-8.406l1.765-8.293 2.475-.094c2.161-.081 2.476-.023 2.476.456 0 .537-5.15 21.031-5.8 23.078l-.33 1.04h-2.836c-1.56 0-2.905-.112-2.99-.248-.084-.136-1.035-3.977-2.114-8.536-1.08-4.559-2.047-8.426-2.15-8.594-.337-.544-.654.459-2.666 8.42-1.09 4.311-2.115 8.09-2.279 8.398-.25.469-.76.56-3.142.56h-2.844zm40.18.827c-.118-.118-.214-5.662-.214-12.32V178.89h2.525c2.008 0 2.566.104 2.72.506.107.278.195 5.595.195 11.814 0 6.22-.088 11.535-.195 11.814-.152.397-.693.506-2.506.506-1.272 0-2.409-.096-2.526-.213zm20.743-.159c-.091-.237-.128-5.758-.081-12.27l.084-11.838 6.24.014c5.77.012 6.382.07 8.13.761 3.574 1.415 5.679 4.398 6.325 8.966.924 6.535-1.564 11.921-6.385 13.822-1.621.639-2.534.736-7.989.849-4.955.102-6.191.042-6.324-.304zm10.755-4.157c1.77-.6 2.889-1.563 3.548-3.052 1.286-2.907 1.045-8.12-.48-10.382-1.202-1.783-2.554-2.346-5.658-2.352l-2.722-.005-.086 7.674c-.048 4.22-.016 7.856.07 8.08.2.522 3.824.547 5.328.037zm22.906 4.32c-.12-.12-.218-5.666-.218-12.324V178.89h8.125c8.968 0 8.515-.11 8.515 2.08 0 2.137.159 2.08-5.78 2.08h-5.391l-.19 1.04c-.104.572-.072 1.832.07 2.8l.259 1.76 5.05.088 5.052.088-.095 1.992-.095 1.992-5.052.088-5.051.088.091 3.112.092 3.112 5.6.16 5.6.16v3.84l-8.182.085c-4.5.047-8.28-.013-8.4-.133zM.427 162.68c-.63-.254-.536-3.827.106-4.074.935-.359 424.443-.222 425.115.137.483.259.619.677.619 1.909s-.136 1.65-.62 1.909c-.63.338-424.384.456-425.22.119zm227.28-19.957c-8.061-.914-12.967-2.936-14.389-5.932-.678-1.43-.735-4.183-.113-5.48l.43-.9h21.432l.098 1.366c.142 1.957.967 2.42 4.039 2.265 2.025-.102 2.589-.266 3.76-1.088.757-.533 1.519-1.373 1.693-1.868.277-.788.206-.996-.568-1.662-1.098-.944-3.087-1.523-8.222-2.392-9.718-1.644-13.228-3.137-14.746-6.272-.895-1.85-.696-3.859.673-6.784 3.2-6.836 9.34-10.567 19.796-12.025 5.157-.72 13.525-.952 19.065-.53 8.517.648 12.743 2.114 14.44 5.01.753 1.285.837 1.704.695 3.472-.09 1.107-.362 2.43-.607 2.94l-.445.929h-20.471l-.09-.8c-.214-1.911-.43-2.29-1.589-2.774-2.156-.9-5.483-.047-6.734 1.73-1.085 1.539-1.15 2.23-.294 3.086.948.949 2.601 1.298 9.347 1.974 6.503.652 9.103 1.19 11.588 2.403 4.07 1.985 4.81 5.276 2.316 10.303-3.487 7.03-9.838 10.83-21.034 12.584-3.716.581-16.383.862-20.07.445zM.492 142.067c-.117-.189.069-.657.412-1.04.343-.383 8.585-10.488 18.316-22.456 9.73-11.968 17.976-22.012 18.324-22.32.586-.518 1.863-.56 16.9-.56 8.945 0 16.34.12 16.43.267.272.44-4.314 45.619-4.674 46.053-.254.307-3.084.4-12.143.4-10.406 0-11.833-.06-12.002-.5-.105-.274.041-1.66.326-3.077.284-1.418.438-2.706.342-2.861-.096-.155-3.046-.282-6.556-.282h-6.382l-2.3 3.12c-1.266 1.716-2.454 3.226-2.64 3.355-.564.392-24.109.297-24.353-.099zm44.928-17.36c.485-.584 3.585-15.357 3.287-15.66-.284-.288-11.24 14.933-11.24 15.616 0 .65 7.416.69 7.953.044zm31.2 16.988c.101-.398 3.141-7.107 6.756-14.908 3.614-7.801 6.57-14.389 6.57-14.64 0-.382-1.202-.456-7.37-.456-5.989 0-7.401-.083-7.54-.444-.182-.476 3.867-8.838 4.47-9.231.526-.343 71.31-.292 71.853.05.363.23-.909 3.226-6.472 15.24-3.809 8.223-6.848 15.076-6.753 15.228.094.152 4.134.277 8.979.277h8.808l1.013-1.143c.557-.628 6.348-7.504 12.87-15.28l11.856-14.137 14.943-.083 14.944-.084v1.126c0 1.491-3.483 38.286-3.673 38.8-.114.31-2.613.4-11.018.4-5.98 0-10.941-.112-11.026-.25-.085-.137.055-1.246.31-2.465.256-1.219.393-2.402.306-2.63-.122-.318-1.503-.414-5.921-.414h-5.762l-2.114 2.88-2.113 2.88H141.94c-16.918 0-28.67-.12-28.776-.293-.1-.16 2.904-6.96 6.675-15.112 3.771-8.15 6.787-14.931 6.703-15.067-.084-.137-3.6-.248-7.811-.248-6.95 0-7.69.052-8.001.56-.189.308-3.404 7.184-7.146 15.28l-6.803 14.72-10.173.084-10.173.085zm112.356-14.626c.243-.393 2.727-12.158 2.73-12.925 0-.322-.132-.538-.293-.48-.465.169-9.626 12.81-9.626 13.283 0 .326.807.424 3.5.424 1.926 0 3.586-.136 3.689-.302zm95.53 15.002c0-.335 31.478-37.998 32.14-38.455.188-.13 6.785-.238 14.66-.24l14.32-.005v1.045c0 1.784-3.474 37.343-3.682 37.678-.122.199-4.15.317-10.778.317h-10.584l.18-1.2.405-2.72.227-1.52h-11.55l-2.014 2.72-2.015 2.72h-10.654c-7.307 0-10.654-.107-10.654-.34zm39.187-14.357c.222-.36 2.734-12.31 2.734-13.008 0-.271-.14-.407-.31-.302-.68.42-9.621 13.01-9.443 13.298.244.396 6.774.407 7.019.012zm21.806 14.428c-.162-.261 16.845-37.894 17.485-38.691.393-.49 18.65-.587 18.95-.102.175.285-16.31 36.838-17.292 38.342-.47.72-.48.72-9.724.72-5.09 0-9.328-.12-9.42-.269zm27.328-.064c0-.43 16.83-37.342 17.475-38.326l.488-.744 17.658.128c19.127.139 19.728.19 22.715 1.94 3.38 1.982 3.644 6.537.713 12.356-2.25 4.469-5.921 6.791-11.93 7.548-1.035.13-1.68.367-1.68.618 0 .224 1.729 3.968 3.841 8.32s3.76 8.044 3.661 8.203c-.101.164-4.763.29-10.709.29-9.71 0-10.551-.044-10.805-.56-.15-.308-1.27-3.764-2.485-7.68-1.216-3.916-2.367-7.12-2.557-7.12-.19 0-1.758 3.132-3.483 6.96s-3.339 7.284-3.587 7.68l-.45.72h-9.433c-6.321 0-9.432-.11-9.432-.333zm36.454-22.594c1.877-.936 3.546-3.103 3.546-4.606 0-1.545-1.005-2.054-4.29-2.176l-2.946-.109-1.667 3.63c-.918 1.995-1.666 3.736-1.663 3.868.003.132 1.201.24 2.663.24 2.232 0 2.929-.136 4.357-.847zm86.613 21.94c-1.199-1.423-1.672-2.435-2.481-5.303-1.049-3.716-.974-9.952.172-14.242.885-3.316 2.142-6.445 2.736-6.812.81-.5-.55-4.242-2.106-5.799-.412-.411-.748-.959-.748-1.216 0-.258-.539-.732-1.198-1.055-.916-.449-1.319-.92-1.717-2.012-.39-1.07-.75-1.5-1.443-1.726-1.461-.474-2.555-1.38-3.53-2.92-.92-1.454-1.191-1.635-4.995-3.332-1.277-.57-2.868-1.632-3.884-2.592-1.53-1.449-1.944-1.664-3.755-1.956-2.73-.44-6.06-2.25-8.096-4.402-4.426-4.677-4.537-4.77-5.986-4.995-2.22-.346-2.4-.443-3.271-1.76-.527-.796-2.01-2.029-4.092-3.402-17.71-11.677-31.28-30.573-38.93-54.21-2.54-7.841-4.255-16.07-4.336-20.8l-.047-2.72 1.403-.1c.772-.055 1.525.021 1.674.17.148.149.422 2.066.608 4.26.556 6.566 1.768 12.363 4.046 19.35 1.563 4.797 2.973 8.162 3.419 8.157.203-.002.692-.502 1.086-1.11 1.739-2.685 7.523-6.518 14.135-9.367 2.216-.954 4.164-1.865 4.33-2.024.186-.179.09-1.773-.253-4.211-.304-2.158-.72-6.346-.923-9.307-.318-4.626-.305-5.423.092-5.675.55-.348 4.787-.394 5.304-.057.212.138.51 2.212.724 5.035.625 8.27 1.069 11.729 1.53 11.905.232.09 2.475-.416 4.984-1.124 7.354-2.074 13.27-3.386 22-4.878 2.2-.375 4.073-.755 4.16-.842.089-.087.16-2.414.16-5.17V.171h7.04l.254 3.52c.139 1.936.329 4.007.422 4.602l.17 1.082 2.617-.207c11.36-.899 19.879-.857 29.14.143 2.202.238 3.266.24 3.499.007.184-.184.45-2.172.592-4.418.141-2.245.329-4.269.416-4.497.12-.311 1.013-.391 3.605-.323l3.446.091v10.52l2.4.425c7.701 1.362 16.438 3.217 21.65 4.597 6.305 1.669 6.691 1.74 6.965 1.298.231-.374 1.06-8.292 1.326-12.68.118-1.936.358-3.7.535-3.92.335-.416 4.226-.57 5.178-.206.404.156.504.715.5 2.8-.008 2.76-.676 9.988-1.288 13.92-.201 1.295-.245 2.46-.096 2.591.148.13 1.494.718 2.99 1.306 8.564 3.366 13.718 6.596 15.753 9.872.612.986.708 1.034 1.077.53.222-.305 1-2.232 1.728-4.283 2.85-8.031 4.823-15.926 5.644-22.595.261-2.12.591-3.973.734-4.117.143-.144.818-.216 1.501-.16l1.243.102-.044 3.04c-.098 6.835-2.79 18.018-6.738 28-7.134 18.035-18.094 33.054-31.692 43.429-1.907 1.455-3.248 2.755-3.783 3.669-.898 1.532-1.39 1.812-3.803 2.167-1.464.215-1.827.476-4.979 3.577-3.79 3.73-7.446 6.618-9.567 7.563-1.075.478-1.774.576-2.971.418l-1.566-.208-2.949 3.013c-2.137 2.185-3.3 3.124-4.228 3.413-1.553.485-2.4 1.179-2.4 1.965 0 1.13-1.269 3.912-2.242 4.916-.905.934-.952 1.086-.59 1.946.62 1.471.45 7.744-.324 12.009-.37 2.044-1.203 5.5-1.848 7.68-1.206 4.07-1.268 4.5-.899 6.284.149.718.056 1.284-.3 1.828-.935 1.426-.676 2.216 1.084 3.31 1.899 1.181 2.513 2.244 1.977 3.421l-.365.8h-4.767c-5.353 0-5.712-.135-5.36-2.017.11-.584.844-2.134 1.632-3.443 1.657-2.757 1.841-3.82.66-3.82-1.001 0-1.048-.092-1.482-2.913-.444-2.892-.725-3.528-1.175-2.658-.88 1.699-2.69 7.72-3.018 10.043-.232 1.642-.628 3.015-1.05 3.642-.66.982-.741 1.008-3.427 1.098-2.738.091-2.753.088-3.6-.918zm2.048-8.482c.005-1.016.305-2.078 1.74-6.162 1.194-3.4 1.147-6.246-.147-8.982-.634-1.34-1.08-1.944-1.285-1.739-.832.833-1.386 5.165-1.404 10.992-.02 5.993.226 8.248.798 7.343.161-.255.295-.908.298-1.452zm13.56-6.451c.11-.836.294-4.114.41-7.285.188-5.194.151-5.876-.372-6.88-.319-.613-.664-1.968-.766-3.01-.2-2.02-.987-2.953-.987-1.168 0 .544-.23 2.392-.51 4.106-.59 3.606-.454 6.064.504 9.037.368 1.144.757 3.124.864 4.4.107 1.276.299 2.32.426 2.32.128 0 .322-.684.432-1.52zm-7.18-15.57c.204-.247.285-.796.179-1.22-.155-.618-.026-.846.662-1.16.861-.392.93-.899.318-2.35-.182-.432.035-.612 1.076-.892.98-.264 1.353-.55 1.504-1.152.424-1.689-2.232-2.883-3.149-1.416-.509.816-.953.809-1.71-.026-.33-.367-1.084-.868-1.672-1.114-1.353-.565-1.052-1.1.62-1.1 1.748 0 1.587-.9-.26-1.444-1.707-.504-3.343-1.523-3.898-2.43-.24-.39-.512-1.55-.605-2.578-.093-1.027-.33-1.882-.525-1.9a102 102 0 00-1.795-.116 62.473 62.473 0 01-3.361-.325c-1.686-.212-2.172-.136-3.966.619-2.363.994-2.937.928-5.149-.593-1.156-.795-2.276-1.204-4.462-1.629-1.873-.364-3.802-1.01-5.384-1.805-3.526-1.772-4.695-1.628-2.492.306.765.672 1.58 1.034 2.64 1.173 1.948.255 2.687.56 5.054 2.084 1.056.68 2.856 1.635 4 2.123 1.144.487 2.77 1.305 3.616 1.818 1.453.881 2.384.97 1.562.148-.208-.209-.378-.638-.378-.955 0-.864 2.172-.772 3.552.15.913.61 1.251 1.208 2.102 3.713 1.559 4.587 2.575 5.371 7.57 5.841 1.774.167 3.287.364 3.36.438.074.074.054.345-.045.603-.115.3-.847.54-2.04.669-3.397.367-3.86 1.331-1.001 2.088 2.443.648 2.486 1.098.182 1.914-1.552.55-.982.968 1.32.968 1.5 0 2.32-.143 2.574-.45zm14.13-16.092c1.421-1.283 3.34-3.88 3.068-4.152-.093-.092-1.366.026-2.828.263l-2.66.43-.025 2.32c-.022 2.039.046 2.32.556 2.32.32 0 1.17-.53 1.89-1.18zm4.775-4.258c0-.176-.208-.32-.461-.32-.254 0-.55.144-.66.32-.108.176.1.32.462.32s.659-.144.659-.32zm-27.04-2.24c.528-.35 1.294-.637 1.703-.638.408-.001 1.344-.353 2.08-.783 2.658-1.552 6.265-1.36 8.557.453.84.664 1.372.858 2.018.734.5-.095 1.417.076 2.13.398 1.247.562 1.26.56 2.303-.233 2.772-2.11 5.21-2.679 6.99-1.628.817.483 1.106.496 2.609.117 4.233-1.067 12.396-4.109 14.2-5.29.433-.284.769-.816.768-1.217-.003-.858-.925-2.325-1.882-2.995-.66-.463-.804-.392-2.846 1.402-3.298 2.898-5.446 4.404-8.061 5.656-2.32 1.11-3.85 1.449-3.85.853 0-.16 1.189-1.267 2.64-2.46 3.04-2.496 7.92-7.152 7.92-7.557 0-.419-2.411-1.35-5.44-2.101-3.698-.917-10.215-1.83-10.536-1.475-.141.156-.656 1.364-1.143 2.684-1.812 4.91-4.562 9.755-6.115 10.772-1.57 1.029-1.546.144.132-5.054 1.798-5.566 2.515-8.491 2.169-8.84-.361-.363-9.954-.646-15.626-.462-4.727.154-5.04.203-5.04.788 0 1.001.877 4.228 2.444 8.989 1.015 3.086 1.356 4.534 1.123 4.767-1.068 1.069-4.365-3.617-6.633-9.429-.844-2.162-1.687-4.105-1.874-4.319-.658-.749-11.867 1.164-15.3 2.61-.66.279-1.2.707-1.2.952 0 .512 5.058 5.363 7.253 6.956 1.944 1.41 3.307 2.698 3.307 3.125 0 1.579-6.694-1.877-10.912-5.633-3.447-3.07-3.058-2.876-4.002-1.995-1.107 1.034-1.802 2.43-1.571 3.157.323 1.019 6.562 3.65 13.3 5.607 5.823 1.693 7.246 1.88 9.791 1.29 2.579-.598 4.506-.388 5.962.65 1.292.92 1.454.929 2.632.149zm48.928-9.17c6.325-3.638 11.48-7.534 16.592-12.543 2.688-2.633 3.44-3.559 3.44-4.232 0-1.353-2.361-4.571-4.575-6.235-2.215-1.665-5.35-3.345-6.216-3.331-.39.006-1.124 1.04-2.33 3.28-2.252 4.187-6.943 11.234-9.606 14.431a585.46 585.46 0 00-2.827 3.416l-.755.926.974 1.324c.535.728 1.154 2.028 1.375 2.889.25.977.577 1.565.869 1.565.257 0 1.634-.67 3.06-1.49zm-82.278-.452c.331-.604 1.03-1.64 1.553-2.3.566-.717.854-1.364.71-1.6-.132-.22-1.115-1.406-2.183-2.638-3.73-4.302-7.792-10.32-11.826-17.52-.468-.836-1.066-1.52-1.328-1.52-.75 0-3.313 1.396-5.44 2.964-3.108 2.29-5.594 5.727-4.977 6.88.39.728 5.565 5.473 8.897 8.157 4.311 3.473 12.95 9.01 13.688 8.774.168-.054.575-.592.906-1.197zm7.55-6.358c2.11-1.077 6.784-2.473 10.76-3.214 2.112-.393 4.036-.773 4.275-.844.538-.16.463-.619-1.012-6.202-.628-2.376-1.59-6.552-2.137-9.28a1615.05 1615.05 0 00-1.147-5.68c-.132-.628-.352-.72-1.716-.72-3.585 0-13.77 1.595-19.683 3.082-3.792.953-5.3 1.545-5.3 2.08 0 .588 3.334 7.03 5.178 10.003 3.367 5.432 8.064 11.379 8.994 11.389.315.003 1.12-.273 1.788-.614zm68.088-2.5c4.123-5.167 6.851-9.42 9.752-15.201 1.38-2.749 1.545-3.27 1.161-3.655-.552-.552-6.772-2.106-11.921-2.977-4.877-.825-13.53-1.784-13.786-1.528-.107.107-.67 2.545-1.249 5.418a236.023 236.023 0 01-2.403 10.424c-.743 2.86-1.275 5.396-1.183 5.635.1.26.92.52 2.042.647 3.132.355 8.415 1.666 11.459 2.845 1.584.614 3.108 1.133 3.387 1.154.28.02 1.505-1.212 2.741-2.762zm-33.168-2.47c3.432.106 6.528.256 6.88.334 1.131.251 1.518-.377 2.115-3.431.874-4.47 2.2-13.905 2.288-16.273l.077-2.08-3.2-.203c-4.148-.262-20.827-.262-23.52 0-2.025.198-2.083.228-2.173 1.163-.098 1.018 1.421 12.051 2.35 17.062.303 1.64.725 3.154.936 3.365.285.285 1.365.318 4.195.128 2.096-.141 6.62-.17 10.052-.065zm64.232-9.37c2.005-2.436 4.998-6.72 6.986-10 2.51-4.141 6.222-11.362 6.222-12.103 0-.977-2.05-3.383-4.39-5.151-3.336-2.523-13.664-7.359-14.319-6.705-.102.103-.685 2.168-1.295 4.59-1.38 5.483-3.491 11.835-5.59 16.823-.883 2.101-1.606 3.947-1.606 4.1 0 .155 1.476 1.015 3.281 1.912 4.072 2.023 6.815 4.187 8.079 6.372.528.913 1.054 1.665 1.17 1.671.116.006.773-.673 1.462-1.51zm-131.786-.417c1.378-2.032 4.323-4.38 7.842-6.252 1.514-.805 2.752-1.642 2.752-1.86 0-.218-.585-1.754-1.3-3.414-1.842-4.28-4.567-12.497-5.867-17.688-.61-2.437-1.194-4.517-1.299-4.621-.39-.39-6.963 2.368-10.619 4.456-3.015 1.721-6.465 4.861-7.5 6.825l-.775 1.474 1.6 3.101c3.862 7.487 12.358 19.619 13.717 19.588.2-.005.851-.729 1.449-1.61zm19.328-10.698c2.148-.614 5.346-1.411 7.106-1.772 3.901-.8 13.207-2.233 14.5-2.233 1.593 0 1.646-.37.846-5.92-.406-2.816-1.05-8.36-1.431-12.32-.897-9.32-.733-8.64-2.076-8.64-4.698 0-28.922 4.642-30.044 5.758-1.004.998 5.732 26.242 7.003 26.242.105 0 1.948-.502 4.096-1.115zM552.3 45.13c1.551-3.936 3.765-11.863 4.945-17.704.984-4.874 1-5.082.436-5.496-1.98-1.451-29.124-6.437-30.197-5.547-.23.19-.418.868-.42 1.506-.01 2.41-2.013 19.641-2.744 23.581-.24 1.301.21 1.609 2.748 1.874 5.148.538 15.721 2.601 20.48 3.997 3.39.994 3.51.938 4.752-2.211zm-43.32-3.261c4.396.2 8.096.26 8.223.133.256-.259.944-6.941 1.688-16.392.27-3.432.578-7.066.685-8.076.184-1.749.155-1.851-.616-2.144-1.64-.624-17.866-1.055-25.955-.69-4.214.191-7.784.469-7.933.618-.462.461 1.763 26.27 2.293 26.6.153.094 3.28.04 6.95-.121 4.503-.198 9.272-.174 14.665.072z" fill="#fbb920"/><path d="M123.825 203.845c-5.69-.961-9.238-5.814-9.238-12.634 0-5.79 2.645-10.388 6.89-11.977 5.024-1.88 10.813-.745 13.859 2.715 2.183 2.48 2.748 4.384 2.748 9.262 0 3.564-.103 4.419-.72 5.967-2.05 5.152-7.276 7.725-13.539 6.667zm6.208-4.877c1.808-1.378 2.314-3.144 2.314-8.077 0-3.843-.061-4.269-.8-5.588-1.174-2.094-2.535-2.892-4.933-2.892-2.715 0-3.943.715-5.106 2.971-.742 1.44-.95 2.326-1.08 4.606-.273 4.802.688 7.667 3.126 9.323.952.646 1.419.739 3.228.64 1.698-.093 2.34-.287 3.251-.983zm-51.772 4.163c-.49-1.342-5.83-23.799-5.707-23.997.083-.134 1.284-.243 2.67-.243 2.12 0 2.548.089 2.695.56.097.308.905 4.087 1.796 8.398.89 4.31 1.743 7.96 1.894 8.112.328.328.22.676 2.26-7.31.9-3.52 1.846-7.156 2.105-8.08l.47-1.68h3.026c2.873 0 3.033.036 3.195.72.846 3.568 3.682 15.985 3.682 16.12 0 .095.171.116.38.046.215-.071 1.158-3.752 2.16-8.426l1.78-8.3 2.48-.094c1.959-.073 2.48.001 2.48.356 0 .852-5.831 23.419-6.155 23.818-.212.262-1.248.4-3.015.4-2.19 0-2.728-.097-2.89-.52-.11-.287-1.078-4.211-2.151-8.72-1.073-4.51-2.095-8.155-2.27-8.1-.176.054-1.277 3.824-2.447 8.377-1.17 4.553-2.222 8.432-2.339 8.62-.313.507-5.913.454-6.1-.057zm72.711.199c-.124-.124-.225-5.674-.225-12.332V178.89h6.342c6.976 0 8.846.318 10.614 1.806 1.439 1.21 2.027 2.565 2.008 4.624-.023 2.553-1.018 4.155-3.478 5.602-.55.324-.513.397.466.903 1.324.685 2.146 2.47 2.443 5.305a43.18 43.18 0 00.671 4.1c.25 1.11.454 2.083.454 2.16 0 .258-5.4.143-5.562-.118-.087-.142-.384-1.978-.659-4.08-.69-5.284-.81-5.422-4.694-5.422h-3.005l-.16 4.8-.16 4.8-2.415.092c-1.328.051-2.516-.009-2.64-.133zm12.064-14.81c1.643-1.544 1.267-4.306-.696-5.119-.525-.217-1.998-.339-3.455-.285l-2.538.095-.094 2.693c-.052 1.481-.015 2.9.082 3.152.14.363.772.435 3.028.347 2.489-.098 2.958-.21 3.673-.883zm22.467 14.51c-.255-.664-.257-22.969-.002-23.633.155-.402.712-.506 2.716-.506h2.521l.084 10.16.085 10.16 5.28.16 5.28.16v3.84l-7.884.085c-6.98.076-7.906.027-8.08-.426zm28.12.129c-.09-.237-.127-5.758-.08-12.27l.084-11.838 5.401-.088c6.134-.1 8.31.277 10.791 1.869 2.53 1.623 3.953 4.21 4.44 8.074.358 2.845-.05 6.375-.987 8.555-.86 1.997-3.539 4.513-5.634 5.29-2.048.759-13.749 1.1-14.014.408zm11.947-4.755c2.015-1.132 3.017-3.365 3.055-6.808.067-6.163-2.271-8.76-7.638-8.484l-1.92.099-.086 7.674c-.048 4.22-.01 7.874.085 8.12.29.756 4.837.336 6.504-.6zm24.731 4.087c-.619-1.922-5.474-22.286-5.474-22.96 0-.628.149-.66 2.64-.573l2.64.093 1.624 8.025c1.809 8.932 1.962 9.501 2.365 8.775.146-.264 1.149-3.936 2.228-8.16 1.079-4.224 2.04-7.932 2.134-8.24.148-.482.594-.56 3.178-.56h3.006l.31 1.2c.169.66 1.067 4.479 1.994 8.486 1 4.322 1.823 7.24 2.023 7.173.186-.062 1.132-3.844 2.102-8.406l1.765-8.293 2.475-.094c2.161-.081 2.476-.023 2.476.456 0 .537-5.15 21.031-5.8 23.078l-.33 1.04h-2.836c-1.56 0-2.905-.112-2.99-.248-.084-.136-1.035-3.977-2.114-8.536-1.08-4.559-2.047-8.426-2.15-8.594-.337-.544-.654.459-2.666 8.42-1.09 4.311-2.115 8.09-2.279 8.398-.25.469-.76.56-3.142.56h-2.844zm40.18.827c-.118-.118-.214-5.662-.214-12.32V178.89h2.525c2.008 0 2.566.104 2.72.506.107.278.195 5.595.195 11.814 0 6.22-.088 11.535-.195 11.814-.152.397-.693.506-2.506.506-1.272 0-2.409-.096-2.526-.213zm20.743-.159c-.091-.237-.128-5.758-.081-12.27l.084-11.838 6.24.014c5.77.012 6.382.07 8.13.761 3.574 1.415 5.679 4.398 6.325 8.966.924 6.535-1.564 11.921-6.385 13.822-1.621.639-2.534.736-7.989.849-4.955.102-6.191.042-6.324-.304zm10.755-4.157c1.77-.6 2.889-1.563 3.548-3.052 1.286-2.907 1.045-8.12-.48-10.382-1.202-1.783-2.554-2.346-5.658-2.352l-2.722-.005-.086 7.674c-.048 4.22-.016 7.856.07 8.08.2.522 3.824.547 5.328.037zm22.906 4.32c-.12-.12-.218-5.666-.218-12.324V178.89h8.125c8.968 0 8.515-.11 8.515 2.08 0 2.137.159 2.08-5.78 2.08h-5.391l-.19 1.04c-.104.572-.072 1.832.07 2.8l.259 1.76 5.05.088 5.052.088-.095 1.992-.095 1.992-5.052.088-5.051.088.091 3.112.092 3.112 5.6.16 5.6.16v3.84l-8.182.085c-4.5.047-8.28-.013-8.4-.133zM.427 162.68c-.63-.254-.536-3.827.106-4.074.935-.359 424.443-.222 425.115.137.483.259.619.677.619 1.909s-.136 1.65-.62 1.909c-.63.338-424.384.456-425.22.119zm227.28-19.957c-8.061-.914-12.967-2.936-14.389-5.932-.678-1.43-.735-4.183-.113-5.48l.43-.9h21.432l.098 1.366c.142 1.957.967 2.42 4.039 2.265 2.025-.102 2.589-.266 3.76-1.088.757-.533 1.519-1.373 1.693-1.868.277-.788.206-.996-.568-1.662-1.098-.944-3.087-1.523-8.222-2.392-9.718-1.644-13.228-3.137-14.746-6.272-.895-1.85-.696-3.859.673-6.784 3.2-6.836 9.34-10.567 19.796-12.025 5.157-.72 13.525-.952 19.065-.53 8.517.648 12.743 2.114 14.44 5.01.753 1.285.837 1.704.695 3.472-.09 1.107-.362 2.43-.607 2.94l-.445.929h-20.471l-.09-.8c-.214-1.911-.43-2.29-1.589-2.774-2.156-.9-5.483-.047-6.734 1.73-1.085 1.539-1.15 2.23-.294 3.086.948.949 2.601 1.298 9.347 1.974 6.503.652 9.103 1.19 11.588 2.403 4.07 1.985 4.81 5.276 2.316 10.303-3.487 7.03-9.838 10.83-21.034 12.584-3.716.581-16.383.862-20.07.445zM.492 142.067c-.117-.189.069-.657.412-1.04.343-.383 8.585-10.488 18.316-22.456 9.73-11.968 17.976-22.012 18.324-22.32.586-.518 1.863-.56 16.9-.56 8.945 0 16.34.12 16.43.267.272.44-4.314 45.619-4.674 46.053-.254.307-3.084.4-12.143.4-10.406 0-11.833-.06-12.002-.5-.105-.274.041-1.66.326-3.077.284-1.418.438-2.706.342-2.861-.096-.155-3.046-.282-6.556-.282h-6.382l-2.3 3.12c-1.266 1.716-2.454 3.226-2.64 3.355-.564.392-24.109.297-24.353-.099zm44.928-17.36c.485-.584 3.585-15.357 3.287-15.66-.284-.288-11.24 14.933-11.24 15.616 0 .65 7.416.69 7.953.044zm31.2 16.988c.101-.398 3.141-7.107 6.756-14.908 3.614-7.801 6.57-14.389 6.57-14.64 0-.382-1.202-.456-7.37-.456-5.989 0-7.401-.083-7.54-.444-.182-.476 3.867-8.838 4.47-9.231.526-.343 71.31-.292 71.853.05.363.23-.909 3.226-6.472 15.24-3.809 8.223-6.848 15.076-6.753 15.228.094.152 4.134.277 8.979.277h8.808l1.013-1.143c.557-.628 6.348-7.504 12.87-15.28l11.856-14.137 14.943-.083 14.944-.084v1.126c0 1.491-3.483 38.286-3.673 38.8-.114.31-2.613.4-11.018.4-5.98 0-10.941-.112-11.026-.25-.085-.137.055-1.246.31-2.465.256-1.219.393-2.402.306-2.63-.122-.318-1.503-.414-5.921-.414h-5.762l-2.114 2.88-2.113 2.88H141.94c-16.918 0-28.67-.12-28.776-.293-.1-.16 2.904-6.96 6.675-15.112 3.771-8.15 6.787-14.931 6.703-15.067-.084-.137-3.6-.248-7.811-.248-6.95 0-7.69.052-8.001.56-.189.308-3.404 7.184-7.146 15.28l-6.803 14.72-10.173.084-10.173.085zm112.356-14.626c.243-.393 2.727-12.158 2.73-12.925 0-.322-.132-.538-.293-.48-.465.169-9.626 12.81-9.626 13.283 0 .326.807.424 3.5.424 1.926 0 3.586-.136 3.689-.302zm95.53 15.002c0-.335 31.478-37.998 32.14-38.455.188-.13 6.785-.238 14.66-.24l14.32-.005v1.045c0 1.784-3.474 37.343-3.682 37.678-.122.199-4.15.317-10.778.317h-10.584l.18-1.2.405-2.72.227-1.52h-11.55l-2.014 2.72-2.015 2.72h-10.654c-7.307 0-10.654-.107-10.654-.34zm39.187-14.357c.222-.36 2.734-12.31 2.734-13.008 0-.271-.14-.407-.31-.302-.68.42-9.621 13.01-9.443 13.298.244.396 6.774.407 7.019.012zm21.806 14.428c-.162-.261 16.845-37.894 17.485-38.691.393-.49 18.65-.587 18.95-.102.175.285-16.31 36.838-17.292 38.342-.47.72-.48.72-9.724.72-5.09 0-9.328-.12-9.42-.269zm27.328-.064c0-.43 16.83-37.342 17.475-38.326l.488-.744 17.658.128c19.127.139 19.728.19 22.715 1.94 3.38 1.982 3.644 6.537.713 12.356-2.25 4.469-5.921 6.791-11.93 7.548-1.035.13-1.68.367-1.68.618 0 .224 1.729 3.968 3.841 8.32s3.76 8.044 3.661 8.203c-.101.164-4.763.29-10.709.29-9.71 0-10.551-.044-10.805-.56-.15-.308-1.27-3.764-2.485-7.68-1.216-3.916-2.367-7.12-2.557-7.12-.19 0-1.758 3.132-3.483 6.96s-3.339 7.284-3.587 7.68l-.45.72h-9.433c-6.321 0-9.432-.11-9.432-.333zm36.454-22.594c1.877-.936 3.546-3.103 3.546-4.606 0-1.545-1.005-2.054-4.29-2.176l-2.946-.109-1.667 3.63c-.918 1.995-1.666 3.736-1.663 3.868.003.132 1.201.24 2.663.24 2.232 0 2.929-.136 4.357-.847z" fill="#022663"/></svg>