<svg xmlns="http://www.w3.org/2000/svg" height="800" width="1200" viewBox="-4.841985 -5.76025 41.96387 34.5615"><path d="M20.9566 8.9903c-.6551 1.9838-2.5257 3.4203-4.7263 3.4203-2.7442 0-4.9768-2.2326-4.9768-4.9769 0-2.7442 2.2326-4.977 4.9768-4.977.8356 0 1.6232.208 2.3151.5733l.1784-.1566a5.1661 5.1661 0 00-2.4935-.6385c-2.8665 0-5.1985 2.332-5.1985 5.1988 0 2.8665 2.3318 5.1983 5.1985 5.1983 2.3286 0 4.3045-1.5388 4.9641-3.6534z" fill="#036"/><path d="M12.8995 9.0358c3.0014-.2765 5.975-.7363 8.9064-1.4748-.0455.2027-.0907.4048-.1363.6075-3.7496.8549-6.3656.9334-8.7701.8673" fill="#00b2e2"/><path d="M13.377 8.7376c2.811-.4416 5.6891-1.1411 8.645-2.141-.0465.2074-.0928.4146-.1391.622-3.2787 1.0308-6.0746 1.491-8.5058 1.519" fill="#00b2e2"/><path d="M13.8348 8.4209c2.757-.6874 5.5642-1.6497 8.4058-2.8014-.0463.2085-.0931.417-.1397.6257-3.0104 1.182-5.7949 1.96-8.2661 2.1757" fill="#57c8e7"/><path d="M14.2915 8.046c2.7797-.8446 5.5139-2.1154 8.22-3.6378-.057.2559-.1143.5117-.1714.7676-3.2412 1.6094-5.9873 2.64-8.0486 2.8702" fill="#98dae9"/><path d="M14.883 7.6496c3.1219-1.5097 5.66-3.0739 7.9466-4.662l-.1892.8454C20.0477 5.4883 17.46 6.8593 14.883 7.6496" fill="#57c8e7"/><path d="M15.3379 7.1591c3.0697-1.9405 5.7325-3.9145 7.8854-5.9306-.0767.3442-.154.689-.231 1.0329-2.5469 2.1976-5.1533 3.711-7.6544 4.8977M23.399 0c-.2898.008-.579.0151-.8687.0225-1.0737 1.3126-2.1563 2.4482-3.2448 3.4854-1.1795 1.1236-2.3649 2.1314-3.5513 3.1228C18.333 4.8771 20.9116 2.9131 23.399 0M0 21.9416h7.075v.1865H0zm25.152 0h7.128v.1865h-7.128z" fill="#00b2e2"/><path d="M1.7912 16.6685L.956 18.334h1.6656zm-.994 1.9987l-.4281.8355c-.0953.1958-.4442.0582-.349-.1532l1.5968-3.1464c.0318-.0691.1055-.1008.1743-.1008.0688 0 .1323.0317.1694.1008l1.5917 3.1305c.1376.227-.2537.3593-.354.1532l-.4128-.82H.7972zm3.7232.5513h2.2582c.2485 0 .2538.3623 0 .3784H4.1661c-.206 0-.2696-.1696-.1532-.3178l2.3694-2.8143H4.2405c-.2326 0-.2382-.3458 0-.3623h2.517c.217 0 .2751.1702.1534.3292zm3.3742.0157h2.089c.2219 0 .2537.3624 0 .3624H7.7567c-.148 0-.2432-.1095-.2432-.2413v-3.0165c0-.1265.0953-.2365.2432-.2365h2.232c.2273 0 .2167.3516-.005.3516H7.8949v1.2367h1.9886c.2114 0 .222.3513 0 .3513H7.895zm3.3846-1.2293h1.0686c.6927 0 .994-.3307.9835-.7369-.005-.445-.3702-.8022-.9835-.8022h-1.0686zm0 .3413v1.0512c0 .2495-.3858.2495-.3858.006v-3.111c0-.1137.0791-.1897.1955-.1897h1.2534c.9149 0 1.3803.5313 1.3803 1.1655 0 .547-.291.9427-.9414 1.0562l.857.9486c.2008.206-.09.4445-.2646.26l-1.0681-1.1866h-1.0263zm3.4803.8938h1.1848c.4652 0 .9782-.1268.9782-.6813 0-.4342-.3596-.6207-.8197-.6207h-1.3433zm0-2.7803v1.1205h1.0787c.4548 0 .8514-.1259.8514-.5273 0-.4725-.5394-.5932-.867-.5932zm1.1848 3.137H14.569c-.1053 0-.1955-.0877-.1955-.1977V16.3c0-.1096.09-.1977.1955-.1977h1.2536c.4916 0 1.2533.1706 1.2533.9506 0 .2858-.1323.5387-.4074.6538.386.1268.6506.407.6506.852 0 .8183-.7086 1.038-1.3748 1.038zm3.4375-2.9282l-.8353 1.6655h1.6658zm-.9943 1.9987l-.4281.8355c-.0953.1958-.4443.0582-.349-.1532l1.597-3.1464c.0317-.0691.1056-.1008.1744-.1008s.132.0317.1693.1008l1.592 3.1305c.1376.227-.2537.3593-.3543.1532l-.4127-.82h-1.9886zm3.2633-2.3715c0-.2612.3964-.2559.3964 0v3.1208c0 .24-.3964.2502-.3964 0zm3.0089.1624h-1.0155c-.264 0-.264-.3558 0-.3558h1.1901c.095 0 .18.0812.1905.1783v2.065c.005.7277-.6665 1.256-1.3644 1.256-.6718 0-1.2163-.4852-1.2534-1.1321-.0159-.2482.3702-.2966.3913-.006.0317.4908.4176.7768.862.7768.513 0 .9994-.3831.9994-.895zm2.4699.2104l-.8353 1.6655h1.6655zm-.9943 1.9987l-.4281.8355c-.095.1958-.4443.0582-.3487-.1532l1.5967-3.1464c.0317-.0691.1056-.1008.1744-.1008s.1323.0317.1693.1008l1.592 3.1305c.1376.227-.254.3593-.3543.1532l-.4125-.82h-1.9888zm5.6856-2.3782c0-.2243.4022-.2349.4022 0v3.0632c0 .2672-.3652.2934-.476.1063l-1.9778-2.6733.0421.7366v1.8835c0 .2617-.4021.2673-.4021 0v-3.0575c0-.267.296-.3098.4283-.112l2.036 2.7483-.053-.8059v-1.8891zM9.4692 20.9836l-.5781 1.165h1.1525zm-.6882 1.398l-.2963.5842c-.066.137-.3072.041-.2413-.1071l1.1049-2.2003c.022-.0484.073-.0709.1209-.0709a.1284.1284 0 01.1172.0709l1.1014 2.1894c.0952.1593-.1756.2514-.2452.1072l-.2855-.5734zm2.2574-1.6581c0-.1831.2744-.1797.2744 0v2.1884c0 .1685-.2744.1756-.2744 0zm1.0978 1.1945h.739c.4796 0 .6881-.2309.6807-.515-.004-.3115-.2561-.5612-.6808-.5612h-.739zm0 .2387v.7353c0 .1744-.2673.1744-.2673.004v-2.1757c0-.0796.055-.1328.1355-.1328h.867c.6332 0 .9555.3715.9555.8155 0 .3826-.2017.6593-.6517.739l.593.6633c.1388.1442-.062.3106-.1832.182l-.7392-.8303zm2.2756.875c-.099 0-.1389-.0489-.1389-.1402V20.719c0-.1783.2707-.1783.2707 0v2.063h1.3687c.1868 0 .1868.2497 0 .2497zm1.9429-2.3082c0-.1831.2744-.1797.2744 0v2.1884c0 .1685-.2744.1756-.2744 0zm2.4807-.0154c0-.1574.278-.1653.278 0V22.86c0 .1873-.252.2059-.3293.0749l-1.3684-1.8788.0288.5175v1.3235c0 .1839-.2781.1876-.2781 0v-2.1482c0-.1873.205-.2175.2966-.0788l1.4089 1.9312-.0368-.5665v-1.3266zm1.1414 2.0699h1.4454c.1538 0 .1757.2537 0 .2537h-1.5406c-.1024 0-.168-.0767-.168-.169v-2.113c0-.0884.0656-.1656.168-.1656h1.5444c.1574 0 .15.2463-.004.2463h-1.4455v.866h1.3759c.1463 0 .1537.2463 0 .2463h-1.3759zm2.1477-.3823c.095.305.5013.3714.794.3714.3111 0 .794-.0955.794-.4672 0-.3199-.3842-.3464-.7869-.3792-.5048-.0405-1.0464-.0878-1.0464-.6363 0-.4855.5564-.7022 1.0025-.7022.3842 0 .8639.0918 1.0176.5112.0548.147-.194.2135-.2487.0884-.1101-.2797-.5017-.3273-.7652-.3273-.245 0-.7207.0992-.7207.4339 0 .3202.3659.3532.7903.3866.5014.0437 1.0393.07 1.0393.6217 0 .5628-.6258.7353-1.0758.7353-.3731 0-.944-.1283-1.0647-.5699-.0442-.1622.2413-.2172.2707-.0664" fill="#036"/></svg>