<svg xmlns="http://www.w3.org/2000/svg" height="800" width="1200" viewBox="-38.499975 -11.58325 333.66645 69.4995"><path d="M175.2368 12.794c-1.038 0-1.7656.8642-1.7656 1.8554 0 .96.7275 1.8555 1.7656 1.8555 1.041 0 1.7666-.8955 1.7666-1.8555 0-.9912-.7256-1.8555-1.7666-1.8555zm-131.2676.7153c-4.9746 0-11.7588 2.626-11.7588 11.4682 0 8.4121 5.6763 11.378 11.6915 11.378 3.0546 0 5.623-.8428 6.5053-1.2735.753-1.9873 1.0865-3.544 1.2744-5.6338l-.8496-.1787c-.9756 2.6446-1.7641 5.9912-6.997 5.9912-5.733 0-8.316-5.249-8.316-10.9091 0-6.1914 3.2593-9.7696 8.4278-9.7696 5.3857 0 5.788 4.042 6.103 5.3653l.8491-.1787c0-1.6563-.208-3.5967-.4917-4.918-.8193-.5332-3.2236-1.3413-6.438-1.3413zm117.4522 0l-.916.313c-.251.6303-.5147 1.3061-.7598 1.9673l-6.5508 16.7436c-.7588 1.9248-.9209 2.2822-2.123 2.4814l-.581.1114v.7158h6.6161v-.7158l-1.8994-.2676c-.3486-.0342-.7607-.129-.7607-.7607 0-.2588.2695-1.1729.6484-2.2354l1.587-4.582c1.1005-.1983 2.207-.336 3.3085-.336 1.1719 0 2.3447.1036 3.5098.336l2.1914 6.2588c.0615.2343.2012.4668.2012.6933 0 .3643-.416.5303-.9844.626l-1.4082.2676v.7158h7.8027v-.7158l-1.252-.2012c-.8163-.163-1.1347-.9297-1.6103-2.2568zm-1.3184 4.4931l2.8838 8.0035c-1.0088-.13-2.0098-.1563-3.0176-.1563-.9433 0-1.917.0918-2.8623.1563zm-99.8374 2.2803c-3.3388 0-5.357 2.23-6.3042 3.5542.2227.6006.4575.919.8052 1.3194h.268c.6002-1.2276 1.3673-3.3086 3.8897-3.3086 2.3609 0 2.9287 1.8808 2.9287 4.0683v.7608c-2.772.8584-8.204 2.1572-8.204 6.46 0 1.826 1.5566 3.2187 3.8896 3.2187 2.455 0 3.6391-.7188 4.6499-1.4082.3144.6894.8725 1.4082 2.4814 1.4082 1.3198 0 1.984-.5313 2.3916-.8272l-.1562-.4687c-.1226.0654-.2442.1338-.5591.1338-1.732 0-1.7437-2.4903-1.7437-4.8067v-4.7392c0-3.38-.7475-5.3648-4.3369-5.3648zm27.8765 0c-1.105 0-3.9824.8623-4.8955 1.1626l.1343.8047.6928-.2012c.0625 0 .2925-.0449.4473-.0449.8852 0 .8716.9326.8716 4.1807v6.416c0 2.0547-.2818 2.2822-1.3858 2.414l-.7602.1114v.7158h7.042v-.7158l-.7378-.1114c-1.1636-.1318-1.4087-.3593-1.4087-2.414V23.792c.4726-.56 1.5058-1.9443 3.3984-1.9443 3.2432 0 3.2412 3.3173 3.2412 4.6044v6.1485c0 2.0547-.2851 2.2822-1.3857 2.414l-.7603.1114v.7158h7.0196v-.7158l-.7154-.1114c-1.1635-.1318-1.4086-.3593-1.4086-2.414v-4.6729c0-2.8213-.0284-3.4326-.1563-4.4931.8853-.9541 1.892-1.587 3.3086-1.587 3.4951 0 3.4873 3.1378 3.4873 6.1475v4.6055c0 2.0547-.2827 2.2822-1.3857 2.414l-.7603.1114v.7158h7.0195v-.7158l-.7153-.1114c-1.166-.1318-1.4087-.3593-1.4087-2.414v-5.3877c0-3.2774-.0205-6.9302-5.1865-6.9302-2.2979 0-4.0288 1.4854-4.7837 2.146-.3452-.956-1.4702-2.146-4.1133-2.146-2.4888 0-3.9722 1.5308-4.6948 2.2578zm28.816 0c-3.3375 0-5.3395 2.23-6.2818 3.5542.2153.6006.4604.919.8047 1.3194h.268c.5977-1.2276 1.3677-3.3086 3.8897-3.3086 2.3628 0 2.9287 1.8808 2.9287 4.0683v.7608c-2.773.8584-8.2266 2.1572-8.2266 6.46 0 1.826 1.5767 3.2187 3.9121 3.2187 2.4556 0 3.6167-.7188 4.6275-1.4082.315.6894.896 1.4082 2.5039 1.4082 1.3232 0 1.9814-.5313 2.3916-.8272l-.1563-.4687c-.1279.0654-.2656.1338-.581.1338-1.733 0-1.7212-2.4903-1.7212-4.8067v-4.7392c0-3.38-.7676-5.3648-4.3594-5.3648zm13.1674 0c-1.1055 0-3.96.8623-4.874 1.1626l.1342.8047.693-.2012c.0624 0 .2665-.0449.4247-.0449.8828 0 .894.9326.894 4.1807v6.416c0 2.1201-.2851 2.2822-1.3857 2.414l-.7602.1114v.7158h7.0195v-.7158l-.7149-.1113c-1.166-.1319-1.4306-.294-1.4306-2.4141v-8.9649c.5664-.7587 1.5928-1.788 3.2637-1.788 3.75 0 3.7324 3.2119 3.7324 6.3261v4.4268c0 2.1201-.2822 2.2822-1.3858 2.414l-.7597.1114v.7158h7.042v-.7158l-.7383-.1113c-1.167-.1319-1.4082-.294-1.4082-2.4141v-4.918c0-3.8125-.005-7.3999-4.918-7.3999-2.3994 0-4.1035 1.4033-4.8281 2.1016v-2.1016zm46.833 0c-1.1045 0-3.9785.8609-4.8955 1.1626l.1338.8047.6933-.2012c.0654 0 .2647-.0449.4248-.0449.8809 0 .8946.9316.8946 4.1807v6.416c0 2.2187-.2823 2.2822-1.3868 2.414l-.7597.1114v.7158h7.0195v-.7158l-.7158-.1113c-1.1621-.1319-1.4082-.1954-1.4082-2.4141zm7.7129 0c-.8809 0-2.9893.6338-4.5606 1.2295l.2461.7822.29-.0893c.2491-.065.4864-.2012.7374-.2012.8808 0 .8945.7236.8945 4.1357v6.461c0 2.2861-.2822 2.2822-1.3857 2.414l-.7598.1114v.7158h7.5332v-.7158l-.7373-.1114c-1.6719-.1318-1.9004-.1279-1.9004-2.414v-8.875c0-.4932.4893-1.2969 1.497-1.2969.4415 0 2.1534.5762 2.5938.7378.7276-.5937 1.1455-1.0854 1.587-1.878-.4063-.2656-1.4141-1.0058-2.3917-1.0058-1.6045 0-2.9521 1.6167-3.4199 2.146 0-.894-.0947-1.579-.2236-2.146zm36.9072 0c-3.3389 0-5.3555 2.23-6.3037 3.5542.2236.6006.4814.919.8271 1.3194h.2461c.5938-1.2276 1.3907-3.3086 3.9121-3.3086 2.3643 0 2.9288 1.8808 2.9288 4.0683v.7608c-2.7735.8584-8.2266 2.1572-8.2266 6.46 0 1.826 1.58 3.2187 3.9121 3.2187 2.456 0 3.6201-.7188 4.627-1.4082.3134.6894.8789 1.4082 2.4814 1.4082 1.3232 0 2.0049-.5313 2.414-.8272l-.1562-.4687c-.127.0654-.2676.1338-.581.1338-1.7344 0-1.7217-2.4903-1.7217-4.8067v-4.7392c0-3.38-.7676-5.3648-4.3594-5.3648zm27.6309 0c-2.7393 0-5.0293 1.4878-5.0293 4.2027 0 5.4023 6.997 3.8115 6.997 8.3164 0 1.163-.8378 2.459-2.2587 2.459-2.5206 0-3.5899-2.1592-4.2247-4.3145h-.8496c0 1.2959.127 2.957.6035 4.4482.8458.3994 1.9522.961 4.002.961 2.9912 0 5.455-1.503 5.455-4.6494 0-5.297-6.998-4.2051-6.998-7.9805 0-1.455.8174-2.3477 2.0118-2.3477 2.0517 0 3.0634 2.377 3.0634 3.8672h.9834c0-1.7549-.1093-2.808-.4248-4.001-.6924-.4277-1.6601-.9614-3.331-.9614zm-183.1758.4917v.7378l.8271.268c1.232.4 1.2246.922 1.6314 2.0118l3.7783 8.9648c.4077 1.0313.939 2.3047.939 3.666 0 3.1075-3.1065 3.7881-4.8736 5.4102-.2197.295-.4067 1.0264-.4692 1.7207.2231.0332.4058.0674.6255.0674 3.1504 0 4.5918-3.376 5.79-6.3936l3.4429-8.4277c.8843-2.25 2.3384-5.8325 3.0625-6.5947.2217-.2305.565-.3672.8496-.4693l.6484-.2236v-.7378h-6.3935v.7378l1.6763.2905c.3764.0664.939.1333.939.5367 0 .9248-3.1778 9.3452-3.5543 10.3061l-3.5991-9.211c-.1602-.394-.313-.8705-.313-1.0058 0-.3623.5318-.497 1.0059-.626l1.2295-.2905v-.7378zm124.9639 0v.7378l.9384.2236c.9131.2344 1.0225 1.0088 1.3643 2.0347l4.247 12.585c.4434-.0684.9141-.4375 1.2296-.7373l4.002-10.4395 4.3144 11.1768c.2841-.0977.8232-.3711 1.1396-.7373l4.0684-11.4903c.537-1.5532.7822-2.1255 1.6318-2.392l.7158-.2237v-.7378h-6.125v.7378l1.0508.2012c1.0713.1987 1.4082.2666 1.4082.8271 0 .4678-.2402 1.2456-.336 1.5425l-2.3915 8.249h-.0664l-4.3145-11.3789c-.2549 0-.6777.1592-.8945.291l-4.1807 11.088h-.0449l-2.6826-8.6739c-.0908-.3008-.2226-.6865-.2226-1.0508 0-.5962.2441-.706 1.0947-.8716l1.1406-.2236v-.7378h-7.0869zm36.371 0v.7378l.8047.268c1.2295.4 1.2442.922 1.6543 2.0118l3.7784 8.9648c.4091 1.0313.9384 2.3047.9384 3.666 0 3.1075-3.1279 3.7881-4.8955 5.4102-.2138.295-.4052 1.0264-.4697 1.7207.2217.0332.4277.0674.6484.0674 3.1485 0 4.5948-3.376 5.79-6.3936l3.421-8.4277c.8818-2.25 2.3398-5.8325 3.0625-6.5947.2197-.2305.5703-.3672.8486-.4693l.671-.2236v-.7378h-6.3936v.7378l1.6543.2905c.376.0655.9619.1333.9619.5367 0 .9248-3.1758 9.3452-3.5547 10.3061l-3.5996-9.211c-.1514-.394-.3125-.8705-.3125-1.0058 0-.3623.5351-.498 1.0058-.626l1.2295-.2905v-.7378h-7.2431zM61.4283 28.2412h.4248v5.5889c-.2182.3281-1.0024 1.3633-2.392 1.3633-1.7964 0-2.9283-1.13-2.9283-3.0176 0-3.1123 3.1001-3.9346 4.8955-3.9346zm56.7144 0h.4253v5.5889c-.2212.3281-1.0073 1.3633-2.3921 1.3633-1.7984 0-2.9287-1.13-2.9287-3.0176 0-3.1123 3.0962-3.9346 4.8955-3.9346zm104.6216 0h.4248v5.5889c-.2207.3281-1.0117 1.3633-2.3926 1.3633-1.795 0-2.9287-1.13-2.9287-3.0176 0-3.1123 3.0947-3.9346 4.8965-3.9346zM10.2783 15.1133L5.0737 21.731s-1.162 1.4023 1.4615 3.0864l2.0644-2.6607.4385.3184-1.981 2.7593 1.9551 1.4101-1.4917 1.8946s-.795 1.0605.1358 2.1836l.0136.0537-2.857 3.9101s-.2318.3047-.2602.4326c-.0268.129-.0537.2442 0 .2891.0552.038.1797.0957.4263-.1426.2422-.248 3.4873-3.4394 3.4873-3.4394s.1191-.2451.5161-.044c.396.2012.768.4346 1.6148-.2539.8452-.6914 2.5288-3.1387 2.5288-3.1387l.1352.0186.2354 3.2783 4.4697.0137 5.9624 4.4902.832-.042-9.6987-7.626.3379-.3505 2.1831 1.6875-1.8735-14.7198-5.4312-.0263" fill="#18468B"/><path d="M11.2144 7.5625c-1.958-.0234-3.1075.1567-3.1075.1567-1.352.1773-1.833.5591-1.833.5591-1.5102.9395-1.3413 3.2412-1.3413 3.2412l1.4976-.0444.0224.2456c.103.9727 1.0508.9614 1.0508.9614 1.7564-.1587 2.2134.0894 2.2134.0894.622.1216.6255.6704.6255.6704l5.3208-.0444s-.2783-4.041-.872-4.918c-.4903-.712-1.3639-.8272-1.3639-.8272-.8188-.0659-1.56-.082-2.2128-.0898zm5.2758 7.914l.313 2.3472 2.5708.067.4473-1.3639s-1.4785-1.036-3.331-1.0502zm3.9121 1.4083l-.4472 1.3413 1.4756 1.7212 1.6762-.045s-.751-2.0527-2.7046-3.0175zm-3.5322 1.5874l.5366 3.6884 2.5708.1338.9834-2.0341-1.5869-1.7662-2.5039-.022zm6.3491 1.9892l-1.6767.067-.8946 1.9447 1.3194 1.4976h1.855c.2641-2.0908-.603-3.5093-.603-3.5093zm-5.7231 2.3252l.5142 3.5542 2.392-.0449 1.207-2.0117-1.2963-1.4082zm-6.483 1.229l-2.079 2.5713c1.5561 1.1514 2.459-.2012 2.459-.2012.9785-1.1796-.38-2.37-.38-2.37zm10.9542.581l-1.1402 1.8116 1.4527 1.3408c1.0195-1.123 1.3862-3.1523 1.3862-3.1523h-1.6987zm-1.543 2.3028l-2.3467.0674.4912 3.4648c1.713-.4404 3.2867-2.1005 3.2867-2.1005l-1.4312-1.4317z" fill="#419629"/><path d="M11.125 2.8232c-4.2163.0835-7.2207 2.9956-7.2207 2.9956L6.52 8.3452c1.1802-.7915 6.17-.4248 6.17-.4248 1.8193-.0679 1.9892.939 1.9892.939.4062.896.8052 4.5156.8052 4.5156l-5.3433.0225c-.3608.9174.1343 1.7212.1343 1.7212l7.5561.0449h.1114c.247-.0288.748-.4395.9839-.5367.501-.206.998-.5195 1.3188-.9838.0728-.1109.128-.2188.2236-.313.311-.313.7603-.4702 1.1851-.4917.621-.0366 1.2148.2475 1.833.2905.5098.0361 1.041-.0283 1.4976-.2905.4668-.27.8261-.7075 1.0957-1.207.1338-.2603.2016-.5733.3798-.8047.1045-.1382.228-.2632.38-.3355.2577-.1182.5546-.1138.827-.045.3863.23.798.4098 1.2296.4698.3227.0435.6474.0132.939-.1343.1494-.0766.2978-.203.4023-.3354.1494-.1802.2114-.4175.2685-.6484l.38-2.4141c.0356-.227.1127-.4326.1786-.6484.083-.2706.1255-.5499.2461-.8047.2324-.4746.541-.897.8716-1.2964v-.0674c-.1811-.0454-.371-.0269-.5586-.022-.6.022-1.2016.1206-1.7886.2456-1.1587.2613-2.2793.7354-3.2187 1.5205-.1621.1348-.316.2994-.4697.4468l-.1788.1343c-.7495.1821-1.4335.6377-1.9003 1.2964-.1143.1557-.2251.3183-.313.4922-.0518.0981-.0698.2021-.1118.313-.083.2143-.1851.4272-.2681.6479-.102.2495-.2915.4741-.5142.6035-.2055.1148-.4634.1504-.6933.1792-.5923.083-1.1846.0703-1.7881.022-.5972.0473-1.2114.2192-1.7212.5815-.187.1367-.357.3076-.5142.4917-.271.311-.44.709-.7602.9615-1.081.852-1.232.9174-1.4976.894l-.0449-.4248 4.5156-4.7168-.0893-.0225c-1.0679.7935-1.4082-.6704-1.4082-.6704-.4444-1.69-1.9673-2.9062-1.9673-2.9062-2.1836-2.0064-5.7676-1.811-5.7676-1.811zm-.313 13.212l.358.5366 3.599.0449.2681-.5366zm.7378 1.0732l.3574.4917 2.1016.045.3354-.5367zm.6484 1.0059l.2681.4248h1.0059l.2236-.4248zm.6705 1.2294c-1.65-.0795-2.3248 1.0508-2.3248 1.0508-.8183 1.4478.0445 2.504.0445 2.504zm.2236 0l2.4814 3.8003s.7198-1.1132-.1792-2.5483c0 0-.793-1.21-2.3022-1.252zm.6484 12.9659c-.12 0-.164.1562-.2016.2685l-.022 3.1514.022.0898v.0225l.0673.045 1.9898.0214c.0937 0 .1694-.0723.2012-.1563-.0318-.291-.0181-.58.0669-.871h.0444c.3847.5458.9907.8574 1.6098 1.0273l2.8614.045.1118-.0665.0444-.1787c.0313-.334.0484-.6953.0225-1.0293.0405-.1055-.0357-.1836-.1343-.2227-.1304-.0468-.2725.0068-.4023 0-.3833-.0341-.7735-.1513-1.0953-.3808-.3525-.247-.6582-.5889-.8046-1.0059-.0782-.1933-.0987-.3945-.1343-.6035l-.0894-.0889-4.1582-.0673h.0005z" fill="#C4122E"/><path d="M10.8564 7.3169c-1.7524 0-2.7617.1553-2.772.1562-1.3876.1807-1.9135.6001-1.9448.626-.6503.4195-1.02 1.0718-1.207 1.6768-.1924.6157-.2226 1.1992-.2236 1.52v.246l.0224.2237 1.4976-.0674.0225.045c.0556.5669.3745.8896.6709 1.0283.2983.1445.563.1338.581.1338h.0225c.44-.0381.789-.0445 1.0727-.0445.4175 0 .6949.0357.8496.067l.1343.0449h.0669l.0225.0224c.251.0528.3237.168.3799.268l.0668.1344v.0444h.4474c-.001-.023-.0084-.1968-.1119-.4024-.0957-.1977-.3057-.4135-.6484-.4917-.0474-.0224-.3262-.1557-1.207-.1567-.2989 0-.669.0269-1.1177.0674-.0718-.0044-.2764-.0513-.4473-.1568-.164-.1074-.3125-.266-.3574-.6035.0566.0005.0713 0 .1787 0 .3506 0 .9297-.0195 1.4756-.0893.2714-.0352.5317-.086.7597-.1568.2266-.0747.417-.1606.5591-.335l-.3354-.2904c-.0318.0483-.168.1196-.3575.1787-.5752.1884-1.5937.2256-2.1015.2236h-.313l-1.3857.0669c0-.2876.0283-.8389.2011-1.3857.171-.5484.48-1.0884 1.0283-1.4307h.0225c.0273-.0225.5044-.373 1.7437-.5366l.1787-.0225c.3574-.042 1.2314-.1343 2.5258-.1343.73 0 1.6016.0367 2.5708.1118h.0225c.1465.0206.7988.1744 1.1626.7154.1138.1592.2305.5625.3355 1.0508.1626.7338.2978 1.6845.3798 2.4365.0796.7495.1099 1.2969.1119 1.2969l.4472-.0225c0-.0029-.0762-1.023-.2236-2.146-.0728-.5635-.1533-1.1626-.2686-1.6768-.1133-.5131-.2412-.9296-.4243-1.207-.5654-.809-1.4765-.9101-1.498-.9165h-.0225c-.98-.0771-1.8545-.1118-2.5933-.1118zm-2.414 1.7436s-.8423-.0449-.9165.8721l1.9223-.0224s-.0947-.88-1.0058-.8497z" fill="#18468B"/></svg>