<svg xmlns="http://www.w3.org/2000/svg" height="800" width="1200" viewBox="-18.35055 -5.331875 159.0381 31.99125"><g fill="#0060a9"><path d="M115.8176 19.0863c-1.1916-.3422-2.651-.3644-4.2203-.0651-1.619.308-3.315.9559-4.9088 1.8706a15.3659 15.3659 0 00-.7136.4355H118.57a3.8387 3.8387 0 00-.1291-.2765c-.4974-.9343-1.4065-1.6142-2.6234-1.9645z"/><path d="M119.0535 17.9938c-.5995-1.1266-1.692-1.9452-3.1586-2.3657-1.4335-.4143-3.1906-.4413-5.0808-.0806-1.946.3709-3.9883 1.1493-5.9044 2.252-1.446.8311-2.7641 1.8088-3.8973 2.8877v.6403h4.237c.4934-.3902 1.0186-.758 1.5719-1.1043 1.986-1.2454 4.1905-2.0831 6.209-2.3606 1.9984-.275 3.7187.0103 4.8442.8061.8827.6223 1.3756 1.5246 1.4698 2.6588h.149l.0537-.5357c.106-1.0428-.0614-1.9842-.4935-2.798zm-17.5818-6.0452c-.1545.09-.308.1788-.4593.2707v1.793c4.365-3.1903 9.089-4.3008 12.9796-4.5516-3.2779-.9438-7.9986-.112-12.5203 2.4879z"/><path d="M115.92 9.8758c.1561.1307.307.2683.4485.416 0 0 1.0361 1.0731 1.3788 2.088l-.3324-.5243c-.5254-.829-1.2779-1.4717-2.2071-1.928-4.2159.3508-9.5726 1.6613-14.1954 5.4781v.2884a23.3213 23.3213 0 013.9719-2.5574c1.497-.7612 3.009-1.3245 4.4953-1.6738 1.4949-.3514 2.893-.4723 4.1595-.3577 2.4328.219 4.1775 1.2838 5.0477 3.0819 0 0 .6667 1.3507.7255 2.7228l-.187-.7819c-.0977-.403-.242-.7895-.4337-1.1472-.6641-1.2464-1.8722-2.154-3.496-2.6188-1.5864-.4564-3.5295-.4869-5.6197-.089-2.1564.412-4.4157 1.2724-6.534 2.492a22.889 22.889 0 00-2.1295 1.3802v4.2183c.746-.7763 1.5803-1.5105 2.4979-2.191a21.6677 21.6677 0 014.3603-2.5167c3.0943-1.3333 6.1222-1.7497 8.306-1.1473 2.0236.5612 3.2288 1.9556 3.4868 4.0339 0 0 .1383 1.3282-.1268 2.7847h2.8004V10.1523c-.7512-.126-3.1967-.4722-6.417-.2765zm-10.761-4.024c-1.3582.2326-2.7653.6697-4.1466 1.2838v.5312c1.8489-.9612 3.7057-1.5864 5.4731-1.9788-.432.0315-.8739.0855-1.3266.1638z"/><path d="M101.0124 0v5.6875s2.3987-.8279 4.9463-.4413l-1.0149.0391c-1.2475.0466-2.59.335-3.9314.833v.6315c2.0888-.9602 4.5444-1.4465 6.6775-1.297 5.3414-.9043 9.5949.1984 9.5949.1984-.8295-.1389-4.0968-.5984-8.124.0104.3807.0883.986.2688 1.5988.6262l-.4977-.1778c-.4873-.1735-1.018-.2966-1.5822-.371-2.4252.4136-5.0937 1.2227-7.6673 2.7197v.3146c3.8772-2.1177 8.0486-2.9104 11.0741-1.8222 4.8448-.3492 8.4098.6372 8.4098.6372-.8134-.1371-3.7074-.5467-7.4361-.199.2087.1161 1.1162.6458 1.5017 1.1885l-.2212-.1789c-.5043-.4035-1.094-.7244-1.7518-.9633-3.5165.3834-7.706 1.453-11.5765 4.0317v.2916a24.9782 24.9782 0 011.0138-.6247c2.7663-1.619 5.687-2.6075 8.2238-2.7832 1.9931-.1378 3.702.225 5.0229 1.0552 4.009-.0802 6.875.6924 7.064.7445V0z"/><path d="M101.0124 9.1638v1.1632c3.4118-2.03 6.935-2.9425 10.0324-3.2803-2.8413-.449-6.4891.2841-10.0324 2.1171zm-56.3878-4.269h2.6821c.4678 1.0057 4.3249 9.3268 4.3249 9.3268h-2.4474l-1.0123-2.1756h-4.4437l-.983 2.1775H40.284zm2.7797 5.4483L45.9655 7.148l-1.4552 3.1951zM76.308 6.9805c-1.5566 0-2.309.8165-2.309.8165l-.1292-.6739h-2.0907c.0786.2522.2212.7276.2212 1.1401v5.9608h2.0672v-4.1233c0-1.1213.6842-1.6938 2.2407-1.6938.8546 0 1.374.2841 1.374 1.6938v4.123h2.0674v-4.123c0-2.1217-.6842-3.1202-3.4417-3.1202zm9.3006.0222c-3.5208 0-4.3066 1.6542-4.3066 3.6764 0 2.0405.7678 3.6936 4.4788 3.6936 1.3587 0 2.6236-.2516 2.9141-.3133a546.503 546.503 0 00.2141-1.4134c-.1953.0201-1.8026.3151-3.128.3151-1.7208 0-2.187-.6543-2.3253-1.5679h5.9586v-.7146c-.0002-2.5503-1.3583-3.6759-3.8057-3.6759zM83.455 9.9653c.1215-.8827.5184-1.5508 2.1535-1.5508 1.2025 0 1.6351.7705 1.7034 1.5508zM15.7223 6.9972c-2.5857 0-4.3087 1.14-4.3087 3.6906 0 2.5684 1.723 3.6931 4.3087 3.6931 2.5858 0 4.3067-1.125 4.3067-3.693.0002-2.5509-1.7206-3.6907-4.3067-3.6907zm0 5.9735c-1.729 0-2.2397-.8562-2.2397-2.2829 0-1.407.5107-2.2645 2.2397-2.2645 1.722 0 2.2397.8572 2.2397 2.2645 0 1.4267-.5178 2.2829-2.2397 2.2829zm23.0117-3.706c0-1.4293-1.5328-2.2842-3.7889-2.2842-1.1623 0-2.5932.4517-3.0866.6202-.0476.3019-.1953 1.2404-.2244 1.4372.45-.0992 2.2143-.631 3.311-.631 1.1327 0 1.7203.386 1.7203.943v.6082s-1.3917-.1415-1.8928-.1415c-2.2561 0-3.621.8104-3.621 2.282 0 1.8563 2.0557 2.2664 3.101 2.2664 1.417 0 2.1546-.3812 2.5001-.696l.1188.555h2.0749c-.0265-.11-.2125-.603-.2125-1.2692zm-2.0686 2.2632c0 1.3126-1.252 1.4269-2.4127 1.4269-.3958 0-1.028-.0841-1.028-.8562 0-.5128.7002-.8551 1.5479-.8551h1.8928zM5.644 4.6188c2.4247-.0016 3.9374.7628 4.7724 1.9752l-2.1683.8334C7.778 6.7702 6.9903 6.3304 5.674 6.323h-.057c-1.2954.0061-2.0738.4191-2.5477 1.0512-.4148.558-.643 1.2703-.643 2.0783v.1365h-.001c.0088.7742.2363 1.513.644 2.0566.4734.6316 1.252 1.042 2.5461 1.0491l.0574-.0016c1.2946-.0055 2.0783-.4283 2.5504-1.0681l2.193.8371c-.8392 1.1896-2.3656 1.9188-4.7614 1.9188h-.0124c-2.1312.001-3.5647-.5638-4.441-1.5317C.4056 11.9827-.0005 10.821 0 9.5396v-.0868c-.0005-1.2526.4072-2.4165 1.2015-3.282.8763-.9649 2.3077-1.5525 4.4426-1.552zm60.1489 8.4807V4.899h-2.0701v8.2005c0 .4998.1735 1.0052.2164 1.1245h2.0706c-.032-.1175-.217-.6011-.217-1.1245zm-6.9154-3.0162c.0082-1.0975.8117-1.6764 2.2391-1.6764.2358 0 1.1721.123 1.5746.1706-.0238-.182-.167-1.0697-.2262-1.4282-.2935-.0548-.9544-.1685-1.3484-.1685-1.2118 0-1.8933.4429-2.2743.7829l-.1757-.6403H56.59c.0392.1437.2151.6252.2186 1.1234v5.9756h2.0685v-4.1391zM25.8913 6.9887c-1.294 0-2.2934.7565-2.2934.7565s-.1106-.4207-.155-.6128h-2.0815c.0743.2542.2185.752.2185 1.2832v8.0682h2.069v-2.8062c.4139.302 1.1912.6956 2.2424.6956 3.465 0 3.9656-1.652 3.9656-3.6928 0-2.0214-.5006-3.6917-3.9656-3.6917zm0 5.9743c-1.761 0-2.2423-.9988-2.2423-2.2823.0336-1.3674.481-2.265 2.2423-2.265 1.5875 0 1.8987.9977 1.8987 2.265 0 1.2835-.3112 2.2823-1.8987 2.2823zM96.873 7.36v1.609c-.4057-.217-.828-.3823-1.2666-.4929a5.373 5.373 0 00-1.3213-.1664c-.4908 0-.862.0595-1.1142.1788-.249.1194-.3752.2966-.3752.5318 0 .335.5369.6083 1.6103.817l.0836.0197.6305.1262c.8035.16 1.3912.4154 1.7642.7699.3736.3543.5596.8345.5596 1.4343 0 .7266-.2826 1.2724-.8533 1.634-.5688.3618-1.4258.5449-2.5683.5449-.5064 0-1.0263-.0374-1.5576-.1117a12.8956 12.8956 0 01-1.6168-.3286v-1.6113a7.5786 7.5786 0 001.4867.528c.5032.1242.99.185 1.4618.185.5162 0 .907-.064 1.1742-.1907.2662-.1268.398-.3075.398-.5477 0-.2331-.0945-.4136-.2821-.5411-.1876-.1257-.636-.2593-1.343-.4022l-.6088-.1127c-.8425-.1571-1.4568-.4085-1.8445-.7472-.3844-.3389-.5783-.7964-.5783-1.3652 0-.679.2923-1.2076.881-1.5854.586-.3773 1.4113-.5654 2.4744-.5654.477 0 .9515.0325 1.4259.096a9.642 9.642 0 011.3798.2937zm-26.9426 5.7395V7.1191H67.862v5.9804c0 .5297.1969 1.0517.225 1.1245h2.0618c-.0368-.1339-.2183-.6146-.2183-1.1245zm-1.0411-6.523c.4495 0 .7546-.0609.9218-.1839.1659-.123.2477-.3463.2477-.6675 0-.309-.0802-.525-.2392-.6464-.1622-.1193-.4652-.181-.9131-.181-.4559 0-.7628.0624-.926.1876-.1612.1251-.2435.3492-.2435.6712 0 .3096.0797.5231.2347.6414.1585.1185.4638.1786.9176.1786zm-14.1533 6.523V7.1191h-2.068v5.9804c0 .5297.1963 1.0517.2254 1.1245h2.0614c-.0368-.1339-.2189-.6146-.2189-1.1245zm-1.0396-6.523c.448 0 .754-.0609.9207-.1839.1654-.123.2485-.3463.2485-.6675 0-.309-.0807-.525-.2392-.6464-.1643-.1193-.4651-.181-.9136-.181-.4559 0-.7628.0624-.9266.1876-.1606.1251-.2434.3492-.2434.6712 0 .3096.0786.5231.2342.6414.1598.1185.4651.1786.9194.1786z"/></g></svg>