<svg xmlns="http://www.w3.org/2000/svg" height="800" width="1200" viewBox="-29.85 -12.40065 258.7 74.4039"><path d="M18.215.6651C5.366.6651 0 10.8365 0 18.8188 0 28.1382 6.1088 36.691 17.7218 36.691c9.9448 0 13.4896-6.09 16.2087-11.5191l-1.1285-.8053c-2.9864 3.0277-7.012 5.1995-12.4693 5.1995-7.245 0-11.7958-3.9408-12.1071-11.2377H34.758C34.1859 5.425 27.1443.665 18.215.665zM17.482 4.87c4.2441 0 7.9193 2.6388 8.181 8.5543H8.365C9.6795 7.456 13.2005 4.87 17.4821 4.87zm33.7718 31.2905h-9.2733V12.4423c0-4.2767-.9022-5.5246-2.9656-5.5133l-.2643-.537L50.4888.1263c.4746-.2658.765-.0836.765.2784v5.35C53.1013 3.7303 57.3056.5782 63.7614.5782c4.6562 0 12.0131 2.108 12.0131 12.327v23.2553h-9.2733v-21.489c0-3.821-1.5886-7.5792-7.4008-7.5792-4.576 0-7.8466 2.911-7.8466 7.4008zm50.3068 0h-5.5283L81.698 5.296c-.7869-1.61-1.9037-2.5768-3.3378-2.8403v-.6242h11.6373c.546 0 .6238.166.8888.733l9.786 23.1013 9.966-23.8343h7.7234v.57c-1.6684.502-3.081 1.8378-4.0587 4.2035zM136.5774.5732c-11.1603 0-18.814 7.7306-18.814 18.2818 0 8.4906 5.0127 17.8416 18.1146 17.8416 12.911 0 19.0732-8.5888 19.0732-18.1982 0-10.2093-6.7642-17.9252-18.3738-17.9252zm-.6715 4.3106c.0673-.0017.1332 0 .2006 0 4.8543 0 9.0058 4.573 9.0058 14.3084 0 9.5629-3.604 13.2746-8.1253 13.2746-5.1874 0-9.4153-5.6354-9.4153-14.654 0-9.3149 4.0928-12.8218 8.3342-12.929z" fill="#260e62"/><path d="M171.7887 36.1605L157.4545 5.296c-.7869-1.61-1.9037-2.5768-3.3378-2.8403v-.6242h11.6373c.546 0 .6238.166.8888.733l9.786 23.1013 3.676-8.7912 7.1717-3.8339-10.4199 24.0234c-2.4526 5.372-3.988 7.253-5.8497 9.0816-1.65 1.562-5.1004 3.4569-10.9273 3.4569-1.993 0-3.4183-.2217-3.4183-.2217v-4.4242s1.5973.2387 3.3757.2387c3.0623 0 4.5219-.2896 6.5753-1.8208 2.0363-1.514 3.8722-4.4503 5.1764-7.2141z" fill="#260e62"/><path d="M182.479 11.1965l3.9158-9.365H199v.57z" fill="#a71a2d"/></svg>