<svg xmlns="http://www.w3.org/2000/svg" height="800" width="1200" viewBox="-4.185306 -2.1660175 36.272652 12.996105"><path d="M2.7312 3.055H1.43051v3.48296c0 .36654-.0695.62795-.20814.78352-.13899.15558-.36724.23354-.68368.23354-.03457 0-.06809-.003-.10195-.004L0 8.61147c.19262.0349.4057.0526.63853.0526.41134 0 .75177-.0543 1.02164-.16298.26917-.10795.4833-.2554.6417-.44168.1584-.1859.26953-.40428.33338-.6544.06385-.25012.09596-.51682.09596-.8001z" fill="#38a5e3"/><path d="M23.94523 4.0437a4.4141 4.4141 0 00-.42898.0208 7.55154 7.55154 0 00-.40463.0501 5.65477 5.65477 0 00-.19332.0328v.001a5.2317 5.2317 0 00-.1136.0219c-.09454.0194-.17674.043-.24342.0705v1.02552c.10337-.0254.33902-.13512.94298-.13512.04551 0 .09278.00071.14252.002.07761.002.17075.007.27905.0208.10865.0141.1905.0293.24624.0462l.02505.007c.11641.0321.20743.0808.2734.14675.1277.12806.19191.21273.19191.42404v.10372c-.26846-.0176-.59337-.0374-.73378-.0374-.23883 0-.46954.0236-.69215.0709-.22225.0469-.41945.12383-.5916.22931-.17216.10548-.30974.2473-.41275.4251-.10266.1778-.15417.39475-.15417.65017 0 .2667.04445.49177.13335.67521.0889.18345.21696.33232.38347.44591.16651.11395.36548.19615.5962.24624.23036.0501.48753.0748.77117.0748.44979 0 .83361-.0265 1.1504-.079.31645-.0529.5641-.0988.7419-.13723v-2.6095c0-.27199-.0307-.51964-.09172-.74154-.06103-.2226-.16546-.41134-.31292-.5669-.1471-.15594-.3429-.27518-.58737-.35879-.24483-.0832-.55033-.12488-.91722-.12488m.10019 3.65936c-.22825 0-.40746-.0377-.53764-.11289-.13053-.0748-.19614-.20955-.19614-.40428 0-.0998.02222-.18309.06703-.25012.0441-.0663.10548-.11959.18309-.15804.04621-.0229.2473-.06.5147-.06.17533 0 .37889.0159.58597.0621v.88971c-.06668.0113-.15593.0198-.26706.025-.11112.006-.2279.008-.34995.008M17.49702.95896c-.14676-.01-.22613-.0222-.30268-.0222-.13089 0-.25542.005-.37677.0303-.1217.0258-.22966.0677-.32385.1256-.0942.0575-.16933.13511-.22578.23247-.05609.0974-.0843.2159-.0843.3556 0 .14605.02433.26917.07302.36936.04868.10054.11853.18168.20955.24412.09137.0621.20003.1069.32632.13441.12594.0275.2466.0413.40181.0413.2459 0 .30092-.0148.47414-.0438.17321-.0286.30833-.0536.4057-.0748v-1.3155zm-.33514.98637c-.12453 0-.2226-.0205-.29386-.0617-.07161-.0409-.10725-.11465-.10725-.22119 0-.0547.012-.10019.03634-.13653.02434-.0367.05786-.0656.10054-.0868.02505-.0123.13512-.0328.28117-.0328.09596 0 .20743.009.32067.0342V1.927c-.03634.006-.08537.0106-.14605.0138-.06068.003-.12453.005-.19156.005" fill="#5eb9e8"/><path d="M10.55403 4.16198H7.0693v1.03364h1.86725c-.14993.1778-.31397.37677-.49142.5962-.1785.21942-.35736.44626-.53799.6791-.18062.23388-.35313.46601-.51682.69637-.16404.23072-.30444.44591-.42086.64594v.73378h3.6262V7.51337H8.4737c.16158-.23354.34114-.47519.53905-.7253a23.97823 23.97823 0 01.58914-.7172c.19473-.22755.37712-.43604.54716-.62513.16968-.18874.30444-.33867.40498-.45015z" fill="#1f5596"/><path d="M12.75968 4.04535c-.2667 0-.52634.0497-.77929.14993-.25329.0998-.4766.2473-.67133.44168-.19438.19473-.35137.4378-.47096.72954-.11924.2921-.17921.63218-.17921 1.0213 0 .32243.04586.62265.13758.90064.09172.27763.23354.51823.4251.72072.19191.2032.43356.36266.72531.47943.29175.11677.635.17497 1.02976.17497.15522 0 .31115-.008.46672-.0247.15558-.0169.30128-.0374.43745-.0624.13652-.0254.26035-.0547.37147-.0878.11078-.0332.33655-.1069.50024-.20532V7.23136c-.43427.17003-.6484.23318-.93803.30268-.21767.0522-.44345.0624-.67134.0624-.3556 0-.63888-.0748-.8502-.22507-.2113-.14993-.33055-.35278-.35842-.60819h2.818c.0053-.067.01093-.14323.01622-.2293.0056-.0864.0085-.16546.0085-.23778 0-.73907-.18062-1.29893-.54186-1.67957-.36125-.38065-.85337-.57115-1.47567-.57115m-.82515 1.86725a1.75006 1.75006 0 01.07902-.31256c.03634-.103.08749-.19297.15452-.27093.06632-.0776.14993-.1404.25012-.18768.09984-.0469.21907-.0706.35842-.0706.14428 0 .26529.0247.36265.0748.09701.0501.1778.11395.2413.19156.06421.0783.11148.16687.14217.2667a1.30146 1.30146 0 01.05397.30868z" fill="#273976"/><path d="M17.14586 4.04535c-.2667 0-.5267.0497-.77964.14993-.25294.0998-.4766.2473-.67098.44168-.19473.19473-.35137.4378-.47096.72954-.11959.2921-.17956.63218-.17956 1.0213 0 .32243.04586.62265.13794.90064.09172.27763.23318.51823.42474.72072.19191.2032.43356.36266.72531.47943.2921.11677.63535.17497 1.02976.17497.15557 0 .31115-.008.46708-.0247.15557-.0169.30127-.0374.43744-.0624.13617-.0254.26-.0547.37112-.0878.11078-.0332.3369-.1069.50024-.20532V7.23136c-.43391.17003-.6484.23318-.93803.30268-.21731.0522-.44345.0624-.67099.0624-.35595 0-.63923-.0748-.85054-.22507-.21097-.14993-.33056-.35278-.35843-.60819h2.818c.0053-.067.01093-.14323.01622-.2293.0056-.0864.0085-.16546.0085-.23778 0-.73907-.18062-1.29893-.54186-1.67957-.36125-.38065-.85302-.57115-1.47532-.57115m-.8255 1.86725c.01693-.10548.04304-.2099.07937-.31256.03598-.103.08749-.19297.15416-.27093.06667-.0776.14993-.1404.25012-.18768.1002-.0469.21943-.0706.35843-.0706.14428 0 .26528.0247.36265.0748.09701.0501.1778.11395.242.19156.0635.0783.11078.16687.14147.2667a1.30146 1.30146 0 01.05397.30868z" fill="#0d89cb"/><path d="M21.23812 4.07028c-.37218 0-.70979.0349-1.01282.10407-.30304.0695-.5655.14323-.7881.2212v4.15113h1.24247V5.19564c.0554-.0166.13723-.0318.2459-.0459.1083-.0138.20143-.0201.27904-.0208h.03493c.49036 0 .94015.10618 1.04916.13335V4.23676c-.06703-.0275-.14746-.0512-.242-.0705a4.6694 4.6694 0 00-.28329-.0501 5.07073 5.07073 0 00-.28363-.0335c-.09455-.008-.17498-.0123-.24165-.0123" fill="#429bdb"/><path d="M4.7934 4.0437a4.4138 4.4138 0 00-.42898.0208 7.55154 7.55154 0 00-.40464.0501 5.65477 5.65477 0 00-.19332.0328v.001c-.0381.007-.07585.0138-.1136.0219-.09454.0194-.17674.043-.24341.0705v1.02552c.10336-.0254.33902-.13512.94297-.13512.04551 0 .09278.00036.14252.002.07761.002.17075.007.27905.0208.10866.0141.1905.0293.24589.0462l.0254.007c.11606.0321.20743.0808.2734.14675.1277.12806.19156.21273.19156.42404v.10372c-.26811-.0176-.59302-.0374-.73343-.0374-.23883 0-.46954.0236-.69215.0709-.22225.0469-.41945.12383-.59196.22931-.1718.10548-.30974.2473-.4124.4251-.10265.1778-.15416.39475-.15416.65017 0 .2667.04445.49177.13335.67521.0889.18345.2166.33197.38347.44591.16686.11395.36548.19615.5962.24624.23036.0501.48753.0748.77117.0748.44979 0 .83361-.0265 1.1504-.079.31645-.0529.5641-.0988.7419-.13758V5.83622c0-.27199-.0307-.51964-.09172-.74154-.06138-.2226-.16546-.41134-.31256-.56726-.14747-.15558-.34326-.27482-.58773-.35843-.24483-.0832-.55034-.12488-.91722-.12488m.10018 3.65901c-.22824 0-.40745-.0374-.53763-.11254-.13053-.0748-.19614-.20955-.19614-.40428 0-.0998.02223-.18344.06703-.25012.04445-.0663.10548-.11959.18309-.15804.04586-.0229.2473-.06.5147-.06.17533 0 .37888.0159.58561.0621v.88971c-.06632.0113-.15557.0194-.26635.025-.11147.006-.22824.008-.3503.008m21.28584-.02425l.86113.86112.86148-.86113-.86148-.86113z" fill="#0d89cb"/><path d="M22.78772 2.8145c-.1517 0-.27658.12488-.27658.27658s.12488.27658.27658.27658.27657-.12489.27657-.27658c0-.1517-.12488-.27658-.27657-.27658" fill="#1f5596"/><path d="M17.6964.66837c.15169 0 .27657-.12488.27657-.27658 0-.15169-.12488-.27658-.27658-.27658s-.27658.1249-.27658.27658c0 .1517.12489.27658.27658.27658m-.59418 0c.1517 0 .27658-.12488.27658-.27658 0-.15169-.12489-.27658-.27658-.27658-.1517 0-.27658.1249-.27658.27658 0 .1517.12489.27658.27658.27658" fill="#5eb9e8"/><path d="M19.54936 2.81443c-.1517 0-.27658.12488-.27658.27658s.12488.27658.27658.27658.27658-.12489.27658-.27658c0-.1517-.12489-.27658-.27658-.27658m.59414 0c-.15169 0-.27657.12488-.27657.27658s.12488.27658.27658.27658.27657-.12489.27657-.27658c0-.1517-.12488-.27658-.27657-.27658" fill="#3c7fca"/><path d="M24.79739 0h-.5768v1.66124c0 .28821-.10407.4519-.39581.4519h-.006V1.6937c0-.53517-.27658-.79693-.84455-.79693h-.13688c-.19932 0-.4251.0148-.6156.0892v.4551c.04762-.012.1517-.0596.41946-.0596h.19932c.17815 0 .4519.0476.4519.28538v.44627c0-.003-1.09467 0-1.09467 0h-.08326c-.097 0-.1912-.009-.28857-.0176l-.0035.46214c.10866.009.21943.0134.33373.0134h1.71027c.59796 0 .93098-.3122.93098-.91298v-.35102z" fill="#1f5596"/><path d="M25.26178 2.57116h.5768V.00012h-.5768z" fill="#56bbe9"/><path d="M19.54625 2.57101h-.37712c-.04163.52493-.37041.79692-.92815.79692h-.07126v-.49036h.02963c.2914 0 .39546-.16369.39546-.45226V.92362h.57503v1.18956h.4999c.29174 0 .3958-.16333.3958-.4519V.9215h.5768v.7366c0 .60078-.33302.913-.93098.913zm-3.69388-.43134l-.40499.405-.40499-.405.40499-.40499z" fill="#0d89cb"/><path d="M21.51761.66837c.1517 0 .27658-.12488.27658-.27658 0-.15169-.12488-.27658-.27658-.27658s-.27658.1249-.27658.27658c0 .1517.12489.27658.27658.27658m-.26345.25503v1.5017c0 .28893-.10407.45227-.39547.45227h-.02999v.49071h.07161c.56268 0 .89253-.27693.92922-.81068V.92332z" fill="#273976"/></svg>