<svg xmlns="http://www.w3.org/2000/svg" height="800" width="1200" version="1.0" viewBox="-90 -25.37275 780 152.2365"><path d="M288.537 99.247h28.384v2.243h-80.283v-2.243h22.639V45.318h-.69L212.86 101.49h-7.775l-45.5-56.172h-.456v53.93h22.178v2.242h-52.131v-2.243h22.635V43.792h-22.635v-2.24h58.992l32.006 41.006 33.153-41.005h63.413v2.239h-28.202z" fill="#cf0f3d"/><path d="M451.28 101.488v-2.192h18.172L523.06 41.55h7.628l51.364 57.745H600v2.192h-71.11v-2.192h23.333L538.54 83.76h-48.455l-13.9 15.535h22.876v2.192zm41.273-19.92h43.744l-21.086-24.483z" fill="#1378c7"/><path d="M375.627 43.793v25.754c22.709 0 32.072-1.344 33.257-10.947h6.625v25.037h-6.625c-2.126-9.96-7.705-12.118-33.257-11.85v27.462h28.64c30.755 0 37.372-6.911 42.346-17.053h6.857l-2.131 19.292H316.933v-2.24h23.472V43.794h-23.666V41.55h130.819l1.418 16.155h-6.62c-4.971-8.616-13.959-11.936-26.022-13.195-5.908-.627-12.772-.717-20.578-.717H370.68zM89.15 99.237c-4.183-.159-7.646-.744-8.73-1.062-2.453-.736-4.859-1.181-7.055-2.738-.411-.225-.547-.307-.946-.527-.193 0-.457-.364-.65-.364-1.403-1.108-2.608-2.224-2.805-4.006-.298-2.185.438-4.246 1.762-5.896h.012a8.535 8.535 0 011.422-1.426c.612-.453 1.406-.232 2.003-.453.39 0 .6-1.337 1.398-1.12.802.45.213 1.34-.403 1.79v.666c.364.132.79.024 1.205.058-.387.651-.763.663-1 1.054 0 .217.803.217.803.434-.605.674-1.794.233-2.6.674v.45c1.995-.221 4.196-1.779 6.198-.67 0 0-.6.22-1.007.449 1.007.658 2.007 0 2.999.22 1.2.438 2.398 0 3.606.217-.197-.437-.806-.216-1.01-.666 1.607-.441 3.207.45 4.803.887-.6-.658-1.399-1.108-2.394-1.108-.605 0-1.205-.67-1.596-1.34v-.132c0-.174.027-.306.197-.306.5-.124 1.058.109 1.592.306.516.194 1.012.353 1.403.132.747-.407 1.329.352 2.045-.116h.023c.043-.043.086-.066.132-.101-.798-.891-2.2 0-2.998-1.108.798-.45 1.596 0 2.398-.67.403-.45 1.402-.45 2.192-.45 1.004-.22 2.01.23 3.003.23.197 0 .608.44.802.44.798 0 1.596.884 2.394.45 0-.217-.392-.45-.593-.67-.612 0-1.399 0-1.801-.67 0-.221 0-.45.197-.45.992 0 1.805 1.12 2.801.67-1.596-1.107-3.39-.441-5.001-1.328-.996-.67-2.394-.887-3.2-2.007-.194.45-.597.232-.794.232-.198 0-.198-.449-.395-.449-1.008 0-2.205.217-2.205-.67 0-.891 1.197-.659 1.798-.659 2.204-.449 3.998.891 6.194 1.108.213 0 .213.438.213.67 0 .438-.41.217-.608.217 1 .221 2.189.221 3.196.221 1.402 0 2.999.221 4.4.667.807.22 1.597.67 2.403.22-.608-.437-1.798.229-1.596-.887 0-.438.79 0 1.189-.22l-.201-.218c.201-.449.608-.232 1.007-.232-1.399-.655-2.801-1.329-4.203-1.995.801-1.34 2.208-.438 3.397-.438 0 0 0-.45-.201-.45.41-.67 1.007.218 1.6 0-.198-.452-.593-.452-.992-.67-1.403-.22-2.801-.67-4.2-.886.202-.442 1.197.216 1-.67-.407-1.109-1.81-.892-2.603-1.33.794-.449 1.805-.666 2.603-.449.995.229 2.2-.217 3.2 0-1.596-1.557-3.804.229-5.602-1.329.399-.445 1.003-.666 1.2-1.336 1.202.438 2.604-.22 3.794 0-1.511-.62-3.007-1.255-4.51-1.69-.093-.03-.186-.065-.283-.092-.623-.275-1.247-.116-1.867.093-.372.12-.76.279-1.131.352-1.402.45-2.805.45-4.203-.22.085-.05.19-.097.275-.132a5.659 5.659 0 012.328-.535h1.197c.403 0 0-.662.403-.662.802 0 1.794-.229 2.596 0 1.123.62 2.351.914 3.533 1.197.495.104.984.228 1.464.352.198.233.399.45.608.667 1.19.232 2.394.232 3.192 1.108.198.232.395 0 .395-.217-.19-1.035-.371-1.5.423-1.91l.178-.093c-.194-.666-.6-.883-1.205-1.104 1.402-.45 3.014-.666 4.006.89h.604c0-.452.403-.67.6-.89 1-.229 1.6.89 2.6.89 1.995-.452 3.793-.228 5.582-.452-1.379-.438-2.587-.667-3.986-1.104-.41 0-1.003 0-1.402-.454.6-.654 1.801-.437 2.394-.217.407.217.407-.887.604-.67 1.011.233 2.003.45 2.8.887.605.233 1.802.67 2.596 1.12-.794-1.774-3.393-1.557-3.393-3.115-.202-.868 1.336.608 1.952-.163-3.78-.898-7.562-.542-11.35-1.173-.202-.221-.4-.438-.593-.659 1.185-.67 2.394-1.12 3.599-.89.197.22.383.22.589.44.802 0 1.2 0 2.01.218v-.438c-1.402-.45-2.804-.22-4.199-.45-1.007-.437-2.212.23-3.204.45-3.405.22-6.799-.45-10.196-.22-1.596 0-3.2-.23-4.993 0-1.403.44-2.999 0-4.401 0-1.205-.23-2.6 0-3.8.22-.992 0-2.003 0-2.794-.45-.205-.216 0-.437.19-.437 2.603-.45 5.001.22 7.395 0-.991-.891-2.394-.45-3.59-.67-.202 0-.404-.45-.597-.667.798-.453 1.793-.224 2.588-.224.213 0 .213.224.213.441h3.792l-.201-.217c2.607-.662 5.195-.224 7.802-.662-1.805-.666-4.01.209-5.803-.45.608-.449 1.204-.449 1.793-.216-.193-.45-.991-.233-1.185-.67 1.79-.67 3.591-.218 5.389-.45 0-.438-.396-.891 0-1.329.197.438.604.659.801.659 1.205-.221 2.197-.438 3.003.67-.608.45-1.205.45-1.798.45.593.886 1.6 0 2.394.22.198 0 .198.217.198.45 1.197 0 2.595.216 3.8-.45.198 0 .6.887.992.217-1.19-.655-2.592-.438-3.595-1.108-1-.67-2.189-1.557-3.196-2.444.399-.45 1.205-.45 1.604 0 .592.45 1 .45 1.592.67.403.217.205-.67.597-.67.801-.221 1.809-.221 2.607.217 1.197.67 2.398.453 3.8.67.198 0 .198-.217.403-.438 0 .256.201.213.368.22-1.174-.995-2.65-.053-3.773-.89-.407-.45-.798-.67-1.399-1.12.798-.437 1.596-.217 2.197.45 0-.213 0-.667.193-.667.411 0 .814.667 1.21.454-.601-.891-1.6-.454-2.395-1.124-1.402-.658-3.211-.22-4.61-.887 0-.22.21-.22.407-.22.193-.218 0-.439-.198-.439-1.398 0-2.8 0-4.005-.89 1.204-.667 2.607-.446 3.796 0 .407.22 1.007.658 1.596.89.21 0 .81.221.81-.232-.206-.217-.403-.659-.81-.887.604-.655 1.402.67 2.007 0-.198-.217-.198-.438-.198-.655.992-.674 2.592.655 3.204 0 .984-.906 1.6.217 2.6 0-.849-.674-1.771-1.01-2.709-1.267-1.293-.34-2.63-.55-3.893-1.193.194-.438.6-.438.996-.438-.605-.67-1.403-.67-2.204-1.107a6.988 6.988 0 012.998 0c.806.216 1.6.658 2.41.887.39.22.786.441.999.887-.608-1.337-1.402-1.991-2.603-2.445-.202-.228 0-.449.201-.449.391-.22.802.22 1.205.45.198 0 .395-.23.198-.45-.198 0-.403-.22-.403-.22.794-.888 1.6 0 2.394 0 .197 0 .41.44.608.67 0-.23 0-.45.194-.67-2.19-.888-4.397-1.996-6.602-2.228-1.793-.217-3.59-.217-5.392-.217-3.591-.221-7.194 0-10.793-.438 2-1.12 4.4.217 6.396-.666-.201-.454-.81-.225-1.003-.674 1.402-.888 3.196.674 4.4-.217-1.793-.67-3.796-.45-5.605-1.112.33-.457.724-.539 1.131-.523-.236-.236-.659-.64-.124-1.035.604-.228 1.402.221 2.007 0-2.007-.445-4.203-.445-5.606-2.223 2.592-1.108 5.393-.67 8.197-1.108a6.69 6.69 0 014.196 0c.403.217.794.438 1.003.887.395-.67-.209-.67-.406-.887-.992-.887-2.19-.887-3.394-1.34-.79-.217-1.596-.217-2.394-.438-2.402-.887-4.808 0-7.395-.45-.407-.22-1.004.217-1.6.217.197.454.991 0 .794.454-.597 1.108-1.995.217-3.192.437-2.197.45-4.401-.22-6.598-.658 1.6-.887 3.394 0 5.2-.233-.21-.217.387-.437 0-.654.995-.667 1.789.654 2.788.217.206-.217-.39-.667-.193-1.12.193-.438.592 0 .991-.217v-.438c1.612-1.12 3.014 0 4.595.655-.787-.655-1.794-.887-2.386-1.774-.206-.438.197-.659.395-.659 1.6 0 3.196 0 4.598.659-1.6-1.55-3.99-1.55-6.198-1.55-3.192.221-6.598.891-9.79.221-4.811-.666-9.208-1.12-13.988-2.224-.214-.22-.613-.453-.613-.67 0-.89 1.008 0 1.205-.67l-.197-.22c.403-.439.991-.439 1.398 0 .202.22 0 .449-.21.449h-.394c-.198.89.806.441 1 .441 1.402.217 2.998 0 4.4-.22 1.798-.45 3.595.67 5.393.89-.198-.22-.795-.22-.597-.67.597-.89 1.798-.22 2.603-.22 1.6 0 3.192.437 4.99 1.107.403 0 .81.45 1.205.233.6 0-.198-.233-.198-.45-2.2-1.34-4.594-.89-6.601-2.448-.201-.22 0-.438.205-.438.4-.228.597.438.988.217-1.793-2.006-4.792 0-6.996-1.336.407-.67 0-1.33.213-1.778.194-.67 1.19-.217 1.991-.217.205.217.4.217.597.217 1.402.232 2.6.887 3.804 1.34.391.217-.198-.232-.198-.453 0-.217.198-.438.392-.438.402 0 .813.22.813.659.786-.221 1.596-.221 2.189 0 .6.449 1.007 1.336 1.805 1.336-.21-.666-.798-.887-1.205-1.336-.197-.221 0-.438.194-.438h1.011c-.604 0-1.011-.221-1.402-.221-1.209-.217-2.003-1.12-3.003-1.557.198-.45.806-.217 1.197-.45-1.197-.887-2.998 0-4.195-1.108 1.197-.666 2.204-.666 3.41-.45-1.415-.433-2.604-.216-4.007-.216-.592.217-1.197 0-1.6-.67-.197-.438.795-.221.403-.659-.813-.45-1.805.221-2.804-.228l.197-.221c-.991-.891-1.999-.442-2.994-.221.6.442-.202.442-.202.67-1.398 0-2.8.438-4.187.438-1.414.22-3.014.674-4.2.891-.806 0-1.402-1.108-2.41-1.329.202-.45.81-.228 1.201-.228 1.6-.221 3.406.449 5.002 0 .407 0 1.398.666 1.596-.442-.391 0-.794.22-.996-.22 1.39-.667 2.805 0 4.196-.667-.798 0-1.391-.67-2.003-.891.612-1.104 1.406-.229 2.003.22.39.233.6-.449.995-.22 1.008.89 2.197 1.557 3.402 1.108-1.205-.434-2.394-.655-3.196-1.774 1.596-.438 3.196 0 4.594.666-.794-.883-1.797-1.337-2.998-1.557-4.595-.45-8.996-.888-13.393-.45-.402 0-1.6.903-1.797.233-.198-1.12 1.395-.454 1.991-1.12-.786-.655-1.793.45-2.189-.438 1.995-.89 4.196 0 6.392.438-.193-.887-1.204-.22-1.402-.887 0-.22.198-.442.41-.442.992 0 2.19.674 2.995.442 1.193-.442 2.596.232 3.793.232-.806-.902-1.798-.902-2.6-1.123-1.793-.67-3.792-.217-5.586-1.325l.194-.232c-.194 0-.391-.217-.391-.217 1.383-1.558 3.192.217 4.59 0-.407 0-.6-.221-.806-.438.613-.453 1.205 0 1.802-.233C67.368 2.3 63.76 2.3 59.976 1.63c-.403 0-.205-.438-.205-.658 1.402-1.337 3.204 0 4.8-.67C62.576.08 60.368-.115 58.373.08c-1.806.166-3.611.333-5.412.217.003 0 .007.003.011.003 0 .221.798.454.194.67-.992.221-1.991 0-2.983.438.794.221 1.798-.217 2.592.221-1.798 1.12-4.204.45-5.803 1.79-.392.438-1.403 0-1.992.217-1.2.67-2.8.67-4.001 1.561 1.596.217 2.994 0 4.59-.674.213 0 .41.438.41.438 1.403-.887 2.79-.438 4.386-.655.213-.232.612 0 .612-.45.198.45.806.888.198 1.105-1.403.453-2.604 1.34-3.99.89-.605 0-1.205 0-1.81.23-.395.22-.798.673-1.402.673.198.217-.794.434-.194.434.392 0 .605-.434 1.201-.434.395 0 .198.884.59.655.212-.438.805-.655 1.01-.438 1.79.217 3.785-.89 5.4 0 0 0-.406.887-.805.887-1.995 0-3.99.438-5.8.67-1.596 0-3.397.67-5.194 0-1.004-.232-1.794 0-2.6.67.806.222 1.596-.232 2.204.222-.802.883-2.006.883-2.998 1.557-.41.434-1 .655-1.402 1.325 2.394-1.108 5-1.546 7.403-2.448.39-.217.592.902 0 1.123-.341 0-.67.45-1 .476.728.105 1.457-.244 2.185-.042.41 0 1.205 0 1.402-.434 0-.22-.6-.453-.798-.674 1.205-.883 3.994-1.337 3.793.89 0 .439-.593.218-.79.218-.395-.217 0-.655-.198-.887-.41-.221-.802.453-1.205.232 0 .655 1.205.221 1.008 1.104-.213.221-.407.663-.605.663-2.41-.442-4.4.666-6.597.449-.806 0-2.204-.45-2.8.217.398 0 .99 0 1.204.45 0 .441-.806.441-1.007.89.201 0 .399 0 .596.217.41-.45 1.007-.45 1.403-.45 3.196-.433 6.403-.886 9.6-.886.6 0 1.998-.221 1.998.453-.201 1.104-1.797.434-3.006.666-.391.217-.786.887-1 .887-1.402.438-2.587-.449-3.99-.22 0 .22 0 .441-.193.441h-2.805l.198.217c-.198.45-.802.233-1.198.233-1.603-.67-3.196-1.34-5-.891.402 0 1.01-.229 1.402 0 .402.22.592.441.991.441.41.217 0 1.104-.193 1.104-1.596-.437-2.999-.437-4.401-.217.41.67 1.205-.22 1.402.454 0 .883-.992 0-1.205.666-1.189-.666-2.394.655-3.784.438 1.197.67 2.398-.221 3.784.217.407 0 .802-.217 1.205-.438 1.81-.217 3.603-.217 5.4.438 0 0 0 .453-.197.453h-1.6c-.21 0-.21.438-.21.438 1.202.453 2.406-.67 3.604.453-.198.213-.396.666-.802.438-.795-.225-1.6 0-2.394-.225 0 .453-.609.225-.407.453.604.438 1.398.217 2.006.217 0 .221.795.221.194.67a.292.292 0 01-.194.097c.756.314 1.662.16 2.395.562.209.229 0 .45-.202.45h-.794c.403.67 1.402-.221 1.6.67 0 .22-.198.437-.395.437-2.205 0-4.401.233-6.408-1.108-.193-.22 0-.449.213-.449 1.19-.22 1.992.67 3.18.67-1.188-.89-2.998-.441-4.19-1.55.402-.449.797-.449 1.402-.449-1.201-.67-2.2.221-3.406 0-.592-.217-.991-.67-1.596-.445v.445c-1.6.67-3.2.67-4.796 1.329 1.399.229 2.608-.659 3.998 0-.193.45-1 .229-1 .887 1 0 1.798-.217 2.802.233-2.406.887-5.207.437-7.593 1.778 1.6-.454 2.998-.67 4.594-.454.395 0 .198.67.395.67 2.007-.67 3.603 0 5.4.45.202.22.404.438.597.67-.991.438-2.196-.232-3.196-.232-2.8-.438-5.195.67-7.79 1.778 1.6-.438 3.39-1.108 5.187-.887.21 0 .604.666.798.45 1.402 0 2.805.437 4.203.216 1.805-.434 3.398-.434 5.195.22-.79.45-1.797 0-2.6.233 0 0 0 .438.21.438-2.603 1.337-5.203 0-8.004.453-1.193.434-2.196.667-3.39.667 1.79.217 3.797-.903 5.397 0 .992.654 2.588.437 3.99.437.213 0 .213.217.213.45.794 0 .794.438.984 1.108-1.995.437-3.785-.67-5.795-.67-.198 0-.198.453-.198.453.806.217 1.6-.233 2.208.438-.41.449-.608 1.107-1.01 1.336-1.403.22-2.596-.45-3.999.22 1.012 0 2.209-.22 2.402.667.194.442-.604 0-.802.442-1.193-.659-2.394.217-3.595.217.593.453 1.201-.217 1.798 0 .197 0 .197.232.197.453-.197.217-.197.445-.39.445-.613 0-1.206.221-1.806.221-1.596.221-3.39 0-4.99 0 0 .438-.604.221-.406.438.801.233 1.793-.659 2.595 0-1.197 1.12-2.793 0-3.998.67-.596.45-1.398.67-1.793 1.34 1.596-.22 2.998-1.111 4.594-.67 0 .45-.597.45-.597.67.4.218 1.205-.22 1.596.218-.999.89-2.397.89-3.39 1.557.597.22 1.4-.438 1.19 0-.593 1.108-2.196 1.561-3.2 2.448.806-.22 1.6-.453 2.41-.67 1.2-.217 2.6-.887 3.982-.67.608.232.41.887 0 1.12-1.79 0-3.39.22-5.187.658-.794.22-1.801.903-2.406 1.778 1.201-.658 2.406-1.778 3.808-1.329.396 0 1.197 0 1.391.454 0 .433-.995 1.104-.798 1.104 1.201.441 2.603-.45 3.8.22-.91.818-2.65.512-3.409 1.631-.07.105-.135.233-.182.36.376-.127.744-.263 1.116-.36.229-.034.445-.073.682-.073 2.8-.221 5.388-1.337 8.19-.67a13.61 13.61 0 01-2.403.743c-3.811.833-7.705.229-11.486 1.085.694-.035 1.298.341 1.895.837-1.201.67-2.604-.217-3.595.45-.806.437-1.992.22-2.6 1.328 1.197-.22 2.6-1.55 3.196-.22.198.673-1.596 0-1.19 1.107 0 .233 1.19-.434 1.585.233 0 .217-.589 0-.589.437 1.597.217 3.193-.437 4.595.217-1.205.67-2.603.237-3.796.45v.441c.197.229.798 0 .6.229-.403.67-1.604.22-2.212.89.813 0 1.402 0 2.212.439.391.449 1.596-.438 1.794.228.197 1.108-1.403.891-2.197.891-2.204 0-4.4 0-6.601.217v.453c.802-.232 1.596-.453 2.398 0-1.794 1.325-3.983.655-5.997 1.554 1.205 0 2.41 0 3.599.662-1.19 1.116-2.79.446-4.192.887 2.79.45 5.788-.441 8.589.229 0 .442-.4.22-.597.442-.802.217-1.6-.221-2.402.217-.596.228-1.189.449-1.793.449-.206.22-.403.438-.794.438 1.189.453 2.192-.887 3.39-.438.6.438 1.6 0 1.402.67 0 .438-1 .22-1.403 1.108.6 0 1.403-.22 1.798.434-1.6.89-3.196.89-4.796.674-1.794-.438-3.8-.22-5.594 0 .589.217 1.2 0 1.596.67-.798.667-1.798 1.104-2.8 1.558.603 0 1.002-.221 1.401-.454.194 0 .6.454 1.004.233 0-.233 0-.45.194-.45.805 0 1.603-.22 2.208.217-.411.454-1.205-.217-1.403.67 1.403.221 3.394-.887 4.599.221-1.159.694-2.43 1.085-3.723 1.426-2.053.554-4.157.995-5.877 2.36.604 0 1.596-.233 2.003-.233 2.805-.438 5.392-.876 8.193-.659.593 0 1.798-.217 1.6.659-.403 1.34-1.801 1.786-3.401 1.786 0 0 0 .441.197.441.81-.217 1.604 0 2.197-.441.604-.229 1.205-.446 1.81-.888.592-.228 1.204-.445 1.797-.228.197.228.197.45.197.67-1.197 1.337-2.797 1.337-4.397 1.774 1.197.454 2.402-.437 3.789-.437 1.205.22 2.212-.667 3.607-.45-.198-.441-1.004-.217-.802-.67.406-.659 1.809-2.433 2.405-1.557.396.453-.81.898-.596.898 1.398 1.558 2.785-1.115 4.594-.445v-.453c-.604-.217-1.205.232-1.809-.217 1.403-.891 3.212-.891 4.61-1.778.097 0-.042-.05-.217-.132-.174-.093-.383-.194-.383-.306 0-.891.786-.67 1.193-.67 2.603-.67 5.195-1.778 7.597-.67-1.403.449-2.6.887-4.002.67.608.883 2.01-.67 2.204.67a.756.756 0 01.02.306c-.078.484-.71.763-1.225.585.206 1.104 1.403 0 1.205.666 0 .217-.407.876-.604.876-.992.453-2.197-.217-3.196 0-1.403.453-2.805-.217-4.203.67-.198.228 0 .45.213.45-1.008.666-2.205 0-2.999 1.107h-.608c1.402.229 2.6-.217 3.998 0l-.198.229.198.22c-.604.221-.996.892-1.596 1.109-1.205.22-2.402-.438-3.603.449 1.003.22 2.007-.229 2.999.22-.6.438-1.403.222-1.996.438 0 .233 0 .45.198.45 1.402 0 3.002-.217 4.405.22-1.011.67-2.2 1.337-3.208 1.775 0 0-.198-.438-.391-.438-.806 0-1.403-.45-2.204-.666-.992-.217-2 .217-3.003.45.202 0 .608 0 .608.216-.197.438-.801.221-1.204.221-1.399-.887-2.999-.438-4.401-1.104-1.395-.674-2.999-.891-4.393-.236 0 0-1.004 0-.597.236 1.403.434 3.196-.453 4.401.434-1.6 1.553-4.006 1.12-5.408 2.665 2.607-.887 5.195-1.329 7.802-1.329 1 0 2.2-.45 3.192.442-2.192.45-3.99 1.557-6.194 2.224-.198.22-.198.67-.597.89-2.006.667-3.804 1.558-5.4 2.662 1.003.232 2.007-.65 2.998-.65 1.197 0 2.999-1.79 4.196-.675-.674.95-2.1 1.085-2.747 2.084-.112.17-.186.364-.252.585.117-.255.291-.43.492-.585.167-.112.341-.209.516-.306.991-.22 1.793-.453 2.591-1.104.407-.232 1 .217 1.399 0 .604-.453 1.208-.674 1.797-.902.21 0 .21.228.21.449-.21.453-.799.453-1.004.887.597.45 1.201-.434 1.802-.434.999 0 1.793-1.344 2.603-1.573 1.793-.658 3.591-.658 5.385-1.108.604 0 1.204-.437 1.797-.666 2.208-.442 4.203-.659 6.404-1.108 1.007-.22 2.003-.67 2.998 0-2.398 1.108-4.99 1.554-7.593 1.554-.608.22-1.003 1.111-1.809 1.328-2.592.45-4.99.45-7.384 1.573 1.201.65 2.588-.674 3.793.217 0 .217 0 .666-.198.666-.883.272-1.685.38-2.518.527-.48.097-.968.194-1.487.364 1.007-.232 2.2-.67 3.211 0-.407.221-.608.655-.806 1.108 0 .221.4.221.593.221.41-.22.41-.674.802-.89.794-.439 1.608-.439 2.41-.439.193 0 .39.438.39.888.702-.264 1.341-.826 2.015-1.252.492-.294 1.008-.527 1.585-.527 2.204-.232 4.195-.449 6.407-.666-1.204-.217-2.212.217-3.409-.217 2.007-1.123 4.203-1.123 6.392-1.79.41 0 1.007-.22.802.217-.194.9-1.596 0-2.2 1.12.802.453 1.596 0 2.405.22.194 0 .194-.44.396-.44 2.204-.23 4.792-.9 6.6.44-1.808.667-3.8-.44-5.593 0-1.426.485-2.75.958-4.331 1.655l-.442.004c-.337.104-.678.228-1.026.348h-1.403c-1.797 0-3.599 0-5.392.655 0 0 0 .453.197.453-1.995.67-4.195 1.775-6.194 1.995-1.403 0-2.797 1.34-4.401 1.779.992.666 1.801-.438 2.998-.891.194 0 .4 0 .597.22.201.67 0 1.12-.403 1.573-.194.434.205.655.403.876.395-.876 1.402-1.778 2.204-.876.198.217 0 .655 0 .876.798-1.112 1.995-2 3.196-2 .403 0 .403.67 0 .888.992 0 1.806-.666 2.592-1.337.604-.22 1.2.45 1.81 0 1.401-.658 2.8-1.328 4.384-1.541.21 0 .21.213.21.433.592-.22 1.193-.433 1.797-.433.198-.221.597 0 .597-.454 0 .233.805.233.197.667 2.007.22 4.002-.434 5.997-.434-.794-.67-1.794.22-2.39-.67 0-.221 0-.45.194-.45 2.002 0 4.203.229 6.194 0-1-.89-2.402 0-3.587-.22-.213 0-.213-.221-.41-.454a7.812 7.812 0 011.006-.566c2.332-.918 5.366-.82 7.4-.98.24 0 .263.248.24.527-.02.194-.047.403-.047.585-.592 1.995-1.2 3.99-1.995 5.78-1 1.995-2.402 3.773-4.203 5.114-2.402 1.553-4.935 2.727-7.825 3.134l-30.942-.008c0 .612-.011 2.045 0 2.258h121.568v-2.254zm7.404-21.144c.391.232.996.232 1.402.67-.6.217-1.6.887-2.196.217-.198-.438.794 0 .596-.438-.205-.217-.794.221-.794-.217.198-.457.636-.426.992-.232m8.201-16.441c1.387.217 2.983 0 4.385.887.21.217 0 .434-.197.434-.798 0-1.476.19-2.2-.217-.799-.438-1.597-.217-2.398-.666.201-.221.201-.438.41-.438m-4.4-17.344c.197 0 .24.744.6.45.798-.67 1.596 0 2.402.22 0 .221.79.438.193.667-1 .22-2.006.22-2.998 0-.395-.229-1-1.116-.198-1.337M12.191 58.084c-.395-1.108 2.205-1.108 3.406-1.108.197 0 .197.233.395.233-1 1.104-3.196 2.215-3.8.875m10.2 6.45c-.404 1.12-2 .233-2.999-.217.198-.453.806-.67 1-.453.797 0 2.23.027 1.998.67m1.6-1.108c-.403 0-1.204.221-1.204-.217-.198-.453.801-.67 1.204-.236zm0-4.672c0 .229 0 .45-.197.45-1.608-.221-3.003.67-4.599 0 .396-.221.593-.45 1.004-.221v-.446c-.806.217-1.6 0-2.406 0 0 .446-.201.446-.399.667-.395.22-.395-.221-.604-.45 0 .229 0 .45-.202.45-.193-.45-.391.22-.596 0-.198-.221-.395-.221-.198-.45 1.402-.88 2.805-1.329 4.405-1.108.193 0 .193.229.193.438 1.403 0 2.588-.659 3.99 0-.197.229-.39.229-.588.229-.206.224 0 .224.197.441m47.576 19.114c-.407 0-.802.225-.995-.217 0 .217 0 .442-.206.442H68.57c-.21 0-.21-.442-.21-.659.21-.232.605-.449 1.008-.449.6 0 .802.217 1.205.666.39-.217.786-.45 1.197-.217 0 .217-.202.434-.202.434M68.162 50.31v-.438c.604 0 1.398-.67 2.007 0-.609.667-1.205.667-2.007.438m.802 15.782c-.198.221-.395.45-.604 0 0-.437 0-1.107.406-1.324.395 0 .6.887.198 1.324m0 4.227c.197-.891 1.205-1.112 2.196-.891.198 0 .198.22.198.438-.198.453-.678.55-.992.898-.592.659-1.205 2-2.006 1.779-.795-.221.209-1.337.604-2.224m2.805 3.332c0 .22-.264.061-.411.22-.593.67-.992 2.01-1.991 1.337.6-.887 1.205-1.774 1.99-2.228.21 0 .412 0 .412.233zm-.806-11.332c-.391-.228-.926-.813-.391-1.12.39-.216.995 0 1.39 0 1.403-.658 2.801-.658 4.204-.658.197 0 .197.22.39.442 0 .217 0 .45-.193.45-1.205.437-2.402-.45-3.409.22-.589.217-1.185.666-1.991.666m5.594 9.104c-.996 0-2.003.229-2.99 0 .394-.887 1.394-.438 1.797-1.104.588.445 1.402-.22 1.793.445.198.442-.391.442-.6.659m2.2 5.563c0-.22 0-.438.194-.438.213 0 .213-.039.41 0 1.403.217 2.801.217 4.192.887-.19.217-.395.659-.596.659-1.201-.442-2.193-.225-3.193-.659-.205 0-.813 0-1.007-.449m4.606 5.33h-1.2c0 .23 0 .45-.198.45-.806-.22-1.596 0-2.2-.45.604-1.328 1.793-.67 2.99-.67.202 0 .608-.217.798.229 0 .22 0 .442-.19.442m11.789-11.11c-1.201.445-3.003 1.115-3.793-.222-.41-.45.612-.755.79-.666 1.004.445 2.209-.22 3.003.887m-1.6-5.551c.197.437-.597.437-1.201.437-.794 0-1.794.221-2.394-.437 1.205-.45 3.196-1.337 3.595 0m-3.398-4.223c.597.438 1.205.659 1.802.659.193 0 .395.228.395.45-.202.433-.616.317-.794.216-.806-.438-1.798.217-2.402-.666.407-.221.604-.891 1-.659m-4.402 11.11c.597 0 1.194-.166 1.806 0 .798.221 1.79 0 2.398.67.197.222 0 .439-.198.439-1.007-.217-2.003.22-2.998-.217-.41 0-.802 0-1.205-.454-.194-.217 0-.437.197-.437m0 9.553c-.786.22-1.402.45-2.2.22.407-.22.798-.887 1.201-.67.41.229.802 0 1 .45m-1.403-5.548c-.798-.232-1.596.217-2.189 0-.197-.232-.604 0-.604-.45 0-.216 0-.216.198-.452.209-.217.279.472.608.236.593-.453 1.596-.236 2.192.217.198.217 0 .45-.205.45m0-10.007c0 .438-.589 0-.798.438-.19.224-.395 0-.395-.217.205-.221.349-.45.802-.45.194 0 .391.229.391.229m-.988-3.332c.19 0 .19.217.4.438 0 .217 0 .453-.21.453-.395 0-.798-.453-1.19-.236-1.003.236-1.994-.217-2.804.453.81.217 1.801-.217 2.603.217-1.793.887-4.001 1.557-5.799 1.12a2.79 2.79 0 00-.418-.113c.05.086.104.213.22.334-.604.437-1.007.887-1.793.887-.21 0-.21.217-.41.217-.202 0-.202-.217-.202-.438.36-.79 1.042-.876 1.762-1.054-.976-.07-1.987.136-2.75-.72.988-1.12 2.386-1.12 3.591-.667-.197.217-.197.217-.41.434.813-.434 2.006.233 2.409-.67.198-.217-.794-.217-.794-.655 0-.236.593-.453.992-.453.802 0 1.809.453 2.599.453.806.217 1.399 0 2.204 0m-.608-3.114c0-.221-.197-.221-.391-.221 0 .22 0 .438-.202.438-.604 0-1.003-.217-1.596-.438-1.615-.221-3.211.22-4.614-.67.411-1.779 2.007-.221 3.212-.891-2.398-1.104-5.203 1.34-7.202-.438-.193-.229.81-.229 1.205-.45-.395-.449-.76-.216-1.205-.216-.193 0-.193-.233-.395-.233.996-1.108 2-1.778 3.196-2.444.6-.438 2.003-.221 2.805.666-.802.453-2.007-.217-2.607.89 0 .233 0 .671.197.671.616 0 1.205-.22 1.802-.22 1.2.22 1.99 1.107 3.196.67.41-.233.805-.888 1.402-.67.604.22.604 1.107 0 1.336h-.992c.198 1.55 2.19.209 2.797 1.55.19.449-.406.449-.608.67m-7.391-17.123c.197-.442.612-.333 1-.221.793.22 1.595-.438 2.196.22-.798.9-3.402 1.787-3.196 0m9.39-5.55c1-.442 2.805-.67 3.002.449.194.22-.77.317-1.193.438-1.596.449-3.2.89-4.807 0 1-.217 2.006-.667 3.211-.667zm3.196 17.11c0-.22.213-.22.407-.437 0 .217.197.182.395.217 1.205.22 2.41.22 3.397.887-.79.22-.592.453-.987 1.123-1.008-.67-2.608-.232-3.406-1.34 0-.22.407-.22.6-.22-.193 0-.406 0-.406-.23m-.194-9.553c0-.22.407-.22.6-.22.198 0 1.6 0 .993.658-.388.229-1.186 0-1.593-.438m-2.394-5.113c.988-.438 2.03-.752 2.995-.217.395.217.798-.22 1.205.217-1.205.67-2.801.67-4.2 0m-.608 4.006c.41.216 1.402.216 1.205.658-.597 1.337-2.596 0-3.797-.442.795-.433 1.883-.62 2.592-.216m-2.39-4.223c0-.22.391-.22.593-.22v.437c-.202 0-.593 0-.593-.217m-.202 7.996c-1.003.67-2.204.887-3.405.45.605-.218 1.201-.218 1.612-.892.592.442 1.189 0 1.793.442m.996 2.444c-.201-.217 0-.438.205-.438.19 0 .233-.135.4 0 .793.659 1.99-.232 2.8.659 0 .229 0 .453-.213.453-.988-.453-2.196.213-3.192-.674m.604 6c-.209-.437.225-1.107 1.403-1.107.197 0 .197.217.39.217l-.193.22c.794.233 1.794 0 2.588.903.213.217 0 .438-.194.438-1.406 0-3.405.666-3.994-.67m3.394 1.786c-.395 0-1.197.209-1.6-.45 1.801-.449 3.599-.449 5.392-.449.609 0 1.403 0 2.007.45-1.793 1.557-3.8.449-5.8.449m7.396-4.451c0 .217 0 .45-.193.45-2.007 0-4.204.437-6.195-.671.589-.67 1.596.22 2.197-.67.39-.45 1.092.197 1.79 0 .805-.213 2.01-.213 2.401.89M91.956 36.98c-.206 0-.4 0-.4-.229a1.68 1.68 0 011.996 0c-.198.45-.597.229-1.004.229 1.612.89 3.406-.666 4.808.22-1.402.442-2.816.54-4.4.892-1 .217-1.4-.67-2.205-.891.41-.667.806.22 1.205-.221m-1.399 1.778c0 .225 0 .442-.197.442-1.205-.67-2.41.666-3.6-.217.799-.674 1.771-.674 2.802-.674.395 0 .798 0 .995.449m-7.802-3.115c2.41.438 4.602-.22 6.807.438-.6 1.12-1.612 0-2.406.453-.395.217-1 .667-1.403.446-.999-.666-2.2-.446-3.195-.899-.194-.217 0-.438.197-.438m-2.99-3.552c.801.217 1.595.438 2.2.887-.21.22-.21.442-.407.442-.992-.221-2.196.228-2.998-.67.39-.221.592-.833 1.204-.66m-6.198-6c1.995 0 4.002-.67 5.796.659.197.232 0 .45-.198.45-1.003 0-2.204-.888-3.212-.218-1.189.655-2.785 0-4.183 0-.202 0-.202-.453-.202-.67.593-.67 1.387-.22 2-.22m0 7.557c.394 0 .987 0 .805.438-.21 1.336-2.007.67-2.805.22.593-.22 1.205-.658 2-.658m-1.004 12.668c.209.22.604.22.802.655 0 .232 0 .453-.198.453-.604.22-1.422.6-1.6 0-.21-.67.593-1.108.996-1.108m-.996 4.66l-.21.221h-.394c-.198-.22 0-.434.197-.434.198 0 .407 0 .407.213m.395-33.563c.198 0 .469-.059.6.232.21.438 1.004 0 1.198.438-.593.217-1.6.67-2.193.217.395-.217 0-.655.395-.887m-1.596.449c.206.22.4.438 0 .659-.399 0-1 .232-1-.221-.205-.438.679-.79 1-.438m.992 1.329c.21 0 .41-.221.604-.438.198 0 .403.217.198.438-.802.666-2.193.89-3.196.453.596-.891 1.577-.453 2.394-.453M69.56 33.198c.609 0 1.205 0 1.6.45-.588.437-1.386 1.107-2.196.875-.198 0-.198-.217-.198-.438l.395-.438c-.197 0-.801.217-.801-.228.209-.442.801-.221 1.2-.221m.609 7.337c.197.22 0 .438-.202.438H68.36c-.198 0-.198-.217-.396-.217.396-.67 1.596-.67 2.205-.22m-2.801-24.012c.197 0 .197.217.197.454-.592.666-1.6 1.32-2.401.666.41-.666.999-.45 1.398-.903.198-.217.604.237.806-.217m-2.6 0h.396c.213 0 .801-.437.801 0-.197.454-.801 1.12-1.394.454 0-.237 0-.454.197-.454m-6.593 1.337c1.801-.217 3.397-.217 4.99.438-.19.67-.787.453-1.197.453-.6.217-1.19.438-1.6.217-.597-.45-1.004-.67-1.596-.67 0 .453-.206.67-.4.67-1.402.22-2.796.22-3.997-.45 1.2-.437 2.595-.51 3.8-.658m.391 17.781c0 .221-.193.438-.193.438-.593-.438-1.798-.217-1.6-1.104 0-.453.596-.67 1.2-.67.593 0 .799.45.992.67 0 .445-.592.217-.79.217l.391.45m-2.189-9.786c0-.217.593-.438.593 0 0 .232-.593.232-.593 0M57.973 37.2c.202.22 0 .441-.193.441-.605 0-1.007 0-1.616-.441l-.39.441c-.404-.22-.795-.662-.795-1.108 0-.453.612-.329.992-.22.802.22 1.398.437 2.002.887m-2.603 2.886c0-.221 0-.438.206-.438.197 0 .112.217.395.217.193 0 .193.22.406.22-.406.45-.604.45-1.007 0m-.197 22.233c-.194 0-.194-.228-.194-.45 0-.216.194-.216.194-.437.403.22.403.659 0 .887m-1-32.893c-.205.217-.403.654-.596.654-.802 0-1.403.67-2.003.891-.202 0-.202-.437-.597-.437-1.205 0-2.607.217-3.792-.67.991-.888 2.196 0 3.393-.438.996-.45 2.394-.667 3.595 0M43.28 59.839c-1.089.562-2.329.283-3.158-.453.396-.45 1 0 1.403.22.794.175 1.329-.627 1.921-.519 1.058-.457 2.139-.666 3.332-1.003.604 0 1 .453 1.398.899-1.696.186-3.242 1.01-4.896.856m1.297 2.25c-1.197 1.12-2.8.884-3.8 0 .41-.437 1 0 1.402.23 1 .22 1.6-1.12 2.398-.23m-8.394-2.665c-.396 0-1.19.229-1.19-.22.182-1.12 1.585-.667 2.387-.891 1.204-.438 2.165-.229 3.599-.229.209 0 .209.229.406.229-1.6.89-3.409.441-5.202 1.111m11.002-8.228c-.213 0-.605-.22-.605-.434 0-.453.392-.89.802-.674.395.45.794 1.108 1.19 1.778 0 .217 0 .454-.202.454-.399 0-.593-.237-.79-.454v-.437c0-.233-.198-.233-.395-.233m-6.408-21.554c1.6-.667 3.394-.217 5.005.437-.213.891-1.007.67-1.809.67-.992 0-1.794.221-2.785-.216.395-.454.991-.221 1.6-.454-.609-.217-1.403.233-2.01-.437m6.194 4.005c.41.217 0 .876.213 1.108.395.221 1.139-.12 1.386.438.198.45-.395.45-.6.67-.786-.442-1.991.67-2.402 0-.589-.887.41-.22.806-.67-1.798-.67-3.587-.217-5.396-.67 2.002-.217 4.001-.876 5.993-.876m2.8 6.001c0 .217-.24.34-.39.217-.613-.438-1.411-.666-1.802-1.337 0-.22 0-.437.197-.437.794 0 1.802.666 1.995 1.557m-7.995 1.995c.402-.887 1.603-.438 2.607 0-.41.45-.802.67-1.004 1.108-.592.22-1.797-.659-1.603-1.108m3.203 5.56c-.596.44-.968.89-1.6.89h-.592c-.213 0-.411-.217-.213-.45.604-.673 1.809-1.107 2.405-.44m-.403-4.452c.798-.659 2.003-.438 3.003 0-1 .903-2.205.45-3.003 0m3.994 13.57c-.6.438-1.189.888-1.99.888-1.206 0-2.197.875-3.402.437.6-1.108 1.801-.437 2.603-1.108.593-.67 1.798-.45 2.79-.217m-.202 6.652c0 .236.81.236.201.674-.395.217-.991-.267-.991.217v.453c-.802.217-2.01.667-2.6-.217 1-1.127 2.205-.89 3.39-1.127m2.406 5.784c-.593 1.108-1.798-.217-2.406.67-.399-.67-1.185.22-1.592-.438 1-.899 2.8-.45 3.998-.232m-.593-18.448c-.213 0-.604.229-.802-.22 0-.218 0-.439.198-.439.193 0 .251-.154.39 0 .214.221.807.438.214.659m1.798.887c-.609.233-1.004.45-1.616 0 .612-.434 1.007-.434 1.616 0M50.183 62.54c.593.217 1.751.205 1.6 1.108-.21 1.12-1.6.67-2.402 0 .198-.438.391-1.108.802-1.108m2.197 3.115c.193.22.395.887 0 .887-.806.22-2.015 0-2.015-.666 0-.891 1.503-.795 2.015-.221m-2.801 4.21c.786 0 1.995-.216 2.8 0 .396.233.593 1.12.194 1.558-1.2-1.557-3.18-.659-4.993-.659-.395 0-.608-.228-.802-.445.802-.67 1.991-.453 2.8-.453m3.197 1.786c0 .224.197.67-.202.89-.193 0-.399-.22-.79-.22-.21 0-.21-.229-.41-.446.41-.224 1.007-.224 1.402-.224m-4.599-24.449c.802-.232 1.833-1.515 2.402-.887.198.22.794-.229.996 0 .407.655 1 .438 1.592.887.217.221 0 .442-.194.442-1.6 0-3.2.232-4.796-.442m3.196-6.667c-.395 0-.197-.887-.596-1.108.596-.445 1.267-.523 1.797-.228.4.228 1.004.228 1.395.666-.585 1.108-1.794.22-2.596.67m.202-19.788c.209 0 .209.229.407.229-.407.441-.806.441-1.004 0 0-.229.395-.229.597-.229m-4.192-1.778c.589 0 .984.17 1.596 0 .794-.217 1.387 0 2 .22-.613.23-.795.667-1.206.892-.794.445-1.801-.225-2.587-.663 0-.228 0-.45.197-.45m-1.6.45h.798c.198 0 .198.225.198.438-.403.453-1.209.709-1.209 0 0-.213.213-.438.213-.438m-.802 4.444c.802-.217 1.6 0 2.402.22-.604.45-1.205 0-1.813.45 1.011 0 2.01-.67 2.801.438-1.398.67-2.995.67-4.59.228-.601 0-.992-.228-1.6.221-.202-.666-.403-.887-.992-1.12 1.189-.654 2.61-.108 3.792-.437m-1.801 4.66a9.672 9.672 0 014.997 0c0-.217 0-.438.194-.438.81 0 1.995-.67 2.406.438.201.67-.593.453-.806.453-3.192.45-6.388.45-9.584.217.802-1.108 1.793-.434 2.793-.67m-.391 17.344c-.411.449-.81.449-1.403.449-.608 0-1.204-.229-1.6-.45.992-.449 1.992-.449 3.003 0m-.411 6.218c-1.19.67-2.998.67-4.4.237.41-.891.98-.674 1.6-.674 1.003 0 2.006-.45 2.8.437m-5.392-16.22v.45c-1.008.437-2.205.887-3.394.22.996-.67 2.196-.22 3.394-.67m-.198 6.23l-.21.22c1.004.887 2.201-.67 3 .217 0 .221-.504.027-.594.221-.81 1.778-3.006 1.12-4.396.666-.605-.217-1.403-.217-2.003-.666 1.205-.659 2.8-1.325 4.203-.659m-6.404 1.995c.605-.216.973 0 1.596 0 1.008 0 1.81-.433 2.801-.216.213.216.395.658.802.887-.407.658-1.197 0-1.793.22v.667c-1.403.89-2.608-.446-3.805-1.116.198-.22.198-.442.4-.442m-.4 6.001c.4-.217.609.221.806.45 0 .224 0 .658-.197.658-.609 0-1.201.233-1.81-.22.407-.214.802-.667 1.201-.888m-1.2 5.563c3.8-.232 7.592-.453 11.397-.67-1.004-.67-2.205 0-3.196-.22 0 0-.802-.45-.198-.667 2.79-.891 5.807-.341 8.782-.891 1.209-.229 2.402.22 2.801 1.329.399.887-.79.449-.988.449-2.007.217-4.203-.67-5.997.438 1.19-.221 2.394-.221 3.595.232 0 0 .802.438.198.438-2.39.45-4.598.887-6.791.887-1.007.233-2.204-.217-3.212-.438-2.591-.217-5.396-.217-7.992-.217.407-.67 1.205-.67 1.6-.67m5.006 2.224c-.411.209-.605.438-1.008.438-.197 1.782-2.188.89-3.196 1.782-.604.217-.604-.67-1-.891.605-.45 1.4-.221 2.205-.45.391 0 .198-.67.198-.67-1.403-.438-2.793.453-4.196 0-.205-.21-.798-.659-.403-.659 3.003-.666 5.997-.887 8.996 0v.45c-.605 0-1.201-.229-1.596 0M25.587 74.54c-.399 0-.399-.67-.6-1.108 0-.67.883-.938 1.193-.67.806.67 1.41.216 2.208.216.802.233 1.794-.658 2.6-.887.399 0 .794.229 1.204.45.392 0 .992-.45 1.399 0-2.41 1.999-5.203 1.557-8.004 1.999m7.4 1.34c-.206 0-.206.434-.206.666-.802.655-1.99.438-2.6 0-.79-.45-1.398.655-2.192-.232 2.394-.887 4.998-1.108 7.396-1.995 1.193-.45 2.591-.67 3.994 0-2 1.108-4.204 1.56-6.392 1.56m6.392-5.117c-1.403.659-3.003.442-4.599.442-2.394-.442-4.397.67-6.79 1.337-.198 0-.4-.45-.4-.45.605-.887 1.6-.67 2.394-1.108.198-.22-.794-.22-.794-.22.992-.9 2.197-.23 3.196-.446l-.194-.453c0-.438.59-.438.795-.659.995-.217 2.006.22 2.99-.217.4-.45.81-1.12 1.403-1.344h1.204l.194.445c-.391.667-1 .667-1.596 1.116.198 0 .198.22.198.442.399 0 .794 0 1.204-.442.593-.217.795.442 1.201.891.198.22-.209.438-.406.666m1.6-3.331c-.202-.453-.798-.229-.996-.229-1.81-.662-3.607.229-5.203.667-.596.22-1.793.67-1.999 0-.197-.891 1.008-.438 1.604-1.108.395-.221 1.197.217 1.592 0 2-.887 4.006-.887 6.001-.45 1.995.229 4.2.229 5.993 1.558-1.193.453-2.189.453-3.394.453-.604 0-.798-.891-1.398-1.12-.802 0-1.596-.224-2.2.229m11.993 14.442c-.399.89-1.19.22-1.797.442-.597.228-1.794.801-1.794 0 0-.221.198-.67.391-.67.593 0 1.004-.218 1.403-.438.608 0 1.205-.442 1.797 0zm.194-5.56c-.194.45-.992.671-1.185.233 0-.45.193-.902.399-1.34-2.197.22-4.204 0-6.4.438-1.205.453-2.638.852-3.405 0-.198-.217-.798-.438-.198-.655 2.007-.67 4.595 1.108 5.8-1.12 1.595.45 3.195-.437 4.598.45.608.22.608 1.325.39 1.995m.218-32.898c.387-.217 1.12.237 1.185.454.213.658-.6 0-.991.216 0-.216-.802-.433-.194-.67m.585 15.12l.205.217c1 .67 1.197 2.228.202 2.228-.407 0-.992-1.558-.407-2.445m.813 4.672c0-.453.392-.453.795 0-.403.217-.795.438-.795 0m.992 2.882c-.403-.437-.794-1.107-.794-1.774 0-.217.391-.217.597-.217.197 0 .112.24.197.434.198.45.391 1.12 0 1.557m.802-19.338c-.41.217-1.205-.887-.41-1.337 0 0 .32.023.41.229.198.441.395 1.108 0 1.108m.6 25.122c-.205 0-.205-.224-.205-.453 0-.217.205-.217.205-.438.392.221.392.667 0 .891m1.391-29.345c-.391.221-.593-.217-.786-.438 0-.232.395-.232.593-.232.193 0 .193.232.399.232 0 .221 0 .438-.206.438m0-2.882c0-.22-.593-.22-.193-.666.399-.454.991-.225.991.217 0 .228-.399.666-.798.449m2.212 26.664c-.616-1.545-.213-3.34-.616-5.113 0-.438.616-.217.798-.217.407 0 .81.45.81.67-.198 1.557.198 3.552-.992 4.66m-.802-10.66c.186-.233.186-.671.59-.454.212 0 .352.294.212.453-.213.217-.213.438-.41.438-.206 0-.206-.22-.392-.438m-.612-1.778c-.186-.232 0-.45.21-.45.402 0 .991-.22 1.386.218 0 0 .213-.217.407-.217.205.217.403.45.6.67-.6.666-1.99.438-2.603-.22m.612-5.78c0-.45.876-.803 1.197-.45.194.232 0 .67-.213.67h1.205c.213 0 1.402.217.81.445-.597.442-1.802-.228-2.41.442 0-.442-.589 0-.589-.442 0-.197 0-.387.12-.433-.073-.043-.12-.113-.12-.233m1.596-13.117c0 .445-1.007.666-1.596.445.186-.228.392-.666.802-.666.395 0 .992-.232.794.221m-.794-5.334h.395l-.213.22zm.992 16.003c.198-.229.608-.229.806-.229 0 .217.716.43.275.64a.507.507 0 01.314.48c0 .434-.59.666-1 .666-.395 0-.593-.887 0-1.116a.856.856 0 01.248-.085c-.24-.081-.52-.22-.643-.356m-.403-2.894h-.407c0-.22-.798-.438-.182-.659-.41-.449-.41-1.12 0-1.336.395 0 .794-.22 1.19.217.197.232.801.453.801.67-.39.67-1.402-.217-1.99.45.394 0 .991-.233 1.386.22 0 .217 0 .438-.197.438zm.205 4.002c0 .217 0 .45-.205.45-.407 0-1 .22-1.205-.233 0-.434.616-.434 1.011-.434.194 0 .194.217.4.217m1.793-4.223c-.391.221-.79.442-1.2 0 .41-.438.809-.438 1.2 0m-.391 1.778c-.206-.437-1.007-.654-.81-1.336.213-.221.41 0 .41.228 0-.228.194-.228.4-.228.391.228.592.682.391 1.115 0 0-.201.221-.391.221m-2.197-4.88c-.213 0-.213-.23-.213-.446.608-.891 1.813-.454 2.6-.454.201 0 .201.229.402.229-.798.891-1.797.67-2.789.67m1.387-8.894c-.395-.221-.798-1.108-.197-1.558.197 0 .472.024 1.007.217.592.233 1 0 1.197.67.193.45-.198.45-.41.67-.597.218-1.186.218-1.597 0m.213 7.11c0 .228.787.449.198.666-.608 0-1.209-.217-1.616-.438.407-.45 1.008-.229 1.418-.229m-2.216 7.56h.403c0 .217.833.667.213.667-.213 0-.616.22-.802-.221 0-.229 0-.446.186-.446m1.806 6.23c0-.454.801-.667 1.007-.233.19.45 0 1.337-.4 1.337-.41.22-.607-.667-.607-1.104m1.197 25.335c-.396-1.557-.9-3.665.201-4.889.201-.224.608 0 .608.217-.213 1.558 0 3.336-.81 4.672m.81-8.894c-.213-.225-.407-.225-.407-.438.407-1.12-.402-2.448.798-3.115.403 1.104.206 2.445-.39 3.553m.991-5.114c-.198.217-.395.453-.6.67-.194 0-.392 0-.392-.217 0-.67 0-1.557.597-1.557a.545.545 0 01.166-.039l-.166-.182.197-.232v.414c.458-.004.655.647.198 1.143m-6-40.901c.212 0 .212.229.212.45h1.6c0-.221 0-.45.182-.45.213 0 .407.45.407.45.6-.45 1.402 0 1.798.437-1.197.903-2.6 0-3.8 0-.992 0-2.19.233-3.2-.438 1.402-1.108 3.013-1.108 4.613-1.108 1.798 0 3.394-.449 5.187 0-2.204 1.33-4.598 0-7 .659m9.197 61.363c-1.402-.674 0-2.68-.198-4.238.198 0 .198-.887.605-.217 0 .217 0 .217-.21.45 0 .216.063.278.21.437.197.221.592.221.592.45 0 .666.206.887 0 1.328-.197.667-.801 2.007-.999 1.79" fill="#007b5e"/></svg>