<svg xmlns="http://www.w3.org/2000/svg" height="800" width="1200" viewBox="-44.99868 -20.323975 389.98856 121.94385"><path fill="#fff" d="M1.0593 40.6465c0-21.8601 17.7269-39.5906 39.5904-39.5906 21.8602 0 39.5905 17.7305 39.5905 39.5906 0 21.8667-17.7303 39.5902-39.5904 39.5902-21.8636 0-39.5905-17.7236-39.5905-39.5902"/><path fill="#231f20" d="M40.6497 2.1187c-21.2513 0-38.5309 17.2831-38.5309 38.5278 0 21.2446 17.2796 38.5274 38.531 38.5274 21.2378 0 38.5241-17.2828 38.5241-38.5274 0-21.2447-17.2862-38.5278-38.5242-38.5278zm0 79.1772C18.2315 81.2959 0 63.0646 0 40.6465 0 18.2379 18.2315 0 40.6497 0c22.415 0 40.643 18.2379 40.643 40.6465 0 22.418-18.228 40.6494-40.643 40.6494"/><path fill="#231f20" d="M31.0009 35.5848c-1.9136.0203-4.9773.3264-6.521.3701-1.5503.047-2.724-1.3823-2.2263-2.8452.5077-1.4631 2.2129-6.3396 7.9302-11.761 6.289-5.9658 12.1777-7.7314 13.1395-7.9837.9754-.2558 2.3542.0674 3.3396.8474 7.715 6.1678 6.5513 12.1206 11.7574 17.0444 3.6153 3.4166 1.6848 8.2832-1.2646 10.486-4.3551 3.2622-18.4532 8.882-22.4252 9.6721-2.9931.5919-5.0581.0776-5.5693-1.564-.3498-1.16.8946-5.3168 1.214-7.9502.3129-2.512.5616-5.8955.6257-6.316"/><path fill="#ea2227" fill-rule="evenodd" d="M45.1832 42.022c1.241-.8274 2.2734-1.1436 2.2599-1.722-.0135-.582-1.2377-2.899-4.1602-2.0918-2.9223.8037-5.0648 2.1591-6.494 4.0794 0 0 .8643-1.7958 2.0179-2.9125 1.1534-1.1097 1.5268-1.342 1.5268-1.342s-2.0515-.9415-3.7128.2323c-1.6546 1.1669-2.6064 2.4044-3.0301 4.9369-.4204 2.5256.2051 3.5513.8037 3.6928.5952.1377 2.0784-.4742 2.8486-.8578.7734-.3731 6.706-3.1815 7.9402-4.0154"/><path fill="#ffcc08" fill-rule="evenodd" d="M32.252 35.5007s-.0571 2.8823-.6591 6.3058c-.5986 3.4337-1.9473 7.567-.871 8.26 1.8563 1.197 6.632-.4809 12.857-3.1313 6.2386-2.6534 11.6532-4.6341 13.5533-6.9919 1.463-1.8126 2.1658-3.7227 1.4832-5.956-.4978-1.6244-3.1984-3.6186-3.8374-4.6949-.639-1.0726-4.8057-9.662-6.9313-11.7202-2.122-2.048-2.7509-3.2554-5.2195-2.4146-2.455.844-8.485 3.7664-12.5342 8.2698-4.0458 4.4929-5.4516 7.1735-6.568 10.2742-.1884.5245.6825 1.342 2.4281 1.0795 1.7522-.2657 10.1632-.6592 14.8246.1412 4.6544.8139 12.0298 1.3991 13.8658.9383 1.8162-.464 2.6335-.8338 1.5067.2792-1.7185 1.6983-4.2105 4.0761-13.4759 8.6534-1.9673.9751-8.8381 4.4794-10.1666 3.2921-.9955-.8877-.1378-3.0737.4843-6.9143.4742-2.926.7299-5.687.7299-5.687l-1.4697.0167"/><path fill="#231f20" fill-rule="evenodd" d="M41.8807 24.016c.2086-.4037 1.113-1.7119 1.9236-1.907.8239-.1885 1.5638.269.8408.8576-.7298.5852-1.3318.6693-1.7657.9449-.4338.2791-1.2107.5113-.9987.1044"/><path fill="#ffcc08" fill-rule="evenodd" d="M47.4061 59.3787c0 .8138-.8744 2.5292-4.0491 4.5973-1.0492.6693-3.5313.7366-6.0032.7366l-.427-.0604c-.7634-.4171-1.1435-.9754-1.1435-1.6783 0-.3497.1312-.8811.3801-1.5774.2488-.7127.3767-1.2408.3767-1.5975l-.1279-.2857-.1244-.306c0-.1883.6121-.5482 1.8227-1.0629 1.2377-.5179 2.065-.7836 2.4921-.7836 1.2142 0 2.6033.2053 4.1804.6122 1.7454.4407 2.6231.9114 2.6231 1.4057"/><path fill="#fff" d="M42.3682 60.7745c-.4875-.3633-1.0056-.4608-2.0817-.6355-.306-.0674-.7769 0-.824 0 .084 0-.0404.0335-.3902.104-.1378.4641-.205.7233-.205.7702 0 .602.4001.9012 1.1837.9012.397 0 .8475-.0975 1.352-.289.5112-.1984.844-.6693.9653-.851"/><path fill="#ffcc08" fill-rule="evenodd" d="M33.7621 61.7597c0 .4306-.1546 1.3555-.4573 2.7746-.6524.1245-1.2848.0943-1.9103.2155-.75.1379-1.4193.2049-1.9842.2049-1.1536 0-1.8531-.2825-2.1121-.8372-.084-.5215-.1514-2.092-.232-2.6234-.2355-.558-1.6849-.4707-2.7107-.0572-.5145.2187-.481.7836-1.1536 1.517-.649.7396-1.362 1.5939-2.233 1.5939-1.806 0-2.6703.1514-3.0672-.1547.0302-.4171-.0234-1.873.397-2.788.3934-.8608.5918-1.5335.5918-2.0143l-.1278-.5885-.084-.5922c0-.8506.9988-1.2779 3.0065-1.2779 1.12 0 1.88.1245 2.2768.3633.2255.1648.37.4575.4137.8778.0604.4874-.131 1.0392.0942 1.2543l.7196-.2992c.36-.2995.8575-.7734 1.8395-.898 1.0126-.1244 2.2433-.4945 2.7848-.4945 1.1233 0 2.0952.6591 3.1343.8578.508.7061.814 2.0885.814 2.966m30.4932-6.5445c-.3667.4003-1.48 1.3117-3.3329 2.7174-1.695 1.3084-2.5997 2.0717-2.7107 2.3105.5382.464 1.3959.955 2.5795 1.4595 1.0426.4036 2.0986.8175 3.1647 1.2378-.0202.2858-.6726.5886-1.9405.891-1.1267.2792-2.0582.4237-2.788.4372-.4775-.1915-1.4091-.4237-2.7915-.7029-1.0122-.2118-2.0278-.427-3.0435-.6253-.417.0234-.7667.2152-1.0492.5682-.4238.5685-.6793.8845-.7668.9518-.397.3297-.9686.4844-1.732.4575h-.508c-.3093-.3465-.464-.602-.464-.7836 0-.175.0539-.4408.1715-.7971.1379-.3666.2085-.6392.2085-.8172 0-.1918-.0706-.4742-.2085-.8542-.1446-.4004-.2119-.6897-.2119-.8779 0-.3632.1077-.7232.333-1.0628.7029-.1649 1.3855-.8138 2.0348-1.9472a613.7833 613.7833 0 011.5234-2.9999c.5314-1.0693 1.0257-1.6277 1.473-1.6746.286-.0171.6961-.0506 1.2275-.0976l.676-.424c.2825-.2657.639-.3967 1.056-.3967h2.0315l.1277.1783c-.148.2453-.9452 1.3016-2.418 3.1578-1.0359 1.3285-1.5607 2.3811-1.5607 3.1713l.2153.4204c.1447-.0739 1.2679-.7967 3.38-2.169 1.4091-.9113 2.6635-1.574 3.7598-1.9944.676.0607 1.1973.1514 1.564.2656"/><path d="M103.7278 19.0823h10.7015l8.9895 26.3566.1143-.1146c-.4406-5.0512-1.2714-10.042-1.2714-15.0968V19.0823h10.8092v43.774h-10.8092l-8.384-25.2537-.111.118c.2791 4.1197.7734 8.1823.7734 12.3087v12.827h-10.8123v-43.774m50.571 33.4963c4.2543 0 4.4225-8.8784 4.4225-11.6093 0-2.7308-.1682-11.6128-4.4225-11.6128-4.241 0-4.4024 8.882-4.4024 11.6128 0 2.7309.1615 11.6093 4.4024 11.6093zm0-34.253c11.4278 0 15.8905 11.9623 15.8905 22.6437 0 10.6844-4.4627 22.647-15.8905 22.647-11.411 0-15.8773-11.9626-15.8773-22.647 0-10.6814 4.4663-22.6437 15.8773-22.6437m50.6381.7567l-8.9861 21.1336 10.032 22.6405h-12.077l-7.0019-20.088h.054-.1113v20.088h-11.2493V19.0823h11.2493v18.6382h.0573l6.178-18.6382h11.855m31.038 28.852l-1.2175-10.16c-.3329-2.7242-.5516-5.5122-.8308-8.2362h-.1042c-.3262 2.724-.6154 5.512-1.0492 8.2363l-1.5436 10.1599zm2.1489 14.922l-.8239-5.6331h-7.557l-.9415 5.6332h-11.5858l9.9885-43.7741h13.7312l8.825 43.774h-11.6366m15.3358.0001h11.2462V19.0823h-11.2462zm28.8824-23.5082c2.9762 0 4.5771-2.7309 4.5771-5.576 0-3.8305-2.203-5.4549-5.2901-5.29v10.7987l.713.0673zM287.8 62.8564l-6.2284-18.2314-.111.1143c.0573 2.1522.1683 4.3047.1683 6.4438v11.6733h-11.2496V19.0823h10.8594c9.7632 0 16.8188 3.0166 16.8188 14.5756 0 4.8124-1.981 9.1105-6.4503 10.9671l8.384 18.2314H287.8"/></svg>