<svg xmlns="http://www.w3.org/2000/svg" height="800" width="1200" viewBox="-9.92187 -2.724425 85.98954 16.34655"><path d="M39.0092 9.9046l.3987-1.139c.0694-.195.2563-.3072.419-.2505.1186.0417.1915.1528.1961.2905.003.0318.0081.0735.033.1123.3553.6325 1.1707 1.055 2.1516.986.8449-.0595 1.1776-.607 1.1313-1.2661-.0173-.2477-.184-.4988-.2453-.5833-.1048-.136-1.8773-2.2656-1.8773-2.2656-.3953-.5336-.654-1.18-.7037-1.8889-.1395-1.9924 1.3385-3.7163 3.7158-3.8824 1.4948-.1077 2.67.287 3.5595.9722l-.3935 1.1209c-.0683.195-.2558.3073-.4178.2506-.1186-.0417-.1915-.1528-.1962-.29-.0029-.0324-.0086-.074-.033-.1128-.3605-.6261-1.0399-1.0335-2.015-.9647-.8454.059-1.317.6534-1.2696 1.342.0098.1349.0434.2616.0914.3808.1013.243.228.474.3831.6811l.9826 1.1777.452.5491c.3964.5324.8744 1.1644.9242 1.8744.1389 1.9913-1.3391 3.7147-3.7158 3.8813-1.4948.1077-2.6811-.2899-3.5711-.9756m18.3579 0l.3987-1.139c.0683-.195.2558-.3072.419-.2505.118.0417.191.1528.1955.2905.003.0318.0081.0735.033.1123.3553.6325 1.1707 1.055 2.1516.986.845-.0595 1.1777-.607 1.132-1.2661-.0174-.2477-.184-.4988-.2454-.5833-.1048-.136-1.8779-2.2656-1.8779-2.2656-.3952-.5336-.654-1.18-.7037-1.8889-.1394-1.9924 1.3385-3.7163 3.7158-3.8824 1.4942-.1077 2.6695.287 3.5601.9722l-.394 1.1209c-.0683.195-.2553.3073-.4185.2506-.1186-.0417-.1915-.1528-.1961-.29-.0023-.0324-.0081-.074-.0324-.1128-.3606-.6261-1.04-1.0335-2.0156-.9647-.845.059-1.3166.6534-1.2685 1.342.0092.1349.0428.2616.0903.3808.1018.243.2285.474.383.6811l.9832 1.1777.4526.5491c.3952.5324.8744 1.1644.923 1.8744.14 1.9913-1.338 3.7147-3.7152 3.8813-1.4948.1077-2.6805-.2899-3.5705-.9756m-4.7083-8.4912l-1.9994 4.6122c-.1742.405-.5034 1.1874-.522 1.7314 0 .427.265.731.6117.823.103.0242.2332.0595.3443.0595a1.375 1.375 0 001.2616-.8275L55.5679.3613l3.6909.0006a.3192.3192 0 01.1377.0249c.1679.0712.2408.2621.1742.4305-.044.1106-.1308.1707-.283.1893-.2754.0434-.3888.1695-.4913.4108L56.9706 5.639c-.953 2.4542-3.346 4.184-6.137 4.184-.923 0-1.7928-.2124-2.578-.5892-.742-.3819-1.2558-1.1544-1.2558-2.0456.019-.9144.2297-1.8015.5954-2.5856l1.449-3.3565a.1554.1554 0 00.0117-.055c.0028-.1186-.0892-.18-.147-.2054-.1343-.052-.2194-.1632-.2194-.2951 0-.1817.1765-.3287.3941-.3287h4.0324a.3166.3166 0 01.1371.0249c.1678.0712.2408.2621.1742.4305-.044.1106-.1308.1707-.283.1893-.2754.0434-.383.166-.4855.4068m-20.197 3.3008h1.9415l-.5289-2.2887zM0 9.4312L3.578 1.113a.199.199 0 00.0122-.055c.0023-.1191-.0891-.1805-.147-.206C3.309.8 3.2227.689 3.2227.5563c0-.1811.1771-.328.3953-.328h3.8929l2.2285.0069c.6782 0 1.2778.3993 1.5278.9855.1429.3564.2176.7419.2176 1.1504 0 .6424-.198 1.239-.533 1.7332-.7182 1.0642-1.8952 1.702-3.166 1.702H5.0953L3.905 8.6024c-.0058.0156-.0156.0359-.0156.055 0 .0665.0475.1244.1042.1498.1354.0516.2204.1632.2204.2946 0 .1823-.1765.3293-.3946.3293zm5.5786-4.7117l1.5092-3.5063s.2408-.0064.3218.0063c.1655.026.2917.0648.4224.1412.6042.3553.6505 1.364.103 2.2535-.4149.6753-1.0179 1.0966-1.7673 1.1018zm9.2342.4727l-1.401 3.254 3.2783.0024c.261 0 .4387-.0897.5862-.3258.0776-.1337.2257-.2072.3623-.2072.1823 0 .3293.147.3293.3287a.3257.3257 0 01-.0307.1365l-.4578 1.0521H9.306l3.549-8.2279c.004-.0167.0116-.1192.0098-.1377-.0098-.1302-.1597-.199-.217-.2245-.1348-.0521-.2199-.1632-.2199-.2957 0-.1812.151-.3206.4045-.3206h7.4438l-.5608 1.2991c-.0856.1997-.2905.3039-.4572.2321-.1209-.0527-.1892-.1748-.1846-.3194-.0005-.0625-.0202-.1713-.1307-.2159-.0168-.007-.0475-.0092-.0649-.0104h-2.3448l-1.3218 3.0676 1.971-.0023c.2229-.0156.3513-.0382.485-.2523.0764-.133.2251-.2071.3623-.2071.1811 0 .2968.147.2968.3286a.3257.3257 0 01-.0306.1366l-.5342 1.2216c-.0856.2008-.291.3044-.4577.2333-.1215-.0521-.1574-.1748-.1522-.3189-.0006-.0625-.0208-.1719-.1308-.2164a.2016.2016 0 00-.0451-.0087zM35.3292 9.429c-.2181 0-.3912-.1453-.3912-.327 0-.132.0851-.243.2194-.2946.0573-.026.1527-.088.147-.2065a.1645.1645 0 00-.007-.0458l-.636-2.7227H31.772l-1.6718 2.7083c-.0128.0277-.0157.0416-.0157.0538-.0023.1198.0903.1805.1476.2054.1348.0521.221.162.2217.2946.0011.1811-.1748.3293-.3924.3304l-1.7158.004a.3287.3287 0 01-.1395-.0266.328.328 0 01-.1742-.4305c.0533-.1267.1678-.1736.3206-.1921.2153-.0348.3247-.1163.4254-.2668L34.0139.23l3.207-.0006c.2177 0 .3936.151.3936.3327 0 .132-.0856.243-.2199.2952-.0579.026-.1453.0856-.1424.2048l1.948 8.3668zm-5.8997-4.7465a.3184.3184 0 01.1383.0255c.1666.0706.2407.2616.173.4305-.0434.1106-.1302.1707-.283.1893-.2749.0434-.3854.1603-.4878.4004l-1.5827 3.6684h-3.2164l-.136-.2483c-.8843.368-1.636.5104-2.6632.5104-1.633 0-2.9675-1.3235-2.9675-2.956 0-.1012.0011-.2013.0116-.2991.4184-3.5943 3.4629-6.4033 7.1694-6.4033 1.7858 0 2.8032.3293 4.2968 1.0561l-.3947.9421a.4743.4743 0 01-.044.0793c-.1006.147-.2725.2182-.4137.1528-.1771-.0804-.1366-.1898-.2205-.3704-.1371-.2968-.3189-.3912-.4346-.471-.5798-.3658-.971-.3796-1.3669-.3796-.9357 0-1.783.3506-2.431.9288-1.4017 1.2418-2.3796 2.916-2.654 4.9547a1.2796 1.2796 0 00-.0144.1898c0 .7251.5781 1.3224 1.3038 1.3224.8894 0 1.3767-.514 1.7181-1.275l.6262-1.4698a.425.425 0 00.0144-.0868c0-.1915-.1568-.2454-.2147-.2714-.1342-.052-.2228-.1597-.2228-.2917 0-.1817.1407-.3287.3941-.3287" fill="#e31f26" fill-rule="evenodd"/></svg>