<svg xmlns="http://www.w3.org/2000/svg" height="800" width="1200" viewBox="-3.622623 -1.9977775 31.396066 11.986665"><path d="M20.01128 1.18766l1.47602 1.47602-.87842 3.09175-1.11936-1.0982-.6657-2.65959z" fill="#008fc5"/><path d="M22.48595 4.99414h1.66476L22.81897 6.2151l-2.21015-.45967z" fill="#008fc5"/><path d="M22.81904 6.215l-1.99778.54716-2.33045 1.22872 2.11807-2.23555z" fill="#003568"/><path d="M19.48968 6.93666l-1.99778.38841.99871.66604z" fill="#62cae3"/><path d="M22.48606 4.99408h1.66476l-.8442-.33267z" fill="#003568"/><path d="M23.85925 5.26142l.29139.29175v-.55916z" fill="#003568"/><path d="M22.48595 4.99414l-.99871-2.33045-.87842 3.09174z" fill="#62cae3"/><path d="M18.82364 1.99778l.33303-1.66476L17.82457 0z" fill="#003568"/><path d="M20.01128 1.18766l-.85443-.85443-.33302 1.66441z" fill="#62cae3"/><path d="M0 4.04278C0 3.27514.7179 2.6539 1.60479 2.6539l2.07786-.001c.05574 0 .1009.0452.1009.10054v.61278c0 .0557-.04517.10054-.1009.10054h-2.1269c-.36195 0-.65758.21943-.65758.53305 0 .32491.14993.48754 1.0781.73871 1.28516.34784 2.04575.67346 2.04575 1.6884 0 .84455-.79163 1.5293-1.76777 1.5293l-2.00977.00034c-.05574 0-.1009-.0452-.1009-.10054v-.61277c0-.0554.04516-.10054.1009-.10054H2.2987c.44697 0 .82303-.2854.82303-.67205 0-.43215-.35842-.63852-1.2901-.89217C.78951 5.2952 0 5.0017 0 4.0432m13.53361 3.0995h1.17758c.4505-.001.54857-.16475.55492-.5514l.00035-1.40582c-2.18052.36372-2.4818.92111-2.4818 1.36561 0 .37218.22755.59161.74895.59161m1.7279-2.9471c-.04021-.5006-.32631-.72638-.82937-.72885h-2.08598c-.05574 0-.1009-.0448-.1009-.10054v-.61278c0-.0554.04517-.10054.1009-.10054h2.08633c1.14865 0 1.73355.65405 1.73355 1.63724v2.34104c0 .92745-.51117 1.32538-1.41852 1.32538h-1.25165c-.99519 0-1.61079-.51858-1.61079-1.37865 0-1.06398.96132-1.78647 3.38244-2.15618l.5528-.0744c.04233-.007.06809-.0451.06138-.0871-.0067-.0423-.04057-.0646-.0889-.0646zm-9.2029 2.9471h1.17757c.4505-.001.54857-.16475.55492-.5514V5.18548c-2.18017.36372-2.48144.92111-2.48144 1.36561 0 .37218.22754.59161.74895.59161m1.7279-2.9471c-.04022-.5006-.32632-.72638-.82938-.72885H4.8708c-.05539 0-.10054-.0448-.10054-.10054v-.61278c0-.0554.04516-.10054.10054-.10054h2.08668c1.1483 0 1.7332.65405 1.7332 1.63724v2.34104c0 .92745-.51082 1.32538-1.41817 1.32538H6.02086c-.99519 0-1.61078-.51858-1.61078-1.37865 0-1.06398.96167-1.78647 3.38243-2.15618l.5528-.0744c.04233-.007.0681-.0451.06138-.0871-.0067-.0423-.04057-.0646-.0889-.0646zm3.68723-1.5434c.0554 0 .10055.0452.10055.10053v.61383c0 .0557-.04516.1009-.10055.1009l-1.19662-.001.00036 3.1369c.0063.38488.103.53975.55915.53975h.5715c.08573 0 .16616.0663.16616.16227v.4886c0 .0949-.07937.16298-.16616.16298h-.61242c-.90911-.004-1.41817-.3958-1.41817-1.32327V1.58474c0-.0942.07832-.16298.1658-.16298h.38206c.10513 0 .15346.091.1644.14463l.14958.86502-.51647.0695c-.04198.007-.06773.0452-.06103.0871.0067.0423.04022.0646.08855.0646z" fill="#003568"/></svg>