<svg xmlns="http://www.w3.org/2000/svg" xmlns:xlink="http://www.w3.org/1999/xlink" height="800" width="1200" viewBox="-55.5312 -50.848 481.2704 305.088"><defs><linearGradient id="b"><stop offset="0" stop-color="#0b1838"/><stop offset=".208" stop-color="#032f70"/><stop offset=".355" stop-color="#585e97"/><stop offset=".451" stop-color="#8182b2"/><stop offset=".512" stop-color="#585e98"/><stop offset=".618" stop-color="#032f70"/><stop offset="1" stop-color="#061c41"/></linearGradient><linearGradient id="c"><stop offset="0" stop-color="#084c11"/><stop offset=".391" stop-color="#027516"/><stop offset=".6" stop-color="#64a378"/><stop offset=".674" stop-color="#88b797"/><stop offset=".753" stop-color="#64a279"/><stop offset=".849" stop-color="#138437"/><stop offset="1" stop-color="#084c11"/></linearGradient><linearGradient id="a"><stop offset="0" stop-color="#820008"/><stop offset=".346" stop-color="#c70d12"/><stop offset=".451" stop-color="#e26a48"/><stop offset=".575" stop-color="#eb9b7b"/><stop offset=".746" stop-color="#e26b49"/><stop offset=".839" stop-color="#cc221b"/><stop offset="1" stop-color="#940109"/></linearGradient><linearGradient id="d"><stop offset="0" stop-color="#90600c"/><stop offset=".076" stop-color="#c6891c"/><stop offset=".263" stop-color="#f2c876"/><stop offset=".496" stop-color="#fbf1d6"/><stop offset=".692" stop-color="#fbf1d6"/><stop offset=".845" stop-color="#f2c876"/><stop offset=".947" stop-color="#c6891c"/><stop offset="1" stop-color="#90600c"/></linearGradient><linearGradient id="e"><stop offset="0" stop-color="#fde2a0"/><stop offset="1" stop-color="#cc770d"/></linearGradient><linearGradient id="f"><stop offset="0" stop-color="#000002"/><stop offset="1" stop-color="#5a5a5a"/></linearGradient><linearGradient gradientUnits="userSpaceOnUse" xlink:href="#a" id="i" y2="402.748" x2="478.331" y1="363.682" x1="431.29"/><linearGradient gradientUnits="userSpaceOnUse" xlink:href="#b" id="j" y2="370.98" x2="597.832" y1="252.562" x1="472.013"/><linearGradient gradientUnits="userSpaceOnUse" xlink:href="#c" id="k" y2="330.422" x2="556.856" y1="254.341" x1="471.305"/><linearGradient gradientTransform="translate(-4794.32 -740.12) scale(4.88782)" gradientUnits="userSpaceOnUse" xlink:href="#d" id="l" y2="205.935" x2="1079.617" y1="223.418" x1="1072.341"/><linearGradient gradientTransform="translate(-4794.32 -740.12) scale(4.88782)" gradientUnits="userSpaceOnUse" xlink:href="#e" id="m" y2="227.426" x2="1074.409" y1="231.422" x1="1073.486"/><linearGradient gradientTransform="translate(-4794.32 -740.12) scale(4.88782)" gradientUnits="userSpaceOnUse" xlink:href="#f" id="n" y2="215.265" x2="1083.203" y1="212.769" x1="1079.814"/><clipPath id="g"><path d="M-338.215 607.05h88.164L-18.46 815.485h-241.165l-78.59-208.435" fill="red"/></clipPath><filter id="h" color-interpolation-filters="sRGB"><feGaussianBlur stdDeviation="6.604"/></filter></defs><path d="M119.996 110.945c-2.1 5.256-3.347 8.115-5.448 13.366-1.049 2.626-1.711 4.131-2.76 6.755-1.121 2.807-1.63 4.718-3.995 6.61h.581c-.057.047-.086.098-.145.145h5.956c-.41-.508-.581-.947-.581-1.598 0-1.2.427-1.868.872-2.978l.799-1.961c.142-.372.217-.613.436-.944h7.844c.162.266.226.476.363.799.303.703.518 1.107.8 1.815.427 1.081.793 1.683.944 2.833.029.169.072.268.072.436 0 .604-.226.924-.508 1.453h.508c-.026.05-.044.092-.072.145h7.481c-2.429-1.778-2.722-3.815-3.995-6.537-1.211-2.6-1.766-4.123-2.905-6.755-1.456-3.362-2.249-5.28-3.705-8.644-.816-1.886-1.345-2.882-2.106-4.794-.067.166-.08.274-.145.436-.088-.214-.197-.345-.29-.582zM8.353 112.471c-.468 0-.7.067-1.162.145-.747.122-1.18.25-1.889.509-2.56.932-4.239 2.591-4.503 5.302-.03.238-.073.413-.073.654 0 3.463 2.496 5.352 5.594 6.9 2.019 1.006 3.262 1.427 5.084 2.76 1.075.788 1.743 1.648 1.743 2.979 0 2.432-2.22 4.14-4.648 4.14H7.336c-.685 0-1.17-.106-1.743-.29-.083-.028-.139-.044-.218-.073-.057-.019-.085-.053-.145-.073-.279-.093-.49-.254-.726-.363-1.023-.555-1.752-1.316-2.615-2.397l-.073.218c-.105-.128-.253-.226-.363-.363L0 136.44c.799.425 1.497.721 2.18.944.045.017.099.057.144.073.466.146.93.232 1.526.363.159.038.261.107.436.145.958.212 1.484.323 2.47.363 1.182.047 1.876.126 3.05 0 2.173-.229 3.51-.412 5.302-1.67 1.857-1.299 2.592-2.757 2.833-5.012.038-.352.03-.587 0-.944-.279-3.47-2.487-5.35-5.593-6.9-2.016-1.012-3.28-1.37-5.157-2.616-1.066-.712-1.743-1.482-1.743-2.76 0-.16-.03-.279 0-.436.183-1.47 1.084-2.333 2.47-2.833.615-.217 1.016-.363 1.67-.363h1.162c.493 0 .858.045 1.235.145.248.087.505.164.8.291.877.38 1.365.633 1.96 1.38.395.494.477.883.872 1.38l.145-.363c.092.159.15.33.29.508l1.453-3.559c-.07-.125-.168-.142-.29-.218a22.64 22.64 0 00-.726-.435c-.139-.078-.24-.083-.364-.146-.215-.121-.397-.204-.58-.29-.132-.053-.296-.098-.437-.145-.177-.07-.383-.154-.58-.218-.027-.007-.047.007-.073 0-.127-.04-.217-.102-.363-.146-.695-.206-1.099-.264-1.816-.363-.468-.06-.761-.145-1.235-.145H8.353zm247.401.508c-.27.985-.648 1.476-1.09 2.397-.688 1.43-1.025 2.188-1.67 3.632-1.066 2.38-1.766 3.716-2.833 6.102-1.014 2.269-1.673 3.541-2.687 5.81-1.171 2.621-1.932 4.089-3.777 6.32h.58c-.044.055-.098.09-.145.145h6.175c-.555-.389-.727-.938-.727-1.598 0-1.092.355-1.682.8-2.687.473-1.06.729-1.639 1.234-2.688h7.917c.478.9.7 1.505 1.163 2.47.482 1 .799 1.58.799 2.687 0 .704-.326 1.142-.8 1.671h.582c-.048.056-.093.087-.146.145h7.773c-1.113-.86-1.552-1.563-2.252-2.76-.706-1.209-.99-1.938-1.598-3.196-1.148-2.391-1.764-3.748-2.978-6.101-.947-1.837-1.482-2.906-2.325-4.794-.685-1.543-1.2-2.38-1.888-3.923-.349-.784-.593-1.177-.944-1.961-.268-.607-.378-.956-.727-1.525-.046.169-.093.292-.145.435-.089-.183-.157-.362-.29-.58zm-225.973 3.995c-.61 0-1.002.082-1.598.218-.715.169-1.063.308-1.743.581-1.528.607-2.391 1.122-3.414 2.397-1.066 1.337-1.575 2.275-2.034 3.923-.27.979-.436 1.598-.436 2.615v1.888c0 .7.14 1.064.29 1.743.187.846.239 1.38.582 2.18 1.25 2.882 3.001 4.462 6.029 5.302.16.052.267.171.436.218.892.247 1.4.363 2.324.363h1.961c.924 0 1.438-.099 2.325-.363 3.164-.947 5.052-2.708 6.174-5.811.279-.776.372-1.223.508-2.034.093-.567.145-.88.145-1.453v-1.888c0-1.325-.235-2.08-.653-3.342-.9-2.704-2.435-4.442-4.794-5.447-.225-.109-.487-.198-.727-.29-.14-.049-.29-.103-.436-.146-.254-.086-.528-.148-.799-.218-.17-.039-.292-.113-.435-.145-.669-.151-1.06-.29-1.744-.29h-1.96zm176.798 0c-.22.84-.505 1.25-.871 2.034-.567 1.22-.921 1.892-1.453 3.124-.88 2.033-1.372 3.204-2.252 5.23-.84 1.94-1.412 3-2.252 4.939-.967 2.234-1.6 3.469-3.123 5.375h.581c-.045.057-.098.087-.145.145h5.084c-.459-.334-.58-.74-.58-1.307 0-.933.284-1.465.653-2.325.392-.903.599-1.43 1.017-2.324h6.465c.385.754.564 1.29.944 2.106.395.855.726 1.383.726 2.325 0 .598-.261.93-.653 1.38h.508c-.044.053-.097.09-.145.145h6.464c-.046-.037-.03-.109-.072-.145-.82-.689-1.267-1.286-1.816-2.252-.584-1.034-.805-1.612-1.308-2.687-.95-2.037-1.467-3.226-2.47-5.23a68.839 68.839 0 01-1.888-4.068c-.566-1.313-1.028-1.955-1.598-3.269-.287-.67-.508-1.078-.799-1.743-.22-.517-.29-.822-.58-1.307-.05.184-.162.284-.219.435-.08-.175-.092-.37-.217-.58zm10.896 20.702h.58c-.05.056-.086.087-.144.145h5.157c-.462-.459-.668-.834-.872-1.453-.14-.42-.218-.645-.218-1.09v-11.621l10.896 14.019h.218l.145.145h2.978c0-6.528-.029-10.175 0-16.706 0-1.133.288-1.962 1.09-2.76h-.581c.045-.05.096-.097.145-.146h-5.085c.439.439.607.788.8 1.38.156.471.29.741.29 1.235v10.46l-10.315-12.93h-.217l-.146-.145h-4.721c.834.831 1.087 1.656 1.09 2.833.013 5.486.031 8.606 0 14.092 0 .418-.1.613-.218 1.016-.192.646-.398 1.055-.872 1.526zm113.095-20.193c-.217.799-.514 1.214-.871 1.961a85.943 85.943 0 00-1.38 2.978c-.866 1.935-1.386 3.001-2.252 4.94-.825 1.844-1.354 2.873-2.18 4.72-.952 2.128-1.55 3.342-3.05 5.158h.508c-.044.055-.099.09-.145.145h5.012c-.45-.316-.581-.773-.581-1.307 0-.89.363-1.366.726-2.18.384-.862.535-1.324.945-2.178h6.392c.374.712.501 1.186.871 1.96.393.814.727 1.358.727 2.253 0 .57-.268.877-.654 1.307h.508c-.036.042-.033.101-.072.145h6.247c-.904-.697-1.247-1.275-1.816-2.251-.573-.98-.814-1.593-1.308-2.615-.932-1.941-1.412-3.03-2.397-4.94a68.459 68.459 0 01-1.888-3.922c-.558-1.252-.968-1.868-1.526-3.123-.284-.637-.514-.956-.799-1.598-.217-.491-.296-.849-.58-1.308a4.13 4.13 0 01-.146.436c-.082-.175-.161-.373-.29-.581zm-141.86.29c-.691 0-1.066.14-1.743.29-.912.204-1.464.283-2.324.655-2.144.926-3.33 1.952-4.576 3.922-.546.866-.744 1.41-1.017 2.397-.195.706-.363 1.087-.363 1.816v2.034c0 .558.095.837.217 1.38.195.877.37 1.426.727 2.252.505 1.173.927 1.77 1.888 2.615.933.819 1.476 1.394 2.615 1.888.557.24 1.003.362 1.453.509.592.218 1.192.432 1.961.58.64.126 1.02.218 1.67.218h2.47c.492 0 .75-.139 1.235-.217.738-.122 1.18-.198 1.889-.436.22-.073.288-.099.726-.29.154-.225.134-.466.218-.727.218-.65.29-1.046.581-1.67-.219.086-.384.137-.58.217.043-.117.083-.23.144-.363-1.476.584-2.336 1.09-3.922 1.09h-1.525a6.24 6.24 0 01-1.38-.146c-.021-.007-.053.007-.073 0-.298-.068-.618-.25-.944-.363-.156-.057-.29-.083-.436-.145-.443-.163-.79-.375-1.162-.581-1.415-.906-2.321-2.22-2.833-4.068-.21-.755-.363-1.174-.363-1.961v-1.598c0-.883.206-1.345.508-2.18 1.084-2.954 3.321-4.689 6.465-4.793.543-.019.84-.027 1.38 0 .412.018.815.076 1.162.145.174.05.344.077.509.145.023.007.05-.007.072 0 .594.254 1.144.636 1.743 1.162.384.337.483.62.8 1.017l.072-.29c.105.149.22.255.363.436l1.09-3.414a3.47 3.47 0 01-.436-.146c-.43-.111-.679-.283-1.017-.435-.143-.052-.235-.104-.363-.146-.942-.343-1.555-.418-2.543-.58-.668-.111-.996-.219-1.67-.219h-2.688zm-146.072.436c.444.445.63.773.799 1.38.13.471.218.75.218 1.235.04 3.888.035 6.14.072 10.024.012 1.075.096 1.668.436 2.688.36 1.077.657 1.673 1.38 2.542.413.488.758.688 1.308 1.017.502.296.813.497 1.38.653.124.047.208.103.363.146.304.088.6.156.871.218.535.146 1.063.29 1.744.29h2.324c1.154 0 1.833-.23 2.906-.654.99-.395 1.586-.767 2.251-1.598.921-1.147 1.282-1.955 1.526-3.414.099-.598.218-.993.218-1.598.04-3.96-.038-6.136 0-10.096.011-1.113.305-1.903 1.09-2.688h-.582c.048-.051.093-.093.145-.145h-5.23c.52.52.712.956.872 1.67.076.355.145.585.145.945v10.17c0 .763-.07 1.222-.29 1.96-.23.776-.37 1.183-.872 1.816-.442.552-.848.793-1.525 1.017-.485.163-.796.29-1.308.29h-1.09a3.41 3.41 0 01-.726-.072c-.02-.007-.052.007-.072 0-.112-.025-.248-.108-.363-.145-.689-.247-1.087-.511-1.526-1.09-.462-.61-.613-1.066-.799-1.816-.142-.578-.29-.854-.29-1.452-.044-4.08 0-6.38 0-10.46 0-1.11.36-1.79 1.017-2.688h-.509c.036-.049.036-.094.073-.145h-5.957zm20.048 0l.871 3.269c.078-.13.203-.196.29-.29l.073.435c.332-.552.773-.744 1.38-.944.57-.192.927-.29 1.526-.29h2.76v14.454c0 1.17-.262 2.005-1.09 2.833h.582c-.047.05-.095.094-.146.145h6.03c-.472-.378-.608-.738-.8-1.307-.177-.538-.29-.884-.29-1.453-.033-5.715 0-8.96 0-14.673 1.342 0 2.071.047 3.413.073.426.005.76-.027 1.09.072.206.094.36.205.581.364.227.165.29.4.509.58l.072-.29c.12.123.203.304.363.436l.8-3.269h-.436v-.145zm19.03 0c.544.544.71.997.872 1.743.087.404.218.68.218 1.09v13.874c0 1.17-.259 1.932-1.09 2.76h.581c-.05.055-.09.09-.145.145h5.956c-.784-.784-1.09-1.5-1.09-2.615-.031-2.423 0-3.818 0-6.247h8.935v6.102c0 .508-.128.822-.29 1.307-.192.576-.34.907-.8 1.308h.582c-.052.052-.085.092-.146.145h5.957c-.45-.45-.672-.773-.872-1.38a3.655 3.655 0 01-.218-1.307v-14.092c0-.47.084-.712.218-1.162.189-.636.401-.982.872-1.453h-.581c.058-.066.075-.148.145-.218h-5.956c.476.48.688.869.871 1.526.113.424.218.726.218 1.162v5.52h-8.934c-.002-2.028-.028-3.278 0-5.375.009-1.101.31-1.836 1.09-2.615h-.582c.056-.06.084-.156.145-.218h-5.956zm52.008 0c.561.56.794 1.04.945 1.816.067.349.145.59.145.944v14.092c0 .48-.067.776-.218 1.235-.2.604-.424.932-.871 1.38h.58c-.047.052-.09.09-.145.145h5.957c-.802-.799-1.09-1.557-1.09-2.687-.029-2.464 0-3.862 0-6.32 2.1 0 3.275-.023 5.375 0 .282.003.56.032.8.073.086.026.206.039.29.072.127.033.243.098.363.145.286.16.578.387.872.654v-.145c.122.094.236.175.363.29v-4.285a2.247 2.247 0 00-.363.29v-.435c-.259.168-.384.354-.654.508-.767.436-1.299.581-2.18.581h-4.866v-5.738c2.29 0 3.594-.023 5.884 0 .295.002.543.03.799.072.093.028.201.037.29.073.023.005.05-.007.073 0 .428.185.79.443 1.162.872l.072-.218c.133.116.235.215.364.363l.944-3.56h-.509l.073-.217h-14.455zm17.143 0c.456.456.668.837.871 1.453.143.424.218.715.218 1.162v14.31c0 .412-.099.618-.218 1.016-.191.654-.389 1.04-.871 1.526h.508c-.04.042-.029.101-.072.145h5.956c-.456-.459-.625-.828-.8-1.453-.139-.517-.29-.772-.29-1.307v-14.673c1.11 0 1.723-.02 2.833 0 .221.005.443.03.654.073 1.27.426 2.252 1.507 2.252 2.905v1.017c0 .695-.241 1.072-.581 1.67-.398.71-.756 1.038-1.453 1.454-.782.467-1.267.758-2.18.799.21.45.378.604.654 1.017.512.77.849 1.202 1.38 1.96 1.137 1.625 1.697 2.59 2.833 4.214.89 1.27 1.285 2.13 2.47 3.123.744.625 1.2 1.02 2.107 1.38a9.1 9.1 0 001.016.363c.464.165.863.29 1.453.29h1.526l1.598-.144c-.34-.303-.643-.393-1.017-.654-.878-.613-1.351-.988-2.107-1.743-1.124-1.125-1.65-1.86-2.615-3.124-1.85-2.414-2.745-3.867-4.649-6.247.707-.377 1.171-.476 1.816-.944.654-.468.913-.9 1.308-1.598.47-.834.613-1.371.654-2.324.007-.416.029-.674 0-1.09-.111-1.86-1.347-3.166-2.979-3.85-.156-.08-.343-.151-.508-.217-.148-.048-.284-.109-.436-.146a6.578 6.578 0 00-1.961-.29c-3.655-.035-5.715-.064-9.37-.073zm19.684 0c.558.56.77 1.043.945 1.816.072.337.145.523.145.872v14.091c0 .477-.081.782-.218 1.235-.189.64-.404.982-.872 1.453h.582c-.05.055-.088.087-.146.145h5.956c-.482-.485-.653-.88-.871-1.525-.137-.416-.218-.651-.218-1.09V120.97c0-.43.096-.68.218-1.09.195-.65.395-1.045.871-1.525h-.508c.039-.042.03-.101.073-.145zm191.18 0c-.363 0-.51.09-.871.145-.578.09-.973.169-1.525.364-1.985.703-3.211 1.958-3.414 3.995-.032.177-.073.325-.073.508 0 2.6 1.955 3.995 4.358 5.157.122.062.24.086.363.146 1.343.627 2.27 1.046 3.56 1.96.834.594 1.307 1.18 1.307 2.18 0 1.827-1.673 3.123-3.56 3.123h-.943c-.498 0-.83-.023-1.235-.145-.14-.045-.237-.095-.363-.145-.186-.06-.348-.15-.509-.218-.794-.418-1.29-1.001-1.961-1.816l-.073.218c-.12-.138-.235-.208-.363-.363l-1.162 2.978c.642.333 1.192.484 1.743.653.047.017.099.057.146.073.335.097.664.2 1.09.29.153.037.262.11.435.146.744.163 1.124.256 1.889.29.918.035 1.487.096 2.397 0 1.685-.174 2.751-.363 4.14-1.307 1.441-.973 1.99-2.08 2.179-3.777.03-.262.03-.384 0-.654-.215-2.606-1.95-4.059-4.358-5.23-.162-.078-.286-.076-.436-.145-.62-.3-1.098-.504-1.598-.726a15.11 15.11 0 01-1.961-1.09c-.825-.532-1.308-1.148-1.308-2.106 0-.12-.029-.172 0-.291.143-1.104.814-1.801 1.889-2.18a3.564 3.564 0 011.307-.217h.872c.382 0 .724-.002 1.017.073.155.056.255.142.436.217.682.285 1.136.457 1.598 1.017.305.372.345.718.653 1.09l.146-.363c.087.152.148.337.29.508l1.09-2.76c-.059-.093-.125-.093-.218-.145-.2-.125-.302-.177-.509-.29-.572-.312-.9-.399-1.525-.582-.142-.046-.263-.094-.436-.145a9.07 9.07 0 00-1.453-.29c-.363-.05-.578-.146-.944-.146h-2.106zm-82.006.363c.45.433.595.796.799 1.38.136.404.217.663.217 1.09v13.656c0 .395-.101.566-.217.944-.192.625-.326.99-.8 1.453h.509c-.048.052-.09.09-.145.145h5.883c-.45-.439-.63-.79-.799-1.38-.14-.494-.218-.724-.218-1.235V120.68c1.093 0 1.668-.019 2.76 0 .332.007.64.055.945.145 1.072.478 1.889 1.478 1.889 2.688v.871c0 .663-.247 1.099-.582 1.671-.392.674-.697.985-1.38 1.38-.77.448-1.281.689-2.179.726.207.433.38.622.654 1.017.503.735.784 1.163 1.307 1.889 1.116 1.546 1.715 2.446 2.833 3.995.875 1.214 1.23 1.958 2.397 2.905.732.596 1.215.962 2.107 1.308.146.056.234.098.363.145.08.031.143.045.218.073.123.041.242.114.363.145.456.157.87.29 1.453.29h1.525l1.598-.145c-.334-.287-.645-.331-1.017-.58-.863-.585-1.293-.951-2.034-1.672-1.11-1.072-1.665-1.772-2.615-2.978-1.818-2.3-2.705-3.684-4.576-5.956.692-.357 1.107-.427 1.744-.872.642-.447.918-.854 1.307-1.525.462-.79.689-1.342.726-2.252.007-.392-.043-.618-.072-1.017-.108-1.76-1.318-3.048-2.906-3.704a6.754 6.754 0 00-.508-.218c-.145-.045-.286-.11-.436-.145a6.426 6.426 0 00-1.888-.29c-3.595-.036-5.631.002-9.225 0zm-10.605.146c.552.531.775.935.944 1.67.072.32.145.54.145.872v13.438c0 .459-.084.653-.218 1.09-.186.607-.406 1.005-.871 1.452h.58a3.71 3.71 0 01-.145.145h5.884c-.476-.459-.66-.836-.872-1.452-.133-.393-.217-.605-.217-1.017v-13.583c0-.41.098-.628.217-1.017.192-.62.401-.997.872-1.453h-.581c.05-.054.087-.09.145-.145h-5.883zm33.122.072l-3.85.073c.828 1.728 1.546 4.134 1.67 4.648l3.705 13.729h.364l.072.145h2.252l3.559-10.242 3.414 10.097h.363l.073.145h2.251l4.286-15.399c.351-1.29.511-1.642 1.09-2.905h-.509c.027-.06.043-.081.073-.146l-3.705-.072.073.871c0 .924-.404 2.395-.654 3.342l-2.252 8.135-4.213-12.203h-.145l-.145.363-.146-.508h-.145l-4.358 12.348-2.034-7.627c-.25-.924-.799-2.78-.799-3.632 0-.316.122-.845.145-1.017h-.436c.005-.035-.002-.12 0-.145zm40.386.145l-4.286.073c.829.607 1.2 1.075 2.107 2.688l4.213 7.263v5.158c0 1.923-.233 2.44-.509 3.123h.509c-.019.047-.053.097-.073.145h3.85c-.5-.947-.508-2.01-.508-2.179v-6.32l4.503-7.699c.174-.267.75-1.159 1.453-2.034h-.509c.036-.044.037-.1.073-.145l-3.85-.072c.05.877-.14 1.52-.944 2.832l-2.397 4.213-2.397-4.14c-.48-.828-.898-1.688-.8-2.76h-.435c.002-.048-.005-.097 0-.145zm-311.975.436h1.017c.212 0 .345.036.508.073.044.011.098-.014.145 0 .126.033.28.103.436.145.573.22.982.49 1.526.944.947.794 1.354 1.462 1.816 2.615.313.79.371 1.267.508 2.107.076.453.218.775.218 1.235v2.324c0 .703-.14 1.058-.29 1.743-.672 3.022-2.717 5.52-5.812 5.52a5.205 5.205 0 01-1.67-.29c-1.842-.804-3.048-2.671-3.56-4.867-.2-.868-.363-1.362-.363-2.251v-1.744c0-.987.102-1.586.363-2.542.381-1.374.756-2.179 1.671-3.269.619-.74 1.124-1.048 2.034-1.38.552-.2.866-.363 1.453-.363zm88.835 1.38l2.978 7.046h-5.739zm135.976.8l2.76 6.028h-5.375zm-49.03 2.76l2.179 5.157h-4.286zm123.991.29l2.18 4.794h-4.286z" fill="#002c6d" fill-rule="evenodd"/><path d="M.892 152.683h368.29" stroke="#000" stroke-width=".738" stroke-miterlimit="3.864"/><path d="M98.182 0h41.926L250.24 99.12H135.555L98.182 0" fill="#fff"/><path clip-path="url(#g)" transform="translate(259.018 -288.68) scale(.47555)" d="M-370.635 597.384l78.75 224.568 52.635.807-83.632-225.187zm89.166-2.42l238.71 226.988h54.937l-240.678-226.8z" fill="#8a8a8a" filter="url(#h)"/><path d="M432.866 359.131l97.019-1.901-55.775 50.08h-58.976l17.732-48.179" fill="url(#i)" transform="matrix(.59443 0 0 -.59443 -142.221 245.756)"/><path d="M645.736 252.709l-57.75 52.118-115.973-52.265 173.723.147" fill="url(#j)" transform="matrix(.59443 0 0 -.59443 -142.221 245.756)"/><path d="M538.976 348.935l39.323-35.388-107.136-59.206-37.28 102.889 105.093-8.295" fill="url(#k)" transform="matrix(.59443 0 0 -.59443 -142.221 245.756)"/><path d="M433.883 357.23l66.294-45.54-29.014-57.349 75.463 70.712-112.743 32.177" fill="url(#l)" transform="matrix(.59443 0 0 -.59443 -142.221 245.756)"/><path d="M442.07 389.338c3.774 6.804 12.787 9.018 20.138 4.946 7.351-4.076 10.255-12.899 6.481-19.703-3.773-6.808-12.791-9.023-20.142-4.941-7.352 4.071-10.25 12.894-6.477 19.698" fill="url(#m)" transform="matrix(.59443 0 0 -.59443 -142.221 245.756)"/><path d="M433.883 357.23l66.294-45.54-29.014-57.349-37.28 102.889" fill="url(#n)" transform="matrix(.59443 0 0 -.59443 -142.221 245.756)"/><path d="M.467 152.536h368.29" stroke="#000" stroke-width=".738" stroke-miterlimit="3.864"/><path d="M29.746 179.405c-2.605 0-5.305 1.078-5.305 4.384 0 2.442 1.705 3.437 4.918 4.013 2.47.442 4.92.734 4.92 3.046 0 2.403-2.097 3.002-4.117 3.002-2.584 0-4.453-.768-4.696-3.953h-1.397c.21 4.085 2.681 5.395 6.093 5.395 2.626 0 5.602-1.017 5.602-4.726 0-2.904-2.422-3.528-4.874-3.998-3.304-.61-4.963-1.093-4.963-3.061 0-1.718 1.653-2.675 3.819-2.675 2.177 0 4.051.709 4.235 3.3h1.397c-.086-3.609-2.874-4.727-5.632-4.727zm155.206 0c-5.161 0-6.97 4.507-6.97 7.966 0 4.86 2.688 7.92 6.97 7.92 3.767 0 6.224-2.751 6.524-6.152h-1.367c-.457 2.892-2.03 4.711-5.157 4.711-4 0-5.513-3.106-5.513-6.48 0-4.41 2.25-6.538 5.513-6.538 2.37 0 4.607 1.165 5.023 4.057h1.367c-.405-3.995-3.519-5.484-6.39-5.484zm-177.973.387l-5.81 15.113h1.456l1.724-4.577h6.747l1.679 4.577h1.53l-5.81-15.113zm32.441 0v1.426h5.514v13.687h1.456v-13.687h5.513v-1.426zm19.914 0l-6.064 15.113h1.516l1.813-4.577h7.03l1.768 4.577h1.605l-6.063-15.113zm11.338 0v15.113h1.353v-6.672h5.26c2.247 0 3.107.898 3.151 3.566 0 1.248.038 2.192.163 2.72.043.176.123.306.179.386h1.426c-.077-.086-.14-.239-.193-.475-.163-.71-.231-1.965-.252-2.675-.03-.62-.042-1.137-.12-1.62-.037-.242-.104-.461-.163-.669-.117-.415-.28-.759-.505-1.04a2.231 2.231 0 00-.401-.386 2.68 2.68 0 00-1.115-.476v-.045c1.671-.434 2.556-2.014 2.556-3.626 0-3.189-2.043-4.101-4.25-4.101h-7.089zm27.225 0l-5.81 15.113h1.427l1.768-4.577h6.732l1.709 4.577h1.516l-5.81-15.113zm11.755 0v15.113h9.823v-1.426h-8.47v-13.687zm13.761 0v15.113h9.823v-1.426h-8.44v-13.687zm14.311 0v15.113h1.412v-15.113zm11.458 0l-6.063 15.113h1.516l1.798-4.577h7.044l1.753 4.577h1.605l-6.018-15.113zm11.68 0v15.113h1.368v-12.87h.03l9.198 12.87h1.56v-15.113h-1.352v12.914l-9.154-12.914zm35.607 0v15.113h10.61v-1.426h-9.243v-5.677h8.739v-1.427h-8.739v-5.157h9.08v-1.426zm22.87 0v15.113h1.294v-13.062h.03l5.409 13.062h1.159l5.44-13.062h.044v13.062h1.233v-15.113h-1.783l-5.469 13.152-5.484-13.152zm20.33 0v15.113h10.611v-1.426h-9.243v-5.677h8.753v-1.427h-8.753v-5.157h9.08v-1.426zm15.931 0v15.113h1.278v-13.062l5.44 13.062h1.159l5.439-13.062h.044v13.062h1.248v-15.113h-1.798l-5.468 13.152-5.484-13.152zm21.058 0v15.113h7.222c.25 0 .49-.006.743-.045 1.774-.264 3.522-1.48 3.522-4.25 0-.241-.036-.488-.044-.713-.032-.226-.052-.462-.119-.669-.059-.206-.147-.38-.238-.565-.453-.923-1.266-1.577-2.333-1.768v-.044c1.546-.427 2.2-1.773 2.2-3.24 0-2.148-1.014-3.82-3.567-3.82h-7.386zm16.718 0v15.113h10.225v-1.426h-8.947v-5.677h8.471v-1.427h-8.47v-5.157h8.797v-1.426zm15.575 0v15.113h1.382v-6.672h5.29c2.277 0 3.176.898 3.21 3.566.03 1.248.078 2.192.208 2.72.043.176.119.306.178.386h1.457c-.076-.086-.154-.239-.208-.475-.163-.71-.218-1.965-.253-2.675-.03-.62-.043-1.137-.119-1.62-.038-.242-.121-.461-.178-.669-.117-.415-.262-.759-.49-1.04a2.2 2.2 0 00-.417-.386 2.703 2.703 0 00-1.13-.476v-.045c1.707-.434 2.542-2.014 2.542-3.626 0-3.189-2.01-4.101-4.25-4.101h-7.222zm-236.926 1.426h5.84c1.243 0 2.66.433 2.66 2.675 0 2.317-1.308 2.958-2.794 2.958h-5.706zm205.94 0h5.841c1.478 0 2.497.587 2.497 2.438 0 2.03-1.184 2.72-3.002 2.72h-5.335zm32.368 0h5.914c1.267 0 2.72.433 2.72 2.675 0 2.317-1.342 2.958-2.839 2.958h-5.795zm-302.581.149l2.809 7.534H4.869zm52.384 0l2.898 7.534h-5.885zm38.534 0l2.78 7.534h-5.648zm51.3 0l2.957 7.534h-5.944zm127.996 6.435h6.004c1.57 0 2.734.621 2.734 2.808 0 2.086-1.313 2.869-3.061 2.869h-5.677z"/><path d="M354.064 180.873c-.03-.029 2.779-5.785-2.913-13.237l-3.291 4.354-4.834 4.524 5.068 2.62 4.19 1.098 1.145.703s.594-.094.635-.062" fill="#89898a"/><path d="M342.666 176.423s6.09 4.702 11.506 4.418l-4.16-5.935-7.346 1.517" fill="#3f3f3f"/><path d="M351.306 167.54s-7.147 4.772-8.564 8.868l7.308-1.51 1.256-7.358" fill="#d5d5d4"/><path d="M370.156 182.387c-.03-.009-2.334-5.979-11.668-6.898l.943 5.379v6.62l5.372-1.918 3.66-2.313 1.294-.36s.337-.501.387-.51" fill="#89898a"/><path d="M359.126 187.69s7.595-1.245 11.082-5.402l-7.179-1.01-3.903 6.411" fill="#3f3f3f"/><path d="M358.526 175.313s-1.388 8.477.644 12.31l3.88-6.378-4.524-5.932" fill="#d5d5d4"/><path d="M361.928 203.374c0-.03 4.743-4.319 2.258-13.36l-4.685 2.805-6.175 2.383 3.719 4.33 3.47 2.586.798 1.077s.589.138.615.18" fill="#89898a"/><path d="M353.028 194.98s3.882 6.643 9.012 8.412l-1.631-7.065-7.381-1.347" fill="#3f3f3f"/><path d="M364.364 189.985s-8.411 1.745-11.26 5.012l7.34 1.336 3.92-6.348" fill="#d5d5d4"/><path d="M352.723 200.004c-.03-.015-.26-6.412-8.784-10.318l-.86 5.39-2.144 6.263 5.704-.067 4.213-.993 1.341.08s.483-.364.53-.355" fill="#89898a"/><path d="M340.572 201.427s7.584 1.294 12.236-1.499l-6.462-3.29-5.774 4.79" fill="#3f3f3f"/><path d="M344.033 189.531s-4.073 7.563-3.4 11.85l5.742-4.767-2.342-7.083m2.413-7.123c-.03.008-4.866-4.181-13.539-.612l3.356 4.307 3.118 5.838 3.844-4.216 2.143-3.763.975-.925s.065-.597.103-.63" fill="#d5d5d4"/><path d="M339.2 192.266s6.118-4.664 7.246-9.973l-6.813 2.483-.434 7.49" fill="#3f3f3f"/><path d="M332.857 181.62s2.756 8.137 6.345 10.57l.433-7.452-6.778-3.118" fill="#8e9192"/></svg>