<svg xmlns="http://www.w3.org/2000/svg" height="800" width="1200" viewBox="-5.7549255 -1.5980825 49.876021 9.588495"><g fill-rule="evenodd"><path d="M5.81263 0h3.13214c1.2356 0 2.23758 1.02182 2.23758 2.2831 0 1.26073-1.00198 2.28282-2.23758 2.28282h-1.3425v1.82641H5.81263zm1.78964 1.82616h1.3425c.24686 0 .44767.20452.44767.45693 0 .25188-.20081.4564-.44767.4564h-1.3425v-.91307z" fill="#ed1c24"/><path d="M1.33773 6.39233V1.82616H0V0h5.8129v6.39233l-.34185-1.16257v.02116H3.4634l-.33602 1.14141zm2.6625-2.96783h.9398l-.47016-1.59808z" fill="#bfd730"/><path d="M1.33773 6.39233h1.78965V1.82616H4.4696V0H3.12764z" fill="#46a41a"/><path d="M5.81263 6.39233h1.78964L5.81263 0z" fill="#ba141a"/><path d="M19.32093 4.56592h.36063v-1.0893c.09313.0265.20558.032.32861.032.37254 0 .68395-.10027.88212-.29897.14764-.14235.2241-.34766.2241-.594 0-.24605-.09736-.44423-.24738-.576-.16933-.14948-.43497-.23573-.80592-.23573-.31591 0-.55933.0246-.74216.055v2.70722zm.36063-2.44422a2.0439 2.0439 0 01.381-.0315c.39317 0 .69294.15398.69294.54292 0 .36962-.27066.58367-.7313.58367-.13468 0-.2511-.0103-.34264-.0376V2.12192zm3.0488 2.49317c.76385 0 1.39752-.5371 1.39752-1.4478 0-.79322-.54345-1.388-1.36657-1.388-.8001 0-1.39515.59742-1.39515 1.4515 0 .7956.56013 1.3843 1.35996 1.3843h.0045zm.0053-.29157c-.61093 0-.99114-.51197-.99114-1.1049 0-.61383.34714-1.14776 1.00198-1.14776.65352 0 .99536.55694.99536 1.11389 0 .65008-.38285 1.13877-1.00197 1.13877zm1.66687.24262h.35904V3.38138h.39846c.33126.0148.48604.16193.57282.5363.07964.34476.14367.57045.18733.64824h.37465c-.05927-.11377-.12674-.3855-.22437-.77126-.0664-.25797-.19685-.4572-.40375-.53446v-.01c.28495-.0899.53102-.33231.53102-.69585 0-.21378-.086-.40084-.21855-.51567-.17568-.15902-.43286-.23548-.83555-.23548-.26617 0-.54954.0249-.7411.0603zm.35904-2.44422c.06588-.0169.20108-.0357.40481-.0357.37703 0 .66993.13917.66993.50747 0 .31062-.24739.5125-.64559.5125h-.42915zm2.54264 2.44422h.36301v-2.4339h.9308v-.30506h-2.22038v.30506h.92657zm1.50628-2.73896V3.3708c0 .9083.46487 1.24407 1.06098 1.24407.64373 0 1.12527-.36645 1.12527-1.25254V1.82696h-.36248v1.5531c0 .64082-.29422.94059-.7448.94059-.4154 0-.71544-.29104-.71544-.94033V1.82696zm4.99798 1.29963h-.96758v.2905h.60854v.79032c-.0987.0503-.28284.0873-.5514.0873-.72813 0-1.16813-.4572-1.16813-1.10172 0-.6313.4482-1.09088 1.20438-1.09088.31406 0 .5207.0571.68739.13335l.0934-.29448c-.127-.0603-.4109-.14102-.76782-.14102-1.04193 0-1.59808.67548-1.59808 1.4089 0 .4011.1471.76015.39052.99219.2884.27596.66199.3937 1.12713.3937.42598 0 .77179-.10583.94165-.16933zm1.98702.56568l.32464.87365h.3929l-1.0234-2.73896h-.44265l-1.01282 2.73896h.38047l.31062-.87365zm-.99193-.2847l.30745-.8263c.05662-.16138.09922-.30638.14102-.45031h.0077c.04233.14102.08387.28363.14817.45747l.30692.81915zm1.92061 1.15835h1.642v-.30877h-1.27979v-2.4302h-.36248zm-21.2725 0h.51329V1.8267h-.5133zm-1.17317-.79375l.27676.79375h.56356l-.97816-2.73897h-.66702l-.94932 2.73897h.53842l.25718-.79375h.95832zm-.86783-.39079l.2376-.69347c.05212-.15928.09392-.32544.1352-.47625h.0082c.04445.14896.09155.31274.14923.47916l.24474.69056h-.77523zM17.0278 2.2532c.06085-.01032.1688-.0225.33364-.0225.27358 0 .59928.07541.59928.43525 0 .2712-.22013.43974-.57441.43974h-.35851zm0 1.27264h.32464c.29898.01323.42678.13468.50695.48075.06985.30242.11641.4662.14896.55933h.52652c-.04895-.118-.10742-.34978-.18574-.65828l-.01482-.05927c-.06059-.23468-.16774-.40904-.3138-.5125.2331-.11827.44318-.35004.44318-.70908 0-.22913-.0889-.43683-.24235-.56965-.19315-.17542-.4654-.25347-.88265-.25347-.26168 0-.55034.02355-.7538.06138l-.05795.01112v2.68975h.50086V3.52611z"/></g></svg>