<svg xmlns="http://www.w3.org/2000/svg" height="800" width="1200" viewBox="-43.777545 -16.627 379.40539 99.762"><defs><clipPath id="a"><path d="M230.1569 18.3389c-.4594 2.4087-2.0073 4.6847-3.705 6.4097-.1089.1122-.228.2313-.347.3435-.4219-.7927-.5376-2.0208-.6294-2.6298-.3403-2.2488-7.1378-.6703-6.7636 1.8134.296 1.946.9459 4.1098 2.9803 4.8514 2.5143.9186 5.3618-.017 7.58-1.2825 3.501-2.0107 6.8827-6.3655 7.638-10.3699.1973-1.0274-.779-1.4527-2.0516-1.4527-1.895 0-4.4465.9595-4.7017 2.3169m9.9887 1.371c-2.8409 16.9055-6.9506 33.6816-7.0425 50.9169-.0306 5.6953 8.8049 5.6953 8.8354 0 .0817-16.4596 4.014-32.4261 6.7221-48.566.5617-3.3545-2.289-5.5522-4.8583-5.5522-1.7074 0-3.286.9662-3.6571 3.2013m-93.0802 9.3288c-3.623 1.8134-7.1548 3.865-10.5026 6.3177-2.3372 1.7114-5.0828 3.763-6.4742 6.6752-1.4083 2.9599-.1361 6.7397 2.64 7.6787 8.2469 2.7761 18.8281 1.2145 26.122 5.0488.4088.2144.8.4798 1.181.7417.1022.0749.177.1224.2383.1565.0442.0578.102.1156.1837.2041.313.3266.3368.3402.4491.7724.085.3368.058.6838-.0817 1.4254-.2211 1.1431-.5239 1.8849-.9594 2.8068-1.6058 3.443-4.4194 5.6204-7.9033 7.5086-7.1785 3.8784-16.7692 3.9772-24.492 1.565-3.5452-1.1058-6.8725-2.977-9.2336-5.7225-.8948-1.0274-1.8235-2.7728-2.1264-3.7254-.6838-2.2181-.643-3.0619-.4287-5.5965.245-2.8408-2.191-5.2223-4.416-5.2223-2.589 0-4.1778 2.3917-4.416 5.2223-.9662 11.3326 5.9946 19.559 14.2891 23.526 8.9273 4.2698 19.3618 4.4569 28.6394 1.7624 8.5906-2.4938 18.154-9.3254 19.7599-20.5185 2.0277-14.1701-11.8328-16.5618-20.5117-17.6743-1.2622-.1701-2.5278-.296-3.7968-.4423 1.0002-.6158 2.0004-1.2112 3.0211-1.7793 2.2522-1.2622 4.5861-2.3136 6.9915-3.1233.4592-.153.922-.2789 1.3948-.4014.7621-.194.6362-.1735.6465-.1564.003.0101.0238.0169.1187.0101 2.9126 3.1403 8.7908.347 7.2878-5.0828-1.1233-4.0452-3.756-5.3687-6.7806-5.3687-3.722 0-8.0296 1.9938-10.8393 3.392m110.0534 3.4906c-6.6784 6.852-10.1656 19.5489-8.155 28.8777 1.1772 5.4502 5.7259 10.7133 10.7884 12.8976 5.5012 2.3815 11.5707 1.9732 17.1571.0374 5.0522-1.7487 9.6145-4.6814 13.544-8.2741 4.212-3.8512-2.0515-10.0772-6.2464-6.2498-5.6714 5.1917-15.4492 10.2712-22.723 5.3619-1.8883-1.269-3.045-2.9396-3.6812-4.8176 3.7866-1.5615 6.9846-4.6133 9.7437-7.5493 3.4363-3.6574 6.5901-7.9305 8.1549-12.7548 1.5345-4.7187-.3537-9.7642-5.2295-11.4143-1.2215-.4116-2.4355-.6055-3.633-.6055-3.6471 0-7.0832 1.7793-9.72 4.4908m-.6532 11.7647c.6662-1.667 1.6603-3.2627 2.698-4.7256.7546-1.0717 2.2624-2.2522 2.7484-2.4393.983-.3913.4935-.2824 1.5587-.2757-.0544 0 .1497.0477.3743.0988-.0136.1394-.0306.2721-.0375.33-.7008 2.97-3.3137 6.2804-5.6005 8.8422-1.1154 1.2486-2.313 2.419-3.565 3.5212.5138-1.895 1.167-3.7219 1.8236-5.3516m-49.56-10.4276c-4.4127 4.239-7.001 9.7268-9.4101 15.2553-.2107.4695-.4152.956-.6223 1.4323.1225-2.9836-.116-5.9504-1.3404-8.9205-1.0445-2.5346-3.8275-4.2765-6.488-2.6367-2.208 1.3643-4.1438 3.0824-5.8278 5.0455-2.191-2.834-7.9645-1.9529-8.002 2.647-.0611 7.3554-1.235 14.6428-1.2962 21.9983-.0477 5.777 8.349 5.583 8.8388 0 .4594-5.2223 2.1197-11.683 5.338-16.589-.0613 1.1193-.1667 2.2488-.279 3.392-.4354 4.2153-.7484 8.2128-.153 12.4281.5 3.5553 5.1985 3.8853 7.3861 1.946 5.3924-4.7561 7.7433-11.4823 10.5774-17.875-.228 3.0552-.3947 6.1137-.3062 9.186.1463 4.6473.956 9.4171 3.8989 13.1424 3.181 4.0283 8.257 4.542 12.9894 3.8037 2.3782-.3742 3.6676-3.3205 3.0857-5.4367-.7008-2.5175-3.0619-3.4565-5.4366-3.0823-1.388.2143-2.5415-.0102-2.987-.228-1.024-.5137-.1328.0919-.9119-.7145-.034-.0272-.0544-.0544-.0783-.0816a5.1755 5.1755 0 00-.1632-.2585c-.2211-.3437-.398-.7077-.5682-1.0717.3062.6328-.3266-1.0853-.4049-1.3949-.2518-.9254-.3572-1.6568-.4049-2.1162-.245-2.1024-.2347-4.2255-.1837-6.3382.1055-4.1064.558-8.2026.8132-12.3023.1905-2.9428.4933-6.4913-.6703-9.2845-.82-1.9358-2.5618-3.2286-4.4058-3.2286-1.0104 0-2.0515.3878-2.9871 1.2826m14.9287 3.7696c-.1088 6.9166-1.7997 13.8434-2.5856 20.7022-.2722 2.3986 2.2182 4.4126 4.4228 4.4126 2.6163 0 4.137-2.0209 4.416-4.4126.7892-6.8656 2.4768-13.7753 2.589-20.7022.041-2.8476-2.14-4.2697-4.3479-4.2697-2.2113 0-4.4466 1.422-4.4943 4.2697"/></clipPath></defs><g clip-path="url(#a)" transform="translate(0 -15.4576)"><path d="M299.9898 51.3569H68.5778V.0046h231.412z" fill="#d60c8c"/><path d="M299.9898 58.0762H68.5778V47.8119h231.412z" fill="#46166b"/><path d="M299.9898 64.6118H68.5778v22.6823h231.412z" fill="#f58025"/><path d="M299.9898 58.0762H68.5778v6.9949h231.412z" fill="#ffcf01"/></g><path d="M39.9176 23.8923c-.3845-.8097-.8098-1.5412-1.3371-2.1841-.5308-.643-1.1227-1.1773-1.7623-1.6467-.3198-.2824-.6873-.483-1.0683-.6465-.1565-.1122-.364-.2245-.524-.3164.16-.0578.3675-.1633.524-.2721.381-.1531.7485-.3742 1.0683-.6362.6396-.4797 1.2315-1.0207 1.7623-1.65.5273-.6465.9526-1.395 1.337-2.191.371-.7996.633-1.6502.7962-2.5551.051-.6396.102-1.2758.102-1.8712v-.8437c-.051-.7485-.2109-1.497-.4729-2.2387-.2688-.7008-.5886-1.4391-1.0139-2.0753-.4287-.7042-.9048-1.2792-1.4969-1.8712-.5852-.5273-1.2247-1.0649-1.912-1.5004-.7519-.415-1.5003-.7348-2.3509-.9491-.854-.2688-1.701-.432-2.6639-.432-.9083-.0512-1.7522.0611-2.6061.2108-.8029.2212-1.6023.5376-2.293.9152-.7485.3708-1.3848.8471-1.9699 1.4392-.5342.5306-1.0139 1.1703-1.3915 1.8575-.3674.7042-.6328 1.4425-.7383 2.242-.1122.4253-.1122.7961-.1122 1.2214 0 .3743 0 .6975.051 1.0105-.745-.4185-1.4867-.7928-2.2352-1.0105-.9084-.3164-1.9734-.4763-3.045-.5273-1.0002 0-1.9597.102-2.868.3163-.8574.1634-1.708.4832-2.5109.9085a12.718 12.718 0 00-2.1297 1.4425c-.4219.3674-.8506.745-1.2792 1.167 0 0-.6396.6429-.9594 1.0648-.3675.3742-.7485.8573-1.1125 1.3337l-.8575 1.0682c-.2143.3232-.432.592-.6905.8472-.3231.4354-.694.8097-1.0649 1.1737-.6464.6464-1.337 1.2214-2.0787 1.7113-.17.1055-.3232.2076-.49.3096-.0952.0647-.204.1123-.3129.1701-.1055.051-.2108.1021-.2108.2143 0 .1497.1056.2042.2108.262.1088.0544.2177.1123.313.16.1667.1088.3198.2109.4899.3164.7416.4864 1.4323 1.075 2.0787 1.7112.3708.3674.7418.7485 1.065 1.1704.2584.2687.4761.534.6904.8505l.8575 1.0683c.364.483.745.9594 1.1125 1.3268.3198.4288.9594 1.0172.9594 1.0172.4286.4798.8573.854 1.2792 1.2283.6975.5817 1.439 1.0615 2.1297 1.4357.803.4252 1.6535.7451 2.5109.9118.9083.2586 1.8678.3096 2.868.3096 1.0716-.051 2.1366-.2076 3.045-.5274.7485-.2144 1.4901-.5885 2.2352-1.0138-.051.3198-.051.6327-.051 1.0138 0 .4253 0 .7996.1122 1.2248.1055.7961.3709 1.5412.7383 2.2352.3776.6975.8573 1.327 1.3916 1.8746.585.5818 1.2213 1.0581 1.9698 1.4323.6907.3709 1.4901.6873 2.293.905.854.1633 1.6978.262 2.6061.2075.9629 0 1.81-.1565 2.664-.4252.8505-.211 1.599-.5273 2.3508-.9492.6873-.432 1.3268-.9696 1.912-1.5004.592-.5851 1.0682-1.1669 1.497-1.8644.4252-.6395.745-1.388 1.0138-2.0718.262-.7486.422-1.5039.473-2.3033v-.7893c0-.5886-.051-1.2317-.102-1.8644-.1634-.9119-.4254-1.7657-.7962-2.5585" fill-rule="evenodd" fill="#ffcf01"/><path d="M37.678 24.7486c-.3233-.7008-.6941-1.3336-1.2316-1.9256-.4765-.5817-1.0581-1.0614-1.7011-1.4425-.6908-.4219-1.3881-.7485-2.1299-.9015-.745-.2688-1.5513-.3743-2.344-.3743-.8573 0-1.6636.1055-2.5074.3232-.7009.1667-1.3302.3743-1.97.6838-.5884.2688-1.126.6499-1.599 1.0173-.483.3266-.9627.694-1.3914 1.0649-.4762.3232-.8984.6464-1.3847.956-.4187.2687-.9015.5341-1.4323.7485-.592.1633-1.1805.272-1.7657.272a5.867 5.867 0 01-2.3407-.4864c-.7519-.3198-1.388-.745-1.919-1.3302-.5885-.5308-1.0105-1.2248-1.2825-1.9733-.3197-.6838-.4252-1.4867-.4252-2.2828 0-.7485.1055-1.5514.4252-2.242.2722-.752.694-1.3881 1.2824-1.9767.531-.5886 1.1672-1.007 1.919-1.3303.7418-.3164 1.5413-.4694 2.3408-.4694.5852 0 1.1737.102 1.7657.265.5308.204 1.0136.4698 1.4323.7383.4866.3197.9085.6432 1.3847 1.0174.4287.3196.9084.687 1.3915 1.065.473.313 1.0105.6906 1.599.956.6397.3164 1.269.5376 1.97.694.8436.2177 1.65.3197 2.5073.3197.7927 0 1.599-.1023 2.344-.3197.7418-.2146 1.4391-.5276 2.1299-.9594.643-.3776 1.2246-.854 1.701-1.436.5376-.5852.9084-1.2312 1.2316-1.9188.3164-.745.5342-1.4936.6363-2.2965.1088-.8437.1088-1.7045-.0545-2.555-.1565-.7996-.4219-1.599-.7995-2.293-.3675-.684-.854-1.2725-1.3848-1.8169-.5817-.575-1.1703-1.007-1.8609-1.3779-.694-.3232-1.4425-.5851-2.191-.7416-.7417-.1701-1.5956-.2143-2.3917-.1123-.752.1123-1.5446.3164-2.2387.6906-.6497.3266-1.286.803-1.7657 1.327-.5341.5442-.905 1.1805-1.218 1.8711-.2653.6906-.4763 1.4425-.5375 2.1944 0 .7348.0612 1.531.3232 2.2863 0 .1054.0476.2075.1054.3095 0 .058 0 .1123.0511.1667 0 .0511 0 .1055.0578.16 0 0 .0477.0578.1021.0578 0 0 .051-.0579.051-.1123v-.3231c.0578-.4185.16-.796.3232-1.1667.3199-.6906.7961-1.2792 1.3847-1.701.6396-.3811 1.3813-.5922 2.1332-.6469.796-.0475 1.5955.0547 2.293.4287.6326.3232 1.1738.8472 1.5446 1.4906.3742.6358.5308 1.4425.5308 2.194 0 .735-.2144 1.5446-.6362 2.1743-.371.643-.9595 1.17-1.6604 1.5548-.694.3096-1.49.4763-2.2318.364-.5375-.0544-1.065-.2075-1.5547-.4218-.4696-.211-.9492-.5342-1.378-.854-.4833-.3742-.9593-.7484-1.3779-1.1193-.4832-.4219-.9695-.8573-1.446-1.2248-.5375-.4253-1.0683-.8029-1.6501-1.0717-.643-.364-1.2825-.6328-1.9665-.8539-.755-.2076-1.5479-.313-2.3542-.313-.803 0-1.599.0612-2.402.2687-.6872.1498-1.3266.3675-1.963.6975-.5341.3096-1.0649.6906-1.6059 1.116-.4762.3742-.905.847-1.3267 1.3302-.4254.4729-.7996.9525-1.1705 1.4425-.432.4763-.7995 1.0036-1.1736 1.48-.4253.4864-.803.9185-1.2825 1.3948-.4253.4151-.8542.7995-1.3847 1.1772-.102.0374-.218.102-.3198.1497-.0544.0578-.153.1123-.2109.1598-.0545 0-.1566.058-.1566.1123 0 .0953.1021.1497.1566.2042.058 0 .1565.0578.211.1156.102.0477.2176.1021.3197.211.5307.313.9594.6937 1.3847 1.1157.4796.4319.8572.9185 1.2825 1.3848.3744.4764.7417 1.0139 1.1736 1.497.3709.4763.7451.9628 1.1705 1.4358.4218.4796.8505.9661 1.3267 1.3302.541.432 1.0718.8063 1.606 1.1227.636.3198 1.2757.5342 1.963.694.8029.2178 1.599.2654 2.4019.2654.8063 0 1.599-.1055 2.3542-.3232.684-.211 1.3235-.4763 1.9665-.7995.5818-.3232 1.1126-.694 1.65-1.1261.4764-.3539.963-.7894 1.4461-1.1635.4186-.4253.8946-.8098 1.378-1.1704.4287-.3232.9083-.6396 1.3779-.854.4898-.2143 1.0172-.3742 1.5547-.432.7417-.102 1.5378.0578 2.2318.381.701.3198 1.2895.905 1.6604 1.5446.4218.6396.6362 1.4323.6362 2.1876 0 .7961-.1566 1.5442-.5308 2.1774-.3708.6396-.912 1.1737-1.5446 1.497-.6975.3708-1.497.4729-2.293.4218-.7519 0-1.4937-.2586-2.1332-.643-.5886-.4218-1.0648-1.0072-1.3847-1.6976-.1633-.3777-.2654-.7486-.3232-1.1705v-.3231c0-.051-.051-.1021-.051-.1021-.0544 0-.102.051-.102.051-.0579.051-.0579.0987-.0579.1531-.051.0544-.051.1157-.051.1667-.0579.1021-.1055.211-.1055.313-.262.752-.3232 1.5445-.3232 2.293.0612.7486.2722 1.497.5375 2.1877.313.6839.6839 1.3303 1.218 1.8712.4797.5341 1.116 1.0036 1.7657 1.3302.6941.3675 1.4867.5784 2.2387.6907.796.1055 1.65.0476 2.3917-.1123.7485-.1497 1.497-.4253 2.191-.745.6906-.371 1.2792-.8472 1.861-1.378.5308-.5344 1.0172-1.1298 1.3847-1.8167.3776-.6906.643-1.4905.7995-2.29.1633-.8506.1633-1.7011.0545-2.5649-.1021-.8029-.3199-1.5412-.6363-2.2795" fill-rule="evenodd" fill="#3e296e"/><path d="M26.3217 19.0983l-.051-.0578c-.9628-.2144-1.8133-.745-2.5584-1.2826-.8505-.6363-1.6502-1.2792-2.4461-1.8644-.8609-.5852-1.8135-1.0581-2.8273-1.1227-.8027-.0442-1.6569.1089-2.351.5375-.6325.3742-1.17.8982-1.5377 1.5446-.432.694-.5886 1.497-.5886 2.2454v.0544c0 .7418.1565 1.5412.5886 2.2353.3675.6328.905 1.1703 1.5378 1.5412.694.3776 1.5482.5885 2.351.5341 1.0137-.0477 1.9663-.5341 2.8272-1.1125.796-.5886 1.5956-1.2384 2.4461-1.8746.745-.5342 1.5956-1.0615 2.5584-1.286 0 0 .051-.0375.051-.0919" fill-rule="evenodd" fill="#d60c8c"/><path d="M100.0295 20.4752l3.4157-8.0632 3.2118 8.0632h-6.6275m8.3183 9.9003h8.975c-1.793-1.075-2.351-2.0991-3.4669-4.6984-6.1715-14.3402-8.3659-19.3413-8.3659-19.3413s-1.3847 2.3032-5.8177 3.1775c.3062.2008.6634.7656.6634 1.3711 0 .4118-.1055.9187-.3572 1.5753L94.1166 25.677c-1.2825 2.7558-1.9937 3.9704-3.7293 4.5385-1.374-.7655-1.6291-1.5378-1.6291-4.2834V12.3134c0-2.851.2551-3.5757 1.7349-4.3889h-8.012c1.4288.8132 1.7418 1.5378 1.7418 4.3889v4.6371h-11.173v-4.6371c0-2.851.3065-3.5757 1.7896-4.3889H66.773c1.538.8132 1.7895 1.5378 1.7895 4.3889v13.6188c0 2.8579-.2517 3.5689-1.7895 4.4433h8.0665C73.3564 29.501 73.05 28.79 73.05 25.9322V20.118h11.1729v5.8142c0 2.8579-.313 3.5689-1.786 4.4433h15.8573c-.7688-.4729-1.3744-1.1329-1.3744-1.9937 0-.609.2041-1.0172.7111-2.1433l1.2824-3.062h8.866l1.334 3.409c.3977.8744.544 1.2894.544 1.8473 0 .8098-.7043 1.4698-1.3098 1.9427m15.293-4.4433V12.3134c0-2.851.2585-3.5757 1.691-4.3889h-7.9646c1.436.8132 1.7385 1.5378 1.7385 4.3889v13.6188c0 2.8579-.3028 3.5689-1.7385 4.4433h7.9646c-1.4325-.8744-1.691-1.5854-1.691-4.4433M66.0655 6.3358c-.82.7246-2.1434 1.5887-5.6646 1.5887H50.3543c-1.9869 0-2.8102-1.1669-3.164-1.878-.7656 1.7284-2.7014 4.178-3.8784 5.1442h9.3898v14.4422c0 2.902-.4184 3.8172-1.786 4.7426h8.0086c-1.4322-.8744-1.6875-1.5854-1.6875-4.4433V11.1907h1.3235c1.9902 0 3.062-.2076 3.8819-.5104 2.1434-.762 3.4634-2.351 3.6233-4.3445" fill-rule="evenodd" fill="#472669"/></svg>