<svg xmlns="http://www.w3.org/2000/svg" xmlns:xlink="http://www.w3.org/1999/xlink" height="800" width="1200" version="1.1" id="svg2" viewBox="-59.99997 -19.884575 519.99974 119.30745"><defs id="defs4"><clipPath clipPathUnits="userSpaceOnUse" id="clipPath5029"><path id="rect5031" fill="#00f" fill-rule="evenodd" stroke="#000" stroke-width=".8" stroke-linecap="butt" stroke-linejoin="miter" stroke-opacity="1" d="M271.3523 790.0863h53.7143v-94.8571h-53.7143z"/></clipPath><clipPath id="clipPath2999" clipPathUnits="userSpaceOnUse"><path id="path3001" d="M0 0h595.276v841.89H0z"/></clipPath><clipPath id="clipPath3007" clipPathUnits="userSpaceOnUse"><path id="path3009" d="M0 0h595.278v841.887H0z"/></clipPath><clipPath id="clipPath3017" clipPathUnits="userSpaceOnUse"><path id="path3019" d="M-8.505-8.505h612.288v858.897H-8.505z" clip-rule="evenodd"/></clipPath><clipPath id="clipPath3025" clipPathUnits="userSpaceOnUse"><path id="path3027" d="M-44.073 850.392h683.424V-8.505H-44.073z"/></clipPath><clipPath id="clipPath3033" clipPathUnits="userSpaceOnUse"><path id="path3035" d="M595.278 841.887H0V0h595.278zM46.35 650.034h505.917V578.52H46.35z"/></clipPath><clipPath id="clipPath3045" clipPathUnits="userSpaceOnUse"><path id="path3047" d="M8.505 700.155h578.268v85.041H8.505z" clip-rule="evenodd"/></clipPath><clipPath id="clipPath3153" clipPathUnits="userSpaceOnUse"><path id="path3155" d="M29.763 28.962h110.16v45.126H29.763z" clip-rule="evenodd"/></clipPath><clipPath id="clipPath3161" clipPathUnits="userSpaceOnUse"><path id="path3163" d="M.938 2.957h1v1h-1z"/></clipPath><clipPath id="clipPath3173" clipPathUnits="userSpaceOnUse"><path id="path3175" d="M552.267 650.034H46.35V578.52h505.917z"/></clipPath><clipPath id="clipPath3181" clipPathUnits="userSpaceOnUse"><path id="path3183" d="M46.162 578.346h506.327v72.006H46.162z"/></clipPath><clipPath id="clipPath3201" clipPathUnits="userSpaceOnUse"><path id="path3203" d="M433.701 35.901h153.072v30.717H433.701z"/></clipPath><clipPath id="clipPath3289" clipPathUnits="userSpaceOnUse"><path id="path3291" d="M481.321 50.262c-1.215 1.215-1.216 3.185-.001 4.401 1.215 1.215 3.185 1.215 4.401 0 1.215-1.215 1.216-3.185.001-4.401-1.215-1.215-3.186-1.216-4.401 0"/></clipPath><clipPath id="clipPath3305" clipPathUnits="userSpaceOnUse"><path id="path3307" d="M481.292 50.188c-.254.255-.457.542-.608.848 1.186-1.117 3.052-1.095 4.212.064 1.159 1.16 1.18 3.027.063 4.212.306-.151.593-.353.847-.608 1.247-1.247 1.248-3.268.001-4.515-1.246-1.247-3.268-1.247-4.515-.001"/></clipPath><clipPath id="clipPath3313" clipPathUnits="userSpaceOnUse"><path id="path3315" d="M481.321 50.262c-1.215 1.215-1.216 3.185-.001 4.401 1.215 1.215 3.185 1.215 4.401 0 1.215-1.215 1.216-3.185.001-4.401-1.215-1.215-3.186-1.216-4.401 0"/></clipPath><clipPath id="clipPath3323" clipPathUnits="userSpaceOnUse"><path id="path3325" d="M481.321 50.262c-1.215 1.215-1.216 3.185-.001 4.401 1.215 1.215 3.185 1.215 4.401 0 1.215-1.215 1.216-3.185.001-4.401-1.215-1.215-3.186-1.216-4.401 0"/></clipPath><clipPath id="clipPath6125-9"><path d="M297.905 392.154c-3.142-.001-5.688-2.55-5.687-5.692.002-3.142 2.551-5.689 5.693-5.686 3.142.001 5.688 2.55 5.686 5.692-.001 3.141-2.549 5.686-5.688 5.686h-.004" id="path6127-5"/></clipPath><clipPath id="clipPath6037-0"><path d="M297.901 398.972c-6.908-.002-12.505-5.605-12.501-12.514.003-6.909 5.606-12.505 12.514-12.501 6.909.002 12.506 5.606 12.502 12.514-.003 6.906-5.603 12.501-12.508 12.501h-.007" id="path6039-7"/></clipPath><clipPath id="clipPath5949-4"><path d="M297.898 405.359c-7.423-.004-13.844-4.289-16.93-10.517-1.252-2.527-1.955-5.375-1.954-8.387.001-1.194.113-2.362.325-3.496l5.992.004a13.1172 13.1172 0 00-.475 3.495c-.001 2.082.486 4.051 1.352 5.797 2.132 4.302 6.566 7.259 11.693 7.261 5.123.003 9.557-2.946 11.695-7.239.872-1.749 1.362-3.72 1.363-5.806.001-1.21-.164-2.382-.472-3.495l5.993.003c.211 1.133.322 2.302.321 3.497-.001 3.034-.717 5.9-1.99 8.439-3.102 6.194-9.506 10.444-16.903 10.444h-.01" id="path5951-5"/></clipPath><clipPath id="id0-0"><path id="path7-8" d="M8633510 5714190c-24600 1540-49320 2310-74220 2310-543320 0-1805320-278760-2291740-696690-509520 386070-1792310 696690-2326840 696690-25070 0-49840-3070-74390-7570-1240 121770 5090 247990 12650 362790 28280 429090 103540 859700 217800 1274050 359680 1304120 1095870 2412390 2151410 3253100 1056450-841400 1793430-1950700 2153930-3255750 114440-414300 189940-844870 218490-1273940 7470-112460 13760-235680 12910-354990z"/></clipPath><clipPath id="id0-7"><path id="path7-4" d="M8633510 5714190c-24600 1540-49320 2310-74220 2310-543320 0-1805320-278760-2291740-696690-509520 386070-1792310 696690-2326840 696690-25070 0-49840-3070-74390-7570-1240 121770 5090 247990 12650 362790 28280 429090 103540 859700 217800 1274050 359680 1304120 1095870 2412390 2151410 3253100 1056450-841400 1793430-1950700 2153930-3255750 114440-414300 189940-844870 218490-1273940 7470-112460 13760-235680 12910-354990z"/></clipPath><clipPath id="id0"><path id="path7" d="M8633510 5714190c-24600 1540-49320 2310-74220 2310-543320 0-1805320-278760-2291740-696690-509520 386070-1792310 696690-2326840 696690-25070 0-49840-3070-74390-7570-1240 121770 5090 247990 12650 362790 28280 429090 103540 859700 217800 1274050 359680 1304120 1095870 2412390 2151410 3253100 1056450-841400 1793430-1950700 2153930-3255750 114440-414300 189940-844870 218490-1273940 7470-112460 13760-235680 12910-354990z"/></clipPath><clipPath id="id0-8"><path d="M8633510 5714190c-24600 1540-49320 2310-74220 2310-543320 0-1805320-278760-2291740-696690-509520 386070-1792310 696690-2326840 696690-25070 0-49840-3070-74390-7570-1240 121770 5090 247990 12650 362790 28280 429090 103540 859700 217800 1274050 359680 1304120 1095870 2412390 2151410 3253100 1056450-841400 1793430-1950700 2153930-3255750 114440-414300 189940-844870 218490-1273940 7470-112460 13760-235680 12910-354990z" id="path7-82"/></clipPath><clipPath id="id0-7-9"><path d="M8633510 5714190c-24600 1540-49320 2310-74220 2310-543320 0-1805320-278760-2291740-696690-509520 386070-1792310 696690-2326840 696690-25070 0-49840-3070-74390-7570-1240 121770 5090 247990 12650 362790 28280 429090 103540 859700 217800 1274050 359680 1304120 1095870 2412390 2151410 3253100 1056450-841400 1793430-1950700 2153930-3255750 114440-414300 189940-844870 218490-1273940 7470-112460 13760-235680 12910-354990z" id="path7-4-4"/></clipPath><clipPath id="id0-0-4"><path d="M8633510 5714190c-24600 1540-49320 2310-74220 2310-543320 0-1805320-278760-2291740-696690-509520 386070-1792310 696690-2326840 696690-25070 0-49840-3070-74390-7570-1240 121770 5090 247990 12650 362790 28280 429090 103540 859700 217800 1274050 359680 1304120 1095870 2412390 2151410 3253100 1056450-841400 1793430-1950700 2153930-3255750 114440-414300 189940-844870 218490-1273940 7470-112460 13760-235680 12910-354990z" id="path7-8-0"/></clipPath><clipPath clipPathUnits="userSpaceOnUse" id="clipPath3028"><path d="M0 1296h1296V0H0z" id="path3030"/></clipPath><clipPath id="clipPath28711"><path d="M0 841h595V0H0z" id="path28713"/></clipPath><clipPath id="clipPath28717"><path d="M.36 841.68H595.8V0H.36z" id="path28719"/></clipPath><clipPath id="clipPath28807"><path d="M399.685 682.535h68.031v-70h-68.031z" id="path28809"/></clipPath><clipPath id="clipPath28813"><path d="M0 841h595V0H0z" id="path28815"/></clipPath><clipPath id="clipPath28819"><path d="M.36 841.68H595.8V0H.36z" id="path28821"/></clipPath><clipPath id="clipPath28869"><path d="M484.724 682.535h68.032v-70h-68.032z" id="path28871"/></clipPath><clipPath id="clipPath28875"><path d="M0 841h595V0H0z" id="path28877"/></clipPath><clipPath id="clipPath28881"><path d="M.36 841.68H595.8V0H.36z" id="path28883"/></clipPath><clipPath id="clipPath28955"><path d="M144.567 682.535h68.031v-70h-68.031z" id="path28957"/></clipPath><clipPath id="clipPath28961"><path d="M0 841h595V0H0z" id="path28963"/></clipPath><clipPath id="clipPath28967"><path d="M.36 841.68H595.8V0H.36z" id="path28969"/></clipPath><clipPath id="clipPath29133"><path d="M229.606 682.535h68.032v-70h-68.032z" id="path29135"/></clipPath><clipPath id="clipPath29139"><path d="M0 841h595V0H0z" id="path29141"/></clipPath><clipPath id="clipPath29145"><path d="M.36 841.68H595.8V0H.36z" id="path29147"/></clipPath><clipPath id="clipPath29207"><path d="M314.646 682.535h68.031v-70h-68.031z" id="path29209"/></clipPath><clipPath id="clipPath29213"><path d="M0 841h595V0H0z" id="path29215"/></clipPath><clipPath id="clipPath29219"><path d="M.36 841.68H595.8V0H.36z" id="path29221"/></clipPath><clipPath id="clipPath29253"><path d="M458.677 531.224v-.576h-.036v-.396h-.036v-.36h-.036v-.324h-.036v-.288c-.103-.353-.112-.806-.216-1.152v-.216c-.117-.381-.168-.852-.288-1.224v-.18c-.102-.312-.182-.698-.288-1.008l-.036-.288c-.188-.521-.339-1.116-.54-1.62l-.18-.648h-.036v-.072h-.036l-.036-.216h-.036v-.072h-.036l-.036-.216h-.036v-.072h-.036v-.108h-.036v-.072h-.036l-.036-.18h-.036v-.108h-.036v-.072h-.036v-.108h-.036l-.036-.144h-.036v-.108h-.036l-.036-.144h-.036v-.108h-.036v-.072h-.036V521h-.036l-.072-.216h-.036v-.108h-.036l-.072-.216h-.036v-.072h-.036v-.072h-.036v-.072h-.036v-.072h-.036l-.036-.18-.072-.036v-.072l-.072-.072v-.072h-.036v-.072h-.036v-.072h-.036v-.072h-.036v-.072l-.072-.072v-.072l-.072-.036v-.072l-.072-.072v-.072h-.036v-.072h-.036v-.072l-.072-.036-.072-.216-.072-.036-.036-.144-.072-.036-.072-.216-.072-.036v-.072l-.072-.036-.036-.144h-.036l-.036-.108-.072-.036-.036-.144-.072-.036v-.072l-.072-.036v-.072h-.036l-.036-.108-.072-.036v-.072h-.036l-.036-.108-.072-.036v-.072l-.108-.072v-.072l-.072-.036v-.072l-.108-.072v-.072l-.072-.036v-.072l-.108-.072v-.072l-.108-.072v-.072l-.144-.108v-.072l-.144-.108-.036-.108-.072-.036v-.072l-.18-.144v-.072l-.18-.144v-.072l-.216-.18v-.072l-.288-.252-.036-.108-.504-.468-.648-.684h-.072l-.288-.324h-.072l-.036-.072h-.036l-.108-.144h-.072l-.18-.216h-.072l-.036-.072h-.036l-.072-.108h-.072l-.144-.18h-.072l-.108-.144h-.072l-.108-.144h-.072l-.108-.144h-.072l-.072-.108h-.072l-.108-.144h-.072l-.072-.108h-.072l-.072-.108h-.072l-.072-.108h-.072l-.036-.072h-.072l-.036-.072-.108-.036-.072-.108h-.072v-.036l-.108-.036-.036-.072h-.072l-.072-.108h-.072l-.036-.072-.108-.036v-.036h-.072l-.036-.072h-.072l-.036-.072h-.072l-.036-.072h-.072l-.036-.072h-.072l-.036-.072h-.072l-.036-.072h-.072l-.036-.072-.144-.036-.036-.072h-.072l-.036-.072-.144-.036-.036-.072-.144-.036-.036-.072-.144-.036-.036-.072-.144-.036-.036-.072-.216-.072-.036-.072h-.072v-.036h-.072l-.072-.072h-.072l-.036-.072-.576-.252-.036-.072-.216-.072v-.036h-.072v-.036l-.216-.072v-.036h-.108v-.036h-.072v-.036h-.072v-.036h-.072v-.036l-.216-.072v-.036l-.324-.108v-.036h-.072v-.036h-.108v-.036h-.072v-.036h-.108v-.036l-.144-.036v-.036h-.108v-.036h-.072v-.036h-.108v-.036h-.072v-.036l-.18-.036v-.036h-.108v-.036h-.072v-.036l-.324-.072v-.036h-.072v-.036h-.108v-.036h-.108v-.036h-.108v-.036h-.108v-.036h-.108c-.589-.234-1.28-.374-1.908-.576h-.18v-.036h-.144v-.036h-.144v-.036h-.18v-.036h-.18v-.036l-.36-.036v-.036h-.216c-.365-.109-.848-.108-1.224-.216h-.324v-.036h-.324v-.036h-.396c-.05-.008.013-.022-.036-.036h-.468v-.036c-.217-.061-.58.024-.792-.036h-.972c-.331 0-.774-.04-1.044.036-.218.062-.56-.019-.756.036h-.54v.036l-.72.036-1.98.288-1.908.432v.036l-.252.036v.036l-.252.036v.036l-.252.036v.036h-.108v.036h-.108v.036h-.108v.036h-.144v.036h-.108v.036h-.108v.036h-.108v.036h-.108v.036h-.072v.036h-.108v.036h-.108v.036h-.108v.036h-.108v.036h-.108v.036h-.072v.036h-.108v.036h-.072v.036l-.216.036v.036h-.072v.036h-.108v.036l-.144.036v.036h-.108v.036h-.072v.036h-.108v.036l-.144.036v.036h-.108v.036h-.072v.036h-.072v.036h-.072v.036h-.108v.036h-.072v.036l-.216.072v.036h-.108v.036l-.216.072v.036h-.072v.036h-.072v.036h-.072v.036h-.072v.036h-.072v.036h-.072l-.072.072h-.072l-.036.072h-.072l-.072.072h-.072v.036h-.072v.036h-.072v.036l-.144.036-.036.072-.216.072-.036.072-.216.072-.036.072-.216.072-.036.072h-.072v.036h-.072v.036l-.108.036-.036.072-.144.036v.036l-.108.036-.036.072-.144.036-.036.072h-.072v.036l-.108.036-.036.072h-.072l-.036.072h-.072l-.036.072h-.072l-.036.072h-.072v.036l-.108.036-.036.072h-.072l-.072.108h-.072l-.036.072h-.072l-.072.108h-.072l-.036.072h-.072l-.072.108h-.072l-.072.108h-.072l-.072.108h-.072l-.072.108h-.072l-.108.144h-.072l-.072.108h-.072l-.108.144h-.072l-.108.144h-.072l-.144.18h-.072l-.18.216h-.072l-.18.216h-.072l-.288.324h-.072l-.432.468h-.072l-.324.36c-.263.263-.534.485-.756.792l-.468.432v.072l-.288.252v.072l-.252.216v.072l-.252.216v.072l-.18.144v.072l-.18.144v.072l-.072.036-.036.108-.144.108v.072l-.108.072v.072l-.108.072v.072l-.108.072-.036.108-.072.036v.072l-.072.036v.072l-.108.072v.072l-.072.036v.072h-.036l-.036.108-.072.036v.072l-.108.072v.072l-.072.036-.036.144-.072.036v.072l-.072.036v.072l-.072.036v.072l-.072.036-.036.144-.072.036-.036.144-.072.036-.036.144-.072.036-.072.216-.072.036-.072.216-.072.036v.072l-.072.072v.072h-.036v.072h-.036v.072h-.036l-.036.144-.072.036v.072l-.072.072v.072h-.036v.072h-.036v.072h-.036v.072h-.036l-.072.216h-.036v.108h-.036v.072h-.036v.072h-.036l-.072.216h-.036v.108h-.036v.072h-.036l-.036.144h-.036v.108h-.036l-.036.144h-.036v.108h-.036v.072h-.036v.108h-.036v.072h-.036v.108h-.036v.072h-.036l-.036.18h-.036l-.036.216h-.036v.072h-.036l-.072.324h-.036v.072h-.036l-.072.324h-.036v.108h-.036v.108h-.036v.108h-.036l-.072.36h-.036v.108h-.036v.144h-.036v.108h-.036l-.036.252h-.036l-.036.288h-.036l-.036.288c-.172.505-.236 1.13-.396 1.656v.216c-.059.197-.086.483-.144.684v.288h-.036v.252h-.036v.324h-.036v.36h-.036v.396h-.036l-.036.9v.396c-.076.273-.077 1.348 0 1.62v.648l.072 1.08h.036v.396h.036v.288c.112.385.104.887.216 1.26l.036.432c.066.214.113.507.18.72v.18h.036l.072.468h.036v.144h.036v.144h.036v.144h.036v.144h.036v.144h.036v.108h.036l.036.288c.159.441.298.942.468 1.368v.108h.036v.108h.036v.108h.036v.108h.036v.072h.036l.036.216h.036v.072h.036l.036.216h.036v.072h.036v.108h.036v.072h.036l.036.18h.036v.108h.036v.072h.036v.108h.036l.036.144h.036v.108h.036v.072h.036l.036.144h.036v.108h.036v.072h.036v.072h.036v.072h.036v.108h.036v.072h.036l.036.144h.036l.036.144h.036l.036.144h.036v.072h.036v.072h.036v.072h.036v.072h.036v.072h.036v.072h.036v.072h.036v.072h.036v.072h.036v.072l.072.072v.072l.072.036.072.216.072.072v.072l.072.036.072.216.072.036.072.216.072.036.036.144.072.036v.072h.036v.072l.072.036v.072l.072.036.036.144.072.036v.072l.072.036v.072l.072.036.036.144h.036l.036.108.072.036v.072h.036l.036.108.072.036v.072l.108.072v.072h.036l.036.108.072.036v.072l.072.036.036.108.108.072v.072l.072.036v.072l.072.036.036.108.108.072v.072l.144.108v.072l.108.072v.072l.144.108v.072l.144.108v.072l.18.144v.072l.216.18v.072l.252.216v.072l.396.36v.072l.468.432c.326.326.628.662 1.008.936l.252.288h.072l.18.216h.072l.144.18h.072l.108.144h.072l.108.144h.072l.108.144h.072l.072.108h.072l.108.144h.072l.036.072h.072l.072.108h.072l.036.072h.072l.072.108h.072l.036.072h.072l.072.108h.072l.036.072h.072l.072.108h.072l.036.072h.072l.036.072h.072l.036.072h.072l.036.072.144.036.036.072h.072l.036.072h.072l.036.072h.072v.036h.072l.036.072.144.036.036.072.108.036v.036l.216.072.036.072.144.036.036.072.216.072.036.072h.072v.036h.072v.036h.072l.072.072h.072l.036.072.144.036.072.072h.072v.036h.072v.036h.072v.036h.072v.036l.144.036v.036l.144.036v.036l.144.036v.036l.144.036v.036h.072v.036h.072v.036h.072v.036h.072v.036l.144.036v.036h.072v.036h.108v.036h.072v.036l.216.072v.036h.108v.036h.072v.036l.144.036v.036h.108v.036h.072v.036h.108v.036l.144.036v.036h.108v.036l.144.036v.036h.108v.036h.072v.036l.216.036v.036l.18.036v.036h.072v.036h.108v.036h.072v.036h.108v.036h.108v.036h.108v.036h.108v.036h.072v.036h.108v.036h.108v.036h.108v.036h.108v.036h.108v.036l.216.036v.036h.072v.036h.108v.036h.144c.189.068.396.171.612.216l2.268 7.02-.108.072v.036h-.072l-.072.108h-.072l-.036.072h-.072l-.036.072-.108.036-.072.108h-.072l-.072.108-.108.036-.036.072h-.072l-.036.072h-.072l-.036.072-.108.036-.072.108h-.072l-.072.108-.108.036-.036.072h-.072l-.036.072h-.072l-.036.072-.108.036-.072.108h-.072l-.072.108h-.072l-.072.108h-.072l-.072.108h-.072l-.036.072h-.072l-.072.108h-.072l-.072.108h-.072l-.072.108h-.072l-.072.108h-.072l-.036.072h-.072l-.072.108h-.072l-.072.108h-.072l-.072.108h-.072l-.072.108h-.072l-.036.072h-.072l-.072.108h-.072l-.072.108h-.072l-.072.108h-.072l-.072.108h-.072l-.036.072h-.072l-.036.072-.108.036-.072.108h-.072l-.072.108-.108.036-.036.072h-.072l-.036.072h-.072l-.072.108h-.072l-.072.108h-.072l-.072.108h-.072l-.072.108h-.072l-.072.108h-.072l-.036.072h-.072l-.072.108h-.072l-.072.108h-.072l-.072.108c-.082.058-.155.069-.216.144h8.388v.036h.036c.013.215.147.476.216.648l.072.324h.036l.036.216h.036v.108h.036v.108h.036v.108h.036v.108h.036v.108h.036l.036.216h.036v.108h.036v.108h.036v.108h.036v.108h.036v.108h.036v.108h.036l.036.216c.39.972.655 2.051 1.044 3.024l.072.324c.15.375.283.813.432 1.188v.108h.036v.108h.036v.108h.036v.108h.036l.036.18h.036l2.592-7.956 8.424-.036v-.036h-.072c-.076-.121-.175-.136-.288-.216l-.072-.108h-.072l-.036-.072h-.072l-.072-.108h-.072l-.072-.108h-.072l-.072-.108h-.072l-.036-.072h-.072l-.072-.108h-.072l-.072-.108h-.072l-.072-.108h-.072l-.036-.072h-.072l-.072-.108h-.072l-.072-.108h-.072l-.072-.108h-.072l-.036-.072h-.072l-.072-.108h-.072l-.072-.108h-.072l-.072-.108h-.072l-.036-.072h-.072l-.072-.108h-.072l-.072-.108h-.072l-.072-.108h-.072l-.036-.072h-.072l-.072-.108h-.072l-.072-.108h-.072l-.072-.108h-.072l-.036-.072h-.072l-.072-.108h-.072l-.072-.108h-.072l-.072-.108h-.072l-.036-.072h-.072l-.072-.108h-.072l-.072-.108-.108-.036-.036-.072h-.072l-.036-.072h-.072l-.036-.072-.108-.036-.072-.108h-.072l-.072-.108-.108-.036-.036-.072h-.072l-.036-.072h-.072l-.072-.108h-.072l-.072-.108-.108-.036-.036-.072h-.072l-.036-.072h-.072l-.036-.072-.108-.036-.072-.108h-.072l-.072-.108c-.127-.088-.242-.079-.288-.252.105-.115.115-.377.18-.54.139-.346.257-.769.396-1.116l.072-.324c.355-.887.583-1.888.936-2.772l.072-.36h.036l.036-.216h.036v-.108h.036v-.108h.036v-.108h.036v-.108h.036v-.108h.036l.036-.216h.036l.036-.252c.068-.189.171-.395.216-.612.294-.004.603-.134.828-.216h.144v-.036h.108v-.036h.144V557h.108v-.036h.108v-.036h.108v-.036h.108v-.036h.108v-.036l.216-.036v-.036h.072v-.036l.324-.072v-.036h.072v-.036l.216-.036v-.036h.072v-.036h.108v-.036l.18-.036v-.036l.144-.036v-.036h.108v-.036h.072v-.036h.108v-.036l.144-.036v-.036h.072v-.036h.108v-.036h.072v-.036l.216-.072v-.036h.108v-.036h.072v-.036l.144-.036v-.036l.144-.036v-.036l.144-.036v-.036h.072v-.036h.072v-.036h.072v-.036h.072v-.036h.072v-.036l.576-.252.036-.072h.072v-.036h.072l.072-.072h.072l.036-.072h.072v-.036h.072l.072-.072h.072l.036-.072.144-.036.036-.072.144-.036.036-.072.144-.036.036-.072.144-.036v-.036l.108-.036.036-.072.144-.036.036-.072h.072l.036-.072h.072l.036-.072h.072l.036-.072.144-.036.036-.072h.072l.072-.108h.072l.036-.072.108-.036v-.036h.072l.036-.072h.072l.036-.072h.072l.072-.108h.072l.072-.108h.072l.036-.072h.072l.072-.108h.072l.072-.108h.072l.072-.108h.072l.108-.144h.072l.072-.108h.072l.108-.144h.072l.108-.144h.072l.144-.18h.072l.144-.18h.072l.18-.216h.072l.252-.288h.072l.36-.396h.072l.432-.468c.297-.297.614-.554.864-.9l.432-.396v-.072l.252-.216v-.072l.18-.144v-.072l.072-.036.072-.108h.036v-.072l.18-.144v-.072l.144-.108v-.072l.108-.072v-.072l.108-.072v-.072l.108-.072v-.072l.144-.108v-.072l.072-.036v-.072l.108-.072v-.072l.072-.036v-.072l.108-.072v-.072l.072-.036.036-.108h.036v-.072l.072-.036v-.072l.072-.036v-.072l.072-.036v-.072l.072-.036v-.072l.072-.036.036-.144h.036l.036-.108.072-.036v-.072h.036v-.072l.072-.036.036-.144.072-.036.036-.144.072-.036.036-.144.072-.036v-.072h.036v-.072l.072-.072v-.072l.072-.036v-.072l.072-.072v-.072h.036v-.072h.036l.036-.144.072-.036v-.072l.072-.072v-.072h.036v-.072h.036v-.072h.036v-.072h.036v-.072h.036v-.072h.036v-.072h.036l.072-.216h.036v-.108h.036v-.072h.036v-.072h.036l.072-.216h.036v-.108h.036v-.072h.036v-.072h.036v-.072h.036v-.108h.036v-.072h.036v-.108h.036l.036-.144h.036v-.108h.036v-.072h.036v-.108h.036v-.072h.036v-.108h.036v-.072h.036l.036-.216h.036v-.072h.036l.072-.324h.036v-.072h.036l.036-.216h.036v-.108h.036v-.108h.036v-.108h.036v-.108h.036v-.108h.036v-.108h.036v-.144h.036v-.108h.036v-.108h.036v-.108h.036l.036-.252h.036v-.144h.036v-.144h.036v-.108h.036V539h.036l.036-.288c.131-.384.2-.864.324-1.26l.036-.396c.118-.388.136-.899.252-1.296v-.288h.036v-.288h.036v-.324h.036v-.36h.036v-.396h.036l.036-1.26c.076-.273.077-1.348 0-1.62m-21.096 26.532l-4.824 3.492c-.063-.074-.134-.086-.216-.144l-.072-.108h-.072l-.036-.072h-.072l-.036-.072-.108-.036-.072-.108h-.072l-.036-.072h-.072l-.072-.108h-.072l-.036-.072h-.072l-.036-.072-.108-.036-.072-.108h-.072l-.036-.072h-.072l-.036-.072-.108-.036-.072-.108h-.072l-.036-.072h-.072l-.036-.072-.108-.036-.072-.108h-.072l-.036-.072h-.072l-.036-.072-.108-.036-.072-.108h-.072l-.036-.072h-.072l-.072-.108h-.072l-.036-.072h-.072l-.072-.108h-.072l-.072-.108h-.072l-.036-.072h-.072l-.036-.072-.108-.036-.072-.108h-.072l-.036-.072h-.072l-.036-.072-.108-.036-.072-.108h-.072l-.036-.072h-.072l-.072-.108h-.072l-.036-.072h-.072l-.072-.108h-.072l-.072-.108c-.103-.072-.186-.07-.252-.18h.072c.097.087.246.028.396.072v.036h.252c.341.098.806.083 1.152.18h.36v.036h.432s.004.03.072.036h.396v.036h.684v.036h1.728c1.494 0 2.871-.162 4.14-.396v.036" id="path29255"/></clipPath><clipPath id="clipPath29259"><path d="M399.685 574.913h68.031v-70h-68.031z" id="path29261"/></clipPath><clipPath id="clipPath29265"><path d="M0 841h595V0H0z" id="path29267"/></clipPath><clipPath id="clipPath29271"><path d="M.36 841.68H595.8V0H.36z" id="path29273"/></clipPath><clipPath id="clipPath29283"><path d="M484.724 574.913h68.032v-70h-68.032z" id="path29285"/></clipPath><clipPath id="clipPath29289"><path d="M0 841h595V0H0z" id="path29291"/></clipPath><clipPath id="clipPath29295"><path d="M.36 841.68H595.8V0H.36z" id="path29297"/></clipPath><clipPath id="clipPath29381"><path d="M149.952 574.913h62.646v-70h-62.646z" id="path29383"/></clipPath><clipPath id="clipPath29387"><path d="M0 841h595V0H0z" id="path29389"/></clipPath><clipPath id="clipPath29393"><path d="M.36 841.68H595.8V0H.36z" id="path29395"/></clipPath><clipPath id="clipPath29463"><path d="M229.606 574.913h68.032v-70h-68.032z" id="path29465"/></clipPath><clipPath id="clipPath29469"><path d="M0 841h595V0H0z" id="path29471"/></clipPath><clipPath id="clipPath29475"><path d="M.36 841.68H595.8V0H.36z" id="path29477"/></clipPath><clipPath id="clipPath29555"><path d="M314.646 574.913h68.031v-70h-68.031z" id="path29557"/></clipPath><clipPath id="clipPath29561"><path d="M0 841h595V0H0z" id="path29563"/></clipPath><clipPath id="clipPath29567"><path d="M.36 841.68H595.8V0H.36z" id="path29569"/></clipPath><clipPath id="clipPath29651"><path d="M399.685 468.291h68.031v-70h-68.031z" id="path29653"/></clipPath><clipPath id="clipPath29657"><path d="M0 841h595V0H0z" id="path29659"/></clipPath><clipPath id="clipPath29663"><path d="M.36 841.68H595.8V0H.36z" id="path29665"/></clipPath><clipPath id="clipPath29751"><path d="M484.724 468.291h68.032v-70h-68.032z" id="path29753"/></clipPath><clipPath id="clipPath29757"><path d="M0 841h595V0H0z" id="path29759"/></clipPath><clipPath id="clipPath29763"><path d="M.36 841.68H595.8V0H.36z" id="path29765"/></clipPath><clipPath id="clipPath29817"><path d="M150.236 468.291h62.362v-70h-62.362z" id="path29819"/></clipPath><clipPath id="clipPath29823"><path d="M0 841h595V0H0z" id="path29825"/></clipPath><clipPath id="clipPath29829"><path d="M.36 841.68H595.8V0H.36z" id="path29831"/></clipPath><clipPath id="clipPath29921"><path d="M229.606 468.291h68.032v-70h-68.032z" id="path29923"/></clipPath><clipPath id="clipPath29927"><path d="M0 841h595V0H0z" id="path29929"/></clipPath><clipPath id="clipPath29933"><path d="M.36 841.68H595.8V0H.36z" id="path29935"/></clipPath><clipPath id="clipPath30047"><path d="M314.646 468.291h68.031v-70h-68.031z" id="path30049"/></clipPath><clipPath id="clipPath30053"><path d="M0 841h595V0H0z" id="path30055"/></clipPath><clipPath id="clipPath30059"><path d="M.36 841.68H595.8V0H.36z" id="path30061"/></clipPath><clipPath id="clipPath30113"><path d="M399.685 362.137h68.031v-70h-68.031z" id="path30115"/></clipPath><clipPath id="clipPath30119"><path d="M0 841h595V0H0z" id="path30121"/></clipPath><clipPath id="clipPath30125"><path d="M.36 841.68H595.8V0H.36z" id="path30127"/></clipPath><clipPath id="clipPath30221"><path d="M484.724 362.137h68.032v-70h-68.032z" id="path30223"/></clipPath><clipPath id="clipPath30227"><path d="M0 841h595V0H0z" id="path30229"/></clipPath><clipPath id="clipPath30233"><path d="M.36 841.68H595.8V0H.36z" id="path30235"/></clipPath><clipPath id="clipPath30263"><path d="M144.567 362.137h68.031v-70h-68.031z" id="path30265"/></clipPath><clipPath id="clipPath30269"><path d="M0 841h595V0H0z" id="path30271"/></clipPath><clipPath id="clipPath30275"><path d="M.36 841.68H595.8V0H.36z" id="path30277"/></clipPath><clipPath id="clipPath30311"><path d="M177.983 298.659c.192 2.683 8.145 2.492 8.145 2.492 6.805.287 11.309 1.916 11.309 1.916 16.387 5.175 7.283 23.191 7.283 23.191-3.929 8.433-.384 14.279-.384 14.279v13.225c-20.028.096-26.353 2.204-26.353 2.204s-6.325-2.108-26.353-2.204v-13.225s3.545-5.846-.384-14.279c0 0-9.104-18.016 7.283-23.191 0 0 4.504-1.629 11.308-1.916 0 0 7.954.191 8.146-2.492" id="path30313"/></clipPath><clipPath id="clipPath30317"><path d="M144.567 362.137h68.031v-70h-68.031z" id="path30319"/></clipPath><clipPath id="clipPath30323"><path d="M0 841h595V0H0z" id="path30325"/></clipPath><clipPath id="clipPath30329"><path d="M.36 841.68H595.8V0H.36z" id="path30331"/></clipPath><clipPath id="clipPath30349"><path d="M144.567 362.137h68.031v-70h-68.031z" id="path30351"/></clipPath><clipPath id="clipPath30355"><path d="M0 841h595V0H0z" id="path30357"/></clipPath><clipPath id="clipPath30361"><path d="M.36 841.68H595.8V0H.36z" id="path30363"/></clipPath><clipPath id="clipPath30475"><path d="M229.606 362.137h68.032v-70h-68.032z" id="path30477"/></clipPath><clipPath id="clipPath30481"><path d="M0 841h595V0H0z" id="path30483"/></clipPath><clipPath id="clipPath30487"><path d="M.36 841.68H595.8V0H.36z" id="path30489"/></clipPath><clipPath id="clipPath30569"><path d="M263.589 298.126c4.05 3.118 11.069 4.711 11.069 4.711 15.391 4.86 10.531 19.035 10.531 19.035-.54 1.62-1.215 6.21-1.215 6.21-1.485 13.095 4.05 21.195 4.05 21.195-3.241 3.105-6.075 7.425-6.075 7.425-7.966-2.835-18.36-2.551-18.36-2.551s-10.395-.284-18.361 2.551c0 0-2.834-4.32-6.075-7.425 0 0 5.536-8.1 4.05-21.195 0 0-.675-4.59-1.215-6.21 0 0-4.86-14.175 10.531-19.035 0 0 7.02-1.593 11.07-4.711" id="path30571"/></clipPath><clipPath id="clipPath30581"><path d="M229.606 362.137h68.032v-70h-68.032z" id="path30583"/></clipPath><clipPath id="clipPath30587"><path d="M0 841h595V0H0z" id="path30589"/></clipPath><clipPath id="clipPath30593"><path d="M.36 841.68H595.8V0H.36z" id="path30595"/></clipPath><clipPath id="clipPath30691"><path d="M314.646 362.137h68.031v-70h-68.031z" id="path30693"/></clipPath><clipPath id="clipPath30697"><path d="M0 841h595V0H0z" id="path30699"/></clipPath><clipPath id="clipPath30703"><path d="M.36 841.68H595.8V0H.36z" id="path30705"/></clipPath><clipPath id="clipPath30831"><path d="M0 841h595V0H0z" id="path30833"/></clipPath><clipPath id="clipPath30837"><path d="M.36 841.68H595.8V0H.36z" id="path30839"/></clipPath><clipPath id="clp12"><path d="M.06 793.02h609V.06H.06z" id="path11837"/></clipPath><path d="M364.8078 90.71c-3.8252 25.5335 30.904 221.1975 223.108 219.693 223.1226-1.7465 223.6216-220.0315 225.918-220.0236" id="path3533-1" fill="none" stroke="#000" stroke-width="1" stroke-linecap="butt" stroke-linejoin="miter" stroke-opacity="1"/><path id="path4509-9" d="M-563.9094 959.5077a247.4874 227.2843 0 01214.1102 114.5135 247.4874 227.2843 0 01-1.262 227.5435 247.4874 227.2843 0 01-215.369 112.5048" transform="matrix(-.01208 .97595 .96678 .01197 -935.8173 1157.3714)" fill="none" stroke="#000" stroke-width="3" stroke-miterlimit="4" stroke-dasharray="none" stroke-dashoffset="0" stroke-opacity="1"/><path id="path4509-9-2" d="M-563.9094 959.5077a247.4874 227.2843 0 01214.1102 114.5135 247.4874 227.2843 0 01-1.262 227.5435 247.4874 227.2843 0 01-215.369 112.5048" transform="matrix(-.01208 .97595 .96678 .01197 -935.8173 1157.3714)" fill="none" stroke="#000" stroke-width="3" stroke-miterlimit="4" stroke-dasharray="none" stroke-dashoffset="0" stroke-opacity="1"/><path id="path4509-9-2-1" d="M-563.9094 959.5077a247.4874 227.2843 0 01214.1102 114.5135 247.4874 227.2843 0 01-1.262 227.5435 247.4874 227.2843 0 01-215.369 112.5048" transform="matrix(-.01208 .97595 .96678 .01197 -935.8173 1157.3714)" fill="none" stroke="#000" stroke-width="3" stroke-miterlimit="4" stroke-dasharray="none" stroke-dashoffset="0" stroke-opacity="1"/><path id="path4629-2" d="M820.703 717.187a227.1429 218.5714 0 01196.5093 110.1237 227.1429 218.5714 0 01-1.1581 218.8207 227.1429 218.5714 0 01-197.6649 108.1919" transform="matrix(-1.03723 0 0 .99987 2071.4937 -124.2987)" fill="none" stroke="#000" stroke-width="3" stroke-miterlimit="4" stroke-dasharray="none" stroke-dashoffset="0" stroke-opacity="1"/><path id="path4629-2-4" d="M820.703 717.187a227.1429 218.5714 0 01196.5093 110.1237 227.1429 218.5714 0 01-1.1581 218.8207 227.1429 218.5714 0 01-197.6649 108.1919" transform="matrix(-1.03723 0 0 .99987 2071.4937 -124.2987)" fill="none" stroke="#000" stroke-width="3" stroke-miterlimit="4" stroke-dasharray="none" stroke-dashoffset="0" stroke-opacity="1"/><path transform="matrix(-1.03723 0 0 .99987 2071.4937 -124.2987)" d="M820.703 717.187a227.1429 218.5714 0 01196.5093 110.1237 227.1429 218.5714 0 01-1.1581 218.8207 227.1429 218.5714 0 01-197.6649 108.1919" id="path4629-2-4-1" fill="none" stroke="#000" stroke-width="3" stroke-miterlimit="4" stroke-dasharray="none" stroke-dashoffset="0" stroke-opacity="1"/><path transform="matrix(-1.03723 0 0 .99987 2071.4937 -124.2987)" d="M820.703 717.187a227.1429 218.5714 0 01196.5093 110.1237 227.1429 218.5714 0 01-1.1581 218.8207 227.1429 218.5714 0 01-197.6649 108.1919" id="path4629-2-7" fill="none" stroke="#000" stroke-width="3" stroke-miterlimit="4" stroke-dasharray="none" stroke-dashoffset="0" stroke-opacity="1"/><path transform="matrix(-.01208 .97595 .96678 .01197 -935.8173 1157.3714)" d="M-563.9094 959.5077a247.4874 227.2843 0 01214.1102 114.5135 247.4874 227.2843 0 01-1.262 227.5435 247.4874 227.2843 0 01-215.369 112.5048" id="path4509-9-2-1-1" fill="none" stroke="#000" stroke-width="3" stroke-miterlimit="4" stroke-dasharray="none" stroke-dashoffset="0" stroke-opacity="1"/><path transform="matrix(-.01208 .97595 .96678 .01197 -935.8173 1157.3714)" d="M-563.9094 959.5077a247.4874 227.2843 0 01214.1102 114.5135 247.4874 227.2843 0 01-1.262 227.5435 247.4874 227.2843 0 01-215.369 112.5048" id="path4509-9-2-5" fill="none" stroke="#000" stroke-width="3" stroke-miterlimit="4" stroke-dasharray="none" stroke-dashoffset="0" stroke-opacity="1"/><path transform="matrix(-.01208 .97595 .96678 .01197 -935.8173 1157.3714)" d="M-563.9094 959.5077a247.4874 227.2843 0 01214.1102 114.5135 247.4874 227.2843 0 01-1.262 227.5435 247.4874 227.2843 0 01-215.369 112.5048" id="path4509-9-5" fill="none" stroke="#000" stroke-width="3" stroke-miterlimit="4" stroke-dasharray="none" stroke-dashoffset="0" stroke-opacity="1"/><path id="path3533-1-4" d="M364.8078 90.71c-3.8252 25.5335 30.904 221.1975 223.108 219.693 223.1226-1.7465 223.6216-220.0315 225.918-220.0236" fill="none" stroke="#000" stroke-width="1" stroke-linecap="butt" stroke-linejoin="miter" stroke-opacity="1"/><linearGradient id="0"><stop stop-color="#00aaec" id="stop3450"/><stop stop-color="#0076d0" offset="1" id="stop3452"/></linearGradient><linearGradient xlink:href="#0" id="1" x1="255.67" x2="641.65" gradientUnits="userSpaceOnUse"/><linearGradient xlink:href="#0" id="2" x1="725.2" x2="861.7" gradientUnits="userSpaceOnUse"/><linearGradient x1="826.262" y1="1673.47" x2="826.262" y2="11.7739" id="id0-4" gradientUnits="userSpaceOnUse"><stop offset="0" id="stop9" stop-color="#fff" stop-opacity="1"/><stop offset=".2784" id="stop11" stop-color="#fffffc" stop-opacity="1"/><stop offset=".7098" id="stop13" stop-color="#ffea01" stop-opacity="1"/><stop offset="1" id="stop15" stop-color="#c92221" stop-opacity="1"/></linearGradient><style id="style2989" type="text/css"/><style type="text/css" id="style6"/><style type="text/css" id="style6-5"/><style type="text/css" id="style6950"><![CDATA[.fil0{fill:#C52F33}.fil1{fill:#C52F33;fill-rule:nonzero}]]></style><radialGradient cx="698.286" cy="277.224" r="125.776" fx="698.286" fy="277.224" id="id1" gradientUnits="userSpaceOnUse"><stop offset="0" id="stop18" stop-color="#fae300" stop-opacity="1"/><stop offset=".4902" id="stop20" stop-color="#f78b14" stop-opacity="1"/><stop offset="1" id="stop22" stop-color="#f53327" stop-opacity="1"/></radialGradient></defs><g transform="translate(-681.7868 -1912.9126)" id="layer1"><g transform="translate(529.0852 1496.7452) scale(.47037)" id="layer1-3"><g transform="translate(17.715 17.6779)" id="g16480" fill="#d40000" fill-rule="evenodd" stroke="none"><path d="M69.5 7.9688l-3.4063 3.875h66.5938l-3.625-3.875zM42.25 14.5l-2.875 3.125h99.0938l-2.9063-3.125zm-2.5 5.5938l4.1875 4.0312h47.3438l4.0624-4.0313zm108.1563 6.6874l-90.2813.0626 3.25 3.2812h90.1563zm-85.9688 5.7813s.45 1.302.5313 2.1563c.122 1.0982 0 2.25 0 2.25H78.375l4.3125-4.4063zm0 6.6875l-2.5625 3.5H163.75l-3.4063-3.5zm-4.9063 5.625l-4.25 4.0313h15.1563l2.9688-4.0313zM50 51.625l-2.8125 3.1875h128.5313l-2.9063-3.1875zm-4.5625 5.75s-.9836 1.1146-1.5938 1.9688c-.61.8948-1.125 2.4062-1.125 2.4062H63.375s.1622-1.5114.4063-2.4063c.2847-.8541.5312-1.9687.5312-1.9687zm-3.875 6.6563s-.3963.6989-.8438 1.5937c-.4474.8542-.75 1.6563-.75 1.6563h148.4688l-3.2188-3.25zM39 69.8124s-.5997 1.1488-.8438 2.125c-.2847.9762-.5312 2.0938-.5312 2.0938h26.0625s-.0873-1.0551-.25-2.0313c-.2034-.9355-.1875-2.1875-.1875-2.1875zm-1.9063 6.6563s-.3685.8239-.5312 1.7187c-.2034.8542-.2813 1.6563-.2813 1.6563h164.5625l-2.875-3.375zm-.9687 5.9062s-.1156 1.18-.1563 2.1563c-.0813.9761-.125 2.0625-.125 2.0624H69.5l-3.0938-4.2187zm-.2188 6.7813S36 90.1115 36 90.8436c0 .6915.0313 1.4688.0313 1.4688H213.5l-2.7188-3.1563zm.4688 5.7812s.1186 1.446.2813 2.2188c.1626.8134.5937 2.0937.5937 2.0937h50.5313s-2.7287-1.2178-4.8438-2.0313c-2.115-.7728-4.5625-2.2812-4.5625-2.2812zm106.2188.0938L138.375 99.25h29.8125l-4.1563-4.2188zm-104.6563 6.9374s.1434.7803.4688 1.5938c.366.7728.5937 1.375.5937 1.375h187.4375l-3.3438-2.9688zm-34 5.5313L.375 111.375h180.7813l3.7187-3.875zM0 114.25l3.0938 3.1875h235.625l-3.25-3.1875zm47.375 5.8438l3.0625 3.6874h142.4063l-3.875-3.6874zm-41.8438.0624l3.6875 3.5h12.8125l-3.7812-3.5zm7.125 6.75l3.1563 3.0313h12.2813L25.5 126.9062zM53.9376 127s.9801.7963 1.875 1.4063c.8541.6102 1.9062 1.5312 1.9063 1.5312h193.7187L248.6562 127zM18.25 132.7188l4.0938 3.7812h12.625l-3.8438-3.7813zm43.6875 0s1.6696.977 3.5 1.75c1.871.8134 5.125 2.0312 5.125 2.0312h35.5938l7.9062-3.7813zm103.9375 0s.5303.7861 1.3438 1.8437c.7728 1.0575 1.5937 1.9063 1.5937 1.9063l36.875-.0312-3.875-3.7188H165.875zm-140.75 6.8437l3.0938 2.9375h12.4687l-3.0938-2.9375zm146.6563 0l4.4687 3h87.5313s-.5402-.8962-.9063-1.3438c-.366-.4067-1.5-1.6562-1.5-1.6562zm8 5.6563s1.6007 1.0643 3.5937 2c2.0337.9762 5.875 2.0937 5.875 2.0937h75.5938s-.8274-1.0462-1.4375-1.6563c-.6102-.6102-2.5626-2.4374-2.5625-2.4375zm-148.8125.0937l3.9374 3.8437h12.6563l-4.0938-3.8438zm6.6562 6.5625l2.5313 2.9062H53l-2.8125-2.9063zm193.9063.3437s2.177.64 5.5937 1.25c3.4166.6101 9.4688 1.8437 9.4688 1.8438h30.0625l-2.7813-3.0938zM43.3125 157.75l4.25 4.0625h5.5938V157.75zm212.625.2813l6.875 4.1562h14.4688l-3.7813-4.1563zm-206.0313 6.5l3.3438 3.1875v-3.1875zm219.7188.5312s1.2545.7648 2.7188 1.375c1.5049.6101 4.4062 1.5313 4.4062 1.5313h12.0313l-2.2813-2.9063z" transform="translate(306.9275 867.0932)" id="path16213"/><path d="M641.2305 974.0773c1.505.0813 71.1802 0 72.4004.0813 1.261.0814 1.749.2034 1.871 1.9524.0814 1.749-.0407 32.4988-.0407 36.729 0 4.1895 2.3998 8.501 9.1518 8.501s9.233-4.2301 9.3144-7.9723c.0813-3.7826 0-36.4036 0-37.7051 0-1.3016.3254-1.5863 1.5863-1.5863h16.5952c1.2202 0 1.383.2847 1.4643 1.871.122 1.5863.0407 24.2419-.0407 35.9155-.122 11.6736-5.2877 24.486-29.0009 24.3233-23.7132-.1627-28.8382-13.9512-28.8382-23.7131v-20.5814c0-1.1388-.4474-1.8303-1.8303-1.749-1.4236.0814-13.1378 0-14.2767 0-1.1389 0-1.9524.4475-1.993 1.871 0 1.627 0 39.4543-.0408 40.8779-.0407 1.2609-.2033 1.5863-1.4236 1.5863-1.2609 0-15.985.041-17.0425 0-.9762 0-1.139-.4881-1.139-1.627 0-1.1388-.122-39.7796-.0406-41.0405.122-1.2202-.3254-1.6677-1.5457-1.6677-1.2609 0-13.0158.0407-14.8868.0407-1.5456 0-1.749-.5287-1.749-1.993 0-1.505.122-11.0228 0-12.3244-.0813-1.3015-.1627-1.871 1.505-1.7896zm121.7791-.0407c1.3016 0 15.009.0407 15.8224.0407.7728 0 1.383-.0814 2.1964 1.2202.7728 1.3423 17.734 27.6993 18.5069 29.001.8134 1.3014 1.5863 1.5048 1.505-.3662-.0814-1.8302-.1628-26.5197-.2441-27.9026-.122-1.4236.4067-1.9524 1.6676-1.9524 1.2203 0 14.114-.0407 15.5376-.0407 1.383 0 1.749 0 1.749 1.871 0 1.8304.0814 54.5443.2034 56.2935.0814 1.7489.0814 2.2777-2.115 2.2777-2.1965 0-14.1547.041-15.2936-.041-1.1389-.081-1.749-.244-2.6439-1.5864-.8948-1.3015-17.6527-26.9672-18.4661-28.106-.7729-1.1389-1.6677-2.8065-1.4643-.081.1627 2.7252.7728 26.3977.7728 27.8212 0 1.383-.0814 2.1151-1.8304 2.0338-1.749-.122-14.3174.041-15.741-.041-1.3829-.081-1.3829-.4474-1.3829-2.5625s-.122-55.0732-.122-56.3747c0-1.3016.122-1.505 1.3422-1.505zm68.1704 0c1.4236-.0814 15.4562.122 16.6765.0407 1.2609-.0814 1.5863 0 1.6676 1.505.122 1.4642.2847 55.3578.2034 56.8628-.0814 1.4643 0 1.9931-2.115 1.9931-2.1151 0-14.7649.041-16.2698.041-1.4643 0-1.8304-.4474-1.8304-2.481 0-2.0338.0814-53.4463 0-55.3987-.0813-1.9117.244-2.4405 1.6677-2.5625zm26.2756 41.7727h16.2291c1.0575 0 1.4236.2846 1.871 1.4236.4474 1.1388 2.1965 4.7996 9.1111 4.7996 5.6538 0 7.3214-2.2778 7.3214-4.1896 0-1.9523-.9762-3.7827-4.4742-4.6775-3.5387-.8541-14.1547-3.0506-18.5475-5.247-5.003-2.5219-11.5922-5.5317-11.5922-16.5138 0-10.8194 10.0872-18.751 24.7707-18.8323 24.6894-.0814 26.6824 15.253 27.1298 16.9206.4474 1.6676.4474 2.2777-1.0575 2.2777-1.4643 0-15.2936-.0407-16.4325-.0407-1.1389 0-1.3016-.5288-1.8303-1.749-.5288-1.2202-1.8304-3.498-7.5655-3.498-4.8402 0-6.0605 1.993-6.0605 3.9454 0 1.9117 1.6677 3.2133 6.0605 4.393 4.9216 1.3015 18.0188 4.0267 22.493 7.728s6.3452 7.118 6.3452 14.236c0 7.1181-5.5317 13.1786-9.6805 15.5377-4.1081 2.3591-11.877 3.62-16.9612 3.62-5.0843 0-17.6527-1.6676-22.9404-7.9316-5.247-6.2231-5.1657-9.477-5.4097-10.6159-.2847-1.139-.2034-1.5863 1.2202-1.5863zm52.5107 17.0018c.5694-1.5863 19.605-55.2765 20.1338-56.7001.5288-1.383 1.0576-1.9117 2.2778-1.9117h17.4086c1.3016 0 1.9117.244 2.3592 1.5863.4474 1.3016 20.0524 55.3579 20.5812 56.6595.5288 1.3423 1.1389 1.9524-1.0575 2.0337-2.1964.081-15.375.041-16.5952.041-1.2609 0-1.7083-.1627-2.115-1.505-.4475-1.3015-1.139-4.0267-1.4237-5.0843-.244-1.0575-1.1389-1.4236-2.6438-1.3015-1.4643.081-14.48 0-16.0664.081-1.5863.122-1.749.3661-2.115 1.7083-.3255 1.3016-.8542 3.4573-1.3016 4.8809-.4475 1.383-1.3423 1.3016-2.3998 1.3016-1.0169 0-15.1716-.2033-16.3105-.122-1.1389.081-1.2202-.2033-.7321-1.6677zm25.3401-19.7677c.3661-1.5049 4.637-16.3105 5.003-17.7749.3254-1.5048.9355-1.3421 1.4643.1628.5288 1.505 5.125 16.88 5.4504 17.8154.366.9763-.5288 1.139-1.5863 1.139-2.0744 0-7.2808.041-9.3145-.041-1.1389-.041-1.3016-.244-1.0169-1.3016zm41.61 18.9136c0-1.4643-.0814-53.975-.0814-55.724 0-1.749.2847-1.9117 2.1964-1.993 1.9524-.122 14.3987-.0407 15.8223-.0407 1.4236 0 2.2778-.2034 2.2778 1.749 0 1.9117.0814 55.3171.0814 56.6594 0 1.3017 0 1.993-1.4643 1.993-2.1964 0-16.0257.081-17.4086 0-1.4236-.081-1.4236-.6913-1.4236-2.6438zm30.5871-57.7984c1.3016-.0813 20.8253.0407 31.1973.0407s22.737 3.376 22.737 17.5307c0 10.5347-6.752 13.5445-7.9722 14.0733-1.2202.5288-1.4236.6916-.081 1.3017 1.3015.61 6.996 2.4811 7.8908 9.0703.8948 6.5892.6915 12.8938.6915 14.236 0 1.3017.6101 1.7491 1.3422 2.0744.6915.3661.9355 2.0338-.2033 2.0338-1.1389 0-16.3105 0-17.8154.081-1.505.081-2.0338-.7728-2.2778-2.8878-.2847-2.1151-.2847-8.8672-.4474-11.3483-.1627-2.4405-.7729-4.2708-2.8879-5.4502-2.1151-1.139-4.5149-1.2203-6.2639-1.2203-1.749 0-5.1249.041-6.1825.041-1.0575 0-1.6676.2846-1.5863 2.3184.081 1.993.041 15.4156.041 16.5544 0 1.139.2847 1.8711-1.6677 1.8305-2.0744 0-14.7648.041-16.0664.041-1.3422 0-1.7896-.3661-1.7896-1.9931.041-2.5623.041-54.3816-.081-56.0493-.081-1.6677.1221-2.1964 1.4236-2.2778zm19.4017 14.9275c1.9524 0 8.0129-.0813 11.1041 0 3.0506.122 5.1657 2.8066 5.1657 5.5317 0 2.7252-2.2778 6.1826-5.003 6.1826-2.7251 0-10.4533.081-11.2668 0-.7728-.081-1.4643-.6915-1.4643-2.1151v-8.379c0-.8948.5288-1.2202 1.4643-1.2202" id="path16215"/><path d="M673.5938 0c-.3277-.044-.4688.5244-.4688 1.3125 0 1.2202.0406 58.4851 0 60.4375-.0813 1.9524-.263 2.1686-2.5 2.25-1.749.0407-3.4891-.0814-4.75 0-1.3016.0407-1.5312-.6672-1.5313-1.9688 0-1.2609.0313-31.2172.0312-32.4374 0-1.2203-.7649-.8135-1.375 0-.6507.8134-3.7053 4.8591-9.5625 10.1874-5.857 5.3284-11.8452 8.0512-15.75 12.2813-3.9454 4.2301-4.7623 9.7168-4.8437 11.3438-.0407 1.6676 0 9.0109 0 10.3124 0 1.3423.2173 1.5814 1.4375 1.5 1.2202-.0406 16.0987 0 17.1563 0 1.0575 0 1.375.0516 1.375 1.3126 0 1.7896-2.9688 10.6562-13.2188 10.6562-9.4365 0-12.1805-6.2644-12.75-7.2813-.5695-.9761-1.2282-.8387-1.1875.2188.0814 1.0575 1.5705 6.0452 5.3125 10.0313 3.7827 3.986 9.616 6.0094 14.375 5.9687 4.7589-.0814 9.5819-1.7227 14.2188-6.1563 4.6368-4.4741 5.053-10.4945 5.0937-12.4062.0814-1.9524.7361-2.3844 1.875-2.3438 1.1796.0814 161.205 0 162.3438 0 1.0983 0 .938-.5248.5312-.6874-.4068-.1628-.9023-.499-1.5938-1.3126-.732-.8134-1.7282-1.8561-1.6875-4.5.0813-2.6438 0-66.0233 0-67.4062 0-1.4236-.7306-1.0605-1.2187-.125-.4474.9355-2.261 3.9137-6.125 8.0625-3.864 4.1895-8.3175 6.387-9.375 6.875-1.0576.4474-.8413.9812-.3125 1.0625.5288.0407 1.3763.0427 2.7188.9375 1.342.8542 2.4374 2.5491 2.4375 5.8438 0 3.2539.0625 36.6547.0625 37.875 0 1.3015-.1464 2.0937-.5938 2.0937-.4881 0-3.0369.0814-3.6875 0-.6103-.0407-.9375-.5149-.9375-1.125 0-.6508-.5313-5.318-3.0938-8.5313-2.5626-3.2132-6.4262-5.3467-10.6562-5.4687-4.2302-.122-20.8353.0218-22.625.0625-1.5863 0-6.375.0278-8.9375-2.25-3.498-3.0913-3-6.8264-3-8.25 0-1.383-.6056-.929-1.0938-.1563-.4474.7322-3.313 6.5378-8.0312 11.5-4.7589 5.003-11.0452 8.7272-12.4688 9.5-1.4236.7322-1.0794 1.2-.0625 1.2813.9762.0407 55.5238-.0407 56.5 0 1.2202.0407 2.0938.7113 2.0938 1.6875 0 1.0169-.6576 1.6686-2 1.75-1.3827.0407-58.8199.0625-60.4062.0625-1.5863 0-1.4375-.7525-1.4375-1.2813 0-.5287.1095-3.739-2.6563-7.5624-2.237-3.0913-6.632-6.0407-11.1875-6-4.5555.0406-22.7078-.0814-26.5312 0-3.7827.0406-8.5407-3.6717-8.5-9 .0813-5.3284 0-9.9281 0-12.5313 0-2.5625-.1795-6.185 1-8.2188 1.1389-2.0743 3.0927-2.3402 3.9063-2.625.8135-.3253.9007-.7901.25-1.1562-.6508-.3254-4.0571-2.1454-8.5313-5.9688-4.5149-3.7827-6.3551-7.3794-7.25-8.8437-.3203-.5491-.5846-.786-.7813-.8125zm160.0625.125c-.3762.0437-.5821.829-.5313 1.7188.0407 1.3829.0502 71.4677-.0312 72.2812-.0406.7728-.004 1.053.6875 1.0938.7322.0813 13.1087 0 13.7188 0 .5694 0 .6473-.6593.2812-.7813-.366-.0814-.6522-.446-1.3438-1.2188-.6914-.732-1.4281-1.3794-1.4687-2.8437-.0407-1.4643-.0814-43.626 0-47.9375.0406-4.2708 3.1388-5.2153 4.5625-5.5 1.4236-.2847.807-.687.1563-1.0938-.6508-.4067-3.7328-2.1145-7.7188-5.5312-3.9861-3.376-6.502-7.5635-7.4375-9.3125-.3508-.6559-.6493-.9012-.875-.875zM512.25.2813c-.2542-.0306-.5684.2306-.8125.7187-.4474 1.0169-2.0452 4.248-6.0313 8.4375-3.986 4.1488-8.0674 6.315-9.125 6.8438-1.0575.5287-.8382.6934-.1875.9374.6509.244 1.439.1896 2.7813 1.125 1.3423.9356 2.2689 2.6975 2.1875 4.8126-.0407 2.0743.0937 38.6393.0937 39.6562 0 .9762-.371 1.0843-1.0625 1.125-.6915.0814-4.8363.0814-5.8125 0-1.0169-.0407-1.3437-.2857-1.3438-1.75V29.3437c0-.8541-.684-.735-.9687-.125-.2847.6508-2.195 4.2322-6.3438 8.625-4.1488 4.3929-8.0704 6.262-9.25 6.75-1.1795.4475-.8913.9376-.2812.9376.5694 0 1.6265.2708 2.9688 1.125 1.3422.8948 2.0312 2.4424 2.0312 3.5 0 1.0168.0937 10.7762.0937 12.2812 0 1.5456-.4955 1.4811-1.5938 1.5625-1.1388.0407-12.7609-.0625-14.0624-.0625-1.261 0-1.5313-.4454-1.5313-1.625V28.6562c0-1.1795-.5025-.9007-1.0313-.25-.5287.6509-2.808 4.0899-9.0312 9.9063-6.1825 5.7758-10.9628 7.8596-15.8438 12.7813-4.8402 4.9215-5.0624 10.2911-5.0624 12.4062 0 2.115.0312 10.0928.0312 10.9063 0 .7728.1552.8437.9687.8437s14.5258-.0313 16.4375-.0313c1.9524 0 1.5749.2917 1.6563 2 .0407 1.505-3.2476 9.875-12.9688 9.875-9.111 0-12.2931-6.6617-12.7812-7.3124-.4475-.6508-.8096-.5511-.6875.3437.122.8542 1.0714 4.9797 4 8.8438C432.6159 92.8328 438.4617 96 444.156 96c5.6538 0 9.5164-1.2103 14.0313-5.5625 4.7182-4.5149 5.4498-12.0576 5.5312-13.5625.0407-1.5456.5268-1.6562 1.625-1.6563h50.6563c.8948 0 .9037-.6215.375-.9062-.5288-.2847-1.321-.5208-2.0938-1.375-.7321-.8948-1.5437-1.681-1.625-4.4063-.0407-2.7658.0312-66.2455.0312-67.3437 0-.5694-.1833-.8757-.4375-.9063zm9.8125.1875c-.4262-.072-.6054.6473-.6563 1.5625-.0407 1.4642-.05 69.6324.0312 71.2187.0407 1.5863.1866 2.0124 1 2.0938.8542.0406 12.9113.1125 13.9688.0312 1.0575-.0407.7723-.5779.4063-.7813-.3254-.1627-.6022-.2866-1.375-.9374-.7729-.6102-2.0625-1.56-2.0625-3.5938 0-2.0337.1125-42.7446.0312-47.2188-.0407-4.4335 2.998-5.2152 4.625-5.5 1.627-.2847 1.0228-.937.25-1.3437-.7729-.4068-4.1167-2.0233-8.4688-5.9688-4.3115-3.9047-5.9147-7.1765-6.6875-8.4375-.4423-.7473-.8068-1.0818-1.0625-1.125zM575.5 1.25c-.3254-.0305-.7277.2197-1.0938.6875-.6914.9355-3.7306 5.387-6.7812 8.4375-3.0506 3.0506-6.9325 5.1429-8.4375 5.875-1.505.6915-.6538.803-.125.8438.5288.0813 1.2262-.0293 2.8125.9062s2.3874 3.0278 2.4688 5.875c.0407 2.8879 0 36.5293 0 38.1563 0 1.627-.3458 1.9062-1.2813 1.9062h-7.8438c-1.0168 0-1.4687.3492-1.4687 1v5.5938c0 1.871-2.0457 3.2524-3.0625 3.7812-.9762.5288-.5169.8968.5.9375.9762.0814 69.7386-.0188 71.4063.0625 1.627.0407 1.7936-.499 1.875-1.3125.0407-.8135-.072-8.4712-.0312-11.5625.0813-4.1488-2.37-7.7232-3.875-9.1875-1.505-1.4643-4.8726-4.1468-9.4688-4.1875-4.6369-.0813-18.5392.072-24.8438.0313-6.4265-.0814-10.1374-4.082-10.2187-8.7188-.0407-3.0912.0313-37.0392.0312-38.2188 0-.5897-.2371-.8757-.5625-.9062zm180 4.625c-3.254 0-5.9375 2.621-5.9375 5.875 0 3.2946 2.6835 5.9688 5.9375 5.9688s5.875-2.6742 5.875-5.9688c0-3.254-2.6211-5.875-5.875-5.875zm-513.3125.0313c-3.2946 0-5.9375 2.6522-5.9375 5.9062a5.9178 5.9178 0 005.9375 5.9375c3.254 0 5.875-2.6429 5.875-5.9375 0-3.254-2.621-5.9063-5.875-5.9063zm178.0938.0312c-3.254 0-5.875 2.6523-5.875 5.9063 0 3.2946 2.621 5.9375 5.875 5.9375a5.9178 5.9178 0 005.9375-5.9376c0-3.2539-2.643-5.9062-5.9375-5.9062zm67.0312 0c-3.254 0-5.875 2.6523-5.875 5.9063s2.621 5.9062 5.875 5.9062c3.2946 0 5.9375-2.6523 5.9375-5.9063 0-3.2539-2.6429-5.9062-5.9375-5.9062zM257.4375 6c-3.254 0-5.9063 2.6835-5.9063 5.9375s2.6523 5.875 5.9063 5.875c3.2946 0 5.9375-2.621 5.9375-5.875S260.7321 6 257.4375 6zm214.7813 0c-3.254 0-5.875 2.621-5.875 5.875s2.621 5.9063 5.875 5.9063c3.2539 0 5.9375-2.6523 5.9375-5.9063S475.4726 6 472.2188 6zm-205.375 12.125c-.2848.0102-.6558.3899-1.0625 1-.7729 1.2202-5.7838 6.9569-11.4375 11.5938-5.6131 4.6775-8.0452 5.621-12.0313 8.875-3.9454 3.2539-5.5431 7.8516-6.0313 11.5937-.5694 3.7827-.375 10.255-.375 11.3125 0 1.2202.3428 1.4375 1.1563 1.4375.8135 0 15.7297.0407 17.0313 0 1.3015-.0407 1.375.5422 1.375 1.8438 0 1.2202.0853 5.0357-.6875 6.5-.7729 1.4642-1.6618 1.6339-2.3125 2-.6508.3253-.748.9687.1875.9687s173.5699.0501 175.1562-.0313c1.3016-.0406.4737-1.0238-1.0313-2-1.0575-.6507-1.4374-1.6572-1.4375-3.4062V29.4062c0-1.1388-.4588-.932-.9062-.2812-.488.6101-2.7198 4.4822-7.0313 8.875-4.3521 4.3928-7.2043 5.4147-8.75 6.1875-1.5049.7321-1.0912 1.0937-.5625 1.0938.5288 0 1.1826.171 2.6875.7812 1.749.6508 2.3344 2.8135 2.375 4.5625.0407 1.749 0 11.1612 0 12.2188 0 1.0575-.0928 1.0937-.9062 1.0937h-11.0313c-1.0168 0-1.0748-.2173-1.1562-1.4375-.0407-1.2202-.0313-31.3205-.0312-32.5 0-1.1796-.5526-.7917-1 .0625-.488.8135-2.5015 4.4544-6.4063 8.5625-3.9454 4.1081-8.061 6.1711-9.2812 6.7813-1.2202.5694-.5695.8467 0 .9687.5694.122 1.6483.2083 3.0313 1.0625 1.3422.8948 1.8655 2.0823 1.9062 3.75.0407 1.7083 0 10.2019 0 11.2188 0 1.0575-.3145 1.5312-1.25 1.5312s-7.0863.1032-8.0625.0625c-.9762-.0814-1.0501-.5427-.9688-1.4375.0407-.8948-.1344-12.8795-.0937-14.3438.0814-1.4642-.568-1.31-1.2187-.7812-.6508.5288-1.4524 1.4727-4.625 3.3438-3.1726 1.871-6.1176 2.2589-7.0938 2.625-1.0168.366-.1661.7777.2813 1.0624.488.2848.825 1.1146.9063 1.9688.0406.8135-.0314 4.9018-.0313 6 0 1.0982-.4335 1.4593-1.125 1.5-.6914.0814-6.7019 0-7.7187 0-.9762 0-.9375-.4018-.9375-1.5 0-1.1389.0813-13.8552 0-14.75-.0407-.8949-.64-.8943-1.25-.4063-.6508.4475-2.4559 2.2858-5.3438 3.75-2.9692 1.4643-5.2862 1.8716-6.3437 2.1563-1.0576.3254-.6508.8403 0 1.125.6508.2847 1.0625.933 1.0625 2.0313 0 1.1388.0501 5.0486-.0312 6.1874-.0407 1.1796-.3269 1.4063-1.3438 1.4063-.9761 0-45.058-.0814-46.1562 0-1.0982.0407-1.125-.383-1.125-1.5625 0-1.1796.0501-31.4608-.0312-32.8438-.0407-1.4236-.565-1.1636-1.0938-.1874-.5287 1.0168-2.3452 3.9886-6.25 8.2187-3.9454 4.2301-8.1612 6.243-9.2187 6.8125-1.0575.6101-.4038.9062.125.9063.5288 0 1.1826.2738 2.6875 1.25 1.505.9761 2.0313 2.5883 2.0312 4.5v11.6562c0 1.0575-.2738 1.3437-1.25 1.3438-.9355 0-13.3144-.0814-14.25 0-.9761.0813-1.3437-.2833-1.3437-1.2188 0-.9762.0937-41.5759.0937-43.4063 0-.9355-.184-1.2914-.4688-1.2812zm-12.375 27.5625c.7728.0407 1.0937.4896 1.0937 1.3438 0 .8948.0719 4.7554.0312 5.4062-.0813.6101-.2108 1.0938-1.5938 1.0938h-5.3437c-.6915 0-.7813-.3865-.7813-1.2813 0-.9355.7605-3.3765 2.4688-4.7188 1.7084-1.3422 3.3522-1.8844 4.125-1.8437zM451.125 55.9063c.6508-.122 1.3001.2772 1.2188.9687-.0407.6915.0813 5.318 0 5.9688-.0407.61-.1801 1.0123-1.1563 1.0937-1.0169.0407-4.5928 0-5.4063 0-.9761 0-1.2222-.7049-.9375-1.8438.2848-1.1795 1.198-3.3422 2.9063-4.5624 1.6676-1.2203 2.7649-1.503 3.375-1.625zm200.7188.8437c.4474.0814.6875.193.6875.8438v5.3124c0 .6915.0923 1.0938-1.25 1.0938h-5.4375c-.6102 0-1.3036-.2173-.9375-1.4375.3254-1.2202 1.0694-3.2173 3.0625-4.4375 1.993-1.2609 3.3869-1.4157 3.875-1.375zm-69.125 3.7188c9.2146-.0115 26.9955.0312 28.0937.0312 1.4643 0 2.1032 1.0055 2.0625 1.6563-.0407.8134-.8016 1.7812-2.0625 1.7812-.8948 0-32.3269.0625-33.3438.0625-.9761 0-1.5719-.5933-1.5312-1 .0814-.4067.0218-.865.0625-1.3125.0814-.6508.3458-1.1468 1.2813-1.1875.2338-.0203 2.3659-.0274 5.4375-.0313zm103.6875.0624c.9354 0 33.1548-.0406 34.375 0 1.2202.0814 1.5813 1.071 1.5 1.8438-.0407.7321-.4018 1.5625-1.5 1.5625-1.139 0-33.5616.122-34.375 0-.8542-.122-.947-1.0803-.9063-1.8125.0407-.6508-.0293-1.5938.9063-1.5938zM282.6875 83.8439c-3.254 0-5.9063 2.6522-5.9063 5.9062 0 3.2946 2.6523 5.9375 5.9063 5.9375a5.9179 5.9179 0 005.9375-5.9375c0-3.254-2.6429-5.9063-5.9375-5.9063zm15.2188 0c-3.254 0-5.9063 2.6522-5.9063 5.9062 0 3.2946 2.6523 5.9375 5.9063 5.9375 3.2539 0 5.9062-2.6429 5.9062-5.9375 0-3.254-2.6523-5.9063-5.9063-5.9063z" transform="translate(306.9275 867.0932)" id="path16217"/></g></g></g></svg>