<svg xmlns="http://www.w3.org/2000/svg" xmlns:xlink="http://www.w3.org/1999/xlink" height="800" width="1200" viewBox="-57.00015 -36.43625 494.0013 218.6175"><defs><linearGradient id="a"><stop offset="0" stop-color="#f9f5a5"/><stop offset=".335" stop-color="#fbda63"/><stop offset=".581" stop-color="#ffc409"/><stop offset="1" stop-color="#ffbf0a"/></linearGradient><linearGradient id="b"><stop offset="0" stop-color="#15b8ec"/><stop offset=".55" stop-color="#15b8ec"/><stop offset=".72" stop-color="#006bb6"/><stop offset="1" stop-color="#006bb6"/></linearGradient><linearGradient gradientUnits="userSpaceOnUse" xlink:href="#a" id="g" y2="438.234" x2="370.833" y1="415.558" x1="322.355"/><linearGradient y2="577.306" x2="319.606" y1="464.688" x1="144.281" gradientUnits="userSpaceOnUse" id="d" xlink:href="#b"/><clipPath id="e"><path d="M285.963 541.117a21.686 21.686 0 01-15.287-6.324l-3.118-6.657c3.276 6.866 10.285 11.629 18.411 11.65a20.367 20.367 0 008.288-1.729l-6.357 2.98c-.618.053-1.244.08-1.875.08h-.062m20.484-21.676a20.344 20.344 0 00-1.882-8.626l3.135 6.695c.053.628.079 1.264.077 1.906a21.694 21.694 0 01-6.301 15.26l-1.725.806-4.65 2.18c6.706-3.333 11.322-10.241 11.346-18.221m-42.109 1.818a22.192 22.192 0 01-.082-1.955 21.7 21.7 0 016.258-15.217l6.572-3.079c-6.791 3.306-11.478 10.266-11.502 18.33a20.27 20.27 0 001.849 8.531zm21.731-22.301h-.052c-2.984 0-5.821.641-8.378 1.792l4.795-2.246 1.773-.831c.615-.05 1.236-.075 1.864-.074a21.688 21.688 0 0115.247 6.283l3.178 6.787c-3.265-6.904-10.285-11.689-18.427-11.711"/></clipPath><clipPath id="h"><path d="M187 480.89h242v97H187z"/></clipPath><clipPath id="c"><path d="M365.239 346.813c-3.411 3.423-61.371 74.362-67.505 80.538-3.755 3.764-7.17 5.825-9.563 6.519-3.355 1.35-23.287 8.141-53.536 17.38h143.391l26.213-105.145-.656-.425a689.508 689.508 0 00-11.268-.092c-9.543 0-22.079.21-27.076 1.225"/></clipPath><clipPath id="f"><path d="M357.469 375.969c-15.028.035-27.193 12.224-27.156 27.25.043 15.029 12.253 27.194 27.28 27.156 10.83-.028 20.146-6.369 24.5-15.531l.126-.281a27.176 27.176 0 002.5-11.47c-.03-10.836-6.383-20.182-15.563-24.53l-.187-.094c-3.476-1.614-7.353-2.5-11.438-2.5h-.062zm0 1.656c14.097-.036 25.551 11.373 25.594 25.438.033 14.1-11.37 25.556-25.47 25.593h-.062c-14.074.001-25.521-11.385-25.562-25.469-.031-14.062 11.396-25.526 25.5-25.562zm.031 1.125c-9.704.021-18.066 5.674-22 13.844l-.219.469a24.297 24.297 0 00-2.187 10.156c.025 9.7 5.718 18.08 13.937 22l.313.125a24.447 24.447 0 0010.281 2.25c6.569-.019 12.541-2.684 16.906-6.906.186-.153.346-.305.5-.5-.154-.152-.31-.313-.5-.47-8.717-8.668-20.63-14.096-33.812-14.374l-1.469 1.469v-6.344h.187c5.334-.012 10.05.467 14.532 1.687-2.44-1.071-5.002-1.864-7.594-2.437v-4.938l28.094-.093h6.031c-1.32-3.514-3.404-6.655-6.063-9.157a24.106 24.106 0 00-6.093-4.281l-.907-.406a24.213 24.213 0 00-9.843-2.094h-.094zm23.594 17.906l-6.625.031h-5.844l-.156 1h6l6.875-.03c-.08-.35-.17-.654-.25-1zm.656 2.969l-7.281.031-15.188.031c6.075 3.42 11.264 8.207 15.219 13.875.311.425.605.822.875 1.25v.063s-.005.021 0 .031c-.01.01 0 .021 0 .063v4.875a24.719 24.719 0 004.094-5.875l.437-.969a24.325 24.325 0 002.063-9.906c0-1.199-.059-2.31-.219-3.469z"/></clipPath></defs><path clip-path="url(#c)" transform="translate(-322.42 -476.683) scale(1.37934)" d="M276.219 263.563L144.28 467.188 319.5 580.28l131.969-203.625z" fill="url(#d)"/><g clip-path="url(#e)" transform="matrix(1.72418 0 0 -1.72418 -322.42 974.883)"><path d="M258.853 509.546l17.319 36.984 4.16-1.945L263.01 507.6l-4.158 1.945z" fill="#f9f790"/><path d="M263.01 507.601l17.321 36.984.835-.39-17.32-36.984-.835.39z" fill="#f9f790"/><path d="M263.845 507.21l17.32 36.984 2.2-1.031-17.32-36.983-2.2 1.03z" fill="#f9f489"/><path d="M266.045 506.18l17.32 36.983 6.676-3.13-17.319-36.98a58854.49 58854.49 0 00-6.677 3.127z" fill="#f9ee77"/><path d="M272.722 503.053l17.32 36.98 6.675-3.129-17.318-36.979-6.677 3.128z" fill="#fad947"/><path d="M279.399 499.925l17.318 36.979 2.2-1.031-17.318-36.979c-.53.25-1.29.605-2.2 1.031z" fill="#fac71b"/><path d="M281.6 498.894l17.317 36.979c.53-.249.834-.39.834-.39l-17.317-36.98-.835.391z" fill="#fbc10e"/><path d="M282.434 498.504l17.317 36.978 8.018-3.748-17.322-36.983-8.013 3.753z" fill="#fbbf09"/><path d="M290.447 494.75l17.322 36.984 5.406-2.533-17.32-36.983-5.408 2.533z" fill="#fabb09"/></g><path clip-path="url(#f)" transform="translate(-322.42 -476.683) scale(1.37934)" d="M344.406 367l-23.062 49.281 49.281 23.063 23.063-49.281z" fill="url(#g)"/><g clip-path="url(#h)" transform="matrix(1.72418 0 0 -1.72418 -322.42 974.883)"><path d="M323.38 565.054s-24.904.314-30.999-.92c-2.436-2.445-50.285-60.844-54.67-65.251-2.295-2.304-4.998-4.067-7.272-4.851-20.413-7.022-87.744-27.504-98.48-29.679" fill="none" stroke="#fff" stroke-width=".272"/></g><path d="M287.875 83.562c0 4.685-1.435 12.986-10.09 12.986-8.735 0-10.374-8.224-10.374-12.986l-.081-32.616h-12.39v32.22c0 19.372 14.588 25.491 22.766 25.491 10.797 0 22.64-8.819 22.64-25.492v-32.22h-12.493zm22.8 24.949h12.754V50.935h-12.754zm37.94-20.121l.904-3.09c.91-2.892 1.65-5.367 3.057-10.652.66-2.647 1.902-7.517 2.725-10.992 1.077 5.537 1.57 6.94 2.312 10.08.662 2.891 1.326 5.778 3.143 11.564l2.364 8.078c-4.962-2.885-10.073-4.199-14.506-4.988m13.294-37.455h-12.47l-18.835 57.576h12.065l3.155-10.625c4.388.404 13.583 1.5 21.709 10.363l.077.262h12.392z" fill="#006cb7"/></svg>